M48
; DRILL file {KiCad (6.0.8)} date Wed Apr 19 22:42:55 2023
; FORMAT={-:-/ absolute / inch / decimal}
; #@! TF.CreationDate,2023-04-19T22:42:55+02:00
; #@! TF.GenerationSoftware,Kicad,Pcbnew,(6.0.8)
; #@! TF.FileFunction,Plated,1,2,PTH
FMAT,2
INCH
; #@! TA.AperFunction,Plated,PTH,ViaDrill
T1C0.0157
; #@! TA.AperFunction,Plated,PTH,ComponentDrill
T2C0.0177
; #@! TA.AperFunction,Plated,PTH,ComponentDrill
T3C0.0197
; #@! TA.AperFunction,Plated,PTH,ComponentDrill
T4C0.0217
; #@! TA.AperFunction,Plated,PTH,ComponentDrill
T5C0.0276
; #@! TA.AperFunction,Plated,PTH,ComponentDrill
T6C0.0394
%
G90
G05
T1
X2.5492Y-3.9392
X2.7579Y-3.8687
X2.7586Y-3.8195
X2.8892Y-4.3762
X2.9093Y-4.1788
X2.9232Y-3.7697
X2.9233Y-3.9636
X3.4941Y-3.8878
X3.75Y-3.7795
X4.7244Y-4.252
X5.3543Y-3.7598
X5.561Y-3.66
T2
X2.5335Y-4.2243
X2.5335Y-4.2558
X2.5335Y-4.2873
X2.5335Y-4.3502
X2.5335Y-4.3817
X2.5335Y-4.4132
X2.561Y-4.2085
X2.561Y-4.2715
X2.561Y-4.303
X2.561Y-4.3345
X2.561Y-4.366
X2.561Y-4.429
T5
X2.44Y-3.7928
X2.44Y-3.9837
T6
X2.7504Y-4.7195
X2.7504Y-4.8195
X2.7504Y-4.9195
X2.7504Y-5.0195
X2.7504Y-5.1195
X2.7504Y-5.2195
X2.7504Y-5.3195
X2.7504Y-5.4195
X3.6506Y-4.7195
X3.6506Y-4.8195
X3.6506Y-4.9195
X3.6506Y-5.0195
X3.6506Y-5.1195
X3.6506Y-5.2195
X3.6506Y-5.3195
X3.6506Y-5.4195
X3.9874Y-5.3232
X3.9874Y-5.4232
X4.0874Y-5.3232
X4.0874Y-5.4232
X4.1874Y-5.3232
X4.1874Y-5.4232
X4.2874Y-5.3232
X4.2874Y-5.4232
X4.3874Y-5.3232
X4.3874Y-5.4232
X4.4874Y-5.3232
X4.4874Y-5.4232
X4.5874Y-5.3232
X4.5874Y-5.4232
X4.6874Y-5.3232
X4.6874Y-5.4232
X4.7874Y-5.3232
X4.7874Y-5.4232
X4.8874Y-5.3232
X4.8874Y-5.4232
X4.96Y-4.3211
X4.96Y-4.4707
X4.96Y-4.6203
X4.96Y-4.7699
X4.9874Y-5.3232
X4.9874Y-5.4232
X5.06Y-4.3211
X5.06Y-4.4707
X5.06Y-4.6203
X5.06Y-4.7699
X5.0874Y-5.3232
X5.0874Y-5.4232
X5.1874Y-5.3232
X5.1874Y-5.4232
X5.2874Y-5.3232
X5.2874Y-5.4232
X5.3874Y-5.3232
X5.3874Y-5.4232
X5.4517Y-4.7601
X5.4522Y-4.3113
X5.4522Y-4.4609
X5.4522Y-4.6105
X5.4709Y-3.9173
X5.4874Y-5.3232
X5.4874Y-5.4232
X5.5517Y-4.7601
X5.5522Y-4.3113
X5.5522Y-4.4609
X5.5522Y-4.6105
X5.5709Y-3.9173
X5.5874Y-5.3232
X5.5874Y-5.4232
X5.6874Y-5.3232
X5.6874Y-5.4232
X5.7874Y-5.3232
X5.7874Y-5.4232
X5.8874Y-5.3232
X5.8874Y-5.4232
T3
G00X2.3179Y-3.7465
M15
G01X2.3494Y-3.7465
M16
G05
G00X2.3179Y-4.03
M15
G01X2.3494Y-4.03
M16
G05
T4
G00X2.3764Y-4.142
M15
G01X2.3528Y-4.142
M16
G05
G00X2.3764Y-4.4955
M15
G01X2.3528Y-4.4955
M16
G05
G00X2.5492Y-4.1562
M15
G01X2.5256Y-4.1562
M16
G05
G00X2.5492Y-4.4814
M15
G01X2.5256Y-4.4814
M16
G05
T0
M30
