%TF.GenerationSoftware,KiCad,Pcbnew,(6.0.8)*%
%TF.CreationDate,2023-04-19T22:42:55+02:00*%
%TF.ProjectId,Group22_Power,47726f75-7032-4325-9f50-6f7765722e6b,rev?*%
%TF.SameCoordinates,Original*%
%TF.FileFunction,Other,Comment*%
%FSLAX46Y46*%
G04 Gerber Fmt 4.6, Leading zero omitted, Abs format (unit mm)*
G04 Created by KiCad (PCBNEW (6.0.8)) date 2023-04-19 22:42:55*
%MOMM*%
%LPD*%
G01*
G04 APERTURE LIST*
%ADD10C,0.150000*%
G04 APERTURE END LIST*
D10*
%TO.C,J8*%
X62940714Y-111791553D02*
X63750238Y-111791553D01*
X63845476Y-111839172D01*
X63893095Y-111886791D01*
X63940714Y-111982029D01*
X63940714Y-112124886D01*
X63893095Y-112220124D01*
X63559761Y-111791553D02*
X63607380Y-111886791D01*
X63607380Y-112077267D01*
X63559761Y-112172505D01*
X63512142Y-112220124D01*
X63416904Y-112267743D01*
X63131190Y-112267743D01*
X63035952Y-112220124D01*
X62988333Y-112172505D01*
X62940714Y-112077267D01*
X62940714Y-111886791D01*
X62988333Y-111791553D01*
X62940714Y-110886791D02*
X63750238Y-110886791D01*
X63845476Y-110934410D01*
X63893095Y-110982029D01*
X63940714Y-111077267D01*
X63940714Y-111220124D01*
X63893095Y-111315362D01*
X63559761Y-110886791D02*
X63607380Y-110982029D01*
X63607380Y-111172505D01*
X63559761Y-111267743D01*
X63512142Y-111315362D01*
X63416904Y-111362981D01*
X63131190Y-111362981D01*
X63035952Y-111315362D01*
X62988333Y-111267743D01*
X62940714Y-111172505D01*
X62940714Y-110982029D01*
X62988333Y-110886791D01*
X63559761Y-110029648D02*
X63607380Y-110124886D01*
X63607380Y-110315362D01*
X63559761Y-110410600D01*
X63464523Y-110458219D01*
X63083571Y-110458219D01*
X62988333Y-110410600D01*
X62940714Y-110315362D01*
X62940714Y-110124886D01*
X62988333Y-110029648D01*
X63083571Y-109982029D01*
X63178809Y-109982029D01*
X63274047Y-110458219D01*
X62607380Y-109648695D02*
X62607380Y-108982029D01*
X63607380Y-109410600D01*
X62607380Y-108410600D02*
X62607380Y-108315362D01*
X62655000Y-108220124D01*
X62702619Y-108172505D01*
X62797857Y-108124886D01*
X62988333Y-108077267D01*
X63226428Y-108077267D01*
X63416904Y-108124886D01*
X63512142Y-108172505D01*
X63559761Y-108220124D01*
X63607380Y-108315362D01*
X63607380Y-108410600D01*
X63559761Y-108505838D01*
X63512142Y-108553457D01*
X63416904Y-108601076D01*
X63226428Y-108648695D01*
X62988333Y-108648695D01*
X62797857Y-108601076D01*
X62702619Y-108553457D01*
X62655000Y-108505838D01*
X62607380Y-108410600D01*
X62607380Y-107220124D02*
X62607380Y-107410600D01*
X62655000Y-107505838D01*
X62702619Y-107553457D01*
X62845476Y-107648695D01*
X63035952Y-107696315D01*
X63416904Y-107696315D01*
X63512142Y-107648695D01*
X63559761Y-107601076D01*
X63607380Y-107505838D01*
X63607380Y-107315362D01*
X63559761Y-107220124D01*
X63512142Y-107172505D01*
X63416904Y-107124886D01*
X63178809Y-107124886D01*
X63083571Y-107172505D01*
X63035952Y-107220124D01*
X62988333Y-107315362D01*
X62988333Y-107505838D01*
X63035952Y-107601076D01*
X63083571Y-107648695D01*
X63178809Y-107696315D01*
%TO.C,L1*%
X110730814Y-92995732D02*
X110730814Y-93805256D01*
X110683195Y-93900494D01*
X110635576Y-93948113D01*
X110540338Y-93995732D01*
X110397481Y-93995732D01*
X110302242Y-93948113D01*
X110730814Y-93614779D02*
X110635576Y-93662398D01*
X110445100Y-93662398D01*
X110349862Y-93614779D01*
X110302242Y-93567160D01*
X110254623Y-93471922D01*
X110254623Y-93186208D01*
X110302242Y-93090970D01*
X110349862Y-93043351D01*
X110445100Y-92995732D01*
X110635576Y-92995732D01*
X110730814Y-93043351D01*
X111635576Y-92995732D02*
X111635576Y-93805256D01*
X111587957Y-93900494D01*
X111540338Y-93948113D01*
X111445100Y-93995732D01*
X111302242Y-93995732D01*
X111207004Y-93948113D01*
X111635576Y-93614779D02*
X111540338Y-93662398D01*
X111349862Y-93662398D01*
X111254623Y-93614779D01*
X111207004Y-93567160D01*
X111159385Y-93471922D01*
X111159385Y-93186208D01*
X111207004Y-93090970D01*
X111254623Y-93043351D01*
X111349862Y-92995732D01*
X111540338Y-92995732D01*
X111635576Y-93043351D01*
X112492719Y-93614779D02*
X112397481Y-93662398D01*
X112207004Y-93662398D01*
X112111766Y-93614779D01*
X112064147Y-93519541D01*
X112064147Y-93138589D01*
X112111766Y-93043351D01*
X112207004Y-92995732D01*
X112397481Y-92995732D01*
X112492719Y-93043351D01*
X112540338Y-93138589D01*
X112540338Y-93233827D01*
X112064147Y-93329065D01*
X113111766Y-93090970D02*
X113016528Y-93043351D01*
X112968909Y-92995732D01*
X112921290Y-92900494D01*
X112921290Y-92852875D01*
X112968909Y-92757637D01*
X113016528Y-92710018D01*
X113111766Y-92662398D01*
X113302242Y-92662398D01*
X113397481Y-92710018D01*
X113445100Y-92757637D01*
X113492719Y-92852875D01*
X113492719Y-92900494D01*
X113445100Y-92995732D01*
X113397481Y-93043351D01*
X113302242Y-93090970D01*
X113111766Y-93090970D01*
X113016528Y-93138589D01*
X112968909Y-93186208D01*
X112921290Y-93281446D01*
X112921290Y-93471922D01*
X112968909Y-93567160D01*
X113016528Y-93614779D01*
X113111766Y-93662398D01*
X113302242Y-93662398D01*
X113397481Y-93614779D01*
X113445100Y-93567160D01*
X113492719Y-93471922D01*
X113492719Y-93281446D01*
X113445100Y-93186208D01*
X113397481Y-93138589D01*
X113302242Y-93090970D01*
X113873671Y-92757637D02*
X113921290Y-92710018D01*
X114016528Y-92662398D01*
X114254623Y-92662398D01*
X114349862Y-92710018D01*
X114397481Y-92757637D01*
X114445100Y-92852875D01*
X114445100Y-92948113D01*
X114397481Y-93090970D01*
X113826052Y-93662398D01*
X114445100Y-93662398D01*
%TD*%
M02*
