%TF.GenerationSoftware,KiCad,Pcbnew,(6.0.8)*%
%TF.CreationDate,2023-04-19T22:42:55+02:00*%
%TF.ProjectId,Group22_Power,47726f75-7032-4325-9f50-6f7765722e6b,rev?*%
%TF.SameCoordinates,Original*%
%TF.FileFunction,Copper,L2,Bot*%
%TF.FilePolarity,Positive*%
%FSLAX46Y46*%
G04 Gerber Fmt 4.6, Leading zero omitted, Abs format (unit mm)*
G04 Created by KiCad (PCBNEW (6.0.8)) date 2023-04-19 22:42:55*
%MOMM*%
%LPD*%
G01*
G04 APERTURE LIST*
%TA.AperFunction,ComponentPad*%
%ADD10R,1.700000X1.700000*%
%TD*%
%TA.AperFunction,ComponentPad*%
%ADD11O,1.700000X1.700000*%
%TD*%
%TA.AperFunction,ComponentPad*%
%ADD12O,1.600000X1.000000*%
%TD*%
%TA.AperFunction,ComponentPad*%
%ADD13C,0.650000*%
%TD*%
%TA.AperFunction,ComponentPad*%
%ADD14O,1.900000X1.070000*%
%TD*%
%TA.AperFunction,ComponentPad*%
%ADD15C,1.300000*%
%TD*%
%TA.AperFunction,ViaPad*%
%ADD16C,0.800000*%
%TD*%
%TA.AperFunction,Conductor*%
%ADD17C,0.200000*%
%TD*%
%TA.AperFunction,Conductor*%
%ADD18C,0.300000*%
%TD*%
%TA.AperFunction,Conductor*%
%ADD19C,0.250000*%
%TD*%
G04 APERTURE END LIST*
D10*
%TO.P,J1,1,Pin_1*%
%TO.N,/Sensors/SCL*%
X141500000Y-99500000D03*
D11*
%TO.P,J1,2,Pin_2*%
%TO.N,/Sensors/SDA*%
X138960000Y-99500000D03*
%TD*%
D10*
%TO.P,J12,1,Pin_1*%
%TO.N,GND*%
X128525000Y-121156142D03*
D11*
%TO.P,J12,2,Pin_2*%
%TO.N,/Microcontrollers/+5VReg*%
X125985000Y-121156142D03*
%TD*%
D12*
%TO.P,J8,25*%
%TO.N,N/C*%
X60060000Y-114186315D03*
X64450000Y-113826315D03*
X64450000Y-105566315D03*
X60060000Y-105206315D03*
D13*
%TO.P,J8,B1,GND*%
%TO.N,GND*%
X65050000Y-112496315D03*
%TO.P,J8,B2,TX2+*%
%TO.N,unconnected-(J8-PadB2)*%
X64350000Y-112096315D03*
%TO.P,J8,B3,TX2-*%
%TO.N,unconnected-(J8-PadB3)*%
X64350000Y-111296315D03*
%TO.P,J8,B4,VBUS*%
%TO.N,/VoltageSupply/VUSB*%
X65050000Y-110896315D03*
%TO.P,J8,B5,CC2*%
%TO.N,Net-(J8-PadB5)*%
X64350000Y-110496315D03*
%TO.P,J8,B6,D+*%
%TO.N,unconnected-(J8-PadB6)*%
X65050000Y-110096315D03*
%TO.P,J8,B7,D-*%
%TO.N,unconnected-(J8-PadB7)*%
X65050000Y-109296315D03*
%TO.P,J8,B8,SBU2*%
%TO.N,unconnected-(J8-PadB8)*%
X64350000Y-108896315D03*
%TO.P,J8,B9,VBUS*%
%TO.N,/VoltageSupply/VUSB*%
X65050000Y-108496315D03*
%TO.P,J8,B10,RX1-*%
%TO.N,unconnected-(J8-PadB10)*%
X64350000Y-108096315D03*
%TO.P,J8,B11,RX1+*%
%TO.N,unconnected-(J8-PadB11)*%
X64350000Y-107296315D03*
%TO.P,J8,B12,GND*%
%TO.N,GND*%
X65050000Y-106896315D03*
%TD*%
D14*
%TO.P,J3,6*%
%TO.N,GND*%
X59275636Y-95161938D03*
D15*
X61975636Y-101186938D03*
X61975636Y-96336938D03*
D14*
X59275636Y-102361938D03*
%TD*%
D10*
%TO.P,J15,1,Pin_1*%
%TO.N,GND*%
X141025000Y-117106142D03*
D11*
%TO.P,J15,2,Pin_2*%
%TO.N,/Sensors/+3V3Reg*%
X138485000Y-117106142D03*
%TD*%
D10*
%TO.P,J14,1,Pin_1*%
%TO.N,GND*%
X141025000Y-113306142D03*
D11*
%TO.P,J14,2,Pin_2*%
%TO.N,/Sensors/+3V3Reg*%
X138485000Y-113306142D03*
%TD*%
D10*
%TO.P,J16,1,Pin_1*%
%TO.N,GND*%
X141012716Y-120906142D03*
D11*
%TO.P,J16,2,Pin_2*%
%TO.N,/Sensors/+3V3Reg*%
X138472716Y-120906142D03*
%TD*%
D10*
%TO.P,J11,1,Pin_1*%
%TO.N,GND*%
X128525000Y-117356142D03*
D11*
%TO.P,J11,2,Pin_2*%
%TO.N,/Microcontrollers/+5VReg*%
X125985000Y-117356142D03*
%TD*%
D10*
%TO.P,J13,1,Pin_1*%
%TO.N,GND*%
X141025000Y-109506142D03*
D11*
%TO.P,J13,2,Pin_2*%
%TO.N,/Sensors/+3V3Reg*%
X138485000Y-109506142D03*
%TD*%
D10*
%TO.P,J9,1,Pin_1*%
%TO.N,GND*%
X128525000Y-109756142D03*
D11*
%TO.P,J9,2,Pin_2*%
%TO.N,/Microcontrollers/+5VReg*%
X125985000Y-109756142D03*
%TD*%
D10*
%TO.P,J10,1,Pin_1*%
%TO.N,GND*%
X128525000Y-113556142D03*
D11*
%TO.P,J10,2,Pin_2*%
%TO.N,/Microcontrollers/+5VReg*%
X125985000Y-113556142D03*
%TD*%
D10*
%TO.P,J4,1,Pin_1*%
%TO.N,/Microcontrollers/+5VReg*%
X92725000Y-119875000D03*
D11*
%TO.P,J4,2,Pin_2*%
%TO.N,GND*%
X92725000Y-122415000D03*
%TO.P,J4,3,Pin_3*%
%TO.N,/Microcontrollers/GPIO12*%
X92725000Y-124955000D03*
%TO.P,J4,4,Pin_4*%
%TO.N,/Microcontrollers/GPIO13*%
X92725000Y-127495000D03*
%TO.P,J4,5,Pin_5*%
%TO.N,/Microcontrollers/GPIO15*%
X92725000Y-130035000D03*
%TO.P,J4,6,Pin_6*%
%TO.N,/Microcontrollers/GPIO14*%
X92725000Y-132575000D03*
%TO.P,J4,7,Pin_7*%
%TO.N,/Microcontrollers/GPIO2*%
X92725000Y-135115000D03*
%TO.P,J4,8,Pin_8*%
%TO.N,/Microcontrollers/GPIO4*%
X92725000Y-137655000D03*
%TD*%
D10*
%TO.P,J7,1,Pin_1*%
%TO.N,/Microcontrollers/+3V3*%
X149540000Y-135210000D03*
D11*
%TO.P,J7,2,Pin_2*%
%TO.N,/Microcontrollers/+5VReg*%
X149540000Y-137750000D03*
%TO.P,J7,3,Pin_3*%
%TO.N,/Microcontrollers/GPIO[2]{slash}SDA1*%
X147000000Y-135210000D03*
%TO.P,J7,4,Pin_4*%
%TO.N,/Microcontrollers/+5VReg*%
X147000000Y-137750000D03*
%TO.P,J7,5,Pin_5*%
%TO.N,/Microcontrollers/GPIO[3]{slash}SCL1*%
X144460000Y-135210000D03*
%TO.P,J7,6,Pin_6*%
%TO.N,GND*%
X144460000Y-137750000D03*
%TO.P,J7,7,Pin_7*%
%TO.N,/Microcontrollers/GPIO[4]{slash}GPCLK0*%
X141920000Y-135210000D03*
%TO.P,J7,8,Pin_8*%
%TO.N,/Microcontrollers/GPIO[14]{slash}TXD0*%
X141920000Y-137750000D03*
%TO.P,J7,9,Pin_9*%
%TO.N,GND*%
X139380000Y-135210000D03*
%TO.P,J7,10,Pin_10*%
%TO.N,/Microcontrollers/GPIO[15]{slash}RXD0*%
X139380000Y-137750000D03*
%TO.P,J7,11,Pin_11*%
%TO.N,/Microcontrollers/GPIO[17]*%
X136840000Y-135210000D03*
%TO.P,J7,12,Pin_12*%
%TO.N,/Microcontrollers/GPIO[18]{slash}PCM.CLK*%
X136840000Y-137750000D03*
%TO.P,J7,13,Pin_13*%
%TO.N,/Microcontrollers/GPIO[27]*%
X134300000Y-135210000D03*
%TO.P,J7,14,Pin_14*%
%TO.N,GND*%
X134300000Y-137750000D03*
%TO.P,J7,15,Pin_15*%
%TO.N,/Microcontrollers/GPIO[22]*%
X131760000Y-135210000D03*
%TO.P,J7,16,Pin_16*%
%TO.N,/Microcontrollers/GPIO[23]*%
X131760000Y-137750000D03*
%TO.P,J7,17,Pin_17*%
%TO.N,/Microcontrollers/+3V3*%
X129220000Y-135210000D03*
%TO.P,J7,18,Pin_18*%
%TO.N,/Microcontrollers/GPIO[24]*%
X129220000Y-137750000D03*
%TO.P,J7,19,Pin_19*%
%TO.N,/Microcontrollers/GPIO[10]{slash}SPI0.MOSI*%
X126680000Y-135210000D03*
%TO.P,J7,20,Pin_20*%
%TO.N,GND*%
X126680000Y-137750000D03*
%TO.P,J7,21,Pin_21*%
%TO.N,/Microcontrollers/GPIO[9]{slash}SPI0.MISO*%
X124140000Y-135210000D03*
%TO.P,J7,22,Pin_22*%
%TO.N,/Microcontrollers/GPIO[25]*%
X124140000Y-137750000D03*
%TO.P,J7,23,Pin_23*%
%TO.N,/Microcontrollers/GPIO[11]{slash}SPI0.SCLK*%
X121600000Y-135210000D03*
%TO.P,J7,24,Pin_24*%
%TO.N,/Microcontrollers/GPIO[8]{slash}SPI0.CE0*%
X121600000Y-137750000D03*
%TO.P,J7,25,Pin_25*%
%TO.N,GND*%
X119060000Y-135210000D03*
%TO.P,J7,26,Pin_26*%
%TO.N,/Microcontrollers/GPIO[7]{slash}SPI0.CE1*%
X119060000Y-137750000D03*
%TO.P,J7,27,Pin_27*%
%TO.N,/Microcontrollers/ID_SDA*%
X116520000Y-135210000D03*
%TO.P,J7,28,Pin_28*%
%TO.N,/Microcontrollers/ID_SCL*%
X116520000Y-137750000D03*
%TO.P,J7,29,Pin_29*%
%TO.N,/Microcontrollers/GPIO[5]*%
X113980000Y-135210000D03*
%TO.P,J7,30,Pin_30*%
%TO.N,GND*%
X113980000Y-137750000D03*
%TO.P,J7,31,Pin_31*%
%TO.N,/Microcontrollers/GPIO[6]*%
X111440000Y-135210000D03*
%TO.P,J7,32,Pin_32*%
%TO.N,/Microcontrollers/GPIO[12]{slash}PWM0*%
X111440000Y-137750000D03*
%TO.P,J7,33,Pin_33*%
%TO.N,/Microcontrollers/GPIO[13]{slash}PWM1*%
X108900000Y-135210000D03*
%TO.P,J7,34,Pin_34*%
%TO.N,GND*%
X108900000Y-137750000D03*
%TO.P,J7,35,Pin_35*%
%TO.N,/Microcontrollers/GPIO[19]{slash}PCM.FS*%
X106360000Y-135210000D03*
%TO.P,J7,36,Pin_36*%
%TO.N,/Microcontrollers/GPIO[16]*%
X106360000Y-137750000D03*
%TO.P,J7,37,Pin_37*%
%TO.N,/Microcontrollers/GPIO26*%
X103820000Y-135210000D03*
%TO.P,J7,38,Pin_38*%
%TO.N,/Microcontrollers/GPIO[20]{slash}PCM.DIN*%
X103820000Y-137750000D03*
%TO.P,J7,39,Pin_39*%
%TO.N,GND*%
X101280000Y-135210000D03*
%TO.P,J7,40,Pin_40*%
%TO.N,/Microcontrollers/GPIO[21]{slash}PCM.DOUT*%
X101280000Y-137750000D03*
%TD*%
D10*
%TO.P,J5,1,Pin_1*%
%TO.N,/Microcontrollers/3.3V*%
X69859465Y-119875000D03*
D11*
%TO.P,J5,2,Pin_2*%
%TO.N,/Microcontrollers/GPIO16*%
X69859465Y-122415000D03*
%TO.P,J5,3,Pin_3*%
%TO.N,/Microcontrollers/GPIO0*%
X69859465Y-124955000D03*
%TO.P,J5,4,Pin_4*%
%TO.N,GND*%
X69859465Y-127495000D03*
%TO.P,J5,5,Pin_5*%
%TO.N,/Microcontrollers/3.3V{slash}5V*%
X69859465Y-130035000D03*
%TO.P,J5,6,Pin_6*%
%TO.N,/Microcontrollers/GPIO3*%
X69859465Y-132575000D03*
%TO.P,J5,7,Pin_7*%
%TO.N,/Microcontrollers/GPIO1*%
X69859465Y-135115000D03*
%TO.P,J5,8,Pin_8*%
%TO.N,GND*%
X69859465Y-137655000D03*
%TD*%
D16*
%TO.N,GND*%
X136000000Y-95500000D03*
X95250000Y-96000000D03*
%TO.N,/Sensors/SCL*%
X141249610Y-92962962D03*
%TO.N,Net-(C8-Pad1)*%
X74250000Y-95751142D03*
X74251203Y-100675273D03*
%TO.N,/VoltageSupply/VUSB*%
X64750000Y-100056142D03*
X88750000Y-98750000D03*
%TO.N,Net-(R5-Pad2)*%
X70067569Y-97016142D03*
X73385000Y-111156142D03*
%TO.N,Net-(R6-Pad2)*%
X70050000Y-98266142D03*
X73896313Y-106142095D03*
%TO.N,/Sensors/+3V3Reg*%
X120000000Y-108000000D03*
%TD*%
D17*
%TO.N,/Sensors/SCL*%
X141249610Y-92962962D02*
X141249610Y-96499610D01*
X141525000Y-96775000D02*
X141525000Y-99500000D01*
X141249610Y-96499610D02*
X141525000Y-96775000D01*
D18*
%TO.N,Net-(C8-Pad1)*%
X74250000Y-95751142D02*
X74250000Y-100674070D01*
X74250000Y-100674070D02*
X74251203Y-100675273D01*
D19*
%TO.N,/VoltageSupply/VUSB*%
X84250000Y-94250000D02*
X70556142Y-94250000D01*
D18*
X65977535Y-110896315D02*
X66450001Y-110423849D01*
X65050000Y-108496315D02*
X66450001Y-107096314D01*
X66450001Y-101756143D02*
X64750000Y-100056142D01*
X65977535Y-110896315D02*
X65050000Y-110896315D01*
X66450001Y-107096314D02*
X66450001Y-110423849D01*
X66450001Y-106406142D02*
X66450001Y-101756143D01*
X66450001Y-107096314D02*
X66450001Y-106406142D01*
D19*
X88750000Y-98750000D02*
X84250000Y-94250000D01*
X70556142Y-94250000D02*
X64750000Y-100056142D01*
D17*
%TO.N,Net-(R5-Pad2)*%
X69350000Y-97733711D02*
X69350000Y-107121142D01*
X70067569Y-97016142D02*
X69350000Y-97733711D01*
X69350000Y-107121142D02*
X73385000Y-111156142D01*
%TO.N,Net-(R6-Pad2)*%
X73896313Y-106142095D02*
X70050000Y-102295782D01*
X70050000Y-102295782D02*
X70050000Y-98266142D01*
%TO.N,/Sensors/+3V3Reg*%
X137000000Y-108000000D02*
X120000000Y-108000000D01*
X137000000Y-108021142D02*
X137000000Y-108000000D01*
X138485000Y-109506142D02*
X137000000Y-108021142D01*
%TD*%
%TA.AperFunction,Conductor*%
%TO.N,GND*%
G36*
X154227384Y-42102640D02*
G01*
X154242218Y-42104950D01*
X154242221Y-42104950D01*
X154251091Y-42106331D01*
X154268291Y-42104082D01*
X154292225Y-42103248D01*
X154531507Y-42117719D01*
X154550077Y-42118842D01*
X154565182Y-42120676D01*
X154846129Y-42172159D01*
X154860892Y-42175797D01*
X155071850Y-42241532D01*
X155133588Y-42260770D01*
X155147814Y-42266165D01*
X155408277Y-42383388D01*
X155421750Y-42390459D01*
X155666186Y-42538224D01*
X155678708Y-42546868D01*
X155903543Y-42723014D01*
X155914932Y-42733104D01*
X156116896Y-42935068D01*
X156126986Y-42946457D01*
X156303132Y-43171292D01*
X156311776Y-43183814D01*
X156459541Y-43428250D01*
X156466612Y-43441723D01*
X156583835Y-43702186D01*
X156589230Y-43716412D01*
X156592930Y-43728286D01*
X156674203Y-43989108D01*
X156677841Y-44003871D01*
X156695864Y-44102224D01*
X156729324Y-44284818D01*
X156731158Y-44299922D01*
X156746315Y-44550539D01*
X156745053Y-44577326D01*
X156745051Y-44577483D01*
X156743669Y-44586357D01*
X156744833Y-44595260D01*
X156744833Y-44595263D01*
X156747793Y-44617905D01*
X156748856Y-44634248D01*
X156744687Y-97888863D01*
X156741505Y-138542137D01*
X156741504Y-138550619D01*
X156740004Y-138569992D01*
X156736309Y-138593724D01*
X156738558Y-138610919D01*
X156739391Y-138634863D01*
X156723794Y-138892710D01*
X156721960Y-138907814D01*
X156715272Y-138944308D01*
X156684588Y-139111753D01*
X156670477Y-139188754D01*
X156666836Y-139203527D01*
X156581859Y-139476227D01*
X156576466Y-139490445D01*
X156459243Y-139750906D01*
X156452172Y-139764379D01*
X156304405Y-140008813D01*
X156295762Y-140021334D01*
X156119615Y-140246171D01*
X156109525Y-140257560D01*
X155907560Y-140459525D01*
X155896171Y-140469615D01*
X155671334Y-140645762D01*
X155658813Y-140654405D01*
X155414379Y-140802172D01*
X155400908Y-140809242D01*
X155140445Y-140926466D01*
X155126231Y-140931858D01*
X154853527Y-141016836D01*
X154838760Y-141020475D01*
X154629786Y-141058771D01*
X154557814Y-141071960D01*
X154542710Y-141073794D01*
X154292096Y-141088953D01*
X154265284Y-141087692D01*
X154265148Y-141087690D01*
X154256276Y-141086309D01*
X154247374Y-141087473D01*
X154247372Y-141087473D01*
X154232707Y-141089391D01*
X154224714Y-141090436D01*
X154208379Y-141091500D01*
X60299367Y-141091500D01*
X60279982Y-141090000D01*
X60265149Y-141087690D01*
X60265145Y-141087690D01*
X60256276Y-141086309D01*
X60239077Y-141088558D01*
X60215137Y-141089391D01*
X59957290Y-141073794D01*
X59942186Y-141071960D01*
X59870214Y-141058771D01*
X59661240Y-141020475D01*
X59646473Y-141016836D01*
X59373769Y-140931858D01*
X59359555Y-140926466D01*
X59099092Y-140809242D01*
X59085621Y-140802172D01*
X58841187Y-140654405D01*
X58828666Y-140645762D01*
X58603829Y-140469615D01*
X58592440Y-140459525D01*
X58390475Y-140257560D01*
X58380385Y-140246171D01*
X58204238Y-140021334D01*
X58195595Y-140008813D01*
X58047828Y-139764379D01*
X58040757Y-139750906D01*
X57923534Y-139490445D01*
X57918141Y-139476227D01*
X57833164Y-139203527D01*
X57829523Y-139188754D01*
X57815413Y-139111753D01*
X57784728Y-138944308D01*
X57778040Y-138907814D01*
X57776206Y-138892710D01*
X57761269Y-138645768D01*
X57762520Y-138622216D01*
X57762334Y-138622199D01*
X57762769Y-138617350D01*
X57763576Y-138612552D01*
X57763729Y-138600000D01*
X57759773Y-138572376D01*
X57758500Y-138554514D01*
X57758500Y-137922966D01*
X68527722Y-137922966D01*
X68558030Y-138057446D01*
X68561110Y-138067275D01*
X68641235Y-138264603D01*
X68645878Y-138273794D01*
X68757159Y-138455388D01*
X68763242Y-138463699D01*
X68902678Y-138624667D01*
X68910045Y-138631883D01*
X69073899Y-138767916D01*
X69082346Y-138773831D01*
X69266221Y-138881279D01*
X69275507Y-138885729D01*
X69474466Y-138961703D01*
X69484364Y-138964579D01*
X69587715Y-138985606D01*
X69601764Y-138984410D01*
X69605465Y-138974065D01*
X69605465Y-138973517D01*
X70113465Y-138973517D01*
X70117529Y-138987359D01*
X70130943Y-138989393D01*
X70137649Y-138988534D01*
X70147727Y-138986392D01*
X70351720Y-138925191D01*
X70361307Y-138921433D01*
X70552560Y-138827739D01*
X70561410Y-138822464D01*
X70734793Y-138698792D01*
X70742665Y-138692139D01*
X70893517Y-138541812D01*
X70900195Y-138533965D01*
X71024468Y-138361020D01*
X71029778Y-138352183D01*
X71124135Y-138161267D01*
X71127934Y-138151672D01*
X71189842Y-137947910D01*
X71192020Y-137937837D01*
X71193451Y-137926962D01*
X71191240Y-137912778D01*
X71178082Y-137909000D01*
X70131580Y-137909000D01*
X70116341Y-137913475D01*
X70115136Y-137914865D01*
X70113465Y-137922548D01*
X70113465Y-138973517D01*
X69605465Y-138973517D01*
X69605465Y-137927115D01*
X69600990Y-137911876D01*
X69599600Y-137910671D01*
X69591917Y-137909000D01*
X68542690Y-137909000D01*
X68529159Y-137912973D01*
X68527722Y-137922966D01*
X57758500Y-137922966D01*
X57758500Y-137621695D01*
X91362251Y-137621695D01*
X91362548Y-137626848D01*
X91362548Y-137626851D01*
X91368011Y-137721590D01*
X91375110Y-137844715D01*
X91376247Y-137849761D01*
X91376248Y-137849767D01*
X91390449Y-137912778D01*
X91424222Y-138062639D01*
X91464346Y-138161453D01*
X91499025Y-138246857D01*
X91508266Y-138269616D01*
X91510965Y-138274020D01*
X91620661Y-138453028D01*
X91624987Y-138460088D01*
X91628367Y-138463990D01*
X91740747Y-138593724D01*
X91771250Y-138628938D01*
X91943126Y-138771632D01*
X92136000Y-138884338D01*
X92344692Y-138964030D01*
X92349760Y-138965061D01*
X92349763Y-138965062D01*
X92428991Y-138981181D01*
X92563597Y-139008567D01*
X92568772Y-139008757D01*
X92568774Y-139008757D01*
X92781673Y-139016564D01*
X92781677Y-139016564D01*
X92786837Y-139016753D01*
X92791957Y-139016097D01*
X92791959Y-139016097D01*
X93003288Y-138989025D01*
X93003289Y-138989025D01*
X93008416Y-138988368D01*
X93013366Y-138986883D01*
X93217429Y-138925661D01*
X93217434Y-138925659D01*
X93222384Y-138924174D01*
X93422994Y-138825896D01*
X93604860Y-138696173D01*
X93655442Y-138645768D01*
X93701370Y-138600000D01*
X93763096Y-138538489D01*
X93822594Y-138455689D01*
X93890435Y-138361277D01*
X93893453Y-138357077D01*
X93945479Y-138251811D01*
X93990136Y-138161453D01*
X93990137Y-138161451D01*
X93992430Y-138156811D01*
X94057370Y-137943069D01*
X94086529Y-137721590D01*
X94086649Y-137716695D01*
X99917251Y-137716695D01*
X99917548Y-137721848D01*
X99917548Y-137721851D01*
X99929812Y-137934547D01*
X99930110Y-137939715D01*
X99931247Y-137944761D01*
X99931248Y-137944767D01*
X99931982Y-137948023D01*
X99979222Y-138157639D01*
X100017461Y-138251811D01*
X100058218Y-138352183D01*
X100063266Y-138364616D01*
X100114019Y-138447438D01*
X100177291Y-138550688D01*
X100179987Y-138555088D01*
X100326250Y-138723938D01*
X100498126Y-138866632D01*
X100691000Y-138979338D01*
X100695825Y-138981180D01*
X100695826Y-138981181D01*
X100717331Y-138989393D01*
X100899692Y-139059030D01*
X100904760Y-139060061D01*
X100904763Y-139060062D01*
X100999862Y-139079410D01*
X101118597Y-139103567D01*
X101123772Y-139103757D01*
X101123774Y-139103757D01*
X101336673Y-139111564D01*
X101336677Y-139111564D01*
X101341837Y-139111753D01*
X101346957Y-139111097D01*
X101346959Y-139111097D01*
X101558288Y-139084025D01*
X101558289Y-139084025D01*
X101563416Y-139083368D01*
X101568366Y-139081883D01*
X101772429Y-139020661D01*
X101772434Y-139020659D01*
X101777384Y-139019174D01*
X101977994Y-138920896D01*
X102159860Y-138791173D01*
X102179470Y-138771632D01*
X102314435Y-138637137D01*
X102318096Y-138633489D01*
X102326197Y-138622216D01*
X102448453Y-138452077D01*
X102449776Y-138453028D01*
X102496645Y-138409857D01*
X102566580Y-138397625D01*
X102632026Y-138425144D01*
X102659875Y-138456994D01*
X102719987Y-138555088D01*
X102866250Y-138723938D01*
X103038126Y-138866632D01*
X103231000Y-138979338D01*
X103235825Y-138981180D01*
X103235826Y-138981181D01*
X103257331Y-138989393D01*
X103439692Y-139059030D01*
X103444760Y-139060061D01*
X103444763Y-139060062D01*
X103539862Y-139079410D01*
X103658597Y-139103567D01*
X103663772Y-139103757D01*
X103663774Y-139103757D01*
X103876673Y-139111564D01*
X103876677Y-139111564D01*
X103881837Y-139111753D01*
X103886957Y-139111097D01*
X103886959Y-139111097D01*
X104098288Y-139084025D01*
X104098289Y-139084025D01*
X104103416Y-139083368D01*
X104108366Y-139081883D01*
X104312429Y-139020661D01*
X104312434Y-139020659D01*
X104317384Y-139019174D01*
X104517994Y-138920896D01*
X104699860Y-138791173D01*
X104719470Y-138771632D01*
X104854435Y-138637137D01*
X104858096Y-138633489D01*
X104866197Y-138622216D01*
X104988453Y-138452077D01*
X104989776Y-138453028D01*
X105036645Y-138409857D01*
X105106580Y-138397625D01*
X105172026Y-138425144D01*
X105199875Y-138456994D01*
X105259987Y-138555088D01*
X105406250Y-138723938D01*
X105578126Y-138866632D01*
X105771000Y-138979338D01*
X105775825Y-138981180D01*
X105775826Y-138981181D01*
X105797331Y-138989393D01*
X105979692Y-139059030D01*
X105984760Y-139060061D01*
X105984763Y-139060062D01*
X106079862Y-139079410D01*
X106198597Y-139103567D01*
X106203772Y-139103757D01*
X106203774Y-139103757D01*
X106416673Y-139111564D01*
X106416677Y-139111564D01*
X106421837Y-139111753D01*
X106426957Y-139111097D01*
X106426959Y-139111097D01*
X106638288Y-139084025D01*
X106638289Y-139084025D01*
X106643416Y-139083368D01*
X106648366Y-139081883D01*
X106852429Y-139020661D01*
X106852434Y-139020659D01*
X106857384Y-139019174D01*
X107057994Y-138920896D01*
X107239860Y-138791173D01*
X107259470Y-138771632D01*
X107394435Y-138637137D01*
X107398096Y-138633489D01*
X107406197Y-138622216D01*
X107528453Y-138452077D01*
X107529640Y-138452930D01*
X107576960Y-138409362D01*
X107646897Y-138397145D01*
X107712338Y-138424678D01*
X107740166Y-138456511D01*
X107797694Y-138550388D01*
X107803777Y-138558699D01*
X107943213Y-138719667D01*
X107950580Y-138726883D01*
X108114434Y-138862916D01*
X108122881Y-138868831D01*
X108306756Y-138976279D01*
X108316042Y-138980729D01*
X108515001Y-139056703D01*
X108524899Y-139059579D01*
X108628250Y-139080606D01*
X108642299Y-139079410D01*
X108646000Y-139069065D01*
X108646000Y-137622000D01*
X108666002Y-137553879D01*
X108719658Y-137507386D01*
X108772000Y-137496000D01*
X109028000Y-137496000D01*
X109096121Y-137516002D01*
X109142614Y-137569658D01*
X109154000Y-137622000D01*
X109154000Y-139068517D01*
X109158064Y-139082359D01*
X109171478Y-139084393D01*
X109178184Y-139083534D01*
X109188262Y-139081392D01*
X109392255Y-139020191D01*
X109401842Y-139016433D01*
X109593095Y-138922739D01*
X109601945Y-138917464D01*
X109775328Y-138793792D01*
X109783200Y-138787139D01*
X109934052Y-138636812D01*
X109940730Y-138628965D01*
X110068022Y-138451819D01*
X110069279Y-138452722D01*
X110116373Y-138409362D01*
X110186311Y-138397145D01*
X110251751Y-138424678D01*
X110279579Y-138456511D01*
X110339987Y-138555088D01*
X110486250Y-138723938D01*
X110658126Y-138866632D01*
X110851000Y-138979338D01*
X110855825Y-138981180D01*
X110855826Y-138981181D01*
X110877331Y-138989393D01*
X111059692Y-139059030D01*
X111064760Y-139060061D01*
X111064763Y-139060062D01*
X111159862Y-139079410D01*
X111278597Y-139103567D01*
X111283772Y-139103757D01*
X111283774Y-139103757D01*
X111496673Y-139111564D01*
X111496677Y-139111564D01*
X111501837Y-139111753D01*
X111506957Y-139111097D01*
X111506959Y-139111097D01*
X111718288Y-139084025D01*
X111718289Y-139084025D01*
X111723416Y-139083368D01*
X111728366Y-139081883D01*
X111932429Y-139020661D01*
X111932434Y-139020659D01*
X111937384Y-139019174D01*
X112137994Y-138920896D01*
X112319860Y-138791173D01*
X112339470Y-138771632D01*
X112474435Y-138637137D01*
X112478096Y-138633489D01*
X112486197Y-138622216D01*
X112608453Y-138452077D01*
X112609640Y-138452930D01*
X112656960Y-138409362D01*
X112726897Y-138397145D01*
X112792338Y-138424678D01*
X112820166Y-138456511D01*
X112877694Y-138550388D01*
X112883777Y-138558699D01*
X113023213Y-138719667D01*
X113030580Y-138726883D01*
X113194434Y-138862916D01*
X113202881Y-138868831D01*
X113386756Y-138976279D01*
X113396042Y-138980729D01*
X113595001Y-139056703D01*
X113604899Y-139059579D01*
X113708250Y-139080606D01*
X113722299Y-139079410D01*
X113726000Y-139069065D01*
X113726000Y-137622000D01*
X113746002Y-137553879D01*
X113799658Y-137507386D01*
X113852000Y-137496000D01*
X114108000Y-137496000D01*
X114176121Y-137516002D01*
X114222614Y-137569658D01*
X114234000Y-137622000D01*
X114234000Y-139068517D01*
X114238064Y-139082359D01*
X114251478Y-139084393D01*
X114258184Y-139083534D01*
X114268262Y-139081392D01*
X114472255Y-139020191D01*
X114481842Y-139016433D01*
X114673095Y-138922739D01*
X114681945Y-138917464D01*
X114855328Y-138793792D01*
X114863200Y-138787139D01*
X115014052Y-138636812D01*
X115020730Y-138628965D01*
X115148022Y-138451819D01*
X115149279Y-138452722D01*
X115196373Y-138409362D01*
X115266311Y-138397145D01*
X115331751Y-138424678D01*
X115359579Y-138456511D01*
X115419987Y-138555088D01*
X115566250Y-138723938D01*
X115738126Y-138866632D01*
X115931000Y-138979338D01*
X115935825Y-138981180D01*
X115935826Y-138981181D01*
X115957331Y-138989393D01*
X116139692Y-139059030D01*
X116144760Y-139060061D01*
X116144763Y-139060062D01*
X116239862Y-139079410D01*
X116358597Y-139103567D01*
X116363772Y-139103757D01*
X116363774Y-139103757D01*
X116576673Y-139111564D01*
X116576677Y-139111564D01*
X116581837Y-139111753D01*
X116586957Y-139111097D01*
X116586959Y-139111097D01*
X116798288Y-139084025D01*
X116798289Y-139084025D01*
X116803416Y-139083368D01*
X116808366Y-139081883D01*
X117012429Y-139020661D01*
X117012434Y-139020659D01*
X117017384Y-139019174D01*
X117217994Y-138920896D01*
X117399860Y-138791173D01*
X117419470Y-138771632D01*
X117554435Y-138637137D01*
X117558096Y-138633489D01*
X117566197Y-138622216D01*
X117688453Y-138452077D01*
X117689776Y-138453028D01*
X117736645Y-138409857D01*
X117806580Y-138397625D01*
X117872026Y-138425144D01*
X117899875Y-138456994D01*
X117959987Y-138555088D01*
X118106250Y-138723938D01*
X118278126Y-138866632D01*
X118471000Y-138979338D01*
X118475825Y-138981180D01*
X118475826Y-138981181D01*
X118497331Y-138989393D01*
X118679692Y-139059030D01*
X118684760Y-139060061D01*
X118684763Y-139060062D01*
X118779862Y-139079410D01*
X118898597Y-139103567D01*
X118903772Y-139103757D01*
X118903774Y-139103757D01*
X119116673Y-139111564D01*
X119116677Y-139111564D01*
X119121837Y-139111753D01*
X119126957Y-139111097D01*
X119126959Y-139111097D01*
X119338288Y-139084025D01*
X119338289Y-139084025D01*
X119343416Y-139083368D01*
X119348366Y-139081883D01*
X119552429Y-139020661D01*
X119552434Y-139020659D01*
X119557384Y-139019174D01*
X119757994Y-138920896D01*
X119939860Y-138791173D01*
X119959470Y-138771632D01*
X120094435Y-138637137D01*
X120098096Y-138633489D01*
X120106197Y-138622216D01*
X120228453Y-138452077D01*
X120229776Y-138453028D01*
X120276645Y-138409857D01*
X120346580Y-138397625D01*
X120412026Y-138425144D01*
X120439875Y-138456994D01*
X120499987Y-138555088D01*
X120646250Y-138723938D01*
X120818126Y-138866632D01*
X121011000Y-138979338D01*
X121015825Y-138981180D01*
X121015826Y-138981181D01*
X121037331Y-138989393D01*
X121219692Y-139059030D01*
X121224760Y-139060061D01*
X121224763Y-139060062D01*
X121319862Y-139079410D01*
X121438597Y-139103567D01*
X121443772Y-139103757D01*
X121443774Y-139103757D01*
X121656673Y-139111564D01*
X121656677Y-139111564D01*
X121661837Y-139111753D01*
X121666957Y-139111097D01*
X121666959Y-139111097D01*
X121878288Y-139084025D01*
X121878289Y-139084025D01*
X121883416Y-139083368D01*
X121888366Y-139081883D01*
X122092429Y-139020661D01*
X122092434Y-139020659D01*
X122097384Y-139019174D01*
X122297994Y-138920896D01*
X122479860Y-138791173D01*
X122499470Y-138771632D01*
X122634435Y-138637137D01*
X122638096Y-138633489D01*
X122646197Y-138622216D01*
X122768453Y-138452077D01*
X122769776Y-138453028D01*
X122816645Y-138409857D01*
X122886580Y-138397625D01*
X122952026Y-138425144D01*
X122979875Y-138456994D01*
X123039987Y-138555088D01*
X123186250Y-138723938D01*
X123358126Y-138866632D01*
X123551000Y-138979338D01*
X123555825Y-138981180D01*
X123555826Y-138981181D01*
X123577331Y-138989393D01*
X123759692Y-139059030D01*
X123764760Y-139060061D01*
X123764763Y-139060062D01*
X123859862Y-139079410D01*
X123978597Y-139103567D01*
X123983772Y-139103757D01*
X123983774Y-139103757D01*
X124196673Y-139111564D01*
X124196677Y-139111564D01*
X124201837Y-139111753D01*
X124206957Y-139111097D01*
X124206959Y-139111097D01*
X124418288Y-139084025D01*
X124418289Y-139084025D01*
X124423416Y-139083368D01*
X124428366Y-139081883D01*
X124632429Y-139020661D01*
X124632434Y-139020659D01*
X124637384Y-139019174D01*
X124837994Y-138920896D01*
X125019860Y-138791173D01*
X125039470Y-138771632D01*
X125174435Y-138637137D01*
X125178096Y-138633489D01*
X125186197Y-138622216D01*
X125308453Y-138452077D01*
X125309640Y-138452930D01*
X125356960Y-138409362D01*
X125426897Y-138397145D01*
X125492338Y-138424678D01*
X125520166Y-138456511D01*
X125577694Y-138550388D01*
X125583777Y-138558699D01*
X125723213Y-138719667D01*
X125730580Y-138726883D01*
X125894434Y-138862916D01*
X125902881Y-138868831D01*
X126086756Y-138976279D01*
X126096042Y-138980729D01*
X126295001Y-139056703D01*
X126304899Y-139059579D01*
X126408250Y-139080606D01*
X126422299Y-139079410D01*
X126426000Y-139069065D01*
X126426000Y-137622000D01*
X126446002Y-137553879D01*
X126499658Y-137507386D01*
X126552000Y-137496000D01*
X126808000Y-137496000D01*
X126876121Y-137516002D01*
X126922614Y-137569658D01*
X126934000Y-137622000D01*
X126934000Y-139068517D01*
X126938064Y-139082359D01*
X126951478Y-139084393D01*
X126958184Y-139083534D01*
X126968262Y-139081392D01*
X127172255Y-139020191D01*
X127181842Y-139016433D01*
X127373095Y-138922739D01*
X127381945Y-138917464D01*
X127555328Y-138793792D01*
X127563200Y-138787139D01*
X127714052Y-138636812D01*
X127720730Y-138628965D01*
X127848022Y-138451819D01*
X127849279Y-138452722D01*
X127896373Y-138409362D01*
X127966311Y-138397145D01*
X128031751Y-138424678D01*
X128059579Y-138456511D01*
X128119987Y-138555088D01*
X128266250Y-138723938D01*
X128438126Y-138866632D01*
X128631000Y-138979338D01*
X128635825Y-138981180D01*
X128635826Y-138981181D01*
X128657331Y-138989393D01*
X128839692Y-139059030D01*
X128844760Y-139060061D01*
X128844763Y-139060062D01*
X128939862Y-139079410D01*
X129058597Y-139103567D01*
X129063772Y-139103757D01*
X129063774Y-139103757D01*
X129276673Y-139111564D01*
X129276677Y-139111564D01*
X129281837Y-139111753D01*
X129286957Y-139111097D01*
X129286959Y-139111097D01*
X129498288Y-139084025D01*
X129498289Y-139084025D01*
X129503416Y-139083368D01*
X129508366Y-139081883D01*
X129712429Y-139020661D01*
X129712434Y-139020659D01*
X129717384Y-139019174D01*
X129917994Y-138920896D01*
X130099860Y-138791173D01*
X130119470Y-138771632D01*
X130254435Y-138637137D01*
X130258096Y-138633489D01*
X130266197Y-138622216D01*
X130388453Y-138452077D01*
X130389776Y-138453028D01*
X130436645Y-138409857D01*
X130506580Y-138397625D01*
X130572026Y-138425144D01*
X130599875Y-138456994D01*
X130659987Y-138555088D01*
X130806250Y-138723938D01*
X130978126Y-138866632D01*
X131171000Y-138979338D01*
X131175825Y-138981180D01*
X131175826Y-138981181D01*
X131197331Y-138989393D01*
X131379692Y-139059030D01*
X131384760Y-139060061D01*
X131384763Y-139060062D01*
X131479862Y-139079410D01*
X131598597Y-139103567D01*
X131603772Y-139103757D01*
X131603774Y-139103757D01*
X131816673Y-139111564D01*
X131816677Y-139111564D01*
X131821837Y-139111753D01*
X131826957Y-139111097D01*
X131826959Y-139111097D01*
X132038288Y-139084025D01*
X132038289Y-139084025D01*
X132043416Y-139083368D01*
X132048366Y-139081883D01*
X132252429Y-139020661D01*
X132252434Y-139020659D01*
X132257384Y-139019174D01*
X132457994Y-138920896D01*
X132639860Y-138791173D01*
X132659470Y-138771632D01*
X132794435Y-138637137D01*
X132798096Y-138633489D01*
X132806197Y-138622216D01*
X132928453Y-138452077D01*
X132929640Y-138452930D01*
X132976960Y-138409362D01*
X133046897Y-138397145D01*
X133112338Y-138424678D01*
X133140166Y-138456511D01*
X133197694Y-138550388D01*
X133203777Y-138558699D01*
X133343213Y-138719667D01*
X133350580Y-138726883D01*
X133514434Y-138862916D01*
X133522881Y-138868831D01*
X133706756Y-138976279D01*
X133716042Y-138980729D01*
X133915001Y-139056703D01*
X133924899Y-139059579D01*
X134028250Y-139080606D01*
X134042299Y-139079410D01*
X134046000Y-139069065D01*
X134046000Y-137622000D01*
X134066002Y-137553879D01*
X134119658Y-137507386D01*
X134172000Y-137496000D01*
X134428000Y-137496000D01*
X134496121Y-137516002D01*
X134542614Y-137569658D01*
X134554000Y-137622000D01*
X134554000Y-139068517D01*
X134558064Y-139082359D01*
X134571478Y-139084393D01*
X134578184Y-139083534D01*
X134588262Y-139081392D01*
X134792255Y-139020191D01*
X134801842Y-139016433D01*
X134993095Y-138922739D01*
X135001945Y-138917464D01*
X135175328Y-138793792D01*
X135183200Y-138787139D01*
X135334052Y-138636812D01*
X135340730Y-138628965D01*
X135468022Y-138451819D01*
X135469279Y-138452722D01*
X135516373Y-138409362D01*
X135586311Y-138397145D01*
X135651751Y-138424678D01*
X135679579Y-138456511D01*
X135739987Y-138555088D01*
X135886250Y-138723938D01*
X136058126Y-138866632D01*
X136251000Y-138979338D01*
X136255825Y-138981180D01*
X136255826Y-138981181D01*
X136277331Y-138989393D01*
X136459692Y-139059030D01*
X136464760Y-139060061D01*
X136464763Y-139060062D01*
X136559862Y-139079410D01*
X136678597Y-139103567D01*
X136683772Y-139103757D01*
X136683774Y-139103757D01*
X136896673Y-139111564D01*
X136896677Y-139111564D01*
X136901837Y-139111753D01*
X136906957Y-139111097D01*
X136906959Y-139111097D01*
X137118288Y-139084025D01*
X137118289Y-139084025D01*
X137123416Y-139083368D01*
X137128366Y-139081883D01*
X137332429Y-139020661D01*
X137332434Y-139020659D01*
X137337384Y-139019174D01*
X137537994Y-138920896D01*
X137719860Y-138791173D01*
X137739470Y-138771632D01*
X137874435Y-138637137D01*
X137878096Y-138633489D01*
X137886197Y-138622216D01*
X138008453Y-138452077D01*
X138009776Y-138453028D01*
X138056645Y-138409857D01*
X138126580Y-138397625D01*
X138192026Y-138425144D01*
X138219875Y-138456994D01*
X138279987Y-138555088D01*
X138426250Y-138723938D01*
X138598126Y-138866632D01*
X138791000Y-138979338D01*
X138795825Y-138981180D01*
X138795826Y-138981181D01*
X138817331Y-138989393D01*
X138999692Y-139059030D01*
X139004760Y-139060061D01*
X139004763Y-139060062D01*
X139099862Y-139079410D01*
X139218597Y-139103567D01*
X139223772Y-139103757D01*
X139223774Y-139103757D01*
X139436673Y-139111564D01*
X139436677Y-139111564D01*
X139441837Y-139111753D01*
X139446957Y-139111097D01*
X139446959Y-139111097D01*
X139658288Y-139084025D01*
X139658289Y-139084025D01*
X139663416Y-139083368D01*
X139668366Y-139081883D01*
X139872429Y-139020661D01*
X139872434Y-139020659D01*
X139877384Y-139019174D01*
X140077994Y-138920896D01*
X140259860Y-138791173D01*
X140279470Y-138771632D01*
X140414435Y-138637137D01*
X140418096Y-138633489D01*
X140426197Y-138622216D01*
X140548453Y-138452077D01*
X140549776Y-138453028D01*
X140596645Y-138409857D01*
X140666580Y-138397625D01*
X140732026Y-138425144D01*
X140759875Y-138456994D01*
X140819987Y-138555088D01*
X140966250Y-138723938D01*
X141138126Y-138866632D01*
X141331000Y-138979338D01*
X141335825Y-138981180D01*
X141335826Y-138981181D01*
X141357331Y-138989393D01*
X141539692Y-139059030D01*
X141544760Y-139060061D01*
X141544763Y-139060062D01*
X141639862Y-139079410D01*
X141758597Y-139103567D01*
X141763772Y-139103757D01*
X141763774Y-139103757D01*
X141976673Y-139111564D01*
X141976677Y-139111564D01*
X141981837Y-139111753D01*
X141986957Y-139111097D01*
X141986959Y-139111097D01*
X142198288Y-139084025D01*
X142198289Y-139084025D01*
X142203416Y-139083368D01*
X142208366Y-139081883D01*
X142412429Y-139020661D01*
X142412434Y-139020659D01*
X142417384Y-139019174D01*
X142617994Y-138920896D01*
X142799860Y-138791173D01*
X142819470Y-138771632D01*
X142954435Y-138637137D01*
X142958096Y-138633489D01*
X142966197Y-138622216D01*
X143088453Y-138452077D01*
X143089640Y-138452930D01*
X143136960Y-138409362D01*
X143206897Y-138397145D01*
X143272338Y-138424678D01*
X143300166Y-138456511D01*
X143357694Y-138550388D01*
X143363777Y-138558699D01*
X143503213Y-138719667D01*
X143510580Y-138726883D01*
X143674434Y-138862916D01*
X143682881Y-138868831D01*
X143866756Y-138976279D01*
X143876042Y-138980729D01*
X144075001Y-139056703D01*
X144084899Y-139059579D01*
X144188250Y-139080606D01*
X144202299Y-139079410D01*
X144206000Y-139069065D01*
X144206000Y-137622000D01*
X144226002Y-137553879D01*
X144279658Y-137507386D01*
X144332000Y-137496000D01*
X144588000Y-137496000D01*
X144656121Y-137516002D01*
X144702614Y-137569658D01*
X144714000Y-137622000D01*
X144714000Y-139068517D01*
X144718064Y-139082359D01*
X144731478Y-139084393D01*
X144738184Y-139083534D01*
X144748262Y-139081392D01*
X144952255Y-139020191D01*
X144961842Y-139016433D01*
X145153095Y-138922739D01*
X145161945Y-138917464D01*
X145335328Y-138793792D01*
X145343200Y-138787139D01*
X145494052Y-138636812D01*
X145500730Y-138628965D01*
X145628022Y-138451819D01*
X145629279Y-138452722D01*
X145676373Y-138409362D01*
X145746311Y-138397145D01*
X145811751Y-138424678D01*
X145839579Y-138456511D01*
X145899987Y-138555088D01*
X146046250Y-138723938D01*
X146218126Y-138866632D01*
X146411000Y-138979338D01*
X146415825Y-138981180D01*
X146415826Y-138981181D01*
X146437331Y-138989393D01*
X146619692Y-139059030D01*
X146624760Y-139060061D01*
X146624763Y-139060062D01*
X146719862Y-139079410D01*
X146838597Y-139103567D01*
X146843772Y-139103757D01*
X146843774Y-139103757D01*
X147056673Y-139111564D01*
X147056677Y-139111564D01*
X147061837Y-139111753D01*
X147066957Y-139111097D01*
X147066959Y-139111097D01*
X147278288Y-139084025D01*
X147278289Y-139084025D01*
X147283416Y-139083368D01*
X147288366Y-139081883D01*
X147492429Y-139020661D01*
X147492434Y-139020659D01*
X147497384Y-139019174D01*
X147697994Y-138920896D01*
X147879860Y-138791173D01*
X147899470Y-138771632D01*
X148034435Y-138637137D01*
X148038096Y-138633489D01*
X148046197Y-138622216D01*
X148168453Y-138452077D01*
X148169776Y-138453028D01*
X148216645Y-138409857D01*
X148286580Y-138397625D01*
X148352026Y-138425144D01*
X148379875Y-138456994D01*
X148439987Y-138555088D01*
X148586250Y-138723938D01*
X148758126Y-138866632D01*
X148951000Y-138979338D01*
X148955825Y-138981180D01*
X148955826Y-138981181D01*
X148977331Y-138989393D01*
X149159692Y-139059030D01*
X149164760Y-139060061D01*
X149164763Y-139060062D01*
X149259862Y-139079410D01*
X149378597Y-139103567D01*
X149383772Y-139103757D01*
X149383774Y-139103757D01*
X149596673Y-139111564D01*
X149596677Y-139111564D01*
X149601837Y-139111753D01*
X149606957Y-139111097D01*
X149606959Y-139111097D01*
X149818288Y-139084025D01*
X149818289Y-139084025D01*
X149823416Y-139083368D01*
X149828366Y-139081883D01*
X150032429Y-139020661D01*
X150032434Y-139020659D01*
X150037384Y-139019174D01*
X150237994Y-138920896D01*
X150419860Y-138791173D01*
X150439470Y-138771632D01*
X150574435Y-138637137D01*
X150578096Y-138633489D01*
X150586197Y-138622216D01*
X150705435Y-138456277D01*
X150708453Y-138452077D01*
X150721995Y-138424678D01*
X150805136Y-138256453D01*
X150805137Y-138256451D01*
X150807430Y-138251811D01*
X150872370Y-138038069D01*
X150901529Y-137816590D01*
X150903156Y-137750000D01*
X150884852Y-137527361D01*
X150830431Y-137310702D01*
X150741354Y-137105840D01*
X150661031Y-136981680D01*
X150622822Y-136922617D01*
X150622820Y-136922614D01*
X150620014Y-136918277D01*
X150616532Y-136914450D01*
X150472798Y-136756488D01*
X150441746Y-136692642D01*
X150450141Y-136622143D01*
X150495317Y-136567375D01*
X150521761Y-136553706D01*
X150628297Y-136513767D01*
X150636705Y-136510615D01*
X150753261Y-136423261D01*
X150840615Y-136306705D01*
X150891745Y-136170316D01*
X150898500Y-136108134D01*
X150898500Y-134311866D01*
X150891745Y-134249684D01*
X150840615Y-134113295D01*
X150753261Y-133996739D01*
X150636705Y-133909385D01*
X150500316Y-133858255D01*
X150438134Y-133851500D01*
X148641866Y-133851500D01*
X148579684Y-133858255D01*
X148443295Y-133909385D01*
X148326739Y-133996739D01*
X148239385Y-134113295D01*
X148236233Y-134121703D01*
X148194919Y-134231907D01*
X148152277Y-134288671D01*
X148085716Y-134313371D01*
X148016367Y-134298163D01*
X147983743Y-134272476D01*
X147933151Y-134216875D01*
X147933142Y-134216866D01*
X147929670Y-134213051D01*
X147925619Y-134209852D01*
X147925615Y-134209848D01*
X147758414Y-134077800D01*
X147758410Y-134077798D01*
X147754359Y-134074598D01*
X147718028Y-134054542D01*
X147702136Y-134045769D01*
X147558789Y-133966638D01*
X147553920Y-133964914D01*
X147553916Y-133964912D01*
X147353087Y-133893795D01*
X147353083Y-133893794D01*
X147348212Y-133892069D01*
X147343119Y-133891162D01*
X147343116Y-133891161D01*
X147133373Y-133853800D01*
X147133367Y-133853799D01*
X147128284Y-133852894D01*
X147054452Y-133851992D01*
X146910081Y-133850228D01*
X146910079Y-133850228D01*
X146904911Y-133850165D01*
X146684091Y-133883955D01*
X146471756Y-133953357D01*
X146273607Y-134056507D01*
X146269474Y-134059610D01*
X146269471Y-134059612D01*
X146099100Y-134187530D01*
X146094965Y-134190635D01*
X146069541Y-134217240D01*
X146001280Y-134288671D01*
X145940629Y-134352138D01*
X145833201Y-134509621D01*
X145778293Y-134554621D01*
X145707768Y-134562792D01*
X145644021Y-134531538D01*
X145623324Y-134507054D01*
X145542822Y-134382617D01*
X145542820Y-134382614D01*
X145540014Y-134378277D01*
X145389670Y-134213051D01*
X145385619Y-134209852D01*
X145385615Y-134209848D01*
X145218414Y-134077800D01*
X145218410Y-134077798D01*
X145214359Y-134074598D01*
X145178028Y-134054542D01*
X145162136Y-134045769D01*
X145018789Y-133966638D01*
X145013920Y-133964914D01*
X145013916Y-133964912D01*
X144813087Y-133893795D01*
X144813083Y-133893794D01*
X144808212Y-133892069D01*
X144803119Y-133891162D01*
X144803116Y-133891161D01*
X144593373Y-133853800D01*
X144593367Y-133853799D01*
X144588284Y-133852894D01*
X144514452Y-133851992D01*
X144370081Y-133850228D01*
X144370079Y-133850228D01*
X144364911Y-133850165D01*
X144144091Y-133883955D01*
X143931756Y-133953357D01*
X143733607Y-134056507D01*
X143729474Y-134059610D01*
X143729471Y-134059612D01*
X143559100Y-134187530D01*
X143554965Y-134190635D01*
X143529541Y-134217240D01*
X143461280Y-134288671D01*
X143400629Y-134352138D01*
X143293201Y-134509621D01*
X143238293Y-134554621D01*
X143167768Y-134562792D01*
X143104021Y-134531538D01*
X143083324Y-134507054D01*
X143002822Y-134382617D01*
X143002820Y-134382614D01*
X143000014Y-134378277D01*
X142849670Y-134213051D01*
X142845619Y-134209852D01*
X142845615Y-134209848D01*
X142678414Y-134077800D01*
X142678410Y-134077798D01*
X142674359Y-134074598D01*
X142638028Y-134054542D01*
X142622136Y-134045769D01*
X142478789Y-133966638D01*
X142473920Y-133964914D01*
X142473916Y-133964912D01*
X142273087Y-133893795D01*
X142273083Y-133893794D01*
X142268212Y-133892069D01*
X142263119Y-133891162D01*
X142263116Y-133891161D01*
X142053373Y-133853800D01*
X142053367Y-133853799D01*
X142048284Y-133852894D01*
X141974452Y-133851992D01*
X141830081Y-133850228D01*
X141830079Y-133850228D01*
X141824911Y-133850165D01*
X141604091Y-133883955D01*
X141391756Y-133953357D01*
X141193607Y-134056507D01*
X141189474Y-134059610D01*
X141189471Y-134059612D01*
X141019100Y-134187530D01*
X141014965Y-134190635D01*
X140989541Y-134217240D01*
X140921280Y-134288671D01*
X140860629Y-134352138D01*
X140857720Y-134356403D01*
X140857714Y-134356411D01*
X140845404Y-134374457D01*
X140753204Y-134509618D01*
X140752898Y-134510066D01*
X140697987Y-134555069D01*
X140627462Y-134563240D01*
X140563715Y-134531986D01*
X140543018Y-134507502D01*
X140462426Y-134382926D01*
X140456136Y-134374757D01*
X140312806Y-134217240D01*
X140305273Y-134210215D01*
X140138139Y-134078222D01*
X140129552Y-134072517D01*
X139943117Y-133969599D01*
X139933705Y-133965369D01*
X139732959Y-133894280D01*
X139722988Y-133891646D01*
X139651837Y-133878972D01*
X139638540Y-133880432D01*
X139634000Y-133894989D01*
X139634000Y-135338000D01*
X139613998Y-135406121D01*
X139560342Y-135452614D01*
X139508000Y-135464000D01*
X139252000Y-135464000D01*
X139183879Y-135443998D01*
X139137386Y-135390342D01*
X139126000Y-135338000D01*
X139126000Y-133893102D01*
X139122082Y-133879758D01*
X139107806Y-133877771D01*
X139069324Y-133883660D01*
X139059288Y-133886051D01*
X138856868Y-133952212D01*
X138847359Y-133956209D01*
X138658463Y-134054542D01*
X138649738Y-134060036D01*
X138479433Y-134187905D01*
X138471726Y-134194748D01*
X138324590Y-134348717D01*
X138318109Y-134356722D01*
X138213498Y-134510074D01*
X138158587Y-134555076D01*
X138088062Y-134563247D01*
X138024315Y-134531993D01*
X138003618Y-134507509D01*
X137922822Y-134382617D01*
X137922820Y-134382614D01*
X137920014Y-134378277D01*
X137769670Y-134213051D01*
X137765619Y-134209852D01*
X137765615Y-134209848D01*
X137598414Y-134077800D01*
X137598410Y-134077798D01*
X137594359Y-134074598D01*
X137558028Y-134054542D01*
X137542136Y-134045769D01*
X137398789Y-133966638D01*
X137393920Y-133964914D01*
X137393916Y-133964912D01*
X137193087Y-133893795D01*
X137193083Y-133893794D01*
X137188212Y-133892069D01*
X137183119Y-133891162D01*
X137183116Y-133891161D01*
X136973373Y-133853800D01*
X136973367Y-133853799D01*
X136968284Y-133852894D01*
X136894452Y-133851992D01*
X136750081Y-133850228D01*
X136750079Y-133850228D01*
X136744911Y-133850165D01*
X136524091Y-133883955D01*
X136311756Y-133953357D01*
X136113607Y-134056507D01*
X136109474Y-134059610D01*
X136109471Y-134059612D01*
X135939100Y-134187530D01*
X135934965Y-134190635D01*
X135909541Y-134217240D01*
X135841280Y-134288671D01*
X135780629Y-134352138D01*
X135673201Y-134509621D01*
X135618293Y-134554621D01*
X135547768Y-134562792D01*
X135484021Y-134531538D01*
X135463324Y-134507054D01*
X135382822Y-134382617D01*
X135382820Y-134382614D01*
X135380014Y-134378277D01*
X135229670Y-134213051D01*
X135225619Y-134209852D01*
X135225615Y-134209848D01*
X135058414Y-134077800D01*
X135058410Y-134077798D01*
X135054359Y-134074598D01*
X135018028Y-134054542D01*
X135002136Y-134045769D01*
X134858789Y-133966638D01*
X134853920Y-133964914D01*
X134853916Y-133964912D01*
X134653087Y-133893795D01*
X134653083Y-133893794D01*
X134648212Y-133892069D01*
X134643119Y-133891162D01*
X134643116Y-133891161D01*
X134433373Y-133853800D01*
X134433367Y-133853799D01*
X134428284Y-133852894D01*
X134354452Y-133851992D01*
X134210081Y-133850228D01*
X134210079Y-133850228D01*
X134204911Y-133850165D01*
X133984091Y-133883955D01*
X133771756Y-133953357D01*
X133573607Y-134056507D01*
X133569474Y-134059610D01*
X133569471Y-134059612D01*
X133399100Y-134187530D01*
X133394965Y-134190635D01*
X133369541Y-134217240D01*
X133301280Y-134288671D01*
X133240629Y-134352138D01*
X133133201Y-134509621D01*
X133078293Y-134554621D01*
X133007768Y-134562792D01*
X132944021Y-134531538D01*
X132923324Y-134507054D01*
X132842822Y-134382617D01*
X132842820Y-134382614D01*
X132840014Y-134378277D01*
X132689670Y-134213051D01*
X132685619Y-134209852D01*
X132685615Y-134209848D01*
X132518414Y-134077800D01*
X132518410Y-134077798D01*
X132514359Y-134074598D01*
X132478028Y-134054542D01*
X132462136Y-134045769D01*
X132318789Y-133966638D01*
X132313920Y-133964914D01*
X132313916Y-133964912D01*
X132113087Y-133893795D01*
X132113083Y-133893794D01*
X132108212Y-133892069D01*
X132103119Y-133891162D01*
X132103116Y-133891161D01*
X131893373Y-133853800D01*
X131893367Y-133853799D01*
X131888284Y-133852894D01*
X131814452Y-133851992D01*
X131670081Y-133850228D01*
X131670079Y-133850228D01*
X131664911Y-133850165D01*
X131444091Y-133883955D01*
X131231756Y-133953357D01*
X131033607Y-134056507D01*
X131029474Y-134059610D01*
X131029471Y-134059612D01*
X130859100Y-134187530D01*
X130854965Y-134190635D01*
X130829541Y-134217240D01*
X130761280Y-134288671D01*
X130700629Y-134352138D01*
X130593201Y-134509621D01*
X130538293Y-134554621D01*
X130467768Y-134562792D01*
X130404021Y-134531538D01*
X130383324Y-134507054D01*
X130302822Y-134382617D01*
X130302820Y-134382614D01*
X130300014Y-134378277D01*
X130149670Y-134213051D01*
X130145619Y-134209852D01*
X130145615Y-134209848D01*
X129978414Y-134077800D01*
X129978410Y-134077798D01*
X129974359Y-134074598D01*
X129938028Y-134054542D01*
X129922136Y-134045769D01*
X129778789Y-133966638D01*
X129773920Y-133964914D01*
X129773916Y-133964912D01*
X129573087Y-133893795D01*
X129573083Y-133893794D01*
X129568212Y-133892069D01*
X129563119Y-133891162D01*
X129563116Y-133891161D01*
X129353373Y-133853800D01*
X129353367Y-133853799D01*
X129348284Y-133852894D01*
X129274452Y-133851992D01*
X129130081Y-133850228D01*
X129130079Y-133850228D01*
X129124911Y-133850165D01*
X128904091Y-133883955D01*
X128691756Y-133953357D01*
X128493607Y-134056507D01*
X128489474Y-134059610D01*
X128489471Y-134059612D01*
X128319100Y-134187530D01*
X128314965Y-134190635D01*
X128289541Y-134217240D01*
X128221280Y-134288671D01*
X128160629Y-134352138D01*
X128053201Y-134509621D01*
X127998293Y-134554621D01*
X127927768Y-134562792D01*
X127864021Y-134531538D01*
X127843324Y-134507054D01*
X127762822Y-134382617D01*
X127762820Y-134382614D01*
X127760014Y-134378277D01*
X127609670Y-134213051D01*
X127605619Y-134209852D01*
X127605615Y-134209848D01*
X127438414Y-134077800D01*
X127438410Y-134077798D01*
X127434359Y-134074598D01*
X127398028Y-134054542D01*
X127382136Y-134045769D01*
X127238789Y-133966638D01*
X127233920Y-133964914D01*
X127233916Y-133964912D01*
X127033087Y-133893795D01*
X127033083Y-133893794D01*
X127028212Y-133892069D01*
X127023119Y-133891162D01*
X127023116Y-133891161D01*
X126813373Y-133853800D01*
X126813367Y-133853799D01*
X126808284Y-133852894D01*
X126734452Y-133851992D01*
X126590081Y-133850228D01*
X126590079Y-133850228D01*
X126584911Y-133850165D01*
X126364091Y-133883955D01*
X126151756Y-133953357D01*
X125953607Y-134056507D01*
X125949474Y-134059610D01*
X125949471Y-134059612D01*
X125779100Y-134187530D01*
X125774965Y-134190635D01*
X125749541Y-134217240D01*
X125681280Y-134288671D01*
X125620629Y-134352138D01*
X125513201Y-134509621D01*
X125458293Y-134554621D01*
X125387768Y-134562792D01*
X125324021Y-134531538D01*
X125303324Y-134507054D01*
X125222822Y-134382617D01*
X125222820Y-134382614D01*
X125220014Y-134378277D01*
X125069670Y-134213051D01*
X125065619Y-134209852D01*
X125065615Y-134209848D01*
X124898414Y-134077800D01*
X124898410Y-134077798D01*
X124894359Y-134074598D01*
X124858028Y-134054542D01*
X124842136Y-134045769D01*
X124698789Y-133966638D01*
X124693920Y-133964914D01*
X124693916Y-133964912D01*
X124493087Y-133893795D01*
X124493083Y-133893794D01*
X124488212Y-133892069D01*
X124483119Y-133891162D01*
X124483116Y-133891161D01*
X124273373Y-133853800D01*
X124273367Y-133853799D01*
X124268284Y-133852894D01*
X124194452Y-133851992D01*
X124050081Y-133850228D01*
X124050079Y-133850228D01*
X124044911Y-133850165D01*
X123824091Y-133883955D01*
X123611756Y-133953357D01*
X123413607Y-134056507D01*
X123409474Y-134059610D01*
X123409471Y-134059612D01*
X123239100Y-134187530D01*
X123234965Y-134190635D01*
X123209541Y-134217240D01*
X123141280Y-134288671D01*
X123080629Y-134352138D01*
X122973201Y-134509621D01*
X122918293Y-134554621D01*
X122847768Y-134562792D01*
X122784021Y-134531538D01*
X122763324Y-134507054D01*
X122682822Y-134382617D01*
X122682820Y-134382614D01*
X122680014Y-134378277D01*
X122529670Y-134213051D01*
X122525619Y-134209852D01*
X122525615Y-134209848D01*
X122358414Y-134077800D01*
X122358410Y-134077798D01*
X122354359Y-134074598D01*
X122318028Y-134054542D01*
X122302136Y-134045769D01*
X122158789Y-133966638D01*
X122153920Y-133964914D01*
X122153916Y-133964912D01*
X121953087Y-133893795D01*
X121953083Y-133893794D01*
X121948212Y-133892069D01*
X121943119Y-133891162D01*
X121943116Y-133891161D01*
X121733373Y-133853800D01*
X121733367Y-133853799D01*
X121728284Y-133852894D01*
X121654452Y-133851992D01*
X121510081Y-133850228D01*
X121510079Y-133850228D01*
X121504911Y-133850165D01*
X121284091Y-133883955D01*
X121071756Y-133953357D01*
X120873607Y-134056507D01*
X120869474Y-134059610D01*
X120869471Y-134059612D01*
X120699100Y-134187530D01*
X120694965Y-134190635D01*
X120669541Y-134217240D01*
X120601280Y-134288671D01*
X120540629Y-134352138D01*
X120537720Y-134356403D01*
X120537714Y-134356411D01*
X120525404Y-134374457D01*
X120433204Y-134509618D01*
X120432898Y-134510066D01*
X120377987Y-134555069D01*
X120307462Y-134563240D01*
X120243715Y-134531986D01*
X120223018Y-134507502D01*
X120142426Y-134382926D01*
X120136136Y-134374757D01*
X119992806Y-134217240D01*
X119985273Y-134210215D01*
X119818139Y-134078222D01*
X119809552Y-134072517D01*
X119623117Y-133969599D01*
X119613705Y-133965369D01*
X119412959Y-133894280D01*
X119402988Y-133891646D01*
X119331837Y-133878972D01*
X119318540Y-133880432D01*
X119314000Y-133894989D01*
X119314000Y-135338000D01*
X119293998Y-135406121D01*
X119240342Y-135452614D01*
X119188000Y-135464000D01*
X118932000Y-135464000D01*
X118863879Y-135443998D01*
X118817386Y-135390342D01*
X118806000Y-135338000D01*
X118806000Y-133893102D01*
X118802082Y-133879758D01*
X118787806Y-133877771D01*
X118749324Y-133883660D01*
X118739288Y-133886051D01*
X118536868Y-133952212D01*
X118527359Y-133956209D01*
X118338463Y-134054542D01*
X118329738Y-134060036D01*
X118159433Y-134187905D01*
X118151726Y-134194748D01*
X118004590Y-134348717D01*
X117998109Y-134356722D01*
X117893498Y-134510074D01*
X117838587Y-134555076D01*
X117768062Y-134563247D01*
X117704315Y-134531993D01*
X117683618Y-134507509D01*
X117602822Y-134382617D01*
X117602820Y-134382614D01*
X117600014Y-134378277D01*
X117449670Y-134213051D01*
X117445619Y-134209852D01*
X117445615Y-134209848D01*
X117278414Y-134077800D01*
X117278410Y-134077798D01*
X117274359Y-134074598D01*
X117238028Y-134054542D01*
X117222136Y-134045769D01*
X117078789Y-133966638D01*
X117073920Y-133964914D01*
X117073916Y-133964912D01*
X116873087Y-133893795D01*
X116873083Y-133893794D01*
X116868212Y-133892069D01*
X116863119Y-133891162D01*
X116863116Y-133891161D01*
X116653373Y-133853800D01*
X116653367Y-133853799D01*
X116648284Y-133852894D01*
X116574452Y-133851992D01*
X116430081Y-133850228D01*
X116430079Y-133850228D01*
X116424911Y-133850165D01*
X116204091Y-133883955D01*
X115991756Y-133953357D01*
X115793607Y-134056507D01*
X115789474Y-134059610D01*
X115789471Y-134059612D01*
X115619100Y-134187530D01*
X115614965Y-134190635D01*
X115589541Y-134217240D01*
X115521280Y-134288671D01*
X115460629Y-134352138D01*
X115353201Y-134509621D01*
X115298293Y-134554621D01*
X115227768Y-134562792D01*
X115164021Y-134531538D01*
X115143324Y-134507054D01*
X115062822Y-134382617D01*
X115062820Y-134382614D01*
X115060014Y-134378277D01*
X114909670Y-134213051D01*
X114905619Y-134209852D01*
X114905615Y-134209848D01*
X114738414Y-134077800D01*
X114738410Y-134077798D01*
X114734359Y-134074598D01*
X114698028Y-134054542D01*
X114682136Y-134045769D01*
X114538789Y-133966638D01*
X114533920Y-133964914D01*
X114533916Y-133964912D01*
X114333087Y-133893795D01*
X114333083Y-133893794D01*
X114328212Y-133892069D01*
X114323119Y-133891162D01*
X114323116Y-133891161D01*
X114113373Y-133853800D01*
X114113367Y-133853799D01*
X114108284Y-133852894D01*
X114034452Y-133851992D01*
X113890081Y-133850228D01*
X113890079Y-133850228D01*
X113884911Y-133850165D01*
X113664091Y-133883955D01*
X113451756Y-133953357D01*
X113253607Y-134056507D01*
X113249474Y-134059610D01*
X113249471Y-134059612D01*
X113079100Y-134187530D01*
X113074965Y-134190635D01*
X113049541Y-134217240D01*
X112981280Y-134288671D01*
X112920629Y-134352138D01*
X112813201Y-134509621D01*
X112758293Y-134554621D01*
X112687768Y-134562792D01*
X112624021Y-134531538D01*
X112603324Y-134507054D01*
X112522822Y-134382617D01*
X112522820Y-134382614D01*
X112520014Y-134378277D01*
X112369670Y-134213051D01*
X112365619Y-134209852D01*
X112365615Y-134209848D01*
X112198414Y-134077800D01*
X112198410Y-134077798D01*
X112194359Y-134074598D01*
X112158028Y-134054542D01*
X112142136Y-134045769D01*
X111998789Y-133966638D01*
X111993920Y-133964914D01*
X111993916Y-133964912D01*
X111793087Y-133893795D01*
X111793083Y-133893794D01*
X111788212Y-133892069D01*
X111783119Y-133891162D01*
X111783116Y-133891161D01*
X111573373Y-133853800D01*
X111573367Y-133853799D01*
X111568284Y-133852894D01*
X111494452Y-133851992D01*
X111350081Y-133850228D01*
X111350079Y-133850228D01*
X111344911Y-133850165D01*
X111124091Y-133883955D01*
X110911756Y-133953357D01*
X110713607Y-134056507D01*
X110709474Y-134059610D01*
X110709471Y-134059612D01*
X110539100Y-134187530D01*
X110534965Y-134190635D01*
X110509541Y-134217240D01*
X110441280Y-134288671D01*
X110380629Y-134352138D01*
X110273201Y-134509621D01*
X110218293Y-134554621D01*
X110147768Y-134562792D01*
X110084021Y-134531538D01*
X110063324Y-134507054D01*
X109982822Y-134382617D01*
X109982820Y-134382614D01*
X109980014Y-134378277D01*
X109829670Y-134213051D01*
X109825619Y-134209852D01*
X109825615Y-134209848D01*
X109658414Y-134077800D01*
X109658410Y-134077798D01*
X109654359Y-134074598D01*
X109618028Y-134054542D01*
X109602136Y-134045769D01*
X109458789Y-133966638D01*
X109453920Y-133964914D01*
X109453916Y-133964912D01*
X109253087Y-133893795D01*
X109253083Y-133893794D01*
X109248212Y-133892069D01*
X109243119Y-133891162D01*
X109243116Y-133891161D01*
X109033373Y-133853800D01*
X109033367Y-133853799D01*
X109028284Y-133852894D01*
X108954452Y-133851992D01*
X108810081Y-133850228D01*
X108810079Y-133850228D01*
X108804911Y-133850165D01*
X108584091Y-133883955D01*
X108371756Y-133953357D01*
X108173607Y-134056507D01*
X108169474Y-134059610D01*
X108169471Y-134059612D01*
X107999100Y-134187530D01*
X107994965Y-134190635D01*
X107969541Y-134217240D01*
X107901280Y-134288671D01*
X107840629Y-134352138D01*
X107733201Y-134509621D01*
X107678293Y-134554621D01*
X107607768Y-134562792D01*
X107544021Y-134531538D01*
X107523324Y-134507054D01*
X107442822Y-134382617D01*
X107442820Y-134382614D01*
X107440014Y-134378277D01*
X107289670Y-134213051D01*
X107285619Y-134209852D01*
X107285615Y-134209848D01*
X107118414Y-134077800D01*
X107118410Y-134077798D01*
X107114359Y-134074598D01*
X107078028Y-134054542D01*
X107062136Y-134045769D01*
X106918789Y-133966638D01*
X106913920Y-133964914D01*
X106913916Y-133964912D01*
X106713087Y-133893795D01*
X106713083Y-133893794D01*
X106708212Y-133892069D01*
X106703119Y-133891162D01*
X106703116Y-133891161D01*
X106493373Y-133853800D01*
X106493367Y-133853799D01*
X106488284Y-133852894D01*
X106414452Y-133851992D01*
X106270081Y-133850228D01*
X106270079Y-133850228D01*
X106264911Y-133850165D01*
X106044091Y-133883955D01*
X105831756Y-133953357D01*
X105633607Y-134056507D01*
X105629474Y-134059610D01*
X105629471Y-134059612D01*
X105459100Y-134187530D01*
X105454965Y-134190635D01*
X105429541Y-134217240D01*
X105361280Y-134288671D01*
X105300629Y-134352138D01*
X105193201Y-134509621D01*
X105138293Y-134554621D01*
X105067768Y-134562792D01*
X105004021Y-134531538D01*
X104983324Y-134507054D01*
X104902822Y-134382617D01*
X104902820Y-134382614D01*
X104900014Y-134378277D01*
X104749670Y-134213051D01*
X104745619Y-134209852D01*
X104745615Y-134209848D01*
X104578414Y-134077800D01*
X104578410Y-134077798D01*
X104574359Y-134074598D01*
X104538028Y-134054542D01*
X104522136Y-134045769D01*
X104378789Y-133966638D01*
X104373920Y-133964914D01*
X104373916Y-133964912D01*
X104173087Y-133893795D01*
X104173083Y-133893794D01*
X104168212Y-133892069D01*
X104163119Y-133891162D01*
X104163116Y-133891161D01*
X103953373Y-133853800D01*
X103953367Y-133853799D01*
X103948284Y-133852894D01*
X103874452Y-133851992D01*
X103730081Y-133850228D01*
X103730079Y-133850228D01*
X103724911Y-133850165D01*
X103504091Y-133883955D01*
X103291756Y-133953357D01*
X103093607Y-134056507D01*
X103089474Y-134059610D01*
X103089471Y-134059612D01*
X102919100Y-134187530D01*
X102914965Y-134190635D01*
X102889541Y-134217240D01*
X102821280Y-134288671D01*
X102760629Y-134352138D01*
X102757720Y-134356403D01*
X102757714Y-134356411D01*
X102745404Y-134374457D01*
X102653204Y-134509618D01*
X102652898Y-134510066D01*
X102597987Y-134555069D01*
X102527462Y-134563240D01*
X102463715Y-134531986D01*
X102443018Y-134507502D01*
X102362426Y-134382926D01*
X102356136Y-134374757D01*
X102212806Y-134217240D01*
X102205273Y-134210215D01*
X102038139Y-134078222D01*
X102029552Y-134072517D01*
X101843117Y-133969599D01*
X101833705Y-133965369D01*
X101632959Y-133894280D01*
X101622988Y-133891646D01*
X101551837Y-133878972D01*
X101538540Y-133880432D01*
X101534000Y-133894989D01*
X101534000Y-135338000D01*
X101513998Y-135406121D01*
X101460342Y-135452614D01*
X101408000Y-135464000D01*
X99963225Y-135464000D01*
X99949694Y-135467973D01*
X99948257Y-135477966D01*
X99978565Y-135612446D01*
X99981645Y-135622275D01*
X100061770Y-135819603D01*
X100066413Y-135828794D01*
X100177694Y-136010388D01*
X100183777Y-136018699D01*
X100323213Y-136179667D01*
X100330580Y-136186883D01*
X100494434Y-136322916D01*
X100502881Y-136328831D01*
X100571969Y-136369203D01*
X100620693Y-136420842D01*
X100633764Y-136490625D01*
X100607033Y-136556396D01*
X100566584Y-136589752D01*
X100553607Y-136596507D01*
X100549474Y-136599610D01*
X100549471Y-136599612D01*
X100425567Y-136692642D01*
X100374965Y-136730635D01*
X100220629Y-136892138D01*
X100217720Y-136896403D01*
X100217714Y-136896411D01*
X100139656Y-137010840D01*
X100094743Y-137076680D01*
X100000688Y-137279305D01*
X99940989Y-137494570D01*
X99917251Y-137716695D01*
X94086649Y-137716695D01*
X94088156Y-137655000D01*
X94069852Y-137432361D01*
X94015431Y-137215702D01*
X93926354Y-137010840D01*
X93864001Y-136914457D01*
X93807822Y-136827617D01*
X93807820Y-136827614D01*
X93805014Y-136823277D01*
X93654670Y-136658051D01*
X93650619Y-136654852D01*
X93650615Y-136654848D01*
X93483414Y-136522800D01*
X93483410Y-136522798D01*
X93479359Y-136519598D01*
X93438053Y-136496796D01*
X93388084Y-136446364D01*
X93373312Y-136376921D01*
X93398428Y-136310516D01*
X93425780Y-136283909D01*
X93477330Y-136247139D01*
X93604860Y-136156173D01*
X93763096Y-135998489D01*
X93822594Y-135915689D01*
X93890435Y-135821277D01*
X93893453Y-135817077D01*
X93945479Y-135711811D01*
X93990136Y-135621453D01*
X93990137Y-135621451D01*
X93992430Y-135616811D01*
X94028507Y-135498069D01*
X94055865Y-135408023D01*
X94055865Y-135408021D01*
X94057370Y-135403069D01*
X94086529Y-135181590D01*
X94088156Y-135115000D01*
X94074112Y-134944183D01*
X99944389Y-134944183D01*
X99945912Y-134952607D01*
X99958292Y-134956000D01*
X101007885Y-134956000D01*
X101023124Y-134951525D01*
X101024329Y-134950135D01*
X101026000Y-134942452D01*
X101026000Y-133893102D01*
X101022082Y-133879758D01*
X101007806Y-133877771D01*
X100969324Y-133883660D01*
X100959288Y-133886051D01*
X100756868Y-133952212D01*
X100747359Y-133956209D01*
X100558463Y-134054542D01*
X100549738Y-134060036D01*
X100379433Y-134187905D01*
X100371726Y-134194748D01*
X100224590Y-134348717D01*
X100218104Y-134356727D01*
X100098098Y-134532649D01*
X100093000Y-134541623D01*
X100003338Y-134734783D01*
X99999775Y-134744470D01*
X99944389Y-134944183D01*
X94074112Y-134944183D01*
X94069852Y-134892361D01*
X94015431Y-134675702D01*
X93926354Y-134470840D01*
X93823509Y-134311866D01*
X93807822Y-134287617D01*
X93807820Y-134287614D01*
X93805014Y-134283277D01*
X93654670Y-134118051D01*
X93650619Y-134114852D01*
X93650615Y-134114848D01*
X93483414Y-133982800D01*
X93483410Y-133982798D01*
X93479359Y-133979598D01*
X93438053Y-133956796D01*
X93388084Y-133906364D01*
X93373312Y-133836921D01*
X93398428Y-133770516D01*
X93425780Y-133743909D01*
X93469603Y-133712650D01*
X93604860Y-133616173D01*
X93763096Y-133458489D01*
X93822594Y-133375689D01*
X93890435Y-133281277D01*
X93893453Y-133277077D01*
X93992430Y-133076811D01*
X94057370Y-132863069D01*
X94086529Y-132641590D01*
X94088156Y-132575000D01*
X94069852Y-132352361D01*
X94015431Y-132135702D01*
X93926354Y-131930840D01*
X93805014Y-131743277D01*
X93654670Y-131578051D01*
X93650619Y-131574852D01*
X93650615Y-131574848D01*
X93483414Y-131442800D01*
X93483410Y-131442798D01*
X93479359Y-131439598D01*
X93438053Y-131416796D01*
X93388084Y-131366364D01*
X93373312Y-131296921D01*
X93398428Y-131230516D01*
X93425780Y-131203909D01*
X93469603Y-131172650D01*
X93604860Y-131076173D01*
X93763096Y-130918489D01*
X93822594Y-130835689D01*
X93890435Y-130741277D01*
X93893453Y-130737077D01*
X93992430Y-130536811D01*
X94057370Y-130323069D01*
X94086529Y-130101590D01*
X94088156Y-130035000D01*
X94069852Y-129812361D01*
X94015431Y-129595702D01*
X93926354Y-129390840D01*
X93805014Y-129203277D01*
X93654670Y-129038051D01*
X93650619Y-129034852D01*
X93650615Y-129034848D01*
X93483414Y-128902800D01*
X93483410Y-128902798D01*
X93479359Y-128899598D01*
X93438053Y-128876796D01*
X93388084Y-128826364D01*
X93373312Y-128756921D01*
X93398428Y-128690516D01*
X93425780Y-128663909D01*
X93469603Y-128632650D01*
X93604860Y-128536173D01*
X93763096Y-128378489D01*
X93822594Y-128295689D01*
X93890435Y-128201277D01*
X93893453Y-128197077D01*
X93992430Y-127996811D01*
X94057370Y-127783069D01*
X94086529Y-127561590D01*
X94088156Y-127495000D01*
X94069852Y-127272361D01*
X94015431Y-127055702D01*
X93926354Y-126850840D01*
X93805014Y-126663277D01*
X93654670Y-126498051D01*
X93650619Y-126494852D01*
X93650615Y-126494848D01*
X93483414Y-126362800D01*
X93483410Y-126362798D01*
X93479359Y-126359598D01*
X93438053Y-126336796D01*
X93388084Y-126286364D01*
X93373312Y-126216921D01*
X93398428Y-126150516D01*
X93425780Y-126123909D01*
X93469603Y-126092650D01*
X93604860Y-125996173D01*
X93763096Y-125838489D01*
X93822594Y-125755689D01*
X93890435Y-125661277D01*
X93893453Y-125657077D01*
X93992430Y-125456811D01*
X94057370Y-125243069D01*
X94086529Y-125021590D01*
X94088156Y-124955000D01*
X94069852Y-124732361D01*
X94015431Y-124515702D01*
X93926354Y-124310840D01*
X93805014Y-124123277D01*
X93654670Y-123958051D01*
X93650619Y-123954852D01*
X93650615Y-123954848D01*
X93483414Y-123822800D01*
X93483410Y-123822798D01*
X93479359Y-123819598D01*
X93437569Y-123796529D01*
X93387598Y-123746097D01*
X93372826Y-123676654D01*
X93397942Y-123610248D01*
X93425294Y-123583641D01*
X93600328Y-123458792D01*
X93608200Y-123452139D01*
X93759052Y-123301812D01*
X93765730Y-123293965D01*
X93890003Y-123121020D01*
X93895313Y-123112183D01*
X93989670Y-122921267D01*
X93993469Y-122911672D01*
X94055377Y-122707910D01*
X94057555Y-122697837D01*
X94058986Y-122686962D01*
X94056775Y-122672778D01*
X94043617Y-122669000D01*
X91408225Y-122669000D01*
X91394694Y-122672973D01*
X91393257Y-122682966D01*
X91423565Y-122817446D01*
X91426645Y-122827275D01*
X91506770Y-123024603D01*
X91511413Y-123033794D01*
X91622694Y-123215388D01*
X91628777Y-123223699D01*
X91768213Y-123384667D01*
X91775580Y-123391883D01*
X91939434Y-123527916D01*
X91947881Y-123533831D01*
X92016969Y-123574203D01*
X92065693Y-123625842D01*
X92078764Y-123695625D01*
X92052033Y-123761396D01*
X92011584Y-123794752D01*
X91998607Y-123801507D01*
X91994474Y-123804610D01*
X91994471Y-123804612D01*
X91970247Y-123822800D01*
X91819965Y-123935635D01*
X91665629Y-124097138D01*
X91539743Y-124281680D01*
X91445688Y-124484305D01*
X91385989Y-124699570D01*
X91362251Y-124921695D01*
X91362548Y-124926848D01*
X91362548Y-124926851D01*
X91368011Y-125021590D01*
X91375110Y-125144715D01*
X91376247Y-125149761D01*
X91376248Y-125149767D01*
X91396119Y-125237939D01*
X91424222Y-125362639D01*
X91508266Y-125569616D01*
X91624987Y-125760088D01*
X91771250Y-125928938D01*
X91943126Y-126071632D01*
X92013595Y-126112811D01*
X92016445Y-126114476D01*
X92065169Y-126166114D01*
X92078240Y-126235897D01*
X92051509Y-126301669D01*
X92011055Y-126335027D01*
X91998607Y-126341507D01*
X91994474Y-126344610D01*
X91994471Y-126344612D01*
X91970247Y-126362800D01*
X91819965Y-126475635D01*
X91665629Y-126637138D01*
X91662715Y-126641410D01*
X91662714Y-126641411D01*
X91650404Y-126659457D01*
X91539743Y-126821680D01*
X91445688Y-127024305D01*
X91385989Y-127239570D01*
X91362251Y-127461695D01*
X91362548Y-127466848D01*
X91362548Y-127466851D01*
X91368011Y-127561590D01*
X91375110Y-127684715D01*
X91376247Y-127689761D01*
X91376248Y-127689767D01*
X91389597Y-127749000D01*
X91424222Y-127902639D01*
X91508266Y-128109616D01*
X91624987Y-128300088D01*
X91771250Y-128468938D01*
X91943126Y-128611632D01*
X92013595Y-128652811D01*
X92016445Y-128654476D01*
X92065169Y-128706114D01*
X92078240Y-128775897D01*
X92051509Y-128841669D01*
X92011055Y-128875027D01*
X91998607Y-128881507D01*
X91994474Y-128884610D01*
X91994471Y-128884612D01*
X91970247Y-128902800D01*
X91819965Y-129015635D01*
X91665629Y-129177138D01*
X91539743Y-129361680D01*
X91445688Y-129564305D01*
X91385989Y-129779570D01*
X91362251Y-130001695D01*
X91362548Y-130006848D01*
X91362548Y-130006851D01*
X91368011Y-130101590D01*
X91375110Y-130224715D01*
X91376247Y-130229761D01*
X91376248Y-130229767D01*
X91396119Y-130317939D01*
X91424222Y-130442639D01*
X91508266Y-130649616D01*
X91624987Y-130840088D01*
X91771250Y-131008938D01*
X91943126Y-131151632D01*
X92013595Y-131192811D01*
X92016445Y-131194476D01*
X92065169Y-131246114D01*
X92078240Y-131315897D01*
X92051509Y-131381669D01*
X92011055Y-131415027D01*
X91998607Y-131421507D01*
X91994474Y-131424610D01*
X91994471Y-131424612D01*
X91970247Y-131442800D01*
X91819965Y-131555635D01*
X91665629Y-131717138D01*
X91539743Y-131901680D01*
X91445688Y-132104305D01*
X91385989Y-132319570D01*
X91362251Y-132541695D01*
X91362548Y-132546848D01*
X91362548Y-132546851D01*
X91368011Y-132641590D01*
X91375110Y-132764715D01*
X91376247Y-132769761D01*
X91376248Y-132769767D01*
X91396119Y-132857939D01*
X91424222Y-132982639D01*
X91508266Y-133189616D01*
X91624987Y-133380088D01*
X91771250Y-133548938D01*
X91943126Y-133691632D01*
X92013595Y-133732811D01*
X92016445Y-133734476D01*
X92065169Y-133786114D01*
X92078240Y-133855897D01*
X92051509Y-133921669D01*
X92011055Y-133955027D01*
X91998607Y-133961507D01*
X91994474Y-133964610D01*
X91994471Y-133964612D01*
X91824100Y-134092530D01*
X91819965Y-134095635D01*
X91816393Y-134099373D01*
X91707760Y-134213051D01*
X91665629Y-134257138D01*
X91539743Y-134441680D01*
X91445688Y-134644305D01*
X91385989Y-134859570D01*
X91362251Y-135081695D01*
X91362548Y-135086848D01*
X91362548Y-135086851D01*
X91368011Y-135181590D01*
X91375110Y-135304715D01*
X91376247Y-135309761D01*
X91376248Y-135309767D01*
X91382611Y-135338000D01*
X91424222Y-135522639D01*
X91508266Y-135729616D01*
X91510965Y-135734020D01*
X91620661Y-135913028D01*
X91624987Y-135920088D01*
X91628367Y-135923990D01*
X91703208Y-136010388D01*
X91771250Y-136088938D01*
X91943126Y-136231632D01*
X91981697Y-136254171D01*
X92016445Y-136274476D01*
X92065169Y-136326114D01*
X92078240Y-136395897D01*
X92051509Y-136461669D01*
X92011055Y-136495027D01*
X91998607Y-136501507D01*
X91994474Y-136504610D01*
X91994471Y-136504612D01*
X91824100Y-136632530D01*
X91819965Y-136635635D01*
X91816393Y-136639373D01*
X91707760Y-136753051D01*
X91665629Y-136797138D01*
X91662715Y-136801410D01*
X91662714Y-136801411D01*
X91650404Y-136819457D01*
X91539743Y-136981680D01*
X91445688Y-137184305D01*
X91385989Y-137399570D01*
X91362251Y-137621695D01*
X57758500Y-137621695D01*
X57758500Y-135081695D01*
X68496716Y-135081695D01*
X68497013Y-135086848D01*
X68497013Y-135086851D01*
X68502476Y-135181590D01*
X68509575Y-135304715D01*
X68510712Y-135309761D01*
X68510713Y-135309767D01*
X68517076Y-135338000D01*
X68558687Y-135522639D01*
X68642731Y-135729616D01*
X68645430Y-135734020D01*
X68755126Y-135913028D01*
X68759452Y-135920088D01*
X68762832Y-135923990D01*
X68837673Y-136010388D01*
X68905715Y-136088938D01*
X69077591Y-136231632D01*
X69116162Y-136254171D01*
X69151420Y-136274774D01*
X69200144Y-136326412D01*
X69213215Y-136396195D01*
X69186484Y-136461967D01*
X69146027Y-136495327D01*
X69137922Y-136499546D01*
X69129203Y-136505036D01*
X68958898Y-136632905D01*
X68951191Y-136639748D01*
X68804055Y-136793717D01*
X68797569Y-136801727D01*
X68677563Y-136977649D01*
X68672465Y-136986623D01*
X68582803Y-137179783D01*
X68579240Y-137189470D01*
X68523854Y-137389183D01*
X68525377Y-137397607D01*
X68537757Y-137401000D01*
X71177809Y-137401000D01*
X71191340Y-137397027D01*
X71192645Y-137387947D01*
X71150679Y-137220875D01*
X71147359Y-137211124D01*
X71062437Y-137015814D01*
X71057570Y-137006739D01*
X70941891Y-136827926D01*
X70935601Y-136819757D01*
X70792271Y-136662240D01*
X70784738Y-136655215D01*
X70617604Y-136523222D01*
X70609021Y-136517520D01*
X70572067Y-136497120D01*
X70522096Y-136446687D01*
X70507324Y-136377245D01*
X70532440Y-136310839D01*
X70559792Y-136284232D01*
X70611248Y-136247529D01*
X70739325Y-136156173D01*
X70897561Y-135998489D01*
X70957059Y-135915689D01*
X71024900Y-135821277D01*
X71027918Y-135817077D01*
X71079944Y-135711811D01*
X71124601Y-135621453D01*
X71124602Y-135621451D01*
X71126895Y-135616811D01*
X71162972Y-135498069D01*
X71190330Y-135408023D01*
X71190330Y-135408021D01*
X71191835Y-135403069D01*
X71220994Y-135181590D01*
X71222621Y-135115000D01*
X71204317Y-134892361D01*
X71149896Y-134675702D01*
X71060819Y-134470840D01*
X70957974Y-134311866D01*
X70942287Y-134287617D01*
X70942285Y-134287614D01*
X70939479Y-134283277D01*
X70789135Y-134118051D01*
X70785084Y-134114852D01*
X70785080Y-134114848D01*
X70617879Y-133982800D01*
X70617875Y-133982798D01*
X70613824Y-133979598D01*
X70572518Y-133956796D01*
X70522549Y-133906364D01*
X70507777Y-133836921D01*
X70532893Y-133770516D01*
X70560245Y-133743909D01*
X70604068Y-133712650D01*
X70739325Y-133616173D01*
X70897561Y-133458489D01*
X70957059Y-133375689D01*
X71024900Y-133281277D01*
X71027918Y-133277077D01*
X71126895Y-133076811D01*
X71191835Y-132863069D01*
X71220994Y-132641590D01*
X71222621Y-132575000D01*
X71204317Y-132352361D01*
X71149896Y-132135702D01*
X71060819Y-131930840D01*
X70939479Y-131743277D01*
X70789135Y-131578051D01*
X70785084Y-131574852D01*
X70785080Y-131574848D01*
X70617879Y-131442800D01*
X70617875Y-131442798D01*
X70613824Y-131439598D01*
X70572518Y-131416796D01*
X70522549Y-131366364D01*
X70507777Y-131296921D01*
X70532893Y-131230516D01*
X70560245Y-131203909D01*
X70604068Y-131172650D01*
X70739325Y-131076173D01*
X70897561Y-130918489D01*
X70957059Y-130835689D01*
X71024900Y-130741277D01*
X71027918Y-130737077D01*
X71126895Y-130536811D01*
X71191835Y-130323069D01*
X71220994Y-130101590D01*
X71222621Y-130035000D01*
X71204317Y-129812361D01*
X71149896Y-129595702D01*
X71060819Y-129390840D01*
X70939479Y-129203277D01*
X70789135Y-129038051D01*
X70785084Y-129034852D01*
X70785080Y-129034848D01*
X70617879Y-128902800D01*
X70617875Y-128902798D01*
X70613824Y-128899598D01*
X70572034Y-128876529D01*
X70522063Y-128826097D01*
X70507291Y-128756654D01*
X70532407Y-128690248D01*
X70559759Y-128663641D01*
X70734793Y-128538792D01*
X70742665Y-128532139D01*
X70893517Y-128381812D01*
X70900195Y-128373965D01*
X71024468Y-128201020D01*
X71029778Y-128192183D01*
X71124135Y-128001267D01*
X71127934Y-127991672D01*
X71189842Y-127787910D01*
X71192020Y-127777837D01*
X71193451Y-127766962D01*
X71191240Y-127752778D01*
X71178082Y-127749000D01*
X68542690Y-127749000D01*
X68529159Y-127752973D01*
X68527722Y-127762966D01*
X68558030Y-127897446D01*
X68561110Y-127907275D01*
X68641235Y-128104603D01*
X68645878Y-128113794D01*
X68757159Y-128295388D01*
X68763242Y-128303699D01*
X68902678Y-128464667D01*
X68910045Y-128471883D01*
X69073899Y-128607916D01*
X69082346Y-128613831D01*
X69151434Y-128654203D01*
X69200158Y-128705842D01*
X69213229Y-128775625D01*
X69186498Y-128841396D01*
X69146049Y-128874752D01*
X69133072Y-128881507D01*
X69128939Y-128884610D01*
X69128936Y-128884612D01*
X69104712Y-128902800D01*
X68954430Y-129015635D01*
X68800094Y-129177138D01*
X68674208Y-129361680D01*
X68580153Y-129564305D01*
X68520454Y-129779570D01*
X68496716Y-130001695D01*
X68497013Y-130006848D01*
X68497013Y-130006851D01*
X68502476Y-130101590D01*
X68509575Y-130224715D01*
X68510712Y-130229761D01*
X68510713Y-130229767D01*
X68530584Y-130317939D01*
X68558687Y-130442639D01*
X68642731Y-130649616D01*
X68759452Y-130840088D01*
X68905715Y-131008938D01*
X69077591Y-131151632D01*
X69148060Y-131192811D01*
X69150910Y-131194476D01*
X69199634Y-131246114D01*
X69212705Y-131315897D01*
X69185974Y-131381669D01*
X69145520Y-131415027D01*
X69133072Y-131421507D01*
X69128939Y-131424610D01*
X69128936Y-131424612D01*
X69104712Y-131442800D01*
X68954430Y-131555635D01*
X68800094Y-131717138D01*
X68674208Y-131901680D01*
X68580153Y-132104305D01*
X68520454Y-132319570D01*
X68496716Y-132541695D01*
X68497013Y-132546848D01*
X68497013Y-132546851D01*
X68502476Y-132641590D01*
X68509575Y-132764715D01*
X68510712Y-132769761D01*
X68510713Y-132769767D01*
X68530584Y-132857939D01*
X68558687Y-132982639D01*
X68642731Y-133189616D01*
X68759452Y-133380088D01*
X68905715Y-133548938D01*
X69077591Y-133691632D01*
X69148060Y-133732811D01*
X69150910Y-133734476D01*
X69199634Y-133786114D01*
X69212705Y-133855897D01*
X69185974Y-133921669D01*
X69145520Y-133955027D01*
X69133072Y-133961507D01*
X69128939Y-133964610D01*
X69128936Y-133964612D01*
X68958565Y-134092530D01*
X68954430Y-134095635D01*
X68950858Y-134099373D01*
X68842225Y-134213051D01*
X68800094Y-134257138D01*
X68674208Y-134441680D01*
X68580153Y-134644305D01*
X68520454Y-134859570D01*
X68496716Y-135081695D01*
X57758500Y-135081695D01*
X57758500Y-124921695D01*
X68496716Y-124921695D01*
X68497013Y-124926848D01*
X68497013Y-124926851D01*
X68502476Y-125021590D01*
X68509575Y-125144715D01*
X68510712Y-125149761D01*
X68510713Y-125149767D01*
X68530584Y-125237939D01*
X68558687Y-125362639D01*
X68642731Y-125569616D01*
X68759452Y-125760088D01*
X68905715Y-125928938D01*
X69077591Y-126071632D01*
X69150910Y-126114476D01*
X69151420Y-126114774D01*
X69200144Y-126166412D01*
X69213215Y-126236195D01*
X69186484Y-126301967D01*
X69146027Y-126335327D01*
X69137922Y-126339546D01*
X69129203Y-126345036D01*
X68958898Y-126472905D01*
X68951191Y-126479748D01*
X68804055Y-126633717D01*
X68797569Y-126641727D01*
X68677563Y-126817649D01*
X68672465Y-126826623D01*
X68582803Y-127019783D01*
X68579240Y-127029470D01*
X68523854Y-127229183D01*
X68525377Y-127237607D01*
X68537757Y-127241000D01*
X71177809Y-127241000D01*
X71191340Y-127237027D01*
X71192645Y-127227947D01*
X71150679Y-127060875D01*
X71147359Y-127051124D01*
X71062437Y-126855814D01*
X71057570Y-126846739D01*
X70941891Y-126667926D01*
X70935601Y-126659757D01*
X70792271Y-126502240D01*
X70784738Y-126495215D01*
X70617604Y-126363222D01*
X70609021Y-126357520D01*
X70572067Y-126337120D01*
X70522096Y-126286687D01*
X70507324Y-126217245D01*
X70532440Y-126150839D01*
X70559792Y-126124232D01*
X70583262Y-126107491D01*
X70739325Y-125996173D01*
X70897561Y-125838489D01*
X70957059Y-125755689D01*
X71024900Y-125661277D01*
X71027918Y-125657077D01*
X71126895Y-125456811D01*
X71191835Y-125243069D01*
X71220994Y-125021590D01*
X71222621Y-124955000D01*
X71204317Y-124732361D01*
X71149896Y-124515702D01*
X71060819Y-124310840D01*
X70939479Y-124123277D01*
X70789135Y-123958051D01*
X70785084Y-123954852D01*
X70785080Y-123954848D01*
X70617879Y-123822800D01*
X70617875Y-123822798D01*
X70613824Y-123819598D01*
X70572518Y-123796796D01*
X70522549Y-123746364D01*
X70507777Y-123676921D01*
X70532893Y-123610516D01*
X70560245Y-123583909D01*
X70604068Y-123552650D01*
X70739325Y-123456173D01*
X70897561Y-123298489D01*
X70957059Y-123215689D01*
X71024900Y-123121277D01*
X71027918Y-123117077D01*
X71126895Y-122916811D01*
X71191835Y-122703069D01*
X71220994Y-122481590D01*
X71222621Y-122415000D01*
X71204317Y-122192361D01*
X71149896Y-121975702D01*
X71060819Y-121770840D01*
X70939479Y-121583277D01*
X70919870Y-121561727D01*
X70792263Y-121421488D01*
X70761211Y-121357642D01*
X70769606Y-121287143D01*
X70814782Y-121232375D01*
X70841226Y-121218706D01*
X70947762Y-121178767D01*
X70956170Y-121175615D01*
X71072726Y-121088261D01*
X71160080Y-120971705D01*
X71211210Y-120835316D01*
X71217965Y-120773134D01*
X91366500Y-120773134D01*
X91373255Y-120835316D01*
X91424385Y-120971705D01*
X91511739Y-121088261D01*
X91628295Y-121175615D01*
X91636704Y-121178767D01*
X91636705Y-121178768D01*
X91745960Y-121219726D01*
X91802725Y-121262367D01*
X91827425Y-121328929D01*
X91812218Y-121398278D01*
X91792825Y-121424759D01*
X91669590Y-121553717D01*
X91663104Y-121561727D01*
X91543098Y-121737649D01*
X91538000Y-121746623D01*
X91448338Y-121939783D01*
X91444775Y-121949470D01*
X91389389Y-122149183D01*
X91390912Y-122157607D01*
X91403292Y-122161000D01*
X94043344Y-122161000D01*
X94056875Y-122157027D01*
X94058180Y-122147947D01*
X94016214Y-121980875D01*
X94012894Y-121971124D01*
X93927972Y-121775814D01*
X93923105Y-121766739D01*
X93807426Y-121587926D01*
X93801136Y-121579757D01*
X93657293Y-121421677D01*
X93626241Y-121357831D01*
X93634635Y-121287333D01*
X93679812Y-121232564D01*
X93706256Y-121218895D01*
X93813297Y-121178767D01*
X93821705Y-121175615D01*
X93892126Y-121122837D01*
X124622251Y-121122837D01*
X124622548Y-121127990D01*
X124622548Y-121127993D01*
X124633536Y-121318567D01*
X124635110Y-121345857D01*
X124636247Y-121350903D01*
X124636248Y-121350909D01*
X124653680Y-121428257D01*
X124684222Y-121563781D01*
X124768266Y-121770758D01*
X124884987Y-121961230D01*
X125031250Y-122130080D01*
X125115846Y-122200313D01*
X125197022Y-122267706D01*
X125203126Y-122272774D01*
X125396000Y-122385480D01*
X125604692Y-122465172D01*
X125609760Y-122466203D01*
X125609763Y-122466204D01*
X125701697Y-122484908D01*
X125823597Y-122509709D01*
X125828772Y-122509899D01*
X125828774Y-122509899D01*
X126041673Y-122517706D01*
X126041677Y-122517706D01*
X126046837Y-122517895D01*
X126051957Y-122517239D01*
X126051959Y-122517239D01*
X126263288Y-122490167D01*
X126263289Y-122490167D01*
X126268416Y-122489510D01*
X126305981Y-122478240D01*
X126477429Y-122426803D01*
X126477434Y-122426801D01*
X126482384Y-122425316D01*
X126682994Y-122327038D01*
X126864860Y-122197315D01*
X126869832Y-122192361D01*
X126973479Y-122089075D01*
X127035851Y-122055159D01*
X127106658Y-122060347D01*
X127163419Y-122102993D01*
X127180401Y-122134096D01*
X127221676Y-122244196D01*
X127230214Y-122259791D01*
X127306715Y-122361866D01*
X127319276Y-122374427D01*
X127421351Y-122450928D01*
X127436946Y-122459466D01*
X127557394Y-122504620D01*
X127572649Y-122508247D01*
X127623514Y-122513773D01*
X127630328Y-122514142D01*
X128252885Y-122514142D01*
X128268124Y-122509667D01*
X128269329Y-122508277D01*
X128271000Y-122500594D01*
X128271000Y-122496026D01*
X128779000Y-122496026D01*
X128783475Y-122511265D01*
X128784865Y-122512470D01*
X128792548Y-122514141D01*
X129419669Y-122514141D01*
X129426490Y-122513771D01*
X129477352Y-122508247D01*
X129492604Y-122504621D01*
X129613054Y-122459466D01*
X129628649Y-122450928D01*
X129730724Y-122374427D01*
X129743285Y-122361866D01*
X129819786Y-122259791D01*
X129828324Y-122244196D01*
X129873478Y-122123748D01*
X129877105Y-122108493D01*
X129882631Y-122057628D01*
X129883000Y-122050814D01*
X129883000Y-121428257D01*
X129878525Y-121413018D01*
X129877135Y-121411813D01*
X129869452Y-121410142D01*
X128797115Y-121410142D01*
X128781876Y-121414617D01*
X128780671Y-121416007D01*
X128779000Y-121423690D01*
X128779000Y-122496026D01*
X128271000Y-122496026D01*
X128271000Y-120884027D01*
X128779000Y-120884027D01*
X128783475Y-120899266D01*
X128784865Y-120900471D01*
X128792548Y-120902142D01*
X129864884Y-120902142D01*
X129880123Y-120897667D01*
X129881328Y-120896277D01*
X129882999Y-120888594D01*
X129882999Y-120872837D01*
X137109967Y-120872837D01*
X137110264Y-120877990D01*
X137110264Y-120877993D01*
X137115727Y-120972732D01*
X137122826Y-121095857D01*
X137123963Y-121100903D01*
X137123964Y-121100909D01*
X137138322Y-121164617D01*
X137171938Y-121313781D01*
X137255982Y-121520758D01*
X137372703Y-121711230D01*
X137518966Y-121880080D01*
X137690842Y-122022774D01*
X137883716Y-122135480D01*
X138092408Y-122215172D01*
X138097476Y-122216203D01*
X138097479Y-122216204D01*
X138204733Y-122238025D01*
X138311313Y-122259709D01*
X138316488Y-122259899D01*
X138316490Y-122259899D01*
X138529389Y-122267706D01*
X138529393Y-122267706D01*
X138534553Y-122267895D01*
X138539673Y-122267239D01*
X138539675Y-122267239D01*
X138751004Y-122240167D01*
X138751005Y-122240167D01*
X138756132Y-122239510D01*
X138761082Y-122238025D01*
X138965145Y-122176803D01*
X138965150Y-122176801D01*
X138970100Y-122175316D01*
X139170710Y-122077038D01*
X139352576Y-121947315D01*
X139360135Y-121939783D01*
X139461195Y-121839075D01*
X139523567Y-121805159D01*
X139594374Y-121810347D01*
X139651135Y-121852993D01*
X139668117Y-121884096D01*
X139709392Y-121994196D01*
X139717930Y-122009791D01*
X139794431Y-122111866D01*
X139806992Y-122124427D01*
X139909067Y-122200928D01*
X139924662Y-122209466D01*
X140045110Y-122254620D01*
X140060365Y-122258247D01*
X140111230Y-122263773D01*
X140118044Y-122264142D01*
X140740601Y-122264142D01*
X140755840Y-122259667D01*
X140757045Y-122258277D01*
X140758716Y-122250594D01*
X140758716Y-122246026D01*
X141266716Y-122246026D01*
X141271191Y-122261265D01*
X141272581Y-122262470D01*
X141280264Y-122264141D01*
X141907385Y-122264141D01*
X141914206Y-122263771D01*
X141965068Y-122258247D01*
X141980320Y-122254621D01*
X142100770Y-122209466D01*
X142116365Y-122200928D01*
X142218440Y-122124427D01*
X142231001Y-122111866D01*
X142307502Y-122009791D01*
X142316040Y-121994196D01*
X142361194Y-121873748D01*
X142364821Y-121858493D01*
X142370347Y-121807628D01*
X142370716Y-121800814D01*
X142370716Y-121178257D01*
X142366241Y-121163018D01*
X142364851Y-121161813D01*
X142357168Y-121160142D01*
X141284831Y-121160142D01*
X141269592Y-121164617D01*
X141268387Y-121166007D01*
X141266716Y-121173690D01*
X141266716Y-122246026D01*
X140758716Y-122246026D01*
X140758716Y-120634027D01*
X141266716Y-120634027D01*
X141271191Y-120649266D01*
X141272581Y-120650471D01*
X141280264Y-120652142D01*
X142352600Y-120652142D01*
X142367839Y-120647667D01*
X142369044Y-120646277D01*
X142370715Y-120638594D01*
X142370715Y-120011473D01*
X142370345Y-120004652D01*
X142364821Y-119953790D01*
X142361195Y-119938538D01*
X142316040Y-119818088D01*
X142307502Y-119802493D01*
X142231001Y-119700418D01*
X142218440Y-119687857D01*
X142116365Y-119611356D01*
X142100770Y-119602818D01*
X141980322Y-119557664D01*
X141965067Y-119554037D01*
X141914202Y-119548511D01*
X141907388Y-119548142D01*
X141284831Y-119548142D01*
X141269592Y-119552617D01*
X141268387Y-119554007D01*
X141266716Y-119561690D01*
X141266716Y-120634027D01*
X140758716Y-120634027D01*
X140758716Y-119566258D01*
X140754241Y-119551019D01*
X140752851Y-119549814D01*
X140745168Y-119548143D01*
X140118047Y-119548143D01*
X140111226Y-119548513D01*
X140060364Y-119554037D01*
X140045112Y-119557663D01*
X139924662Y-119602818D01*
X139909067Y-119611356D01*
X139806992Y-119687857D01*
X139794431Y-119700418D01*
X139717930Y-119802493D01*
X139709392Y-119818088D01*
X139668013Y-119928464D01*
X139625371Y-119985229D01*
X139558809Y-120009928D01*
X139489460Y-119994720D01*
X139456837Y-119969033D01*
X139405867Y-119913018D01*
X139405864Y-119913015D01*
X139402386Y-119909193D01*
X139398335Y-119905994D01*
X139398331Y-119905990D01*
X139231130Y-119773942D01*
X139231126Y-119773940D01*
X139227075Y-119770740D01*
X139031505Y-119662780D01*
X139026636Y-119661056D01*
X139026632Y-119661054D01*
X138825803Y-119589937D01*
X138825799Y-119589936D01*
X138820928Y-119588211D01*
X138815835Y-119587304D01*
X138815832Y-119587303D01*
X138606089Y-119549942D01*
X138606083Y-119549941D01*
X138601000Y-119549036D01*
X138527168Y-119548134D01*
X138382797Y-119546370D01*
X138382795Y-119546370D01*
X138377627Y-119546307D01*
X138156807Y-119580097D01*
X137944472Y-119649499D01*
X137746323Y-119752649D01*
X137742190Y-119755752D01*
X137742187Y-119755754D01*
X137571816Y-119883672D01*
X137567681Y-119886777D01*
X137413345Y-120048280D01*
X137410431Y-120052552D01*
X137410430Y-120052553D01*
X137352976Y-120136777D01*
X137287459Y-120232822D01*
X137193404Y-120435447D01*
X137133705Y-120650712D01*
X137109967Y-120872837D01*
X129882999Y-120872837D01*
X129882999Y-120261473D01*
X129882629Y-120254652D01*
X129877105Y-120203790D01*
X129873479Y-120188538D01*
X129828324Y-120068088D01*
X129819786Y-120052493D01*
X129743285Y-119950418D01*
X129730724Y-119937857D01*
X129628649Y-119861356D01*
X129613054Y-119852818D01*
X129492606Y-119807664D01*
X129477351Y-119804037D01*
X129426486Y-119798511D01*
X129419672Y-119798142D01*
X128797115Y-119798142D01*
X128781876Y-119802617D01*
X128780671Y-119804007D01*
X128779000Y-119811690D01*
X128779000Y-120884027D01*
X128271000Y-120884027D01*
X128271000Y-119816258D01*
X128266525Y-119801019D01*
X128265135Y-119799814D01*
X128257452Y-119798143D01*
X127630331Y-119798143D01*
X127623510Y-119798513D01*
X127572648Y-119804037D01*
X127557396Y-119807663D01*
X127436946Y-119852818D01*
X127421351Y-119861356D01*
X127319276Y-119937857D01*
X127306715Y-119950418D01*
X127230214Y-120052493D01*
X127221676Y-120068088D01*
X127180297Y-120178464D01*
X127137655Y-120235229D01*
X127071093Y-120259928D01*
X127001744Y-120244720D01*
X126969121Y-120219033D01*
X126918151Y-120163018D01*
X126918148Y-120163015D01*
X126914670Y-120159193D01*
X126910619Y-120155994D01*
X126910615Y-120155990D01*
X126743414Y-120023942D01*
X126743410Y-120023940D01*
X126739359Y-120020740D01*
X126543789Y-119912780D01*
X126538920Y-119911056D01*
X126538916Y-119911054D01*
X126338087Y-119839937D01*
X126338083Y-119839936D01*
X126333212Y-119838211D01*
X126328119Y-119837304D01*
X126328116Y-119837303D01*
X126118373Y-119799942D01*
X126118367Y-119799941D01*
X126113284Y-119799036D01*
X126039452Y-119798134D01*
X125895081Y-119796370D01*
X125895079Y-119796370D01*
X125889911Y-119796307D01*
X125669091Y-119830097D01*
X125456756Y-119899499D01*
X125258607Y-120002649D01*
X125254474Y-120005752D01*
X125254471Y-120005754D01*
X125192141Y-120052553D01*
X125079965Y-120136777D01*
X125040128Y-120178464D01*
X124983696Y-120237517D01*
X124925629Y-120298280D01*
X124799743Y-120482822D01*
X124752715Y-120584135D01*
X124721148Y-120652142D01*
X124705688Y-120685447D01*
X124645989Y-120900712D01*
X124622251Y-121122837D01*
X93892126Y-121122837D01*
X93938261Y-121088261D01*
X94025615Y-120971705D01*
X94076745Y-120835316D01*
X94083500Y-120773134D01*
X94083500Y-118976866D01*
X94076745Y-118914684D01*
X94025615Y-118778295D01*
X93938261Y-118661739D01*
X93821705Y-118574385D01*
X93685316Y-118523255D01*
X93623134Y-118516500D01*
X91826866Y-118516500D01*
X91764684Y-118523255D01*
X91628295Y-118574385D01*
X91511739Y-118661739D01*
X91424385Y-118778295D01*
X91373255Y-118914684D01*
X91366500Y-118976866D01*
X91366500Y-120773134D01*
X71217965Y-120773134D01*
X71217965Y-118976866D01*
X71211210Y-118914684D01*
X71160080Y-118778295D01*
X71072726Y-118661739D01*
X70956170Y-118574385D01*
X70819781Y-118523255D01*
X70757599Y-118516500D01*
X68961331Y-118516500D01*
X68899149Y-118523255D01*
X68762760Y-118574385D01*
X68646204Y-118661739D01*
X68558850Y-118778295D01*
X68507720Y-118914684D01*
X68500965Y-118976866D01*
X68500965Y-120773134D01*
X68507720Y-120835316D01*
X68558850Y-120971705D01*
X68646204Y-121088261D01*
X68762760Y-121175615D01*
X68771169Y-121178767D01*
X68771170Y-121178768D01*
X68879916Y-121219535D01*
X68936681Y-121262176D01*
X68961381Y-121328738D01*
X68946174Y-121398087D01*
X68926781Y-121424568D01*
X68834860Y-121520758D01*
X68800094Y-121557138D01*
X68797180Y-121561410D01*
X68797179Y-121561411D01*
X68795562Y-121563781D01*
X68674208Y-121741680D01*
X68580153Y-121944305D01*
X68520454Y-122159570D01*
X68496716Y-122381695D01*
X68497013Y-122386848D01*
X68497013Y-122386851D01*
X68504095Y-122509667D01*
X68509575Y-122604715D01*
X68510712Y-122609761D01*
X68510713Y-122609767D01*
X68524062Y-122669000D01*
X68558687Y-122822639D01*
X68642731Y-123029616D01*
X68759452Y-123220088D01*
X68905715Y-123388938D01*
X69077591Y-123531632D01*
X69148060Y-123572811D01*
X69150910Y-123574476D01*
X69199634Y-123626114D01*
X69212705Y-123695897D01*
X69185974Y-123761669D01*
X69145520Y-123795027D01*
X69133072Y-123801507D01*
X69128939Y-123804610D01*
X69128936Y-123804612D01*
X69104712Y-123822800D01*
X68954430Y-123935635D01*
X68800094Y-124097138D01*
X68674208Y-124281680D01*
X68580153Y-124484305D01*
X68520454Y-124699570D01*
X68496716Y-124921695D01*
X57758500Y-124921695D01*
X57758500Y-117322837D01*
X124622251Y-117322837D01*
X124622548Y-117327990D01*
X124622548Y-117327993D01*
X124633536Y-117518567D01*
X124635110Y-117545857D01*
X124636247Y-117550903D01*
X124636248Y-117550909D01*
X124650606Y-117614617D01*
X124684222Y-117763781D01*
X124768266Y-117970758D01*
X124884987Y-118161230D01*
X125031250Y-118330080D01*
X125107846Y-118393671D01*
X125197022Y-118467706D01*
X125203126Y-118472774D01*
X125396000Y-118585480D01*
X125604692Y-118665172D01*
X125609760Y-118666203D01*
X125609763Y-118666204D01*
X125717017Y-118688025D01*
X125823597Y-118709709D01*
X125828772Y-118709899D01*
X125828774Y-118709899D01*
X126041673Y-118717706D01*
X126041677Y-118717706D01*
X126046837Y-118717895D01*
X126051957Y-118717239D01*
X126051959Y-118717239D01*
X126263288Y-118690167D01*
X126263289Y-118690167D01*
X126268416Y-118689510D01*
X126337049Y-118668919D01*
X126477429Y-118626803D01*
X126477434Y-118626801D01*
X126482384Y-118625316D01*
X126682994Y-118527038D01*
X126864860Y-118397315D01*
X126926912Y-118335480D01*
X126973479Y-118289075D01*
X127035851Y-118255159D01*
X127106658Y-118260347D01*
X127163419Y-118302993D01*
X127180401Y-118334096D01*
X127221676Y-118444196D01*
X127230214Y-118459791D01*
X127306715Y-118561866D01*
X127319276Y-118574427D01*
X127421351Y-118650928D01*
X127436946Y-118659466D01*
X127557394Y-118704620D01*
X127572649Y-118708247D01*
X127623514Y-118713773D01*
X127630328Y-118714142D01*
X128252885Y-118714142D01*
X128268124Y-118709667D01*
X128269329Y-118708277D01*
X128271000Y-118700594D01*
X128271000Y-118696026D01*
X128779000Y-118696026D01*
X128783475Y-118711265D01*
X128784865Y-118712470D01*
X128792548Y-118714141D01*
X129419669Y-118714141D01*
X129426490Y-118713771D01*
X129477352Y-118708247D01*
X129492604Y-118704621D01*
X129613054Y-118659466D01*
X129628649Y-118650928D01*
X129730724Y-118574427D01*
X129743285Y-118561866D01*
X129819786Y-118459791D01*
X129828324Y-118444196D01*
X129873478Y-118323748D01*
X129877105Y-118308493D01*
X129882631Y-118257628D01*
X129883000Y-118250814D01*
X129883000Y-117628257D01*
X129878525Y-117613018D01*
X129877135Y-117611813D01*
X129869452Y-117610142D01*
X128797115Y-117610142D01*
X128781876Y-117614617D01*
X128780671Y-117616007D01*
X128779000Y-117623690D01*
X128779000Y-118696026D01*
X128271000Y-118696026D01*
X128271000Y-117084027D01*
X128779000Y-117084027D01*
X128783475Y-117099266D01*
X128784865Y-117100471D01*
X128792548Y-117102142D01*
X129864884Y-117102142D01*
X129880123Y-117097667D01*
X129881328Y-117096277D01*
X129882999Y-117088594D01*
X129882999Y-117072837D01*
X137122251Y-117072837D01*
X137122548Y-117077990D01*
X137122548Y-117077993D01*
X137124154Y-117105849D01*
X137135110Y-117295857D01*
X137136247Y-117300903D01*
X137136248Y-117300909D01*
X137150606Y-117364617D01*
X137184222Y-117513781D01*
X137268266Y-117720758D01*
X137384987Y-117911230D01*
X137531250Y-118080080D01*
X137703126Y-118222774D01*
X137896000Y-118335480D01*
X138104692Y-118415172D01*
X138109760Y-118416203D01*
X138109763Y-118416204D01*
X138217017Y-118438025D01*
X138323597Y-118459709D01*
X138328772Y-118459899D01*
X138328774Y-118459899D01*
X138541673Y-118467706D01*
X138541677Y-118467706D01*
X138546837Y-118467895D01*
X138551957Y-118467239D01*
X138551959Y-118467239D01*
X138763288Y-118440167D01*
X138763289Y-118440167D01*
X138768416Y-118439510D01*
X138773366Y-118438025D01*
X138977429Y-118376803D01*
X138977434Y-118376801D01*
X138982384Y-118375316D01*
X139182994Y-118277038D01*
X139364860Y-118147315D01*
X139432331Y-118080080D01*
X139473479Y-118039075D01*
X139535851Y-118005159D01*
X139606658Y-118010347D01*
X139663419Y-118052993D01*
X139680401Y-118084096D01*
X139721676Y-118194196D01*
X139730214Y-118209791D01*
X139806715Y-118311866D01*
X139819276Y-118324427D01*
X139921351Y-118400928D01*
X139936946Y-118409466D01*
X140057394Y-118454620D01*
X140072649Y-118458247D01*
X140123514Y-118463773D01*
X140130328Y-118464142D01*
X140752885Y-118464142D01*
X140768124Y-118459667D01*
X140769329Y-118458277D01*
X140771000Y-118450594D01*
X140771000Y-118446026D01*
X141279000Y-118446026D01*
X141283475Y-118461265D01*
X141284865Y-118462470D01*
X141292548Y-118464141D01*
X141919669Y-118464141D01*
X141926490Y-118463771D01*
X141977352Y-118458247D01*
X141992604Y-118454621D01*
X142113054Y-118409466D01*
X142128649Y-118400928D01*
X142230724Y-118324427D01*
X142243285Y-118311866D01*
X142319786Y-118209791D01*
X142328324Y-118194196D01*
X142373478Y-118073748D01*
X142377105Y-118058493D01*
X142382631Y-118007628D01*
X142383000Y-118000814D01*
X142383000Y-117378257D01*
X142378525Y-117363018D01*
X142377135Y-117361813D01*
X142369452Y-117360142D01*
X141297115Y-117360142D01*
X141281876Y-117364617D01*
X141280671Y-117366007D01*
X141279000Y-117373690D01*
X141279000Y-118446026D01*
X140771000Y-118446026D01*
X140771000Y-116834027D01*
X141279000Y-116834027D01*
X141283475Y-116849266D01*
X141284865Y-116850471D01*
X141292548Y-116852142D01*
X142364884Y-116852142D01*
X142380123Y-116847667D01*
X142381328Y-116846277D01*
X142382999Y-116838594D01*
X142382999Y-116211473D01*
X142382629Y-116204652D01*
X142377105Y-116153790D01*
X142373479Y-116138538D01*
X142328324Y-116018088D01*
X142319786Y-116002493D01*
X142243285Y-115900418D01*
X142230724Y-115887857D01*
X142128649Y-115811356D01*
X142113054Y-115802818D01*
X141992606Y-115757664D01*
X141977351Y-115754037D01*
X141926486Y-115748511D01*
X141919672Y-115748142D01*
X141297115Y-115748142D01*
X141281876Y-115752617D01*
X141280671Y-115754007D01*
X141279000Y-115761690D01*
X141279000Y-116834027D01*
X140771000Y-116834027D01*
X140771000Y-115766258D01*
X140766525Y-115751019D01*
X140765135Y-115749814D01*
X140757452Y-115748143D01*
X140130331Y-115748143D01*
X140123510Y-115748513D01*
X140072648Y-115754037D01*
X140057396Y-115757663D01*
X139936946Y-115802818D01*
X139921351Y-115811356D01*
X139819276Y-115887857D01*
X139806715Y-115900418D01*
X139730214Y-116002493D01*
X139721676Y-116018088D01*
X139680297Y-116128464D01*
X139637655Y-116185229D01*
X139571093Y-116209928D01*
X139501744Y-116194720D01*
X139469121Y-116169033D01*
X139418151Y-116113018D01*
X139418148Y-116113015D01*
X139414670Y-116109193D01*
X139410619Y-116105994D01*
X139410615Y-116105990D01*
X139243414Y-115973942D01*
X139243410Y-115973940D01*
X139239359Y-115970740D01*
X139043789Y-115862780D01*
X139038920Y-115861056D01*
X139038916Y-115861054D01*
X138838087Y-115789937D01*
X138838083Y-115789936D01*
X138833212Y-115788211D01*
X138828119Y-115787304D01*
X138828116Y-115787303D01*
X138618373Y-115749942D01*
X138618367Y-115749941D01*
X138613284Y-115749036D01*
X138539452Y-115748134D01*
X138395081Y-115746370D01*
X138395079Y-115746370D01*
X138389911Y-115746307D01*
X138169091Y-115780097D01*
X137956756Y-115849499D01*
X137758607Y-115952649D01*
X137754474Y-115955752D01*
X137754471Y-115955754D01*
X137584100Y-116083672D01*
X137579965Y-116086777D01*
X137425629Y-116248280D01*
X137422715Y-116252552D01*
X137422714Y-116252553D01*
X137365260Y-116336777D01*
X137299743Y-116432822D01*
X137205688Y-116635447D01*
X137145989Y-116850712D01*
X137122251Y-117072837D01*
X129882999Y-117072837D01*
X129882999Y-116461473D01*
X129882629Y-116454652D01*
X129877105Y-116403790D01*
X129873479Y-116388538D01*
X129828324Y-116268088D01*
X129819786Y-116252493D01*
X129743285Y-116150418D01*
X129730724Y-116137857D01*
X129628649Y-116061356D01*
X129613054Y-116052818D01*
X129492606Y-116007664D01*
X129477351Y-116004037D01*
X129426486Y-115998511D01*
X129419672Y-115998142D01*
X128797115Y-115998142D01*
X128781876Y-116002617D01*
X128780671Y-116004007D01*
X128779000Y-116011690D01*
X128779000Y-117084027D01*
X128271000Y-117084027D01*
X128271000Y-116016258D01*
X128266525Y-116001019D01*
X128265135Y-115999814D01*
X128257452Y-115998143D01*
X127630331Y-115998143D01*
X127623510Y-115998513D01*
X127572648Y-116004037D01*
X127557396Y-116007663D01*
X127436946Y-116052818D01*
X127421351Y-116061356D01*
X127319276Y-116137857D01*
X127306715Y-116150418D01*
X127230214Y-116252493D01*
X127221676Y-116268088D01*
X127180297Y-116378464D01*
X127137655Y-116435229D01*
X127071093Y-116459928D01*
X127001744Y-116444720D01*
X126969121Y-116419033D01*
X126918151Y-116363018D01*
X126918148Y-116363015D01*
X126914670Y-116359193D01*
X126910619Y-116355994D01*
X126910615Y-116355990D01*
X126743414Y-116223942D01*
X126743410Y-116223940D01*
X126739359Y-116220740D01*
X126543789Y-116112780D01*
X126538920Y-116111056D01*
X126538916Y-116111054D01*
X126338087Y-116039937D01*
X126338083Y-116039936D01*
X126333212Y-116038211D01*
X126328119Y-116037304D01*
X126328116Y-116037303D01*
X126118373Y-115999942D01*
X126118367Y-115999941D01*
X126113284Y-115999036D01*
X126039452Y-115998134D01*
X125895081Y-115996370D01*
X125895079Y-115996370D01*
X125889911Y-115996307D01*
X125669091Y-116030097D01*
X125456756Y-116099499D01*
X125258607Y-116202649D01*
X125254474Y-116205752D01*
X125254471Y-116205754D01*
X125192141Y-116252553D01*
X125079965Y-116336777D01*
X125040128Y-116378464D01*
X124983696Y-116437517D01*
X124925629Y-116498280D01*
X124799743Y-116682822D01*
X124752715Y-116784135D01*
X124721148Y-116852142D01*
X124705688Y-116885447D01*
X124645989Y-117100712D01*
X124622251Y-117322837D01*
X57758500Y-117322837D01*
X57758500Y-114179240D01*
X58746645Y-114179240D01*
X58764570Y-114376203D01*
X58766308Y-114382109D01*
X58766309Y-114382113D01*
X58793363Y-114474034D01*
X58820410Y-114565934D01*
X58823263Y-114571392D01*
X58823265Y-114571396D01*
X58858098Y-114638025D01*
X58912040Y-114741205D01*
X59035968Y-114895340D01*
X59040692Y-114899304D01*
X59047027Y-114904620D01*
X59187474Y-115022469D01*
X59192872Y-115025436D01*
X59192877Y-115025440D01*
X59336180Y-115104220D01*
X59360787Y-115117748D01*
X59366654Y-115119609D01*
X59366656Y-115119610D01*
X59543436Y-115175688D01*
X59549306Y-115177550D01*
X59703227Y-115194815D01*
X60409769Y-115194815D01*
X60412825Y-115194515D01*
X60412832Y-115194515D01*
X60471340Y-115188778D01*
X60556833Y-115180395D01*
X60562734Y-115178613D01*
X60562736Y-115178613D01*
X60636053Y-115156477D01*
X60746169Y-115123231D01*
X60920796Y-115030381D01*
X61007062Y-114960024D01*
X61069287Y-114909275D01*
X61069290Y-114909272D01*
X61074062Y-114905380D01*
X61077991Y-114900631D01*
X61196201Y-114757740D01*
X61196203Y-114757736D01*
X61200130Y-114752990D01*
X61294198Y-114579016D01*
X61352682Y-114390083D01*
X61354786Y-114370064D01*
X61372711Y-114199519D01*
X61372711Y-114199517D01*
X61373355Y-114193390D01*
X61358493Y-114030083D01*
X61355989Y-114002566D01*
X61355988Y-114002563D01*
X61355430Y-113996427D01*
X61347231Y-113968567D01*
X61307446Y-113833390D01*
X61303282Y-113819240D01*
X63136645Y-113819240D01*
X63137204Y-113825380D01*
X63152065Y-113988673D01*
X63154570Y-114016203D01*
X63156308Y-114022109D01*
X63156309Y-114022113D01*
X63183686Y-114115132D01*
X63210410Y-114205934D01*
X63213263Y-114211392D01*
X63213265Y-114211396D01*
X63247130Y-114276173D01*
X63302040Y-114381205D01*
X63425968Y-114535340D01*
X63430692Y-114539304D01*
X63437933Y-114545380D01*
X63577474Y-114662469D01*
X63582872Y-114665436D01*
X63582877Y-114665440D01*
X63689461Y-114724034D01*
X63750787Y-114757748D01*
X63756654Y-114759609D01*
X63756656Y-114759610D01*
X63933436Y-114815688D01*
X63939306Y-114817550D01*
X64093227Y-114834815D01*
X64799769Y-114834815D01*
X64802825Y-114834515D01*
X64802832Y-114834515D01*
X64861340Y-114828778D01*
X64946833Y-114820395D01*
X64952734Y-114818613D01*
X64952736Y-114818613D01*
X65026053Y-114796477D01*
X65136169Y-114763231D01*
X65310796Y-114670381D01*
X65416177Y-114584434D01*
X65459287Y-114549275D01*
X65459290Y-114549272D01*
X65464062Y-114545380D01*
X65469089Y-114539304D01*
X65586201Y-114397740D01*
X65586203Y-114397736D01*
X65590130Y-114392990D01*
X65684198Y-114219016D01*
X65742682Y-114030083D01*
X65750181Y-113958738D01*
X65762711Y-113839519D01*
X65762711Y-113839517D01*
X65763355Y-113833390D01*
X65745430Y-113636427D01*
X65741400Y-113622732D01*
X65711999Y-113522837D01*
X124622251Y-113522837D01*
X124622548Y-113527990D01*
X124622548Y-113527993D01*
X124633536Y-113718567D01*
X124635110Y-113745857D01*
X124636247Y-113750903D01*
X124636248Y-113750909D01*
X124653453Y-113827250D01*
X124684222Y-113963781D01*
X124768266Y-114170758D01*
X124884987Y-114361230D01*
X125031250Y-114530080D01*
X125090194Y-114579016D01*
X125197022Y-114667706D01*
X125203126Y-114672774D01*
X125396000Y-114785480D01*
X125604692Y-114865172D01*
X125609760Y-114866203D01*
X125609763Y-114866204D01*
X125717017Y-114888025D01*
X125823597Y-114909709D01*
X125828772Y-114909899D01*
X125828774Y-114909899D01*
X126041673Y-114917706D01*
X126041677Y-114917706D01*
X126046837Y-114917895D01*
X126051957Y-114917239D01*
X126051959Y-114917239D01*
X126263288Y-114890167D01*
X126263289Y-114890167D01*
X126268416Y-114889510D01*
X126273366Y-114888025D01*
X126477429Y-114826803D01*
X126477434Y-114826801D01*
X126482384Y-114825316D01*
X126682994Y-114727038D01*
X126864860Y-114597315D01*
X126921743Y-114540631D01*
X126973479Y-114489075D01*
X127035851Y-114455159D01*
X127106658Y-114460347D01*
X127163419Y-114502993D01*
X127180401Y-114534096D01*
X127221676Y-114644196D01*
X127230214Y-114659791D01*
X127306715Y-114761866D01*
X127319276Y-114774427D01*
X127421351Y-114850928D01*
X127436946Y-114859466D01*
X127557394Y-114904620D01*
X127572649Y-114908247D01*
X127623514Y-114913773D01*
X127630328Y-114914142D01*
X128252885Y-114914142D01*
X128268124Y-114909667D01*
X128269329Y-114908277D01*
X128271000Y-114900594D01*
X128271000Y-114896026D01*
X128779000Y-114896026D01*
X128783475Y-114911265D01*
X128784865Y-114912470D01*
X128792548Y-114914141D01*
X129419669Y-114914141D01*
X129426490Y-114913771D01*
X129477352Y-114908247D01*
X129492604Y-114904621D01*
X129613054Y-114859466D01*
X129628649Y-114850928D01*
X129730724Y-114774427D01*
X129743285Y-114761866D01*
X129819786Y-114659791D01*
X129828324Y-114644196D01*
X129873478Y-114523748D01*
X129877105Y-114508493D01*
X129882631Y-114457628D01*
X129883000Y-114450814D01*
X129883000Y-113828257D01*
X129878525Y-113813018D01*
X129877135Y-113811813D01*
X129869452Y-113810142D01*
X128797115Y-113810142D01*
X128781876Y-113814617D01*
X128780671Y-113816007D01*
X128779000Y-113823690D01*
X128779000Y-114896026D01*
X128271000Y-114896026D01*
X128271000Y-113284027D01*
X128779000Y-113284027D01*
X128783475Y-113299266D01*
X128784865Y-113300471D01*
X128792548Y-113302142D01*
X129864884Y-113302142D01*
X129880123Y-113297667D01*
X129881328Y-113296277D01*
X129882999Y-113288594D01*
X129882999Y-113272837D01*
X137122251Y-113272837D01*
X137122548Y-113277990D01*
X137122548Y-113277993D01*
X137132275Y-113446696D01*
X137135110Y-113495857D01*
X137136247Y-113500903D01*
X137136248Y-113500909D01*
X137150606Y-113564617D01*
X137184222Y-113713781D01*
X137268266Y-113920758D01*
X137297563Y-113968567D01*
X137338867Y-114035968D01*
X137384987Y-114111230D01*
X137531250Y-114280080D01*
X137703126Y-114422774D01*
X137896000Y-114535480D01*
X138104692Y-114615172D01*
X138109760Y-114616203D01*
X138109763Y-114616204D01*
X138217017Y-114638025D01*
X138323597Y-114659709D01*
X138328772Y-114659899D01*
X138328774Y-114659899D01*
X138541673Y-114667706D01*
X138541677Y-114667706D01*
X138546837Y-114667895D01*
X138551957Y-114667239D01*
X138551959Y-114667239D01*
X138763288Y-114640167D01*
X138763289Y-114640167D01*
X138768416Y-114639510D01*
X138773366Y-114638025D01*
X138977429Y-114576803D01*
X138977434Y-114576801D01*
X138982384Y-114575316D01*
X139182994Y-114477038D01*
X139364860Y-114347315D01*
X139432331Y-114280080D01*
X139473479Y-114239075D01*
X139535851Y-114205159D01*
X139606658Y-114210347D01*
X139663419Y-114252993D01*
X139680401Y-114284096D01*
X139721676Y-114394196D01*
X139730214Y-114409791D01*
X139806715Y-114511866D01*
X139819276Y-114524427D01*
X139921351Y-114600928D01*
X139936946Y-114609466D01*
X140057394Y-114654620D01*
X140072649Y-114658247D01*
X140123514Y-114663773D01*
X140130328Y-114664142D01*
X140752885Y-114664142D01*
X140768124Y-114659667D01*
X140769329Y-114658277D01*
X140771000Y-114650594D01*
X140771000Y-114646026D01*
X141279000Y-114646026D01*
X141283475Y-114661265D01*
X141284865Y-114662470D01*
X141292548Y-114664141D01*
X141919669Y-114664141D01*
X141926490Y-114663771D01*
X141977352Y-114658247D01*
X141992604Y-114654621D01*
X142113054Y-114609466D01*
X142128649Y-114600928D01*
X142230724Y-114524427D01*
X142243285Y-114511866D01*
X142319786Y-114409791D01*
X142328324Y-114394196D01*
X142373478Y-114273748D01*
X142377105Y-114258493D01*
X142382631Y-114207628D01*
X142383000Y-114200814D01*
X142383000Y-113578257D01*
X142378525Y-113563018D01*
X142377135Y-113561813D01*
X142369452Y-113560142D01*
X141297115Y-113560142D01*
X141281876Y-113564617D01*
X141280671Y-113566007D01*
X141279000Y-113573690D01*
X141279000Y-114646026D01*
X140771000Y-114646026D01*
X140771000Y-113034027D01*
X141279000Y-113034027D01*
X141283475Y-113049266D01*
X141284865Y-113050471D01*
X141292548Y-113052142D01*
X142364884Y-113052142D01*
X142380123Y-113047667D01*
X142381328Y-113046277D01*
X142382999Y-113038594D01*
X142382999Y-112411473D01*
X142382629Y-112404652D01*
X142377105Y-112353790D01*
X142373479Y-112338538D01*
X142328324Y-112218088D01*
X142319786Y-112202493D01*
X142243285Y-112100418D01*
X142230724Y-112087857D01*
X142128649Y-112011356D01*
X142113054Y-112002818D01*
X141992606Y-111957664D01*
X141977351Y-111954037D01*
X141926486Y-111948511D01*
X141919672Y-111948142D01*
X141297115Y-111948142D01*
X141281876Y-111952617D01*
X141280671Y-111954007D01*
X141279000Y-111961690D01*
X141279000Y-113034027D01*
X140771000Y-113034027D01*
X140771000Y-111966258D01*
X140766525Y-111951019D01*
X140765135Y-111949814D01*
X140757452Y-111948143D01*
X140130331Y-111948143D01*
X140123510Y-111948513D01*
X140072648Y-111954037D01*
X140057396Y-111957663D01*
X139936946Y-112002818D01*
X139921351Y-112011356D01*
X139819276Y-112087857D01*
X139806715Y-112100418D01*
X139730214Y-112202493D01*
X139721676Y-112218088D01*
X139680297Y-112328464D01*
X139637655Y-112385229D01*
X139571093Y-112409928D01*
X139501744Y-112394720D01*
X139469121Y-112369033D01*
X139418151Y-112313018D01*
X139418148Y-112313015D01*
X139414670Y-112309193D01*
X139410619Y-112305994D01*
X139410615Y-112305990D01*
X139243414Y-112173942D01*
X139243410Y-112173940D01*
X139239359Y-112170740D01*
X139043789Y-112062780D01*
X139038920Y-112061056D01*
X139038916Y-112061054D01*
X138838087Y-111989937D01*
X138838083Y-111989936D01*
X138833212Y-111988211D01*
X138828119Y-111987304D01*
X138828116Y-111987303D01*
X138618373Y-111949942D01*
X138618367Y-111949941D01*
X138613284Y-111949036D01*
X138539452Y-111948134D01*
X138395081Y-111946370D01*
X138395079Y-111946370D01*
X138389911Y-111946307D01*
X138169091Y-111980097D01*
X137956756Y-112049499D01*
X137930302Y-112063270D01*
X137763842Y-112149924D01*
X137758607Y-112152649D01*
X137754474Y-112155752D01*
X137754471Y-112155754D01*
X137584100Y-112283672D01*
X137579965Y-112286777D01*
X137425629Y-112448280D01*
X137422715Y-112452552D01*
X137422714Y-112452553D01*
X137365260Y-112536777D01*
X137299743Y-112632822D01*
X137271093Y-112694543D01*
X137207884Y-112830717D01*
X137205688Y-112835447D01*
X137145989Y-113050712D01*
X137122251Y-113272837D01*
X129882999Y-113272837D01*
X129882999Y-112661473D01*
X129882629Y-112654652D01*
X129877105Y-112603790D01*
X129873479Y-112588538D01*
X129828324Y-112468088D01*
X129819786Y-112452493D01*
X129743285Y-112350418D01*
X129730724Y-112337857D01*
X129628649Y-112261356D01*
X129613054Y-112252818D01*
X129492606Y-112207664D01*
X129477351Y-112204037D01*
X129426486Y-112198511D01*
X129419672Y-112198142D01*
X128797115Y-112198142D01*
X128781876Y-112202617D01*
X128780671Y-112204007D01*
X128779000Y-112211690D01*
X128779000Y-113284027D01*
X128271000Y-113284027D01*
X128271000Y-112216258D01*
X128266525Y-112201019D01*
X128265135Y-112199814D01*
X128257452Y-112198143D01*
X127630331Y-112198143D01*
X127623510Y-112198513D01*
X127572648Y-112204037D01*
X127557396Y-112207663D01*
X127436946Y-112252818D01*
X127421351Y-112261356D01*
X127319276Y-112337857D01*
X127306715Y-112350418D01*
X127230214Y-112452493D01*
X127221676Y-112468088D01*
X127180297Y-112578464D01*
X127137655Y-112635229D01*
X127071093Y-112659928D01*
X127001744Y-112644720D01*
X126969121Y-112619033D01*
X126918151Y-112563018D01*
X126918148Y-112563015D01*
X126914670Y-112559193D01*
X126910619Y-112555994D01*
X126910615Y-112555990D01*
X126743414Y-112423942D01*
X126743410Y-112423940D01*
X126739359Y-112420740D01*
X126543789Y-112312780D01*
X126538920Y-112311056D01*
X126538916Y-112311054D01*
X126338087Y-112239937D01*
X126338083Y-112239936D01*
X126333212Y-112238211D01*
X126328119Y-112237304D01*
X126328116Y-112237303D01*
X126118373Y-112199942D01*
X126118367Y-112199941D01*
X126113284Y-112199036D01*
X126039452Y-112198134D01*
X125895081Y-112196370D01*
X125895079Y-112196370D01*
X125889911Y-112196307D01*
X125669091Y-112230097D01*
X125456756Y-112299499D01*
X125258607Y-112402649D01*
X125254474Y-112405752D01*
X125254471Y-112405754D01*
X125121096Y-112505895D01*
X125079965Y-112536777D01*
X125040128Y-112578464D01*
X124983696Y-112637517D01*
X124925629Y-112698280D01*
X124922715Y-112702552D01*
X124922714Y-112702553D01*
X124877176Y-112769310D01*
X124799743Y-112882822D01*
X124754934Y-112979356D01*
X124721148Y-113052142D01*
X124705688Y-113085447D01*
X124645989Y-113300712D01*
X124622251Y-113522837D01*
X65711999Y-113522837D01*
X65710488Y-113517704D01*
X65689590Y-113446696D01*
X65679919Y-113428196D01*
X65630414Y-113333503D01*
X65597960Y-113271425D01*
X65474032Y-113117290D01*
X65467727Y-113111999D01*
X65430488Y-113080752D01*
X65322526Y-112990161D01*
X65317128Y-112987194D01*
X65317123Y-112987190D01*
X65154608Y-112897848D01*
X65154609Y-112897848D01*
X65149213Y-112894882D01*
X65143344Y-112893020D01*
X65143341Y-112893019D01*
X65090825Y-112876360D01*
X65039828Y-112845353D01*
X64996677Y-112802202D01*
X64962651Y-112739890D01*
X64967716Y-112669075D01*
X64992134Y-112628799D01*
X65028030Y-112588933D01*
X65080849Y-112497447D01*
X65414408Y-112497447D01*
X65414539Y-112499280D01*
X65418790Y-112505895D01*
X65778466Y-112865571D01*
X65790846Y-112872331D01*
X65797761Y-112867155D01*
X65811876Y-112842706D01*
X65817214Y-112830717D01*
X65867245Y-112676737D01*
X65869975Y-112663896D01*
X65886898Y-112502880D01*
X65886898Y-112489750D01*
X65869975Y-112328734D01*
X65867245Y-112315893D01*
X65817214Y-112161913D01*
X65811876Y-112149924D01*
X65800335Y-112129934D01*
X65790131Y-112120204D01*
X65782110Y-112123415D01*
X65422022Y-112483503D01*
X65414408Y-112497447D01*
X65080849Y-112497447D01*
X65115634Y-112437197D01*
X65169777Y-112270564D01*
X65171643Y-112252818D01*
X65187401Y-112102880D01*
X65188091Y-112096315D01*
X65185119Y-112068036D01*
X65197892Y-111998197D01*
X65221334Y-111965771D01*
X65419564Y-111767541D01*
X65427179Y-111753596D01*
X65425300Y-111727328D01*
X65440392Y-111657954D01*
X65476917Y-111616404D01*
X65528567Y-111578878D01*
X65595433Y-111555021D01*
X65602627Y-111554815D01*
X65895479Y-111554815D01*
X65907335Y-111555374D01*
X65907338Y-111555374D01*
X65915072Y-111557103D01*
X65985904Y-111554877D01*
X65989862Y-111554815D01*
X66018967Y-111554815D01*
X66023367Y-111554259D01*
X66035199Y-111553327D01*
X66081366Y-111551877D01*
X66101956Y-111545895D01*
X66121317Y-111541885D01*
X66128305Y-111541003D01*
X66134739Y-111540190D01*
X66134740Y-111540190D01*
X66142599Y-111539197D01*
X66149964Y-111536281D01*
X66149968Y-111536280D01*
X66185556Y-111522189D01*
X66196766Y-111518350D01*
X66241135Y-111505460D01*
X66259600Y-111494540D01*
X66277340Y-111485849D01*
X66297291Y-111477950D01*
X66334664Y-111450797D01*
X66344583Y-111444282D01*
X66377512Y-111424808D01*
X66377516Y-111424805D01*
X66384342Y-111420768D01*
X66399506Y-111405604D01*
X66414540Y-111392763D01*
X66425478Y-111384816D01*
X66431892Y-111380156D01*
X66461338Y-111344562D01*
X66469327Y-111335783D01*
X66857606Y-110947504D01*
X66866386Y-110939514D01*
X66866388Y-110939512D01*
X66873081Y-110935265D01*
X66878669Y-110929315D01*
X66921605Y-110883592D01*
X66924360Y-110880750D01*
X66944928Y-110860182D01*
X66947648Y-110856675D01*
X66955354Y-110847653D01*
X66981545Y-110819762D01*
X66986973Y-110813982D01*
X66990795Y-110807030D01*
X66997304Y-110795191D01*
X67008158Y-110778667D01*
X67016446Y-110767981D01*
X67021305Y-110761717D01*
X67024453Y-110754443D01*
X67039655Y-110719314D01*
X67044877Y-110708654D01*
X67063306Y-110675133D01*
X67063307Y-110675131D01*
X67067125Y-110668186D01*
X67072460Y-110647408D01*
X67078859Y-110628718D01*
X67087381Y-110609025D01*
X67094607Y-110563401D01*
X67097014Y-110551778D01*
X67106529Y-110514717D01*
X67108501Y-110507037D01*
X67108501Y-110485590D01*
X67110052Y-110465880D01*
X67112167Y-110452526D01*
X67113407Y-110444697D01*
X67109060Y-110398708D01*
X67108501Y-110386853D01*
X67108501Y-107158056D01*
X67110052Y-107138345D01*
X67110758Y-107133891D01*
X67113407Y-107117163D01*
X67109060Y-107071178D01*
X67108501Y-107059320D01*
X67108501Y-101838199D01*
X67109060Y-101826343D01*
X67109060Y-101826340D01*
X67110789Y-101818606D01*
X67108563Y-101747774D01*
X67108501Y-101743816D01*
X67108501Y-101714711D01*
X67107945Y-101710311D01*
X67107013Y-101698473D01*
X67105812Y-101660237D01*
X67105563Y-101652312D01*
X67099581Y-101631722D01*
X67095571Y-101612359D01*
X67093876Y-101598939D01*
X67093876Y-101598938D01*
X67092883Y-101591079D01*
X67089967Y-101583714D01*
X67089966Y-101583710D01*
X67075877Y-101548125D01*
X67072032Y-101536896D01*
X67070603Y-101531978D01*
X67059146Y-101492542D01*
X67048231Y-101474086D01*
X67039532Y-101456330D01*
X67038099Y-101452712D01*
X67031636Y-101436387D01*
X67004481Y-101399011D01*
X66997966Y-101389092D01*
X66978493Y-101356166D01*
X66978490Y-101356162D01*
X66974453Y-101349336D01*
X66959292Y-101334175D01*
X66946450Y-101319140D01*
X66933842Y-101301786D01*
X66927738Y-101296736D01*
X66927736Y-101296734D01*
X66898238Y-101272331D01*
X66889460Y-101264342D01*
X65752677Y-100127559D01*
X65718651Y-100065247D01*
X65723716Y-99994432D01*
X65752677Y-99949369D01*
X68957452Y-96744595D01*
X69019764Y-96710569D01*
X69090580Y-96715634D01*
X69147415Y-96758181D01*
X69172226Y-96824701D01*
X69171857Y-96846860D01*
X69163429Y-96927044D01*
X69154065Y-97016142D01*
X69154253Y-97017928D01*
X69134753Y-97084338D01*
X69117850Y-97105312D01*
X68953766Y-97269396D01*
X68941375Y-97280263D01*
X68916013Y-97299724D01*
X68891526Y-97331636D01*
X68891523Y-97331639D01*
X68891517Y-97331647D01*
X68844116Y-97393421D01*
X68818476Y-97426835D01*
X68757162Y-97574860D01*
X68756084Y-97583047D01*
X68756084Y-97583048D01*
X68754609Y-97594253D01*
X68746121Y-97658729D01*
X68741500Y-97693826D01*
X68741500Y-97693831D01*
X68736250Y-97733711D01*
X68737328Y-97741899D01*
X68740422Y-97765401D01*
X68741500Y-97781847D01*
X68741500Y-107073006D01*
X68740422Y-107089449D01*
X68736250Y-107121142D01*
X68741500Y-107161022D01*
X68741500Y-107161027D01*
X68749570Y-107222322D01*
X68757162Y-107279993D01*
X68818476Y-107428018D01*
X68823503Y-107434569D01*
X68823504Y-107434571D01*
X68891520Y-107523211D01*
X68891526Y-107523217D01*
X68916013Y-107555129D01*
X68922568Y-107560159D01*
X68941379Y-107574594D01*
X68953770Y-107585461D01*
X72435281Y-111066972D01*
X72469307Y-111129284D01*
X72471841Y-111152858D01*
X72471496Y-111156142D01*
X72472186Y-111162707D01*
X72486919Y-111302880D01*
X72491458Y-111346070D01*
X72550473Y-111527698D01*
X72553776Y-111533420D01*
X72553777Y-111533421D01*
X72565843Y-111554320D01*
X72645960Y-111693086D01*
X72650378Y-111697993D01*
X72650379Y-111697994D01*
X72769325Y-111830097D01*
X72773747Y-111835008D01*
X72872843Y-111907006D01*
X72893572Y-111922066D01*
X72928248Y-111947260D01*
X72934276Y-111949944D01*
X72934278Y-111949945D01*
X73096681Y-112022251D01*
X73102712Y-112024936D01*
X73196113Y-112044789D01*
X73283056Y-112063270D01*
X73283061Y-112063270D01*
X73289513Y-112064642D01*
X73480487Y-112064642D01*
X73486939Y-112063270D01*
X73486944Y-112063270D01*
X73573887Y-112044789D01*
X73667288Y-112024936D01*
X73673319Y-112022251D01*
X73835722Y-111949945D01*
X73835724Y-111949944D01*
X73841752Y-111947260D01*
X73876429Y-111922066D01*
X73897157Y-111907006D01*
X73996253Y-111835008D01*
X74000675Y-111830097D01*
X74119621Y-111697994D01*
X74119622Y-111697993D01*
X74124040Y-111693086D01*
X74204157Y-111554320D01*
X74216223Y-111533421D01*
X74216224Y-111533420D01*
X74219527Y-111527698D01*
X74278542Y-111346070D01*
X74283082Y-111302880D01*
X74297814Y-111162707D01*
X74298504Y-111156142D01*
X74278542Y-110966214D01*
X74219527Y-110784586D01*
X74215034Y-110776803D01*
X74172419Y-110702993D01*
X74124040Y-110619198D01*
X74071846Y-110561230D01*
X74000675Y-110482187D01*
X74000674Y-110482186D01*
X73996253Y-110477276D01*
X73879977Y-110392796D01*
X73847094Y-110368905D01*
X73847093Y-110368904D01*
X73841752Y-110365024D01*
X73835724Y-110362340D01*
X73835722Y-110362339D01*
X73673319Y-110290033D01*
X73673318Y-110290033D01*
X73667288Y-110287348D01*
X73573887Y-110267495D01*
X73486944Y-110249014D01*
X73486939Y-110249014D01*
X73480487Y-110247642D01*
X73389239Y-110247642D01*
X73321118Y-110227640D01*
X73300144Y-110210737D01*
X71089407Y-108000000D01*
X119086496Y-108000000D01*
X119087186Y-108006565D01*
X119105594Y-108181704D01*
X119106458Y-108189928D01*
X119165473Y-108371556D01*
X119168776Y-108377278D01*
X119168777Y-108377279D01*
X119192338Y-108418088D01*
X119260960Y-108536944D01*
X119265378Y-108541851D01*
X119265379Y-108541852D01*
X119358753Y-108645554D01*
X119388747Y-108678866D01*
X119457249Y-108728636D01*
X119490002Y-108752432D01*
X119543248Y-108791118D01*
X119549276Y-108793802D01*
X119549278Y-108793803D01*
X119702412Y-108861982D01*
X119717712Y-108868794D01*
X119811113Y-108888647D01*
X119898056Y-108907128D01*
X119898061Y-108907128D01*
X119904513Y-108908500D01*
X120095487Y-108908500D01*
X120101939Y-108907128D01*
X120101944Y-108907128D01*
X120188887Y-108888647D01*
X120282288Y-108868794D01*
X120297588Y-108861982D01*
X120450722Y-108793803D01*
X120450724Y-108793802D01*
X120456752Y-108791118D01*
X120509999Y-108752432D01*
X120589671Y-108694546D01*
X120611253Y-108678866D01*
X120637074Y-108650189D01*
X120697520Y-108612950D01*
X120730710Y-108608500D01*
X124907859Y-108608500D01*
X124975980Y-108628502D01*
X125022473Y-108682158D01*
X125032577Y-108752432D01*
X124998953Y-108821551D01*
X124953807Y-108868794D01*
X124925629Y-108898280D01*
X124799743Y-109082822D01*
X124769993Y-109146913D01*
X124721148Y-109252142D01*
X124705688Y-109285447D01*
X124645989Y-109500712D01*
X124622251Y-109722837D01*
X124622548Y-109727990D01*
X124622548Y-109727993D01*
X124633536Y-109918567D01*
X124635110Y-109945857D01*
X124636247Y-109950903D01*
X124636248Y-109950909D01*
X124650606Y-110014617D01*
X124684222Y-110163781D01*
X124722461Y-110257953D01*
X124765938Y-110365024D01*
X124768266Y-110370758D01*
X124781771Y-110392796D01*
X124851778Y-110507037D01*
X124884987Y-110561230D01*
X125031250Y-110730080D01*
X125107846Y-110793671D01*
X125197022Y-110867706D01*
X125203126Y-110872774D01*
X125396000Y-110985480D01*
X125604692Y-111065172D01*
X125609760Y-111066203D01*
X125609763Y-111066204D01*
X125717017Y-111088025D01*
X125823597Y-111109709D01*
X125828772Y-111109899D01*
X125828774Y-111109899D01*
X126041673Y-111117706D01*
X126041677Y-111117706D01*
X126046837Y-111117895D01*
X126051957Y-111117239D01*
X126051959Y-111117239D01*
X126263288Y-111090167D01*
X126263289Y-111090167D01*
X126268416Y-111089510D01*
X126273366Y-111088025D01*
X126477429Y-111026803D01*
X126477434Y-111026801D01*
X126482384Y-111025316D01*
X126682994Y-110927038D01*
X126864860Y-110797315D01*
X126883574Y-110778667D01*
X126973479Y-110689075D01*
X127035851Y-110655159D01*
X127106658Y-110660347D01*
X127163419Y-110702993D01*
X127180401Y-110734096D01*
X127221676Y-110844196D01*
X127230214Y-110859791D01*
X127306715Y-110961866D01*
X127319276Y-110974427D01*
X127421351Y-111050928D01*
X127436946Y-111059466D01*
X127557394Y-111104620D01*
X127572649Y-111108247D01*
X127623514Y-111113773D01*
X127630328Y-111114142D01*
X128252885Y-111114142D01*
X128268124Y-111109667D01*
X128269329Y-111108277D01*
X128271000Y-111100594D01*
X128271000Y-111096026D01*
X128779000Y-111096026D01*
X128783475Y-111111265D01*
X128784865Y-111112470D01*
X128792548Y-111114141D01*
X129419669Y-111114141D01*
X129426490Y-111113771D01*
X129477352Y-111108247D01*
X129492604Y-111104621D01*
X129613054Y-111059466D01*
X129628649Y-111050928D01*
X129730724Y-110974427D01*
X129743285Y-110961866D01*
X129819786Y-110859791D01*
X129828324Y-110844196D01*
X129873478Y-110723748D01*
X129877105Y-110708493D01*
X129882631Y-110657628D01*
X129883000Y-110650814D01*
X129883000Y-110028257D01*
X129878525Y-110013018D01*
X129877135Y-110011813D01*
X129869452Y-110010142D01*
X128797115Y-110010142D01*
X128781876Y-110014617D01*
X128780671Y-110016007D01*
X128779000Y-110023690D01*
X128779000Y-111096026D01*
X128271000Y-111096026D01*
X128271000Y-109628142D01*
X128291002Y-109560021D01*
X128344658Y-109513528D01*
X128397000Y-109502142D01*
X129864884Y-109502142D01*
X129880123Y-109497667D01*
X129881328Y-109496277D01*
X129882999Y-109488594D01*
X129882999Y-108861473D01*
X129882629Y-108854652D01*
X129877105Y-108803790D01*
X129873479Y-108788539D01*
X129869802Y-108778730D01*
X129864619Y-108707923D01*
X129898539Y-108645554D01*
X129960794Y-108611425D01*
X129987784Y-108608500D01*
X136674619Y-108608500D01*
X136742740Y-108628502D01*
X136763714Y-108645405D01*
X137142454Y-109024145D01*
X137176480Y-109086457D01*
X137174776Y-109146911D01*
X137145989Y-109250712D01*
X137145441Y-109255842D01*
X137145440Y-109255846D01*
X137142277Y-109285447D01*
X137122251Y-109472837D01*
X137122548Y-109477990D01*
X137122548Y-109477993D01*
X137125144Y-109523017D01*
X137135110Y-109695857D01*
X137136247Y-109700903D01*
X137136248Y-109700909D01*
X137150606Y-109764617D01*
X137184222Y-109913781D01*
X137268266Y-110120758D01*
X137297563Y-110168567D01*
X137371998Y-110290033D01*
X137384987Y-110311230D01*
X137531250Y-110480080D01*
X137703126Y-110622774D01*
X137896000Y-110735480D01*
X138104692Y-110815172D01*
X138109760Y-110816203D01*
X138109763Y-110816204D01*
X138182095Y-110830920D01*
X138323597Y-110859709D01*
X138328772Y-110859899D01*
X138328774Y-110859899D01*
X138541673Y-110867706D01*
X138541677Y-110867706D01*
X138546837Y-110867895D01*
X138551957Y-110867239D01*
X138551959Y-110867239D01*
X138763288Y-110840167D01*
X138763289Y-110840167D01*
X138768416Y-110839510D01*
X138797048Y-110830920D01*
X138977429Y-110776803D01*
X138977434Y-110776801D01*
X138982384Y-110775316D01*
X139182994Y-110677038D01*
X139364860Y-110547315D01*
X139432331Y-110480080D01*
X139473479Y-110439075D01*
X139535851Y-110405159D01*
X139606658Y-110410347D01*
X139663419Y-110452993D01*
X139680401Y-110484096D01*
X139721676Y-110594196D01*
X139730214Y-110609791D01*
X139806715Y-110711866D01*
X139819276Y-110724427D01*
X139921351Y-110800928D01*
X139936946Y-110809466D01*
X140057394Y-110854620D01*
X140072649Y-110858247D01*
X140123514Y-110863773D01*
X140130328Y-110864142D01*
X140752885Y-110864142D01*
X140768124Y-110859667D01*
X140769329Y-110858277D01*
X140771000Y-110850594D01*
X140771000Y-110846026D01*
X141279000Y-110846026D01*
X141283475Y-110861265D01*
X141284865Y-110862470D01*
X141292548Y-110864141D01*
X141919669Y-110864141D01*
X141926490Y-110863771D01*
X141977352Y-110858247D01*
X141992604Y-110854621D01*
X142113054Y-110809466D01*
X142128649Y-110800928D01*
X142230724Y-110724427D01*
X142243285Y-110711866D01*
X142319786Y-110609791D01*
X142328324Y-110594196D01*
X142373478Y-110473748D01*
X142377105Y-110458493D01*
X142382631Y-110407628D01*
X142383000Y-110400814D01*
X142383000Y-109778257D01*
X142378525Y-109763018D01*
X142377135Y-109761813D01*
X142369452Y-109760142D01*
X141297115Y-109760142D01*
X141281876Y-109764617D01*
X141280671Y-109766007D01*
X141279000Y-109773690D01*
X141279000Y-110846026D01*
X140771000Y-110846026D01*
X140771000Y-109234027D01*
X141279000Y-109234027D01*
X141283475Y-109249266D01*
X141284865Y-109250471D01*
X141292548Y-109252142D01*
X142364884Y-109252142D01*
X142380123Y-109247667D01*
X142381328Y-109246277D01*
X142382999Y-109238594D01*
X142382999Y-108611473D01*
X142382629Y-108604652D01*
X142377105Y-108553790D01*
X142373479Y-108538538D01*
X142328324Y-108418088D01*
X142319786Y-108402493D01*
X142243285Y-108300418D01*
X142230724Y-108287857D01*
X142128649Y-108211356D01*
X142113054Y-108202818D01*
X141992606Y-108157664D01*
X141977351Y-108154037D01*
X141926486Y-108148511D01*
X141919672Y-108148142D01*
X141297115Y-108148142D01*
X141281876Y-108152617D01*
X141280671Y-108154007D01*
X141279000Y-108161690D01*
X141279000Y-109234027D01*
X140771000Y-109234027D01*
X140771000Y-108166258D01*
X140766525Y-108151019D01*
X140765135Y-108149814D01*
X140757452Y-108148143D01*
X140130331Y-108148143D01*
X140123510Y-108148513D01*
X140072648Y-108154037D01*
X140057396Y-108157663D01*
X139936946Y-108202818D01*
X139921351Y-108211356D01*
X139819276Y-108287857D01*
X139806715Y-108300418D01*
X139730214Y-108402493D01*
X139721676Y-108418088D01*
X139680297Y-108528464D01*
X139637655Y-108585229D01*
X139571093Y-108609928D01*
X139501744Y-108594720D01*
X139469121Y-108569033D01*
X139418151Y-108513018D01*
X139418148Y-108513015D01*
X139414670Y-108509193D01*
X139410619Y-108505994D01*
X139410615Y-108505990D01*
X139243414Y-108373942D01*
X139243410Y-108373940D01*
X139239359Y-108370740D01*
X139043789Y-108262780D01*
X139038920Y-108261056D01*
X139038916Y-108261054D01*
X138838087Y-108189937D01*
X138838083Y-108189936D01*
X138833212Y-108188211D01*
X138828119Y-108187304D01*
X138828116Y-108187303D01*
X138618373Y-108149942D01*
X138618367Y-108149941D01*
X138613284Y-108149036D01*
X138539452Y-108148134D01*
X138395081Y-108146370D01*
X138395079Y-108146370D01*
X138389911Y-108146307D01*
X138259530Y-108166258D01*
X138174200Y-108179315D01*
X138174197Y-108179316D01*
X138169091Y-108180097D01*
X138164176Y-108181704D01*
X138164174Y-108181704D01*
X138129890Y-108192910D01*
X138058927Y-108195063D01*
X138001648Y-108162241D01*
X137534041Y-107694634D01*
X137523174Y-107682243D01*
X137439013Y-107572563D01*
X137433987Y-107566013D01*
X137413993Y-107550671D01*
X137378207Y-107523211D01*
X137313429Y-107473504D01*
X137313427Y-107473503D01*
X137306876Y-107468476D01*
X137225022Y-107434571D01*
X137166480Y-107410322D01*
X137166477Y-107410321D01*
X137158850Y-107407162D01*
X137000000Y-107386249D01*
X136991812Y-107387327D01*
X136968303Y-107390422D01*
X136951857Y-107391500D01*
X120730710Y-107391500D01*
X120662589Y-107371498D01*
X120637074Y-107349811D01*
X120615668Y-107326037D01*
X120615666Y-107326036D01*
X120611253Y-107321134D01*
X120568057Y-107289750D01*
X120462094Y-107212763D01*
X120462093Y-107212762D01*
X120456752Y-107208882D01*
X120450724Y-107206198D01*
X120450722Y-107206197D01*
X120288319Y-107133891D01*
X120288318Y-107133891D01*
X120282288Y-107131206D01*
X120179097Y-107109272D01*
X120101944Y-107092872D01*
X120101939Y-107092872D01*
X120095487Y-107091500D01*
X119904513Y-107091500D01*
X119898061Y-107092872D01*
X119898056Y-107092872D01*
X119820903Y-107109272D01*
X119717712Y-107131206D01*
X119711682Y-107133891D01*
X119711681Y-107133891D01*
X119549278Y-107206197D01*
X119549276Y-107206198D01*
X119543248Y-107208882D01*
X119537907Y-107212762D01*
X119537906Y-107212763D01*
X119487843Y-107249136D01*
X119388747Y-107321134D01*
X119384326Y-107326044D01*
X119384325Y-107326045D01*
X119279641Y-107442309D01*
X119260960Y-107463056D01*
X119165473Y-107628444D01*
X119106458Y-107810072D01*
X119105768Y-107816633D01*
X119105768Y-107816635D01*
X119087186Y-107993435D01*
X119086496Y-108000000D01*
X71089407Y-108000000D01*
X69995405Y-106905998D01*
X69961379Y-106843686D01*
X69958500Y-106816903D01*
X69958500Y-103369021D01*
X69978502Y-103300900D01*
X70032158Y-103254407D01*
X70102432Y-103244303D01*
X70167012Y-103273797D01*
X70173595Y-103279926D01*
X72946594Y-106052925D01*
X72980620Y-106115237D01*
X72983154Y-106138811D01*
X72982809Y-106142095D01*
X72983499Y-106148660D01*
X72990421Y-106214515D01*
X73002771Y-106332023D01*
X73061786Y-106513651D01*
X73157273Y-106679039D01*
X73285060Y-106820961D01*
X73439561Y-106933213D01*
X73445589Y-106935897D01*
X73445591Y-106935898D01*
X73607994Y-107008204D01*
X73614025Y-107010889D01*
X73707426Y-107030742D01*
X73794369Y-107049223D01*
X73794374Y-107049223D01*
X73800826Y-107050595D01*
X73991800Y-107050595D01*
X73998252Y-107049223D01*
X73998257Y-107049223D01*
X74085200Y-107030742D01*
X74178601Y-107010889D01*
X74184632Y-107008204D01*
X74347035Y-106935898D01*
X74347037Y-106935897D01*
X74353065Y-106933213D01*
X74507566Y-106820961D01*
X74635353Y-106679039D01*
X74730840Y-106513651D01*
X74789855Y-106332023D01*
X74802206Y-106214515D01*
X74809127Y-106148660D01*
X74809817Y-106142095D01*
X74789855Y-105952167D01*
X74730840Y-105770539D01*
X74635353Y-105605151D01*
X74624529Y-105593129D01*
X74511988Y-105468140D01*
X74511987Y-105468139D01*
X74507566Y-105463229D01*
X74406863Y-105390064D01*
X74358407Y-105354858D01*
X74358406Y-105354857D01*
X74353065Y-105350977D01*
X74347037Y-105348293D01*
X74347035Y-105348292D01*
X74184632Y-105275986D01*
X74184631Y-105275986D01*
X74178601Y-105273301D01*
X74085200Y-105253448D01*
X73998257Y-105234967D01*
X73998252Y-105234967D01*
X73991800Y-105233595D01*
X73900552Y-105233595D01*
X73832431Y-105213593D01*
X73811457Y-105196690D01*
X70695405Y-102080638D01*
X70661379Y-102018326D01*
X70658500Y-101991543D01*
X70658500Y-98996432D01*
X70678502Y-98928311D01*
X70690864Y-98912122D01*
X70784621Y-98807994D01*
X70784622Y-98807993D01*
X70789040Y-98803086D01*
X70884527Y-98637698D01*
X70943542Y-98456070D01*
X70952820Y-98367800D01*
X70962814Y-98272707D01*
X70963504Y-98266142D01*
X70960940Y-98241750D01*
X70944232Y-98082777D01*
X70944232Y-98082775D01*
X70943542Y-98076214D01*
X70884527Y-97894586D01*
X70789040Y-97729198D01*
X70785423Y-97725181D01*
X70761715Y-97658729D01*
X70777798Y-97589578D01*
X70793873Y-97567231D01*
X70802190Y-97557994D01*
X70802191Y-97557993D01*
X70806609Y-97553086D01*
X70902096Y-97387698D01*
X70961111Y-97206070D01*
X70981073Y-97016142D01*
X70971709Y-96927044D01*
X70961801Y-96832777D01*
X70961801Y-96832775D01*
X70961111Y-96826214D01*
X70902096Y-96644586D01*
X70885679Y-96616150D01*
X70864883Y-96580132D01*
X70806609Y-96479198D01*
X70710931Y-96372936D01*
X70683244Y-96342187D01*
X70683243Y-96342186D01*
X70678822Y-96337276D01*
X70579726Y-96265278D01*
X70529663Y-96228905D01*
X70529662Y-96228904D01*
X70524321Y-96225024D01*
X70518293Y-96222340D01*
X70518291Y-96222339D01*
X70355888Y-96150033D01*
X70355887Y-96150033D01*
X70349857Y-96147348D01*
X70233889Y-96122698D01*
X70169513Y-96109014D01*
X70169508Y-96109014D01*
X70163056Y-96107642D01*
X69972082Y-96107642D01*
X69965622Y-96109015D01*
X69965623Y-96109015D01*
X69908529Y-96121150D01*
X69837738Y-96115747D01*
X69781106Y-96072930D01*
X69756613Y-96006293D01*
X69772034Y-95936991D01*
X69793236Y-95908811D01*
X70781642Y-94920405D01*
X70843954Y-94886379D01*
X70870737Y-94883500D01*
X73525722Y-94883500D01*
X73593843Y-94903502D01*
X73640336Y-94957158D01*
X73650440Y-95027432D01*
X73619359Y-95093808D01*
X73510960Y-95214198D01*
X73505296Y-95224008D01*
X73420318Y-95371195D01*
X73415473Y-95379586D01*
X73356458Y-95561214D01*
X73355768Y-95567775D01*
X73355768Y-95567777D01*
X73342012Y-95698664D01*
X73336496Y-95751142D01*
X73356458Y-95941070D01*
X73415473Y-96122698D01*
X73418776Y-96128420D01*
X73418777Y-96128421D01*
X73429705Y-96147348D01*
X73510960Y-96288086D01*
X73515378Y-96292993D01*
X73515379Y-96292994D01*
X73541089Y-96321548D01*
X73558282Y-96340642D01*
X73559136Y-96341591D01*
X73589854Y-96405598D01*
X73591500Y-96425901D01*
X73591500Y-100001850D01*
X73571498Y-100069971D01*
X73559136Y-100086160D01*
X73512163Y-100138329D01*
X73416676Y-100303717D01*
X73357661Y-100485345D01*
X73356971Y-100491906D01*
X73356971Y-100491908D01*
X73347926Y-100577972D01*
X73337699Y-100675273D01*
X73338389Y-100681838D01*
X73356957Y-100858500D01*
X73357661Y-100865201D01*
X73416676Y-101046829D01*
X73512163Y-101212217D01*
X73516581Y-101217124D01*
X73516582Y-101217125D01*
X73621141Y-101333250D01*
X73639950Y-101354139D01*
X73690945Y-101391189D01*
X73775624Y-101452712D01*
X73794451Y-101466391D01*
X73800479Y-101469075D01*
X73800481Y-101469076D01*
X73962884Y-101541382D01*
X73968915Y-101544067D01*
X74038981Y-101558960D01*
X74149259Y-101582401D01*
X74149264Y-101582401D01*
X74155716Y-101583773D01*
X74346690Y-101583773D01*
X74353142Y-101582401D01*
X74353147Y-101582401D01*
X74463425Y-101558960D01*
X74533491Y-101544067D01*
X74539522Y-101541382D01*
X74701925Y-101469076D01*
X74701927Y-101469075D01*
X74707955Y-101466391D01*
X74726783Y-101452712D01*
X74811461Y-101391189D01*
X74862456Y-101354139D01*
X74881265Y-101333250D01*
X74985824Y-101217125D01*
X74985825Y-101217124D01*
X74990243Y-101212217D01*
X75085730Y-101046829D01*
X75144745Y-100865201D01*
X75145450Y-100858500D01*
X75164017Y-100681838D01*
X75164707Y-100675273D01*
X75154480Y-100577972D01*
X75145435Y-100491908D01*
X75145435Y-100491906D01*
X75144745Y-100485345D01*
X75085730Y-100303717D01*
X74990243Y-100138329D01*
X74940864Y-100083488D01*
X74910146Y-100019481D01*
X74908500Y-99999178D01*
X74908500Y-96425901D01*
X74928502Y-96357780D01*
X74940864Y-96341591D01*
X74941719Y-96340642D01*
X74958911Y-96321548D01*
X74984621Y-96292994D01*
X74984622Y-96292993D01*
X74989040Y-96288086D01*
X75070295Y-96147348D01*
X75081223Y-96128421D01*
X75081224Y-96128420D01*
X75084527Y-96122698D01*
X75143542Y-95941070D01*
X75163504Y-95751142D01*
X75157988Y-95698664D01*
X75144232Y-95567777D01*
X75144232Y-95567775D01*
X75143542Y-95561214D01*
X75084527Y-95379586D01*
X75079683Y-95371195D01*
X74994704Y-95224008D01*
X74989040Y-95214198D01*
X74880641Y-95093808D01*
X74849925Y-95029803D01*
X74858689Y-94959349D01*
X74904151Y-94904818D01*
X74974278Y-94883500D01*
X83935406Y-94883500D01*
X84003527Y-94903502D01*
X84024501Y-94920405D01*
X87802878Y-98698783D01*
X87836904Y-98761095D01*
X87839093Y-98774706D01*
X87844555Y-98826680D01*
X87853536Y-98912122D01*
X87856458Y-98939928D01*
X87915473Y-99121556D01*
X87918776Y-99127278D01*
X87918777Y-99127279D01*
X87930534Y-99147642D01*
X88010960Y-99286944D01*
X88138747Y-99428866D01*
X88183749Y-99461562D01*
X88256323Y-99514290D01*
X88293248Y-99541118D01*
X88299276Y-99543802D01*
X88299278Y-99543803D01*
X88461681Y-99616109D01*
X88467712Y-99618794D01*
X88561112Y-99638647D01*
X88648056Y-99657128D01*
X88648061Y-99657128D01*
X88654513Y-99658500D01*
X88845487Y-99658500D01*
X88851939Y-99657128D01*
X88851944Y-99657128D01*
X88938888Y-99638647D01*
X89032288Y-99618794D01*
X89038319Y-99616109D01*
X89200722Y-99543803D01*
X89200724Y-99543802D01*
X89206752Y-99541118D01*
X89243678Y-99514290D01*
X89309186Y-99466695D01*
X137597251Y-99466695D01*
X137610110Y-99689715D01*
X137611247Y-99694761D01*
X137611248Y-99694767D01*
X137635304Y-99801508D01*
X137659222Y-99907639D01*
X137743266Y-100114616D01*
X137767286Y-100153813D01*
X137801187Y-100209134D01*
X137859987Y-100305088D01*
X138006250Y-100473938D01*
X138178126Y-100616632D01*
X138371000Y-100729338D01*
X138579692Y-100809030D01*
X138584760Y-100810061D01*
X138584763Y-100810062D01*
X138645402Y-100822399D01*
X138798597Y-100853567D01*
X138803772Y-100853757D01*
X138803774Y-100853757D01*
X139016673Y-100861564D01*
X139016677Y-100861564D01*
X139021837Y-100861753D01*
X139026957Y-100861097D01*
X139026959Y-100861097D01*
X139238288Y-100834025D01*
X139238289Y-100834025D01*
X139243416Y-100833368D01*
X139279541Y-100822530D01*
X139452429Y-100770661D01*
X139452434Y-100770659D01*
X139457384Y-100769174D01*
X139657994Y-100670896D01*
X139839860Y-100541173D01*
X139948091Y-100433319D01*
X140010462Y-100399404D01*
X140081268Y-100404592D01*
X140138030Y-100447238D01*
X140155012Y-100478341D01*
X140199385Y-100596705D01*
X140286739Y-100713261D01*
X140403295Y-100800615D01*
X140539684Y-100851745D01*
X140601866Y-100858500D01*
X142398134Y-100858500D01*
X142460316Y-100851745D01*
X142596705Y-100800615D01*
X142713261Y-100713261D01*
X142800615Y-100596705D01*
X142851745Y-100460316D01*
X142858500Y-100398134D01*
X142858500Y-98601866D01*
X142851745Y-98539684D01*
X142800615Y-98403295D01*
X142713261Y-98286739D01*
X142596705Y-98199385D01*
X142460316Y-98148255D01*
X142398134Y-98141500D01*
X142259500Y-98141500D01*
X142191379Y-98121498D01*
X142144886Y-98067842D01*
X142133500Y-98015500D01*
X142133500Y-96823136D01*
X142134578Y-96806690D01*
X142137672Y-96783188D01*
X142138750Y-96775000D01*
X142133500Y-96735122D01*
X142133500Y-96735115D01*
X142122409Y-96650871D01*
X142118916Y-96624338D01*
X142117838Y-96616150D01*
X142056524Y-96468125D01*
X142027276Y-96430008D01*
X141983477Y-96372928D01*
X141983474Y-96372925D01*
X141958987Y-96341013D01*
X141952201Y-96335806D01*
X141933621Y-96321548D01*
X141921230Y-96310681D01*
X141895015Y-96284466D01*
X141860989Y-96222154D01*
X141858110Y-96195371D01*
X141858110Y-93693252D01*
X141878112Y-93625131D01*
X141890474Y-93608942D01*
X141984231Y-93504814D01*
X141984232Y-93504813D01*
X141988650Y-93499906D01*
X142084137Y-93334518D01*
X142143152Y-93152890D01*
X142163114Y-92962962D01*
X142143152Y-92773034D01*
X142084137Y-92591406D01*
X141988650Y-92426018D01*
X141860863Y-92284096D01*
X141706362Y-92171844D01*
X141700334Y-92169160D01*
X141700332Y-92169159D01*
X141537929Y-92096853D01*
X141537928Y-92096853D01*
X141531898Y-92094168D01*
X141438497Y-92074315D01*
X141351554Y-92055834D01*
X141351549Y-92055834D01*
X141345097Y-92054462D01*
X141154123Y-92054462D01*
X141147671Y-92055834D01*
X141147666Y-92055834D01*
X141060723Y-92074315D01*
X140967322Y-92094168D01*
X140961292Y-92096853D01*
X140961291Y-92096853D01*
X140798888Y-92169159D01*
X140798886Y-92169160D01*
X140792858Y-92171844D01*
X140638357Y-92284096D01*
X140510570Y-92426018D01*
X140415083Y-92591406D01*
X140356068Y-92773034D01*
X140336106Y-92962962D01*
X140356068Y-93152890D01*
X140415083Y-93334518D01*
X140510570Y-93499906D01*
X140514988Y-93504813D01*
X140514989Y-93504814D01*
X140608746Y-93608942D01*
X140639464Y-93672949D01*
X140641110Y-93693252D01*
X140641110Y-96451474D01*
X140640032Y-96467917D01*
X140635860Y-96499610D01*
X140641110Y-96539490D01*
X140641110Y-96539495D01*
X140651202Y-96616149D01*
X140656772Y-96658461D01*
X140718086Y-96806486D01*
X140723113Y-96813037D01*
X140723114Y-96813039D01*
X140791130Y-96901679D01*
X140791136Y-96901685D01*
X140815623Y-96933597D01*
X140822178Y-96938627D01*
X140840989Y-96953062D01*
X140853380Y-96963929D01*
X140879595Y-96990144D01*
X140913621Y-97052456D01*
X140916500Y-97079239D01*
X140916500Y-98015500D01*
X140896498Y-98083621D01*
X140842842Y-98130114D01*
X140790500Y-98141500D01*
X140601866Y-98141500D01*
X140539684Y-98148255D01*
X140403295Y-98199385D01*
X140286739Y-98286739D01*
X140199385Y-98403295D01*
X140196233Y-98411703D01*
X140154919Y-98521907D01*
X140112277Y-98578671D01*
X140045716Y-98603371D01*
X139976367Y-98588163D01*
X139943743Y-98562476D01*
X139893151Y-98506875D01*
X139893142Y-98506866D01*
X139889670Y-98503051D01*
X139885619Y-98499852D01*
X139885615Y-98499848D01*
X139718414Y-98367800D01*
X139718410Y-98367798D01*
X139714359Y-98364598D01*
X139518789Y-98256638D01*
X139513920Y-98254914D01*
X139513916Y-98254912D01*
X139313087Y-98183795D01*
X139313083Y-98183794D01*
X139308212Y-98182069D01*
X139303119Y-98181162D01*
X139303116Y-98181161D01*
X139093373Y-98143800D01*
X139093367Y-98143799D01*
X139088284Y-98142894D01*
X139014452Y-98141992D01*
X138870081Y-98140228D01*
X138870079Y-98140228D01*
X138864911Y-98140165D01*
X138644091Y-98173955D01*
X138431756Y-98243357D01*
X138233607Y-98346507D01*
X138229474Y-98349610D01*
X138229471Y-98349612D01*
X138079321Y-98462348D01*
X138054965Y-98480635D01*
X138015525Y-98521907D01*
X137961280Y-98578671D01*
X137900629Y-98642138D01*
X137774743Y-98826680D01*
X137680688Y-99029305D01*
X137620989Y-99244570D01*
X137597251Y-99466695D01*
X89309186Y-99466695D01*
X89316251Y-99461562D01*
X89361253Y-99428866D01*
X89489040Y-99286944D01*
X89569466Y-99147642D01*
X89581223Y-99127279D01*
X89581224Y-99127278D01*
X89584527Y-99121556D01*
X89643542Y-98939928D01*
X89646465Y-98912122D01*
X89662814Y-98756565D01*
X89663504Y-98750000D01*
X89654915Y-98668277D01*
X89644232Y-98566635D01*
X89644232Y-98566633D01*
X89643542Y-98560072D01*
X89584527Y-98378444D01*
X89489040Y-98213056D01*
X89453834Y-98173955D01*
X89365675Y-98076045D01*
X89365674Y-98076044D01*
X89361253Y-98071134D01*
X89206752Y-97958882D01*
X89200724Y-97956198D01*
X89200722Y-97956197D01*
X89038319Y-97883891D01*
X89038318Y-97883891D01*
X89032288Y-97881206D01*
X88938887Y-97861353D01*
X88851944Y-97842872D01*
X88851939Y-97842872D01*
X88845487Y-97841500D01*
X88789594Y-97841500D01*
X88721473Y-97821498D01*
X88700499Y-97804595D01*
X84753652Y-93857747D01*
X84746112Y-93849461D01*
X84742000Y-93842982D01*
X84692348Y-93796356D01*
X84689507Y-93793602D01*
X84669770Y-93773865D01*
X84666573Y-93771385D01*
X84657551Y-93763680D01*
X84644122Y-93751069D01*
X84625321Y-93733414D01*
X84618375Y-93729595D01*
X84618372Y-93729593D01*
X84607566Y-93723652D01*
X84591047Y-93712801D01*
X84590583Y-93712441D01*
X84575041Y-93700386D01*
X84567772Y-93697241D01*
X84567768Y-93697238D01*
X84534463Y-93682826D01*
X84523813Y-93677609D01*
X84485060Y-93656305D01*
X84465437Y-93651267D01*
X84446734Y-93644863D01*
X84435420Y-93639967D01*
X84435419Y-93639967D01*
X84428145Y-93636819D01*
X84420322Y-93635580D01*
X84420312Y-93635577D01*
X84384476Y-93629901D01*
X84372856Y-93627495D01*
X84337711Y-93618472D01*
X84337710Y-93618472D01*
X84330030Y-93616500D01*
X84309776Y-93616500D01*
X84290065Y-93614949D01*
X84277886Y-93613020D01*
X84270057Y-93611780D01*
X84240786Y-93614547D01*
X84226039Y-93615941D01*
X84214181Y-93616500D01*
X70634910Y-93616500D01*
X70623727Y-93615973D01*
X70616234Y-93614298D01*
X70608308Y-93614547D01*
X70608307Y-93614547D01*
X70548144Y-93616438D01*
X70544186Y-93616500D01*
X70516286Y-93616500D01*
X70512296Y-93617004D01*
X70500462Y-93617936D01*
X70456253Y-93619326D01*
X70448639Y-93621538D01*
X70448634Y-93621539D01*
X70436801Y-93624977D01*
X70417438Y-93628988D01*
X70397345Y-93631526D01*
X70389978Y-93634443D01*
X70389973Y-93634444D01*
X70356234Y-93647802D01*
X70345007Y-93651646D01*
X70302549Y-93663982D01*
X70295723Y-93668019D01*
X70285114Y-93674293D01*
X70267366Y-93682988D01*
X70248525Y-93690448D01*
X70242109Y-93695110D01*
X70242108Y-93695110D01*
X70212755Y-93716436D01*
X70202835Y-93722952D01*
X70171607Y-93741420D01*
X70171604Y-93741422D01*
X70164780Y-93745458D01*
X70150459Y-93759779D01*
X70135426Y-93772619D01*
X70119035Y-93784528D01*
X70110359Y-93795016D01*
X70090844Y-93818605D01*
X70082854Y-93827384D01*
X64799500Y-99110737D01*
X64737188Y-99144763D01*
X64710405Y-99147642D01*
X64654513Y-99147642D01*
X64648061Y-99149014D01*
X64648056Y-99149014D01*
X64561112Y-99167495D01*
X64467712Y-99187348D01*
X64461682Y-99190033D01*
X64461681Y-99190033D01*
X64299278Y-99262339D01*
X64299276Y-99262340D01*
X64293248Y-99265024D01*
X64287907Y-99268904D01*
X64287906Y-99268905D01*
X64237843Y-99305278D01*
X64138747Y-99377276D01*
X64134326Y-99382186D01*
X64134325Y-99382187D01*
X64062856Y-99461562D01*
X64010960Y-99519198D01*
X63915473Y-99684586D01*
X63856458Y-99866214D01*
X63836496Y-100056142D01*
X63837186Y-100062707D01*
X63853844Y-100221195D01*
X63856458Y-100246070D01*
X63915473Y-100427698D01*
X64010960Y-100593086D01*
X64015378Y-100597993D01*
X64015379Y-100597994D01*
X64112701Y-100706081D01*
X64138747Y-100735008D01*
X64187819Y-100770661D01*
X64275032Y-100834025D01*
X64293248Y-100847260D01*
X64299276Y-100849944D01*
X64299278Y-100849945D01*
X64461681Y-100922251D01*
X64467712Y-100924936D01*
X64536804Y-100939622D01*
X64648056Y-100963270D01*
X64648061Y-100963270D01*
X64654513Y-100964642D01*
X64675050Y-100964642D01*
X64743171Y-100984644D01*
X64764145Y-101001547D01*
X65754596Y-101991997D01*
X65788621Y-102054309D01*
X65791501Y-102081092D01*
X65791501Y-104894346D01*
X65771499Y-104962467D01*
X65717843Y-105008960D01*
X65647569Y-105019064D01*
X65582989Y-104989570D01*
X65567310Y-104973304D01*
X65474032Y-104857290D01*
X65467727Y-104851999D01*
X65415524Y-104808196D01*
X65322526Y-104730161D01*
X65317128Y-104727194D01*
X65317123Y-104727190D01*
X65154608Y-104637848D01*
X65154609Y-104637848D01*
X65149213Y-104634882D01*
X65143346Y-104633021D01*
X65143344Y-104633020D01*
X64966564Y-104576942D01*
X64966563Y-104576942D01*
X64960694Y-104575080D01*
X64806773Y-104557815D01*
X64100231Y-104557815D01*
X64097175Y-104558115D01*
X64097168Y-104558115D01*
X64038660Y-104563852D01*
X63953167Y-104572235D01*
X63947266Y-104574017D01*
X63947264Y-104574017D01*
X63873947Y-104596153D01*
X63763831Y-104629399D01*
X63589204Y-104722249D01*
X63502938Y-104792606D01*
X63440713Y-104843355D01*
X63440710Y-104843358D01*
X63435938Y-104847250D01*
X63432011Y-104851997D01*
X63432009Y-104851999D01*
X63313799Y-104994890D01*
X63313797Y-104994894D01*
X63309870Y-104999640D01*
X63215802Y-105173614D01*
X63157318Y-105362547D01*
X63136645Y-105559240D01*
X63154570Y-105756203D01*
X63156308Y-105762109D01*
X63156309Y-105762113D01*
X63187249Y-105867239D01*
X63210410Y-105945934D01*
X63213263Y-105951392D01*
X63213265Y-105951396D01*
X63258804Y-106038502D01*
X63302040Y-106121205D01*
X63425968Y-106275340D01*
X63577474Y-106402469D01*
X63743025Y-106493481D01*
X63793082Y-106543825D01*
X63807976Y-106613242D01*
X63782975Y-106679691D01*
X63775959Y-106688206D01*
X63671970Y-106803697D01*
X63668670Y-106809413D01*
X63668667Y-106809417D01*
X63612907Y-106905998D01*
X63584366Y-106955433D01*
X63530223Y-107122066D01*
X63529533Y-107128632D01*
X63529532Y-107128636D01*
X63519686Y-107222319D01*
X63511909Y-107296315D01*
X63512599Y-107302880D01*
X63529434Y-107463056D01*
X63530223Y-107470564D01*
X63584366Y-107637197D01*
X63587665Y-107642912D01*
X63588625Y-107645067D01*
X63598059Y-107715434D01*
X63588625Y-107747563D01*
X63587665Y-107749718D01*
X63584366Y-107755433D01*
X63530223Y-107922066D01*
X63511909Y-108096315D01*
X63512599Y-108102880D01*
X63529405Y-108262780D01*
X63530223Y-108270564D01*
X63558612Y-108357936D01*
X63562773Y-108370740D01*
X63584366Y-108437197D01*
X63587665Y-108442912D01*
X63588625Y-108445067D01*
X63598059Y-108515434D01*
X63588625Y-108547563D01*
X63587665Y-108549718D01*
X63584366Y-108555433D01*
X63582328Y-108561706D01*
X63582326Y-108561710D01*
X63567123Y-108608500D01*
X63530223Y-108722066D01*
X63529533Y-108728632D01*
X63529532Y-108728636D01*
X63514657Y-108870166D01*
X63511909Y-108896315D01*
X63530223Y-109070564D01*
X63584366Y-109237197D01*
X63587669Y-109242918D01*
X63668667Y-109383213D01*
X63668670Y-109383217D01*
X63671970Y-109388933D01*
X63676388Y-109393840D01*
X63676389Y-109393841D01*
X63784157Y-109513528D01*
X63789208Y-109519138D01*
X63862974Y-109572732D01*
X63892768Y-109594379D01*
X63936122Y-109650601D01*
X63942197Y-109721338D01*
X63909065Y-109784129D01*
X63892768Y-109798251D01*
X63859073Y-109822732D01*
X63789208Y-109873492D01*
X63671970Y-110003697D01*
X63668670Y-110009413D01*
X63668667Y-110009417D01*
X63660427Y-110023690D01*
X63584366Y-110155433D01*
X63582326Y-110161713D01*
X63582325Y-110161714D01*
X63580098Y-110168567D01*
X63530223Y-110322066D01*
X63529533Y-110328632D01*
X63529532Y-110328636D01*
X63514026Y-110476173D01*
X63511909Y-110496315D01*
X63512599Y-110502880D01*
X63528604Y-110655159D01*
X63530223Y-110670564D01*
X63548292Y-110726173D01*
X63577210Y-110815172D01*
X63584366Y-110837197D01*
X63587665Y-110842912D01*
X63588625Y-110845067D01*
X63598059Y-110915434D01*
X63588625Y-110947563D01*
X63587665Y-110949718D01*
X63584366Y-110955433D01*
X63582328Y-110961706D01*
X63582326Y-110961710D01*
X63578194Y-110974427D01*
X63530223Y-111122066D01*
X63529533Y-111128632D01*
X63529532Y-111128636D01*
X63512680Y-111288978D01*
X63511909Y-111296315D01*
X63512599Y-111302880D01*
X63528146Y-111450799D01*
X63530223Y-111470564D01*
X63552846Y-111540190D01*
X63577610Y-111616404D01*
X63584366Y-111637197D01*
X63587665Y-111642912D01*
X63588625Y-111645067D01*
X63598059Y-111715434D01*
X63588625Y-111747563D01*
X63587665Y-111749718D01*
X63584366Y-111755433D01*
X63582328Y-111761706D01*
X63582326Y-111761710D01*
X63560106Y-111830097D01*
X63530223Y-111922066D01*
X63529533Y-111928632D01*
X63529532Y-111928636D01*
X63522221Y-111998197D01*
X63511909Y-112096315D01*
X63512599Y-112102880D01*
X63528358Y-112252818D01*
X63530223Y-112270564D01*
X63584366Y-112437197D01*
X63587669Y-112442918D01*
X63668667Y-112583213D01*
X63668670Y-112583217D01*
X63671970Y-112588933D01*
X63676385Y-112593836D01*
X63676389Y-112593841D01*
X63776750Y-112705302D01*
X63807467Y-112769310D01*
X63798704Y-112839763D01*
X63753241Y-112894295D01*
X63742272Y-112900862D01*
X63589204Y-112982249D01*
X63511369Y-113045730D01*
X63440713Y-113103355D01*
X63440710Y-113103358D01*
X63435938Y-113107250D01*
X63432011Y-113111997D01*
X63432009Y-113111999D01*
X63313799Y-113254890D01*
X63313797Y-113254894D01*
X63309870Y-113259640D01*
X63215802Y-113433614D01*
X63157318Y-113622547D01*
X63156674Y-113628672D01*
X63156674Y-113628673D01*
X63137426Y-113811813D01*
X63136645Y-113819240D01*
X61303282Y-113819240D01*
X61299590Y-113806696D01*
X61289919Y-113788196D01*
X61210813Y-113636883D01*
X61207960Y-113631425D01*
X61084032Y-113477290D01*
X61077727Y-113471999D01*
X61025524Y-113428196D01*
X60932526Y-113350161D01*
X60927128Y-113347194D01*
X60927123Y-113347190D01*
X60764608Y-113257848D01*
X60764609Y-113257848D01*
X60759213Y-113254882D01*
X60753346Y-113253021D01*
X60753344Y-113253020D01*
X60576564Y-113196942D01*
X60576563Y-113196942D01*
X60570694Y-113195080D01*
X60416773Y-113177815D01*
X59710231Y-113177815D01*
X59707175Y-113178115D01*
X59707168Y-113178115D01*
X59648660Y-113183852D01*
X59563167Y-113192235D01*
X59557266Y-113194017D01*
X59557264Y-113194017D01*
X59483947Y-113216153D01*
X59373831Y-113249399D01*
X59199204Y-113342249D01*
X59112938Y-113412606D01*
X59050713Y-113463355D01*
X59050710Y-113463358D01*
X59045938Y-113467250D01*
X59042011Y-113471997D01*
X59042009Y-113471999D01*
X58923799Y-113614890D01*
X58923797Y-113614894D01*
X58919870Y-113619640D01*
X58825802Y-113793614D01*
X58767318Y-113982547D01*
X58766674Y-113988672D01*
X58766674Y-113988673D01*
X58748040Y-114165971D01*
X58746645Y-114179240D01*
X57758500Y-114179240D01*
X57758500Y-105199240D01*
X58746645Y-105199240D01*
X58753260Y-105271929D01*
X58762065Y-105368673D01*
X58764570Y-105396203D01*
X58766308Y-105402109D01*
X58766309Y-105402113D01*
X58785742Y-105468140D01*
X58820410Y-105585934D01*
X58823263Y-105591392D01*
X58823265Y-105591396D01*
X58870720Y-105682168D01*
X58912040Y-105761205D01*
X59035968Y-105915340D01*
X59040692Y-105919304D01*
X59047933Y-105925380D01*
X59187474Y-106042469D01*
X59192872Y-106045436D01*
X59192877Y-106045440D01*
X59281529Y-106094176D01*
X59360787Y-106137748D01*
X59366654Y-106139609D01*
X59366656Y-106139610D01*
X59543436Y-106195688D01*
X59549306Y-106197550D01*
X59703227Y-106214815D01*
X60409769Y-106214815D01*
X60412825Y-106214515D01*
X60412832Y-106214515D01*
X60471340Y-106208778D01*
X60556833Y-106200395D01*
X60562734Y-106198613D01*
X60562736Y-106198613D01*
X60636053Y-106176477D01*
X60746169Y-106143231D01*
X60920796Y-106050381D01*
X61041218Y-105952167D01*
X61069287Y-105929275D01*
X61069290Y-105929272D01*
X61074062Y-105925380D01*
X61086344Y-105910534D01*
X61196201Y-105777740D01*
X61196203Y-105777736D01*
X61200130Y-105772990D01*
X61294198Y-105599016D01*
X61352682Y-105410083D01*
X61358894Y-105350977D01*
X61372711Y-105219519D01*
X61372711Y-105219517D01*
X61373355Y-105213390D01*
X61355430Y-105016427D01*
X61353233Y-105008960D01*
X61308594Y-104857290D01*
X61299590Y-104826696D01*
X61289919Y-104808196D01*
X61210813Y-104656883D01*
X61207960Y-104651425D01*
X61084032Y-104497290D01*
X61077727Y-104491999D01*
X61061334Y-104478244D01*
X60932526Y-104370161D01*
X60927128Y-104367194D01*
X60927123Y-104367190D01*
X60764608Y-104277848D01*
X60764609Y-104277848D01*
X60759213Y-104274882D01*
X60753346Y-104273021D01*
X60753344Y-104273020D01*
X60576564Y-104216942D01*
X60576563Y-104216942D01*
X60570694Y-104215080D01*
X60416773Y-104197815D01*
X59710231Y-104197815D01*
X59707175Y-104198115D01*
X59707168Y-104198115D01*
X59648660Y-104203852D01*
X59563167Y-104212235D01*
X59557266Y-104214017D01*
X59557264Y-104214017D01*
X59483947Y-104236153D01*
X59373831Y-104269399D01*
X59199204Y-104362249D01*
X59112938Y-104432606D01*
X59050713Y-104483355D01*
X59050710Y-104483358D01*
X59045938Y-104487250D01*
X59042011Y-104491997D01*
X59042009Y-104491999D01*
X58923799Y-104634890D01*
X58923797Y-104634894D01*
X58919870Y-104639640D01*
X58825802Y-104813614D01*
X58767318Y-105002547D01*
X58766674Y-105008672D01*
X58766674Y-105008673D01*
X58748720Y-105179501D01*
X58746645Y-105199240D01*
X57758500Y-105199240D01*
X57758500Y-103013278D01*
X57778502Y-102945157D01*
X57832158Y-102898664D01*
X57902432Y-102888560D01*
X57967012Y-102918054D01*
X57982998Y-102936349D01*
X57983668Y-102935810D01*
X58107976Y-103090418D01*
X58116554Y-103099178D01*
X58263806Y-103222737D01*
X58273920Y-103229663D01*
X58442371Y-103322269D01*
X58453635Y-103327097D01*
X58636865Y-103385221D01*
X58648854Y-103387769D01*
X58798417Y-103404545D01*
X58805441Y-103404938D01*
X59003521Y-103404938D01*
X59018760Y-103400463D01*
X59019965Y-103399073D01*
X59021636Y-103391390D01*
X59021636Y-103386823D01*
X59529636Y-103386823D01*
X59534111Y-103402062D01*
X59535501Y-103403267D01*
X59543184Y-103404938D01*
X59739026Y-103404938D01*
X59745174Y-103404637D01*
X59888070Y-103390626D01*
X59900105Y-103388243D01*
X60084116Y-103332687D01*
X60095457Y-103328013D01*
X60265170Y-103237775D01*
X60275395Y-103230981D01*
X60424351Y-103109496D01*
X60433055Y-103100852D01*
X60555579Y-102952745D01*
X60562437Y-102942577D01*
X60653859Y-102773498D01*
X60658615Y-102762183D01*
X60698528Y-102633246D01*
X60698734Y-102619143D01*
X60691979Y-102615938D01*
X59547751Y-102615938D01*
X59532512Y-102620413D01*
X59531307Y-102621803D01*
X59529636Y-102629486D01*
X59529636Y-103386823D01*
X59021636Y-103386823D01*
X59021636Y-102164282D01*
X61362652Y-102164282D01*
X61372534Y-102176772D01*
X61415915Y-102205758D01*
X61426025Y-102211248D01*
X61610954Y-102290700D01*
X61621897Y-102294255D01*
X61818203Y-102338675D01*
X61829611Y-102340177D01*
X62030732Y-102348078D01*
X62042216Y-102347476D01*
X62241410Y-102318595D01*
X62252593Y-102315910D01*
X62443183Y-102251214D01*
X62453696Y-102246533D01*
X62580402Y-102175573D01*
X62590267Y-102165495D01*
X62587311Y-102157823D01*
X61988448Y-101558960D01*
X61974504Y-101551346D01*
X61972671Y-101551477D01*
X61966056Y-101555728D01*
X61368848Y-102152936D01*
X61362652Y-102164282D01*
X59021636Y-102164282D01*
X59021636Y-102089823D01*
X59529636Y-102089823D01*
X59534111Y-102105062D01*
X59535501Y-102106267D01*
X59543184Y-102107938D01*
X60685047Y-102107938D01*
X60698578Y-102103965D01*
X60699698Y-102096170D01*
X60664110Y-101975252D01*
X60659511Y-101963868D01*
X60570458Y-101793526D01*
X60563744Y-101783265D01*
X60443296Y-101633458D01*
X60434718Y-101624698D01*
X60287466Y-101501139D01*
X60277352Y-101494213D01*
X60108901Y-101401607D01*
X60097637Y-101396779D01*
X59914407Y-101338655D01*
X59902418Y-101336107D01*
X59752855Y-101319331D01*
X59745831Y-101318938D01*
X59547751Y-101318938D01*
X59532512Y-101323413D01*
X59531307Y-101324803D01*
X59529636Y-101332486D01*
X59529636Y-102089823D01*
X59021636Y-102089823D01*
X59021636Y-101337053D01*
X59017161Y-101321814D01*
X59015771Y-101320609D01*
X59008088Y-101318938D01*
X58812246Y-101318938D01*
X58806098Y-101319239D01*
X58663202Y-101333250D01*
X58651167Y-101335633D01*
X58467156Y-101391189D01*
X58455815Y-101395863D01*
X58286102Y-101486101D01*
X58275877Y-101492895D01*
X58126921Y-101614380D01*
X58118217Y-101623024D01*
X57995695Y-101771128D01*
X57988961Y-101781113D01*
X57934287Y-101826404D01*
X57863807Y-101834947D01*
X57799896Y-101804029D01*
X57762846Y-101743466D01*
X57758500Y-101710658D01*
X57758500Y-101162261D01*
X60813452Y-101162261D01*
X60826615Y-101363097D01*
X60828416Y-101374467D01*
X60877959Y-101569542D01*
X60881800Y-101580389D01*
X60966065Y-101763176D01*
X60971814Y-101773133D01*
X60985548Y-101792566D01*
X60996137Y-101800954D01*
X61009438Y-101793926D01*
X61603614Y-101199750D01*
X61609992Y-101188070D01*
X62340044Y-101188070D01*
X62340175Y-101189903D01*
X62344426Y-101196518D01*
X62942607Y-101794699D01*
X62954987Y-101801459D01*
X62961567Y-101796533D01*
X63035231Y-101664998D01*
X63039912Y-101654485D01*
X63104608Y-101463895D01*
X63107293Y-101452712D01*
X63136470Y-101251477D01*
X63137100Y-101244095D01*
X63138500Y-101190642D01*
X63138257Y-101183243D01*
X63119652Y-100980762D01*
X63117554Y-100969441D01*
X63062923Y-100775735D01*
X63058799Y-100764988D01*
X62969777Y-100584472D01*
X62966253Y-100578722D01*
X62956231Y-100571200D01*
X62943812Y-100577972D01*
X62347658Y-101174126D01*
X62340044Y-101188070D01*
X61609992Y-101188070D01*
X61611228Y-101185806D01*
X61611097Y-101183973D01*
X61606846Y-101177358D01*
X61007156Y-100577668D01*
X60994776Y-100570908D01*
X60988810Y-100575374D01*
X60903893Y-100736774D01*
X60899484Y-100747417D01*
X60839803Y-100939622D01*
X60837409Y-100950884D01*
X60813753Y-101150759D01*
X60813452Y-101162261D01*
X57758500Y-101162261D01*
X57758500Y-100209134D01*
X61361943Y-100209134D01*
X61365429Y-100217521D01*
X61962824Y-100814916D01*
X61976768Y-100822530D01*
X61978601Y-100822399D01*
X61985216Y-100818148D01*
X62582169Y-100221195D01*
X62588929Y-100208815D01*
X62582899Y-100200760D01*
X62508493Y-100153813D01*
X62498245Y-100148592D01*
X62311299Y-100074008D01*
X62300271Y-100070741D01*
X62102866Y-100031475D01*
X62091420Y-100030272D01*
X61890173Y-100027638D01*
X61878693Y-100028541D01*
X61680337Y-100062625D01*
X61669217Y-100065605D01*
X61480384Y-100135269D01*
X61470006Y-100140219D01*
X61371542Y-100198799D01*
X61361943Y-100209134D01*
X57758500Y-100209134D01*
X57758500Y-97314282D01*
X61362652Y-97314282D01*
X61372534Y-97326772D01*
X61415915Y-97355758D01*
X61426025Y-97361248D01*
X61610954Y-97440700D01*
X61621897Y-97444255D01*
X61818203Y-97488675D01*
X61829611Y-97490177D01*
X62030732Y-97498078D01*
X62042216Y-97497476D01*
X62241410Y-97468595D01*
X62252593Y-97465910D01*
X62443183Y-97401214D01*
X62453696Y-97396533D01*
X62580402Y-97325573D01*
X62590267Y-97315495D01*
X62587311Y-97307823D01*
X61988448Y-96708960D01*
X61974504Y-96701346D01*
X61972671Y-96701477D01*
X61966056Y-96705728D01*
X61368848Y-97302936D01*
X61362652Y-97314282D01*
X57758500Y-97314282D01*
X57758500Y-96312261D01*
X60813452Y-96312261D01*
X60826615Y-96513097D01*
X60828416Y-96524467D01*
X60877959Y-96719542D01*
X60881800Y-96730389D01*
X60966065Y-96913176D01*
X60971814Y-96923133D01*
X60985548Y-96942566D01*
X60996137Y-96950954D01*
X61009438Y-96943926D01*
X61603614Y-96349750D01*
X61609992Y-96338070D01*
X62340044Y-96338070D01*
X62340175Y-96339903D01*
X62344426Y-96346518D01*
X62942607Y-96944699D01*
X62954987Y-96951459D01*
X62961567Y-96946533D01*
X63035231Y-96814998D01*
X63039912Y-96804485D01*
X63104608Y-96613895D01*
X63107293Y-96602712D01*
X63136470Y-96401477D01*
X63137100Y-96394095D01*
X63138500Y-96340642D01*
X63138257Y-96333243D01*
X63119652Y-96130762D01*
X63117554Y-96119441D01*
X63062923Y-95925735D01*
X63058799Y-95914988D01*
X62969777Y-95734472D01*
X62966253Y-95728722D01*
X62956231Y-95721200D01*
X62943812Y-95727972D01*
X62347658Y-96324126D01*
X62340044Y-96338070D01*
X61609992Y-96338070D01*
X61611228Y-96335806D01*
X61611097Y-96333973D01*
X61606846Y-96327358D01*
X61007156Y-95727668D01*
X60994776Y-95720908D01*
X60988810Y-95725374D01*
X60903893Y-95886774D01*
X60899484Y-95897417D01*
X60839803Y-96089622D01*
X60837409Y-96100884D01*
X60813753Y-96300759D01*
X60813452Y-96312261D01*
X57758500Y-96312261D01*
X57758500Y-95813278D01*
X57778502Y-95745157D01*
X57832158Y-95698664D01*
X57902432Y-95688560D01*
X57967012Y-95718054D01*
X57982998Y-95736349D01*
X57983668Y-95735810D01*
X58107976Y-95890418D01*
X58116554Y-95899178D01*
X58263806Y-96022737D01*
X58273920Y-96029663D01*
X58442371Y-96122269D01*
X58453635Y-96127097D01*
X58636865Y-96185221D01*
X58648854Y-96187769D01*
X58798417Y-96204545D01*
X58805441Y-96204938D01*
X59003521Y-96204938D01*
X59018760Y-96200463D01*
X59019965Y-96199073D01*
X59021636Y-96191390D01*
X59021636Y-96186823D01*
X59529636Y-96186823D01*
X59534111Y-96202062D01*
X59535501Y-96203267D01*
X59543184Y-96204938D01*
X59739026Y-96204938D01*
X59745174Y-96204637D01*
X59888070Y-96190626D01*
X59900105Y-96188243D01*
X60084116Y-96132687D01*
X60095457Y-96128013D01*
X60265170Y-96037775D01*
X60275395Y-96030981D01*
X60424351Y-95909496D01*
X60433055Y-95900852D01*
X60555579Y-95752745D01*
X60562437Y-95742577D01*
X60653859Y-95573498D01*
X60658615Y-95562183D01*
X60698528Y-95433246D01*
X60698734Y-95419143D01*
X60691979Y-95415938D01*
X59547751Y-95415938D01*
X59532512Y-95420413D01*
X59531307Y-95421803D01*
X59529636Y-95429486D01*
X59529636Y-96186823D01*
X59021636Y-96186823D01*
X59021636Y-95359134D01*
X61361943Y-95359134D01*
X61365429Y-95367521D01*
X61962824Y-95964916D01*
X61976768Y-95972530D01*
X61978601Y-95972399D01*
X61985216Y-95968148D01*
X62582169Y-95371195D01*
X62588929Y-95358815D01*
X62582899Y-95350760D01*
X62508493Y-95303813D01*
X62498245Y-95298592D01*
X62311299Y-95224008D01*
X62300271Y-95220741D01*
X62102866Y-95181475D01*
X62091420Y-95180272D01*
X61890173Y-95177638D01*
X61878693Y-95178541D01*
X61680337Y-95212625D01*
X61669217Y-95215605D01*
X61480384Y-95285269D01*
X61470006Y-95290219D01*
X61371542Y-95348799D01*
X61361943Y-95359134D01*
X59021636Y-95359134D01*
X59021636Y-94889823D01*
X59529636Y-94889823D01*
X59534111Y-94905062D01*
X59535501Y-94906267D01*
X59543184Y-94907938D01*
X60685047Y-94907938D01*
X60698578Y-94903965D01*
X60699698Y-94896170D01*
X60664110Y-94775252D01*
X60659511Y-94763868D01*
X60570458Y-94593526D01*
X60563744Y-94583265D01*
X60443296Y-94433458D01*
X60434718Y-94424698D01*
X60287466Y-94301139D01*
X60277352Y-94294213D01*
X60108901Y-94201607D01*
X60097637Y-94196779D01*
X59914407Y-94138655D01*
X59902418Y-94136107D01*
X59752855Y-94119331D01*
X59745831Y-94118938D01*
X59547751Y-94118938D01*
X59532512Y-94123413D01*
X59531307Y-94124803D01*
X59529636Y-94132486D01*
X59529636Y-94889823D01*
X59021636Y-94889823D01*
X59021636Y-94137053D01*
X59017161Y-94121814D01*
X59015771Y-94120609D01*
X59008088Y-94118938D01*
X58812246Y-94118938D01*
X58806098Y-94119239D01*
X58663202Y-94133250D01*
X58651167Y-94135633D01*
X58467156Y-94191189D01*
X58455815Y-94195863D01*
X58286102Y-94286101D01*
X58275877Y-94292895D01*
X58126921Y-94414380D01*
X58118217Y-94423024D01*
X57995695Y-94571128D01*
X57988961Y-94581113D01*
X57934287Y-94626404D01*
X57863807Y-94634947D01*
X57799896Y-94604029D01*
X57762846Y-94543466D01*
X57758500Y-94510658D01*
X57758500Y-84546880D01*
X77411992Y-84546880D01*
X77412355Y-84551028D01*
X77412355Y-84551032D01*
X77437487Y-84838293D01*
X77437488Y-84838301D01*
X77437852Y-84842459D01*
X77502577Y-85132021D01*
X77504019Y-85135941D01*
X77504021Y-85135947D01*
X77574619Y-85327827D01*
X77605029Y-85410480D01*
X77743410Y-85672942D01*
X77915288Y-85914797D01*
X78117642Y-86131796D01*
X78346918Y-86320125D01*
X78599088Y-86476477D01*
X78869722Y-86598105D01*
X79042390Y-86649580D01*
X79150065Y-86681679D01*
X79150067Y-86681679D01*
X79154064Y-86682871D01*
X79158184Y-86683524D01*
X79158186Y-86683524D01*
X79277106Y-86702359D01*
X79447119Y-86729286D01*
X79492146Y-86731331D01*
X79538497Y-86733436D01*
X79538516Y-86733436D01*
X79539916Y-86733500D01*
X79725264Y-86733500D01*
X79946056Y-86718835D01*
X80236910Y-86660188D01*
X80517453Y-86563590D01*
X80521196Y-86561716D01*
X80521200Y-86561714D01*
X80779012Y-86432611D01*
X80779014Y-86432610D01*
X80782756Y-86430736D01*
X81028158Y-86263961D01*
X81249346Y-86066196D01*
X81442436Y-85840914D01*
X81444711Y-85837411D01*
X81601763Y-85595572D01*
X81601765Y-85595569D01*
X81604035Y-85592073D01*
X81731304Y-85324046D01*
X81791696Y-85135947D01*
X81820726Y-85045530D01*
X81820727Y-85045524D01*
X81822006Y-85041542D01*
X81857091Y-84846548D01*
X81873809Y-84753632D01*
X81873810Y-84753627D01*
X81874548Y-84749523D01*
X81883751Y-84546880D01*
X81887819Y-84457290D01*
X81887819Y-84457285D01*
X81888008Y-84453120D01*
X81887645Y-84448968D01*
X81862513Y-84161707D01*
X81862512Y-84161699D01*
X81862148Y-84157541D01*
X81797423Y-83867979D01*
X81726773Y-83675954D01*
X81696418Y-83593452D01*
X81696416Y-83593448D01*
X81694971Y-83589520D01*
X81556590Y-83327058D01*
X81384712Y-83085203D01*
X81182358Y-82868204D01*
X80953082Y-82679875D01*
X80700912Y-82523523D01*
X80430278Y-82401895D01*
X80257610Y-82350420D01*
X80149935Y-82318321D01*
X80149933Y-82318321D01*
X80145936Y-82317129D01*
X80141816Y-82316476D01*
X80141814Y-82316476D01*
X80022894Y-82297641D01*
X79852881Y-82270714D01*
X79807854Y-82268669D01*
X79761503Y-82266564D01*
X79761484Y-82266564D01*
X79760084Y-82266500D01*
X79574736Y-82266500D01*
X79353944Y-82281165D01*
X79063090Y-82339812D01*
X78782547Y-82436410D01*
X78778804Y-82438284D01*
X78778800Y-82438286D01*
X78604179Y-82525730D01*
X78517244Y-82569264D01*
X78271842Y-82736039D01*
X78050654Y-82933804D01*
X77857564Y-83159086D01*
X77855290Y-83162588D01*
X77855289Y-83162589D01*
X77750698Y-83323646D01*
X77695965Y-83407927D01*
X77568696Y-83675954D01*
X77567417Y-83679937D01*
X77567416Y-83679940D01*
X77507044Y-83867979D01*
X77477994Y-83958458D01*
X77477253Y-83962577D01*
X77442174Y-84157541D01*
X77425452Y-84250477D01*
X77425263Y-84254644D01*
X77425262Y-84254651D01*
X77416060Y-84457290D01*
X77411992Y-84546880D01*
X57758500Y-84546880D01*
X57758500Y-68410583D01*
X69613828Y-68410583D01*
X69619935Y-68669689D01*
X69665163Y-68924890D01*
X69748473Y-69170313D01*
X69750674Y-69174549D01*
X69750676Y-69174555D01*
X69808210Y-69285312D01*
X69867947Y-69400311D01*
X69870762Y-69404165D01*
X69870765Y-69404169D01*
X69972307Y-69543161D01*
X70020837Y-69609590D01*
X70024209Y-69612980D01*
X70024211Y-69612982D01*
X70200248Y-69789945D01*
X70200253Y-69789949D01*
X70203622Y-69793336D01*
X70412099Y-69947319D01*
X70416337Y-69949549D01*
X70416339Y-69949550D01*
X70637232Y-70065768D01*
X70637239Y-70065771D01*
X70641468Y-70067996D01*
X70645984Y-70069555D01*
X70645990Y-70069558D01*
X70772565Y-70113264D01*
X70886451Y-70152590D01*
X71004193Y-70174093D01*
X71137441Y-70198429D01*
X71137445Y-70198429D01*
X71141412Y-70199154D01*
X71224342Y-70203500D01*
X71385903Y-70203500D01*
X71388282Y-70203319D01*
X71388283Y-70203319D01*
X71573664Y-70189218D01*
X71573669Y-70189217D01*
X71578431Y-70188855D01*
X71583084Y-70187776D01*
X71583087Y-70187776D01*
X71826251Y-70131413D01*
X71826250Y-70131413D01*
X71830915Y-70130332D01*
X72071642Y-70034292D01*
X72295072Y-69902944D01*
X72298783Y-69899923D01*
X72298787Y-69899920D01*
X72492351Y-69742334D01*
X72496063Y-69739312D01*
X72499272Y-69735767D01*
X72499277Y-69735762D01*
X72666774Y-69550713D01*
X72669990Y-69547160D01*
X72812851Y-69330910D01*
X72816016Y-69324046D01*
X72919352Y-69099892D01*
X72919353Y-69099889D01*
X72921358Y-69095540D01*
X72993015Y-68846465D01*
X72994070Y-68838293D01*
X73025561Y-68594154D01*
X73026172Y-68589417D01*
X73025169Y-68546880D01*
X132611992Y-68546880D01*
X132612355Y-68551028D01*
X132612355Y-68551032D01*
X132637487Y-68838293D01*
X132637488Y-68838301D01*
X132637852Y-68842459D01*
X132638766Y-68846548D01*
X132694423Y-69095540D01*
X132702577Y-69132021D01*
X132704019Y-69135941D01*
X132704021Y-69135947D01*
X132802707Y-69404169D01*
X132805029Y-69410480D01*
X132806980Y-69414180D01*
X132806982Y-69414185D01*
X132941457Y-69669238D01*
X132943410Y-69672942D01*
X133115288Y-69914797D01*
X133317642Y-70131796D01*
X133546918Y-70320125D01*
X133799088Y-70476477D01*
X134069722Y-70598105D01*
X134242390Y-70649580D01*
X134350065Y-70681679D01*
X134350067Y-70681679D01*
X134354064Y-70682871D01*
X134358184Y-70683524D01*
X134358186Y-70683524D01*
X134477106Y-70702359D01*
X134647119Y-70729286D01*
X134692146Y-70731331D01*
X134738497Y-70733436D01*
X134738516Y-70733436D01*
X134739916Y-70733500D01*
X134925264Y-70733500D01*
X135146056Y-70718835D01*
X135436910Y-70660188D01*
X135717453Y-70563590D01*
X135721196Y-70561716D01*
X135721200Y-70561714D01*
X135979012Y-70432611D01*
X135979014Y-70432610D01*
X135982756Y-70430736D01*
X136228158Y-70263961D01*
X136449346Y-70066196D01*
X136642436Y-69840914D01*
X136671485Y-69796182D01*
X136801763Y-69595572D01*
X136801765Y-69595569D01*
X136804035Y-69592073D01*
X136825362Y-69547160D01*
X136852629Y-69489734D01*
X136931304Y-69324046D01*
X136932584Y-69320060D01*
X137020726Y-69045530D01*
X137020727Y-69045524D01*
X137022006Y-69041542D01*
X137057106Y-68846465D01*
X137073809Y-68753632D01*
X137073810Y-68753627D01*
X137074548Y-68749523D01*
X137078174Y-68669689D01*
X137087819Y-68457290D01*
X137087819Y-68457285D01*
X137088008Y-68453120D01*
X137087645Y-68448968D01*
X137062513Y-68161707D01*
X137062512Y-68161699D01*
X137062148Y-68157541D01*
X137006606Y-67909062D01*
X136998336Y-67872063D01*
X136998336Y-67872061D01*
X136997423Y-67867979D01*
X136985001Y-67834215D01*
X136896418Y-67593452D01*
X136896416Y-67593448D01*
X136894971Y-67589520D01*
X136821035Y-67449287D01*
X136758543Y-67330762D01*
X136758542Y-67330761D01*
X136756590Y-67327058D01*
X136584712Y-67085203D01*
X136382358Y-66868204D01*
X136153082Y-66679875D01*
X135900912Y-66523523D01*
X135630278Y-66401895D01*
X135457610Y-66350420D01*
X135349935Y-66318321D01*
X135349933Y-66318321D01*
X135345936Y-66317129D01*
X135341816Y-66316476D01*
X135341814Y-66316476D01*
X135222894Y-66297641D01*
X135052881Y-66270714D01*
X135007854Y-66268669D01*
X134961503Y-66266564D01*
X134961484Y-66266564D01*
X134960084Y-66266500D01*
X134774736Y-66266500D01*
X134553944Y-66281165D01*
X134263090Y-66339812D01*
X133982547Y-66436410D01*
X133978804Y-66438284D01*
X133978800Y-66438286D01*
X133804179Y-66525730D01*
X133717244Y-66569264D01*
X133471842Y-66736039D01*
X133250654Y-66933804D01*
X133057564Y-67159086D01*
X133055290Y-67162588D01*
X133055289Y-67162589D01*
X132907341Y-67390410D01*
X132895965Y-67407927D01*
X132894177Y-67411693D01*
X132894174Y-67411698D01*
X132872740Y-67456839D01*
X132768696Y-67675954D01*
X132767417Y-67679937D01*
X132767416Y-67679940D01*
X132695331Y-67904460D01*
X132677994Y-67958458D01*
X132677253Y-67962577D01*
X132642174Y-68157541D01*
X132625452Y-68250477D01*
X132625263Y-68254644D01*
X132625262Y-68254651D01*
X132616060Y-68457290D01*
X132611992Y-68546880D01*
X73025169Y-68546880D01*
X73020065Y-68330311D01*
X72974837Y-68075110D01*
X72891527Y-67829687D01*
X72889326Y-67825451D01*
X72889324Y-67825445D01*
X72808104Y-67669090D01*
X72772053Y-67599689D01*
X72761918Y-67585815D01*
X72621986Y-67394274D01*
X72621985Y-67394273D01*
X72619163Y-67390410D01*
X72559827Y-67330762D01*
X72439752Y-67210055D01*
X72439747Y-67210051D01*
X72436378Y-67206664D01*
X72227901Y-67052681D01*
X72223661Y-67050450D01*
X72002768Y-66934232D01*
X72002761Y-66934229D01*
X71998532Y-66932004D01*
X71994016Y-66930445D01*
X71994010Y-66930442D01*
X71823148Y-66871443D01*
X71753549Y-66847410D01*
X71635807Y-66825907D01*
X71502559Y-66801571D01*
X71502555Y-66801571D01*
X71498588Y-66800846D01*
X71415658Y-66796500D01*
X71254097Y-66796500D01*
X71251718Y-66796681D01*
X71251717Y-66796681D01*
X71066336Y-66810782D01*
X71066331Y-66810783D01*
X71061569Y-66811145D01*
X71056916Y-66812224D01*
X71056913Y-66812224D01*
X70908822Y-66846550D01*
X70809085Y-66869668D01*
X70568358Y-66965708D01*
X70344928Y-67097056D01*
X70341217Y-67100077D01*
X70341213Y-67100080D01*
X70268736Y-67159086D01*
X70143937Y-67260688D01*
X70140728Y-67264233D01*
X70140723Y-67264238D01*
X70023021Y-67394274D01*
X69970010Y-67452840D01*
X69827149Y-67669090D01*
X69825148Y-67673430D01*
X69825146Y-67673434D01*
X69751025Y-67834215D01*
X69718642Y-67904460D01*
X69646985Y-68153535D01*
X69646374Y-68158270D01*
X69646373Y-68158276D01*
X69635010Y-68246368D01*
X69613828Y-68410583D01*
X57758500Y-68410583D01*
X57758500Y-61836880D01*
X77411992Y-61836880D01*
X77412355Y-61841028D01*
X77412355Y-61841032D01*
X77437487Y-62128293D01*
X77437488Y-62128301D01*
X77437852Y-62132459D01*
X77502577Y-62422021D01*
X77504019Y-62425941D01*
X77504021Y-62425947D01*
X77574619Y-62617827D01*
X77605029Y-62700480D01*
X77743410Y-62962942D01*
X77915288Y-63204797D01*
X78117642Y-63421796D01*
X78346918Y-63610125D01*
X78599088Y-63766477D01*
X78869722Y-63888105D01*
X79042390Y-63939580D01*
X79150065Y-63971679D01*
X79150067Y-63971679D01*
X79154064Y-63972871D01*
X79158184Y-63973524D01*
X79158186Y-63973524D01*
X79277106Y-63992359D01*
X79447119Y-64019286D01*
X79492146Y-64021331D01*
X79538497Y-64023436D01*
X79538516Y-64023436D01*
X79539916Y-64023500D01*
X79725264Y-64023500D01*
X79946056Y-64008835D01*
X80236910Y-63950188D01*
X80517453Y-63853590D01*
X80521196Y-63851716D01*
X80521200Y-63851714D01*
X80779012Y-63722611D01*
X80779014Y-63722610D01*
X80782756Y-63720736D01*
X81028158Y-63553961D01*
X81249346Y-63356196D01*
X81442436Y-63130914D01*
X81444711Y-63127411D01*
X81601763Y-62885572D01*
X81601765Y-62885569D01*
X81604035Y-62882073D01*
X81731304Y-62614046D01*
X81791696Y-62425947D01*
X81820726Y-62335530D01*
X81820727Y-62335524D01*
X81822006Y-62331542D01*
X81857091Y-62136548D01*
X81873809Y-62043632D01*
X81873810Y-62043627D01*
X81874548Y-62039523D01*
X81883751Y-61836880D01*
X81887819Y-61747290D01*
X81887819Y-61747285D01*
X81888008Y-61743120D01*
X81887645Y-61738968D01*
X81862513Y-61451707D01*
X81862512Y-61451699D01*
X81862148Y-61447541D01*
X81797423Y-61157979D01*
X81726773Y-60965954D01*
X81696418Y-60883452D01*
X81696416Y-60883448D01*
X81694971Y-60879520D01*
X81556590Y-60617058D01*
X81384712Y-60375203D01*
X81182358Y-60158204D01*
X80953082Y-59969875D01*
X80700912Y-59813523D01*
X80430278Y-59691895D01*
X80257610Y-59640420D01*
X80149935Y-59608321D01*
X80149933Y-59608321D01*
X80145936Y-59607129D01*
X80141816Y-59606476D01*
X80141814Y-59606476D01*
X80022894Y-59587641D01*
X79852881Y-59560714D01*
X79807854Y-59558669D01*
X79761503Y-59556564D01*
X79761484Y-59556564D01*
X79760084Y-59556500D01*
X79574736Y-59556500D01*
X79353944Y-59571165D01*
X79063090Y-59629812D01*
X78782547Y-59726410D01*
X78778804Y-59728284D01*
X78778800Y-59728286D01*
X78604179Y-59815730D01*
X78517244Y-59859264D01*
X78271842Y-60026039D01*
X78050654Y-60223804D01*
X77857564Y-60449086D01*
X77855290Y-60452588D01*
X77855289Y-60452589D01*
X77750698Y-60613646D01*
X77695965Y-60697927D01*
X77568696Y-60965954D01*
X77567417Y-60969937D01*
X77567416Y-60969940D01*
X77507044Y-61157979D01*
X77477994Y-61248458D01*
X77477253Y-61252577D01*
X77442174Y-61447541D01*
X77425452Y-61540477D01*
X77425263Y-61544644D01*
X77425262Y-61544651D01*
X77416060Y-61747290D01*
X77411992Y-61836880D01*
X57758500Y-61836880D01*
X57758500Y-45700583D01*
X69613828Y-45700583D01*
X69619935Y-45959689D01*
X69665163Y-46214890D01*
X69748473Y-46460313D01*
X69750674Y-46464549D01*
X69750676Y-46464555D01*
X69808210Y-46575312D01*
X69867947Y-46690311D01*
X69870762Y-46694165D01*
X69870765Y-46694169D01*
X69972307Y-46833161D01*
X70020837Y-46899590D01*
X70024209Y-46902980D01*
X70024211Y-46902982D01*
X70200248Y-47079945D01*
X70200253Y-47079949D01*
X70203622Y-47083336D01*
X70412099Y-47237319D01*
X70416337Y-47239549D01*
X70416339Y-47239550D01*
X70637232Y-47355768D01*
X70637239Y-47355771D01*
X70641468Y-47357996D01*
X70645984Y-47359555D01*
X70645990Y-47359558D01*
X70772565Y-47403264D01*
X70886451Y-47442590D01*
X71004193Y-47464093D01*
X71137441Y-47488429D01*
X71137445Y-47488429D01*
X71141412Y-47489154D01*
X71224342Y-47493500D01*
X71385903Y-47493500D01*
X71388282Y-47493319D01*
X71388283Y-47493319D01*
X71573664Y-47479218D01*
X71573669Y-47479217D01*
X71578431Y-47478855D01*
X71583084Y-47477776D01*
X71583087Y-47477776D01*
X71826251Y-47421413D01*
X71826250Y-47421413D01*
X71830915Y-47420332D01*
X72071642Y-47324292D01*
X72295072Y-47192944D01*
X72298783Y-47189923D01*
X72298787Y-47189920D01*
X72492351Y-47032334D01*
X72496063Y-47029312D01*
X72499272Y-47025767D01*
X72499277Y-47025762D01*
X72666774Y-46840713D01*
X72669990Y-46837160D01*
X72812851Y-46620910D01*
X72816016Y-46614046D01*
X72919352Y-46389892D01*
X72919353Y-46389889D01*
X72921358Y-46385540D01*
X72993015Y-46136465D01*
X72994070Y-46128293D01*
X73025561Y-45884154D01*
X73026172Y-45879417D01*
X73025169Y-45836880D01*
X132611992Y-45836880D01*
X132612355Y-45841028D01*
X132612355Y-45841032D01*
X132637487Y-46128293D01*
X132637488Y-46128301D01*
X132637852Y-46132459D01*
X132638766Y-46136548D01*
X132694423Y-46385540D01*
X132702577Y-46422021D01*
X132704019Y-46425941D01*
X132704021Y-46425947D01*
X132802707Y-46694169D01*
X132805029Y-46700480D01*
X132806980Y-46704180D01*
X132806982Y-46704185D01*
X132941457Y-46959238D01*
X132943410Y-46962942D01*
X133115288Y-47204797D01*
X133317642Y-47421796D01*
X133546918Y-47610125D01*
X133799088Y-47766477D01*
X134069722Y-47888105D01*
X134242390Y-47939580D01*
X134350065Y-47971679D01*
X134350067Y-47971679D01*
X134354064Y-47972871D01*
X134358184Y-47973524D01*
X134358186Y-47973524D01*
X134477106Y-47992359D01*
X134647119Y-48019286D01*
X134692146Y-48021331D01*
X134738497Y-48023436D01*
X134738516Y-48023436D01*
X134739916Y-48023500D01*
X134925264Y-48023500D01*
X135146056Y-48008835D01*
X135436910Y-47950188D01*
X135717453Y-47853590D01*
X135721196Y-47851716D01*
X135721200Y-47851714D01*
X135979012Y-47722611D01*
X135979014Y-47722610D01*
X135982756Y-47720736D01*
X136228158Y-47553961D01*
X136449346Y-47356196D01*
X136642436Y-47130914D01*
X136671485Y-47086182D01*
X136801763Y-46885572D01*
X136801765Y-46885569D01*
X136804035Y-46882073D01*
X136825362Y-46837160D01*
X136852629Y-46779734D01*
X136931304Y-46614046D01*
X136932584Y-46610060D01*
X137020726Y-46335530D01*
X137020727Y-46335524D01*
X137022006Y-46331542D01*
X137057106Y-46136465D01*
X137073809Y-46043632D01*
X137073810Y-46043627D01*
X137074548Y-46039523D01*
X137078174Y-45959689D01*
X137087819Y-45747290D01*
X137087819Y-45747285D01*
X137088008Y-45743120D01*
X137087645Y-45738968D01*
X137062513Y-45451707D01*
X137062512Y-45451699D01*
X137062148Y-45447541D01*
X137006606Y-45199062D01*
X136998336Y-45162063D01*
X136998336Y-45162061D01*
X136997423Y-45157979D01*
X136985001Y-45124215D01*
X136896418Y-44883452D01*
X136896416Y-44883448D01*
X136894971Y-44879520D01*
X136821035Y-44739287D01*
X136758543Y-44620762D01*
X136758542Y-44620761D01*
X136756590Y-44617058D01*
X136584712Y-44375203D01*
X136382358Y-44158204D01*
X136153082Y-43969875D01*
X135900912Y-43813523D01*
X135630278Y-43691895D01*
X135457610Y-43640420D01*
X135349935Y-43608321D01*
X135349933Y-43608321D01*
X135345936Y-43607129D01*
X135341816Y-43606476D01*
X135341814Y-43606476D01*
X135222894Y-43587641D01*
X135052881Y-43560714D01*
X135007854Y-43558669D01*
X134961503Y-43556564D01*
X134961484Y-43556564D01*
X134960084Y-43556500D01*
X134774736Y-43556500D01*
X134553944Y-43571165D01*
X134263090Y-43629812D01*
X134086254Y-43690701D01*
X134011581Y-43716413D01*
X133982547Y-43726410D01*
X133978804Y-43728284D01*
X133978800Y-43728286D01*
X133804179Y-43815730D01*
X133717244Y-43859264D01*
X133713779Y-43861619D01*
X133515477Y-43996385D01*
X133471842Y-44026039D01*
X133250654Y-44223804D01*
X133057564Y-44449086D01*
X133055290Y-44452588D01*
X133055289Y-44452589D01*
X132907341Y-44680410D01*
X132895965Y-44697927D01*
X132894177Y-44701693D01*
X132894174Y-44701698D01*
X132872740Y-44746839D01*
X132768696Y-44965954D01*
X132767417Y-44969937D01*
X132767416Y-44969940D01*
X132695331Y-45194460D01*
X132677994Y-45248458D01*
X132677253Y-45252577D01*
X132642174Y-45447541D01*
X132625452Y-45540477D01*
X132625263Y-45544644D01*
X132625262Y-45544651D01*
X132616060Y-45747290D01*
X132611992Y-45836880D01*
X73025169Y-45836880D01*
X73020065Y-45620311D01*
X72974837Y-45365110D01*
X72891527Y-45119687D01*
X72889326Y-45115451D01*
X72889324Y-45115445D01*
X72808104Y-44959090D01*
X72772053Y-44889689D01*
X72761918Y-44875815D01*
X72621986Y-44684274D01*
X72621985Y-44684273D01*
X72619163Y-44680410D01*
X72584824Y-44645890D01*
X72439752Y-44500055D01*
X72439747Y-44500051D01*
X72436378Y-44496664D01*
X72227901Y-44342681D01*
X72223661Y-44340450D01*
X72002768Y-44224232D01*
X72002761Y-44224229D01*
X71998532Y-44222004D01*
X71994016Y-44220445D01*
X71994010Y-44220442D01*
X71823148Y-44161443D01*
X71753549Y-44137410D01*
X71635807Y-44115907D01*
X71502559Y-44091571D01*
X71502555Y-44091571D01*
X71498588Y-44090846D01*
X71415658Y-44086500D01*
X71254097Y-44086500D01*
X71251718Y-44086681D01*
X71251717Y-44086681D01*
X71066336Y-44100782D01*
X71066331Y-44100783D01*
X71061569Y-44101145D01*
X71056916Y-44102224D01*
X71056913Y-44102224D01*
X70908822Y-44136550D01*
X70809085Y-44159668D01*
X70568358Y-44255708D01*
X70344928Y-44387056D01*
X70341217Y-44390077D01*
X70341213Y-44390080D01*
X70268736Y-44449086D01*
X70143937Y-44550688D01*
X70140728Y-44554233D01*
X70140723Y-44554238D01*
X70023021Y-44684274D01*
X69970010Y-44742840D01*
X69827149Y-44959090D01*
X69825148Y-44963430D01*
X69825146Y-44963434D01*
X69751025Y-45124215D01*
X69718642Y-45194460D01*
X69646985Y-45443535D01*
X69646374Y-45448270D01*
X69646373Y-45448276D01*
X69635010Y-45536368D01*
X69613828Y-45700583D01*
X57758500Y-45700583D01*
X57758500Y-44645890D01*
X57760246Y-44624985D01*
X57762770Y-44609984D01*
X57762770Y-44609981D01*
X57763576Y-44605192D01*
X57763729Y-44592640D01*
X57763040Y-44587826D01*
X57763039Y-44587817D01*
X57761869Y-44579646D01*
X57760827Y-44554180D01*
X57776206Y-44299930D01*
X57778040Y-44284826D01*
X57804768Y-44138974D01*
X57829526Y-44003874D01*
X57833164Y-43989113D01*
X57874211Y-43857389D01*
X57918142Y-43716409D01*
X57923534Y-43702195D01*
X58040758Y-43441732D01*
X58047828Y-43428261D01*
X58195595Y-43183827D01*
X58204238Y-43171306D01*
X58380385Y-42946469D01*
X58390475Y-42935080D01*
X58592440Y-42733115D01*
X58603829Y-42723025D01*
X58828666Y-42546878D01*
X58841187Y-42538235D01*
X59085621Y-42390468D01*
X59099094Y-42383397D01*
X59141777Y-42364187D01*
X59359555Y-42266174D01*
X59373769Y-42260782D01*
X59646474Y-42175804D01*
X59661240Y-42172165D01*
X59870214Y-42133869D01*
X59942186Y-42120680D01*
X59957290Y-42118846D01*
X60207904Y-42103687D01*
X60234716Y-42104948D01*
X60234852Y-42104950D01*
X60243724Y-42106331D01*
X60252626Y-42105167D01*
X60252628Y-42105167D01*
X60267677Y-42103199D01*
X60275286Y-42102204D01*
X60291621Y-42101140D01*
X154208000Y-42101140D01*
X154227384Y-42102640D01*
G37*
%TD.AperFunction*%
%TD*%
M02*
