%TF.GenerationSoftware,KiCad,Pcbnew,(6.0.8)*%
%TF.CreationDate,2023-04-19T22:42:55+02:00*%
%TF.ProjectId,Group22_Power,47726f75-7032-4325-9f50-6f7765722e6b,rev?*%
%TF.SameCoordinates,Original*%
%TF.FileFunction,Legend,Bot*%
%TF.FilePolarity,Positive*%
%FSLAX46Y46*%
G04 Gerber Fmt 4.6, Leading zero omitted, Abs format (unit mm)*
G04 Created by KiCad (PCBNEW (6.0.8)) date 2023-04-19 22:42:55*
%MOMM*%
%LPD*%
G01*
G04 APERTURE LIST*
%ADD10C,0.150000*%
%ADD11C,0.120000*%
%ADD12R,1.700000X1.700000*%
%ADD13O,1.700000X1.700000*%
%ADD14C,3.450000*%
%ADD15C,2.390000*%
%ADD16C,0.700000*%
%ADD17O,1.600000X1.000000*%
%ADD18C,0.650000*%
%ADD19O,1.900000X1.070000*%
%ADD20C,1.300000*%
G04 APERTURE END LIST*
D10*
X67261904Y-137250000D02*
X67357142Y-137202380D01*
X67500000Y-137202380D01*
X67642857Y-137250000D01*
X67738095Y-137345238D01*
X67785714Y-137440476D01*
X67833333Y-137630952D01*
X67833333Y-137773809D01*
X67785714Y-137964285D01*
X67738095Y-138059523D01*
X67642857Y-138154761D01*
X67500000Y-138202380D01*
X67404761Y-138202380D01*
X67261904Y-138154761D01*
X67214285Y-138107142D01*
X67214285Y-137773809D01*
X67404761Y-137773809D01*
X66785714Y-138202380D02*
X66785714Y-137202380D01*
X66214285Y-138202380D01*
X66214285Y-137202380D01*
X65738095Y-138202380D02*
X65738095Y-137202380D01*
X65500000Y-137202380D01*
X65357142Y-137250000D01*
X65261904Y-137345238D01*
X65214285Y-137440476D01*
X65166666Y-137630952D01*
X65166666Y-137773809D01*
X65214285Y-137964285D01*
X65261904Y-138059523D01*
X65357142Y-138154761D01*
X65500000Y-138202380D01*
X65738095Y-138202380D01*
X97535714Y-120071428D02*
X96773809Y-120071428D01*
X97154761Y-120452380D02*
X97154761Y-119690476D01*
X95821428Y-119452380D02*
X96297619Y-119452380D01*
X96345238Y-119928571D01*
X96297619Y-119880952D01*
X96202380Y-119833333D01*
X95964285Y-119833333D01*
X95869047Y-119880952D01*
X95821428Y-119928571D01*
X95773809Y-120023809D01*
X95773809Y-120261904D01*
X95821428Y-120357142D01*
X95869047Y-120404761D01*
X95964285Y-120452380D01*
X96202380Y-120452380D01*
X96297619Y-120404761D01*
X96345238Y-120357142D01*
X95488095Y-119452380D02*
X95154761Y-120452380D01*
X94821428Y-119452380D01*
X151285714Y-140071428D02*
X150523809Y-140071428D01*
X150904761Y-140452380D02*
X150904761Y-139690476D01*
X149571428Y-139452380D02*
X150047619Y-139452380D01*
X150095238Y-139928571D01*
X150047619Y-139880952D01*
X149952380Y-139833333D01*
X149714285Y-139833333D01*
X149619047Y-139880952D01*
X149571428Y-139928571D01*
X149523809Y-140023809D01*
X149523809Y-140261904D01*
X149571428Y-140357142D01*
X149619047Y-140404761D01*
X149714285Y-140452380D01*
X149952380Y-140452380D01*
X150047619Y-140404761D01*
X150095238Y-140357142D01*
X149238095Y-139452380D02*
X148904761Y-140452380D01*
X148571428Y-139452380D01*
X66692857Y-125530952D02*
X66692857Y-125797619D01*
X67111904Y-125911904D02*
X67111904Y-125530952D01*
X66311904Y-125530952D01*
X66311904Y-125911904D01*
X67073809Y-126216666D02*
X67111904Y-126330952D01*
X67111904Y-126521428D01*
X67073809Y-126597619D01*
X67035714Y-126635714D01*
X66959523Y-126673809D01*
X66883333Y-126673809D01*
X66807142Y-126635714D01*
X66769047Y-126597619D01*
X66730952Y-126521428D01*
X66692857Y-126369047D01*
X66654761Y-126292857D01*
X66616666Y-126254761D01*
X66540476Y-126216666D01*
X66464285Y-126216666D01*
X66388095Y-126254761D01*
X66350000Y-126292857D01*
X66311904Y-126369047D01*
X66311904Y-126559523D01*
X66350000Y-126673809D01*
X67111904Y-127016666D02*
X66311904Y-127016666D01*
X66311904Y-127321428D01*
X66350000Y-127397619D01*
X66388095Y-127435714D01*
X66464285Y-127473809D01*
X66578571Y-127473809D01*
X66654761Y-127435714D01*
X66692857Y-127397619D01*
X66730952Y-127321428D01*
X66730952Y-127016666D01*
X66311904Y-127740476D02*
X66311904Y-128235714D01*
X66616666Y-127969047D01*
X66616666Y-128083333D01*
X66654761Y-128159523D01*
X66692857Y-128197619D01*
X66769047Y-128235714D01*
X66959523Y-128235714D01*
X67035714Y-128197619D01*
X67073809Y-128159523D01*
X67111904Y-128083333D01*
X67111904Y-127854761D01*
X67073809Y-127778571D01*
X67035714Y-127740476D01*
X66388095Y-128540476D02*
X66350000Y-128578571D01*
X66311904Y-128654761D01*
X66311904Y-128845238D01*
X66350000Y-128921428D01*
X66388095Y-128959523D01*
X66464285Y-128997619D01*
X66540476Y-128997619D01*
X66654761Y-128959523D01*
X67111904Y-128502380D01*
X67111904Y-128997619D01*
X67035714Y-130407142D02*
X67073809Y-130369047D01*
X67111904Y-130254761D01*
X67111904Y-130178571D01*
X67073809Y-130064285D01*
X66997619Y-129988095D01*
X66921428Y-129950000D01*
X66769047Y-129911904D01*
X66654761Y-129911904D01*
X66502380Y-129950000D01*
X66426190Y-129988095D01*
X66350000Y-130064285D01*
X66311904Y-130178571D01*
X66311904Y-130254761D01*
X66350000Y-130369047D01*
X66388095Y-130407142D01*
X66883333Y-130711904D02*
X66883333Y-131092857D01*
X67111904Y-130635714D02*
X66311904Y-130902380D01*
X67111904Y-131169047D01*
X67111904Y-131435714D02*
X66311904Y-131435714D01*
X66883333Y-131702380D01*
X66311904Y-131969047D01*
X67111904Y-131969047D01*
X111850000Y-133361904D02*
X112116666Y-132980952D01*
X112307142Y-133361904D02*
X112307142Y-132561904D01*
X112002380Y-132561904D01*
X111926190Y-132600000D01*
X111888095Y-132638095D01*
X111850000Y-132714285D01*
X111850000Y-132828571D01*
X111888095Y-132904761D01*
X111926190Y-132942857D01*
X112002380Y-132980952D01*
X112307142Y-132980952D01*
X111164285Y-133361904D02*
X111164285Y-132942857D01*
X111202380Y-132866666D01*
X111278571Y-132828571D01*
X111430952Y-132828571D01*
X111507142Y-132866666D01*
X111164285Y-133323809D02*
X111240476Y-133361904D01*
X111430952Y-133361904D01*
X111507142Y-133323809D01*
X111545238Y-133247619D01*
X111545238Y-133171428D01*
X111507142Y-133095238D01*
X111430952Y-133057142D01*
X111240476Y-133057142D01*
X111164285Y-133019047D01*
X110821428Y-133323809D02*
X110745238Y-133361904D01*
X110592857Y-133361904D01*
X110516666Y-133323809D01*
X110478571Y-133247619D01*
X110478571Y-133209523D01*
X110516666Y-133133333D01*
X110592857Y-133095238D01*
X110707142Y-133095238D01*
X110783333Y-133057142D01*
X110821428Y-132980952D01*
X110821428Y-132942857D01*
X110783333Y-132866666D01*
X110707142Y-132828571D01*
X110592857Y-132828571D01*
X110516666Y-132866666D01*
X110135714Y-132828571D02*
X110135714Y-133628571D01*
X110135714Y-132866666D02*
X110059523Y-132828571D01*
X109907142Y-132828571D01*
X109830952Y-132866666D01*
X109792857Y-132904761D01*
X109754761Y-132980952D01*
X109754761Y-133209523D01*
X109792857Y-133285714D01*
X109830952Y-133323809D01*
X109907142Y-133361904D01*
X110059523Y-133361904D01*
X110135714Y-133323809D01*
X109411904Y-133361904D02*
X109411904Y-132561904D01*
X109411904Y-132866666D02*
X109335714Y-132828571D01*
X109183333Y-132828571D01*
X109107142Y-132866666D01*
X109069047Y-132904761D01*
X109030952Y-132980952D01*
X109030952Y-133209523D01*
X109069047Y-133285714D01*
X109107142Y-133323809D01*
X109183333Y-133361904D01*
X109335714Y-133361904D01*
X109411904Y-133323809D01*
X108383333Y-133323809D02*
X108459523Y-133361904D01*
X108611904Y-133361904D01*
X108688095Y-133323809D01*
X108726190Y-133247619D01*
X108726190Y-132942857D01*
X108688095Y-132866666D01*
X108611904Y-132828571D01*
X108459523Y-132828571D01*
X108383333Y-132866666D01*
X108345238Y-132942857D01*
X108345238Y-133019047D01*
X108726190Y-133095238D01*
X108002380Y-133361904D02*
X108002380Y-132828571D01*
X108002380Y-132980952D02*
X107964285Y-132904761D01*
X107926190Y-132866666D01*
X107850000Y-132828571D01*
X107773809Y-132828571D01*
X107507142Y-133361904D02*
X107507142Y-132828571D01*
X107507142Y-132980952D02*
X107469047Y-132904761D01*
X107430952Y-132866666D01*
X107354761Y-132828571D01*
X107278571Y-132828571D01*
X107088095Y-132828571D02*
X106897619Y-133361904D01*
X106707142Y-132828571D02*
X106897619Y-133361904D01*
X106973809Y-133552380D01*
X107011904Y-133590476D01*
X107088095Y-133628571D01*
X105792857Y-133361904D02*
X105792857Y-132561904D01*
X105488095Y-132561904D01*
X105411904Y-132600000D01*
X105373809Y-132638095D01*
X105335714Y-132714285D01*
X105335714Y-132828571D01*
X105373809Y-132904761D01*
X105411904Y-132942857D01*
X105488095Y-132980952D01*
X105792857Y-132980952D01*
X104992857Y-133361904D02*
X104992857Y-132828571D01*
X104992857Y-132561904D02*
X105030952Y-132600000D01*
X104992857Y-132638095D01*
X104954761Y-132600000D01*
X104992857Y-132561904D01*
X104992857Y-132638095D01*
X104078571Y-132561904D02*
X103545238Y-132561904D01*
X104078571Y-133361904D01*
X103545238Y-133361904D01*
X102935714Y-133323809D02*
X103011904Y-133361904D01*
X103164285Y-133361904D01*
X103240476Y-133323809D01*
X103278571Y-133247619D01*
X103278571Y-132942857D01*
X103240476Y-132866666D01*
X103164285Y-132828571D01*
X103011904Y-132828571D01*
X102935714Y-132866666D01*
X102897619Y-132942857D01*
X102897619Y-133019047D01*
X103278571Y-133095238D01*
X102554761Y-133361904D02*
X102554761Y-132828571D01*
X102554761Y-132980952D02*
X102516666Y-132904761D01*
X102478571Y-132866666D01*
X102402380Y-132828571D01*
X102326190Y-132828571D01*
X101945238Y-133361904D02*
X102021428Y-133323809D01*
X102059523Y-133285714D01*
X102097619Y-133209523D01*
X102097619Y-132980952D01*
X102059523Y-132904761D01*
X102021428Y-132866666D01*
X101945238Y-132828571D01*
X101830952Y-132828571D01*
X101754761Y-132866666D01*
X101716666Y-132904761D01*
X101678571Y-132980952D01*
X101678571Y-133209523D01*
X101716666Y-133285714D01*
X101754761Y-133323809D01*
X101830952Y-133361904D01*
X101945238Y-133361904D01*
X100802380Y-132561904D02*
X100611904Y-133361904D01*
X100459523Y-132790476D01*
X100307142Y-133361904D01*
X100116666Y-132561904D01*
%TO.C,J4*%
X93058333Y-116557380D02*
X93058333Y-117271666D01*
X93105952Y-117414523D01*
X93201190Y-117509761D01*
X93344047Y-117557380D01*
X93439285Y-117557380D01*
X92153571Y-116890714D02*
X92153571Y-117557380D01*
X92391666Y-116509761D02*
X92629761Y-117224047D01*
X92010714Y-117224047D01*
%TO.C,J7*%
X151762380Y-136146666D02*
X152476666Y-136146666D01*
X152619523Y-136099047D01*
X152714761Y-136003809D01*
X152762380Y-135860952D01*
X152762380Y-135765714D01*
X151762380Y-136527619D02*
X151762380Y-137194285D01*
X152762380Y-136765714D01*
%TO.C,J5*%
X70192798Y-116557380D02*
X70192798Y-117271666D01*
X70240417Y-117414523D01*
X70335655Y-117509761D01*
X70478512Y-117557380D01*
X70573750Y-117557380D01*
X69240417Y-116557380D02*
X69716607Y-116557380D01*
X69764226Y-117033571D01*
X69716607Y-116985952D01*
X69621369Y-116938333D01*
X69383274Y-116938333D01*
X69288036Y-116985952D01*
X69240417Y-117033571D01*
X69192798Y-117128809D01*
X69192798Y-117366904D01*
X69240417Y-117462142D01*
X69288036Y-117509761D01*
X69383274Y-117557380D01*
X69621369Y-117557380D01*
X69716607Y-117509761D01*
X69764226Y-117462142D01*
%TO.C,G\u002A\u002A\u002A*%
G36*
X82726205Y-132363018D02*
G01*
X82715897Y-132373326D01*
X82705588Y-132363018D01*
X82715897Y-132352710D01*
X82726205Y-132363018D01*
G37*
G36*
X82081928Y-132441582D02*
G01*
X82087777Y-132443510D01*
X82083357Y-132448861D01*
X82045848Y-132451011D01*
X82031860Y-132450811D01*
X82003352Y-132447558D01*
X82009769Y-132441582D01*
X82029639Y-132438376D01*
X82081928Y-132441582D01*
G37*
G36*
X78994549Y-131765128D02*
G01*
X78984241Y-131775437D01*
X78973933Y-131765128D01*
X78984241Y-131754820D01*
X78994549Y-131765128D01*
G37*
G36*
X83365329Y-132280551D02*
G01*
X83355020Y-132290859D01*
X83344712Y-132280551D01*
X83355020Y-132270242D01*
X83365329Y-132280551D01*
G37*
G36*
X80235428Y-132441710D02*
G01*
X80244971Y-132449131D01*
X80222972Y-132454166D01*
X80202061Y-132452709D01*
X80195912Y-132443338D01*
X80203206Y-132439252D01*
X80235428Y-132441710D01*
G37*
G36*
X81963381Y-131930063D02*
G01*
X81953072Y-131940372D01*
X81942764Y-131930063D01*
X81953072Y-131919755D01*
X81963381Y-131930063D01*
G37*
G36*
X83592114Y-132053765D02*
G01*
X83581806Y-132064073D01*
X83571498Y-132053765D01*
X83581806Y-132043456D01*
X83592114Y-132053765D01*
G37*
G36*
X80441597Y-132462327D02*
G01*
X80451140Y-132469748D01*
X80429141Y-132474783D01*
X80408230Y-132473325D01*
X80402081Y-132463955D01*
X80409375Y-132459869D01*
X80441597Y-132462327D01*
G37*
G36*
X79633673Y-129146784D02*
G01*
X79623364Y-129157093D01*
X79613056Y-129146784D01*
X79623364Y-129136476D01*
X79633673Y-129146784D01*
G37*
G36*
X83296606Y-131947244D02*
G01*
X83299831Y-131953445D01*
X83282861Y-131960989D01*
X83271947Y-131959501D01*
X83269117Y-131947244D01*
X83272138Y-131944777D01*
X83296606Y-131947244D01*
G37*
G36*
X78314192Y-131868213D02*
G01*
X78303884Y-131878521D01*
X78293575Y-131868213D01*
X78303884Y-131857904D01*
X78314192Y-131868213D01*
G37*
G36*
X82665426Y-128415344D02*
G01*
X82657022Y-128448571D01*
X82628596Y-128497919D01*
X82607590Y-128525989D01*
X82593134Y-128533444D01*
X82585354Y-128510241D01*
X82592052Y-128471921D01*
X82621113Y-128428346D01*
X82625093Y-128424464D01*
X82654539Y-128405041D01*
X82665426Y-128415344D01*
G37*
G36*
X80499582Y-128693213D02*
G01*
X80489274Y-128703521D01*
X80478965Y-128693213D01*
X80489274Y-128682904D01*
X80499582Y-128693213D01*
G37*
G36*
X80430502Y-131374715D02*
G01*
X80432532Y-131414641D01*
X80432266Y-131436482D01*
X80429139Y-131466089D01*
X80423566Y-131461270D01*
X80419830Y-131432522D01*
X80423150Y-131378802D01*
X80425846Y-131368658D01*
X80430502Y-131374715D01*
G37*
G36*
X80911920Y-132466102D02*
G01*
X80901611Y-132476411D01*
X80891303Y-132466102D01*
X80901611Y-132455794D01*
X80911920Y-132466102D01*
G37*
G36*
X83117926Y-132383635D02*
G01*
X83107618Y-132393943D01*
X83097309Y-132383635D01*
X83107618Y-132373326D01*
X83117926Y-132383635D01*
G37*
G36*
X80292480Y-128540611D02*
G01*
X80326556Y-128558234D01*
X80360485Y-128585283D01*
X80375881Y-128607864D01*
X80368076Y-128620791D01*
X80341040Y-128612380D01*
X80303722Y-128579820D01*
X80283068Y-128551363D01*
X80285064Y-128539242D01*
X80292480Y-128540611D01*
G37*
G36*
X81400949Y-132461231D02*
G01*
X81421704Y-132463517D01*
X81419651Y-132466361D01*
X81382516Y-132468329D01*
X81313949Y-132469093D01*
X81264418Y-132468794D01*
X81213864Y-132467238D01*
X81196120Y-132464644D01*
X81215397Y-132461345D01*
X81234883Y-132459924D01*
X81318422Y-132458112D01*
X81400949Y-132461231D01*
G37*
G36*
X78376043Y-131847596D02*
G01*
X78365735Y-131857904D01*
X78355426Y-131847596D01*
X78365735Y-131837288D01*
X78376043Y-131847596D01*
G37*
G36*
X83612731Y-132115615D02*
G01*
X83602423Y-132125924D01*
X83592114Y-132115615D01*
X83602423Y-132105307D01*
X83612731Y-132115615D01*
G37*
G36*
X83667710Y-132091562D02*
G01*
X83670935Y-132097764D01*
X83653965Y-132105307D01*
X83643051Y-132103819D01*
X83640220Y-132091562D01*
X83643242Y-132089095D01*
X83667710Y-132091562D01*
G37*
G36*
X79382804Y-129105551D02*
G01*
X79363628Y-129147409D01*
X79354469Y-129167401D01*
X79342729Y-129193027D01*
X79313847Y-129258512D01*
X79308978Y-129270486D01*
X79295554Y-129303495D01*
X79292813Y-129311719D01*
X79285963Y-129332271D01*
X79283186Y-129349136D01*
X79279676Y-129364476D01*
X79259872Y-129383878D01*
X79252261Y-129391334D01*
X79236273Y-129402888D01*
X79221335Y-129440581D01*
X79218985Y-129453331D01*
X79205813Y-129466346D01*
X79191055Y-129480928D01*
X79127300Y-129505726D01*
X79100415Y-129515069D01*
X79040963Y-129545628D01*
X79003509Y-129578905D01*
X78999885Y-129585452D01*
X78982864Y-129637390D01*
X78963497Y-129725992D01*
X78942421Y-129847661D01*
X78920274Y-129998799D01*
X78897695Y-130175810D01*
X78895167Y-130198012D01*
X78892351Y-130247051D01*
X78899363Y-130266449D01*
X78918131Y-130264583D01*
X78922180Y-130263358D01*
X78933122Y-130266319D01*
X78941213Y-130283955D01*
X78947057Y-130321578D01*
X78951259Y-130384500D01*
X78954424Y-130478031D01*
X78957155Y-130607484D01*
X78963624Y-130962878D01*
X78991693Y-130998288D01*
X79030629Y-131047408D01*
X79055366Y-131079801D01*
X79079959Y-131115697D01*
X79086051Y-131124589D01*
X79098333Y-131149589D01*
X79104143Y-131175456D01*
X79105029Y-131177547D01*
X79123175Y-131220362D01*
X79139444Y-131249706D01*
X79148397Y-131265854D01*
X79151638Y-131270323D01*
X79172467Y-131299045D01*
X79188045Y-131307050D01*
X79193675Y-131304322D01*
X79208160Y-131311557D01*
X79218400Y-131316672D01*
X79247676Y-131350258D01*
X79254379Y-131361882D01*
X79261025Y-131373408D01*
X79272215Y-131392814D01*
X79282727Y-131432077D01*
X79288212Y-131463553D01*
X79314213Y-131521428D01*
X79351979Y-131573086D01*
X79390731Y-131601609D01*
X79410633Y-131611034D01*
X79427504Y-131632687D01*
X79428865Y-131640453D01*
X79451742Y-131678367D01*
X79493884Y-131724201D01*
X79543589Y-131766337D01*
X79589154Y-131793160D01*
X79620723Y-131803475D01*
X79688383Y-131821290D01*
X79739384Y-131832480D01*
X79764583Y-131838009D01*
X79766012Y-131838289D01*
X79834021Y-131850274D01*
X79876193Y-131851169D01*
X79906729Y-131838778D01*
X79939827Y-131810906D01*
X79941625Y-131809256D01*
X79996422Y-131770400D01*
X80051685Y-131746644D01*
X80101081Y-131725133D01*
X80159984Y-131684252D01*
X80215447Y-131634277D01*
X80256657Y-131585010D01*
X80272796Y-131546252D01*
X80278169Y-131524444D01*
X80303722Y-131507417D01*
X80327010Y-131510503D01*
X80331472Y-131527842D01*
X80309656Y-131568610D01*
X80297703Y-131597026D01*
X80301050Y-131625027D01*
X80310901Y-131627462D01*
X80357313Y-131631231D01*
X80436928Y-131634583D01*
X80544747Y-131637398D01*
X80675767Y-131639557D01*
X80824989Y-131640940D01*
X80987411Y-131641427D01*
X81071812Y-131641392D01*
X81242286Y-131640968D01*
X81377480Y-131639911D01*
X81481569Y-131638029D01*
X81558728Y-131635129D01*
X81613129Y-131631020D01*
X81648947Y-131625510D01*
X81656464Y-131623016D01*
X81736595Y-131623016D01*
X81740013Y-131626708D01*
X81767520Y-131631119D01*
X81781737Y-131628869D01*
X81798446Y-131611149D01*
X81794068Y-131602618D01*
X81767520Y-131603046D01*
X81752716Y-131609722D01*
X81736595Y-131623016D01*
X81656464Y-131623016D01*
X81670355Y-131618407D01*
X81681529Y-131609520D01*
X81689608Y-131602330D01*
X81737165Y-131583204D01*
X81823539Y-131563877D01*
X81949936Y-131544054D01*
X82013451Y-131535174D01*
X82098673Y-131521787D01*
X82156168Y-131509044D01*
X82194378Y-131494188D01*
X82221747Y-131474462D01*
X82246716Y-131447106D01*
X82256696Y-131435791D01*
X82300271Y-131398685D01*
X82336945Y-131383716D01*
X82338642Y-131383659D01*
X82373993Y-131364841D01*
X82406644Y-131321865D01*
X82409775Y-131315861D01*
X82432087Y-131276227D01*
X82444267Y-131260015D01*
X82444965Y-131260707D01*
X82445618Y-131284719D01*
X82441461Y-131332352D01*
X82436930Y-131360657D01*
X82418099Y-131399364D01*
X82378596Y-131417565D01*
X82357255Y-131425697D01*
X82303897Y-131459322D01*
X82249636Y-131506481D01*
X82222143Y-131533815D01*
X82187436Y-131561476D01*
X82149609Y-131576628D01*
X82095957Y-131583592D01*
X82013777Y-131586685D01*
X81994896Y-131587227D01*
X81921028Y-131590494D01*
X81867296Y-131594696D01*
X81844246Y-131599062D01*
X81843857Y-131599610D01*
X81853551Y-131611149D01*
X81856362Y-131614495D01*
X81893615Y-131637445D01*
X81951196Y-131667614D01*
X81859358Y-131666886D01*
X81806274Y-131667788D01*
X81721363Y-131670996D01*
X81618561Y-131676004D01*
X81509809Y-131682285D01*
X81421450Y-131687347D01*
X81272752Y-131694142D01*
X81119422Y-131699355D01*
X80968003Y-131702915D01*
X80825041Y-131704752D01*
X80697080Y-131704796D01*
X80590666Y-131702977D01*
X80512343Y-131699224D01*
X80468657Y-131693467D01*
X80465809Y-131692679D01*
X80400013Y-131677568D01*
X80328896Y-131665128D01*
X80320932Y-131664037D01*
X80271387Y-131662227D01*
X80238835Y-131679527D01*
X80205195Y-131724634D01*
X80197687Y-131735808D01*
X80158535Y-131777876D01*
X80123261Y-131783876D01*
X80082852Y-131788527D01*
X80035878Y-131824913D01*
X80001557Y-131875883D01*
X79994193Y-131886820D01*
X79990249Y-131904416D01*
X79985041Y-131927652D01*
X79994604Y-131942527D01*
X80009525Y-131965737D01*
X80009717Y-131965931D01*
X80030146Y-132005173D01*
X80044041Y-132066850D01*
X80050860Y-132138437D01*
X80050818Y-132142075D01*
X80050061Y-132207410D01*
X80041102Y-132261247D01*
X80023441Y-132287423D01*
X80013935Y-132295987D01*
X80004777Y-132330375D01*
X80003019Y-132349729D01*
X79991032Y-132380199D01*
X79970371Y-132388959D01*
X79925745Y-132393943D01*
X79894237Y-132390792D01*
X79886254Y-132381892D01*
X79887097Y-132364538D01*
X79864438Y-132330283D01*
X79824014Y-132291672D01*
X79775077Y-132258939D01*
X79745295Y-132244562D01*
X79722192Y-132243073D01*
X79711247Y-132266112D01*
X79692489Y-132290899D01*
X79642002Y-132306652D01*
X79580950Y-132316891D01*
X79525839Y-132335091D01*
X79488555Y-132356329D01*
X79480525Y-132375719D01*
X79473502Y-132388201D01*
X79437812Y-132393943D01*
X79403741Y-132389346D01*
X79394281Y-132377044D01*
X79394991Y-132356541D01*
X79385704Y-132306412D01*
X79367670Y-132240383D01*
X79364605Y-132230570D01*
X79343616Y-132171437D01*
X79329211Y-132149598D01*
X79319711Y-132162318D01*
X79297747Y-132194073D01*
X79239977Y-132219134D01*
X79182564Y-132235477D01*
X79115763Y-132265188D01*
X79075061Y-132297209D01*
X79053337Y-132304898D01*
X79009742Y-132300551D01*
X79002844Y-132298690D01*
X78972282Y-132282546D01*
X78954606Y-132249087D01*
X78942813Y-132186362D01*
X78938574Y-132150080D01*
X78938935Y-132098349D01*
X78976730Y-132098349D01*
X78996566Y-132205315D01*
X78998458Y-132210518D01*
X79020768Y-132252348D01*
X79042954Y-132268616D01*
X79071010Y-132258046D01*
X79122977Y-132231338D01*
X79187260Y-132194368D01*
X79191549Y-132191781D01*
X79253708Y-132152360D01*
X79286956Y-132123941D01*
X79298242Y-132098281D01*
X79294513Y-132067139D01*
X79290167Y-132047946D01*
X79386385Y-132047946D01*
X79386555Y-132059146D01*
X79393667Y-132139667D01*
X79407971Y-132213546D01*
X79412743Y-132228881D01*
X79433544Y-132272039D01*
X79454244Y-132287933D01*
X79465046Y-132286656D01*
X79550171Y-132275542D01*
X79603183Y-132263999D01*
X79632159Y-132247743D01*
X79645173Y-132222494D01*
X79650300Y-132183969D01*
X79649822Y-132147619D01*
X79625924Y-132094569D01*
X79570388Y-132066359D01*
X79481902Y-132062039D01*
X79452842Y-132063270D01*
X79416651Y-132057918D01*
X79411480Y-132040045D01*
X79422555Y-132027747D01*
X79464039Y-132016482D01*
X79520885Y-132018008D01*
X79577866Y-132032972D01*
X79600577Y-132039403D01*
X79627903Y-132035482D01*
X79626703Y-132018316D01*
X79602599Y-131994824D01*
X79569563Y-131977188D01*
X79543151Y-131976275D01*
X79528911Y-131977464D01*
X79501508Y-131956690D01*
X79478219Y-131938133D01*
X79432476Y-131942567D01*
X79406333Y-131957225D01*
X79390357Y-131988821D01*
X79386385Y-132047946D01*
X79290167Y-132047946D01*
X79284574Y-132023249D01*
X79272275Y-131960989D01*
X79263335Y-131909447D01*
X79281514Y-131960989D01*
X79292385Y-131990417D01*
X79299184Y-131996792D01*
X79301748Y-131966536D01*
X79301775Y-131965991D01*
X79321980Y-131926388D01*
X79340393Y-131917065D01*
X79495620Y-131917065D01*
X79513164Y-131934070D01*
X79548378Y-131939764D01*
X79588517Y-131929344D01*
X79601360Y-131922621D01*
X79699456Y-131922621D01*
X79727873Y-131977396D01*
X79742906Y-132017969D01*
X79736706Y-132051754D01*
X79729107Y-132064445D01*
X79739772Y-132098631D01*
X79745015Y-132104363D01*
X79771453Y-132122350D01*
X79791444Y-132124869D01*
X79790571Y-132108983D01*
X79791095Y-132093398D01*
X79808659Y-132093398D01*
X79816029Y-132105307D01*
X79817835Y-132105499D01*
X79833645Y-132126707D01*
X79840497Y-132172312D01*
X79842188Y-132183969D01*
X79848771Y-132229362D01*
X79868541Y-132275396D01*
X79893896Y-132302004D01*
X79925954Y-132306406D01*
X79958584Y-132270522D01*
X79977234Y-132224112D01*
X79981466Y-132142075D01*
X79958396Y-132058934D01*
X79933462Y-132023280D01*
X79900600Y-131997665D01*
X79872418Y-131990453D01*
X79860459Y-132007684D01*
X79852831Y-132030073D01*
X79826338Y-132067604D01*
X79808659Y-132093398D01*
X79791095Y-132093398D01*
X79791508Y-132081133D01*
X79808749Y-132036824D01*
X79824570Y-132003353D01*
X79823166Y-131985121D01*
X79796169Y-131981606D01*
X79773697Y-131977710D01*
X79766744Y-131962508D01*
X79791578Y-131953707D01*
X79843055Y-131961910D01*
X79878165Y-131969922D01*
X79926246Y-131967922D01*
X79942926Y-131942527D01*
X79930004Y-131935156D01*
X79885857Y-131928055D01*
X79821191Y-131924560D01*
X79699456Y-131922621D01*
X79601360Y-131922621D01*
X79636136Y-131904416D01*
X79578208Y-131893055D01*
X79534195Y-131889576D01*
X79503944Y-131897475D01*
X79495620Y-131917065D01*
X79340393Y-131917065D01*
X79368172Y-131903000D01*
X79426256Y-131903017D01*
X79437794Y-131903517D01*
X79462380Y-131884710D01*
X79462483Y-131875883D01*
X79438093Y-131865605D01*
X79377335Y-131865520D01*
X79332067Y-131866021D01*
X79291726Y-131859611D01*
X79282305Y-131847256D01*
X79308957Y-131831520D01*
X79318646Y-131825926D01*
X79318899Y-131821478D01*
X79353678Y-131821478D01*
X79363892Y-131846508D01*
X79370461Y-131849263D01*
X79395490Y-131839048D01*
X79398246Y-131832480D01*
X79388031Y-131807450D01*
X79381463Y-131804695D01*
X79356433Y-131814910D01*
X79353678Y-131821478D01*
X79318899Y-131821478D01*
X79319764Y-131806247D01*
X79308714Y-131801138D01*
X79278530Y-131811888D01*
X79276427Y-131813504D01*
X79236381Y-131832089D01*
X79180101Y-131847269D01*
X79114703Y-131868087D01*
X79039038Y-131923416D01*
X78991967Y-132002277D01*
X78976730Y-132098349D01*
X78938935Y-132098349D01*
X78939414Y-132029559D01*
X78968605Y-131931717D01*
X79028014Y-131849166D01*
X79053516Y-131824667D01*
X79098630Y-131789326D01*
X79129552Y-131775437D01*
X79142895Y-131773029D01*
X79159485Y-131752614D01*
X79162064Y-131743660D01*
X79185256Y-131739477D01*
X79237908Y-131758377D01*
X79275342Y-131767080D01*
X79281215Y-131756185D01*
X79256137Y-131722703D01*
X79200718Y-131663642D01*
X79163167Y-131626096D01*
X79085699Y-131555893D01*
X79012899Y-131498503D01*
X78952508Y-131459776D01*
X78912267Y-131445567D01*
X78906843Y-131445001D01*
X78868339Y-131432739D01*
X78813633Y-131409392D01*
X78756368Y-131381505D01*
X78743097Y-131374068D01*
X78987347Y-131374068D01*
X78998283Y-131396701D01*
X79010588Y-131399030D01*
X79013746Y-131373408D01*
X79159485Y-131373408D01*
X79169793Y-131383716D01*
X79180101Y-131373408D01*
X79169793Y-131363099D01*
X79159485Y-131373408D01*
X79013746Y-131373408D01*
X79015166Y-131361882D01*
X79010986Y-131338404D01*
X78995450Y-131331617D01*
X78987567Y-131340893D01*
X78987347Y-131374068D01*
X78743097Y-131374068D01*
X78710187Y-131355625D01*
X78688732Y-131338300D01*
X78685736Y-131333568D01*
X78657807Y-131321735D01*
X78652377Y-131321137D01*
X78639372Y-131311557D01*
X78891465Y-131311557D01*
X78901774Y-131321865D01*
X78912082Y-131311557D01*
X78901774Y-131301249D01*
X78891465Y-131311557D01*
X78639372Y-131311557D01*
X78620299Y-131297507D01*
X78604747Y-131270323D01*
X78808998Y-131270323D01*
X78819306Y-131280632D01*
X78829614Y-131270323D01*
X78819306Y-131260015D01*
X78808998Y-131270323D01*
X78604747Y-131270323D01*
X78593424Y-131250532D01*
X78593199Y-131249706D01*
X78705913Y-131249706D01*
X78716222Y-131260015D01*
X78726530Y-131249706D01*
X78716222Y-131239398D01*
X78705913Y-131249706D01*
X78593199Y-131249706D01*
X78578399Y-131195456D01*
X78580471Y-131166824D01*
X78730935Y-131166824D01*
X78733402Y-131191292D01*
X78739603Y-131194517D01*
X78747147Y-131177547D01*
X78745659Y-131166633D01*
X78733402Y-131163803D01*
X78730935Y-131166824D01*
X78580471Y-131166824D01*
X78581868Y-131147526D01*
X78590538Y-131110585D01*
X78587034Y-131104974D01*
X78957721Y-131104974D01*
X78960188Y-131129441D01*
X78966389Y-131132667D01*
X78973933Y-131115697D01*
X78972445Y-131104782D01*
X78960188Y-131101952D01*
X78957721Y-131104974D01*
X78587034Y-131104974D01*
X78576025Y-131087342D01*
X78564573Y-131076384D01*
X78583952Y-131055929D01*
X78585253Y-131055048D01*
X78608809Y-131017700D01*
X78618106Y-130965219D01*
X78653520Y-130965219D01*
X78662655Y-130990687D01*
X78675390Y-131010268D01*
X78698608Y-131059000D01*
X78720048Y-131089923D01*
X78755058Y-131085398D01*
X78803224Y-131042108D01*
X78821875Y-131022329D01*
X78854809Y-131002565D01*
X78888540Y-131011047D01*
X78901258Y-131017511D01*
X78917557Y-131019721D01*
X78918758Y-130998288D01*
X78907149Y-130945099D01*
X78902777Y-130922425D01*
X78894355Y-130848878D01*
X78888594Y-130755479D01*
X78886547Y-130656971D01*
X78885963Y-130601702D01*
X78882561Y-130526623D01*
X78876783Y-130475096D01*
X78869385Y-130455956D01*
X78864380Y-130458444D01*
X78846240Y-130487404D01*
X78827179Y-130538424D01*
X78820638Y-130558506D01*
X78801184Y-130603099D01*
X78785117Y-130620891D01*
X78777559Y-130623853D01*
X78767764Y-130650378D01*
X78767659Y-130652293D01*
X78757718Y-130687839D01*
X78734760Y-130747394D01*
X78703291Y-130819160D01*
X78682698Y-130864991D01*
X78659508Y-130926244D01*
X78653520Y-130965219D01*
X78618106Y-130965219D01*
X78619704Y-130956196D01*
X78621172Y-130938621D01*
X78637247Y-130864066D01*
X78664353Y-130791371D01*
X78676250Y-130765790D01*
X78697497Y-130713685D01*
X78705913Y-130682551D01*
X78710003Y-130666669D01*
X78729808Y-130621384D01*
X78760510Y-130563008D01*
X78764814Y-130555156D01*
X78806279Y-130451047D01*
X78831127Y-130332255D01*
X78839897Y-130268502D01*
X78855332Y-130178151D01*
X78870997Y-130105469D01*
X78885095Y-130044313D01*
X78900078Y-129962624D01*
X78915371Y-129859739D01*
X78931952Y-129729021D01*
X78950799Y-129563834D01*
X78957026Y-129512097D01*
X78965428Y-129455623D01*
X79019571Y-129455623D01*
X79022039Y-129480091D01*
X79028240Y-129483316D01*
X79035783Y-129466346D01*
X79034295Y-129455431D01*
X79022039Y-129452601D01*
X79019571Y-129455623D01*
X78965428Y-129455623D01*
X78969735Y-129426676D01*
X78980166Y-129373156D01*
X79163889Y-129373156D01*
X79166357Y-129397623D01*
X79172558Y-129400848D01*
X79180101Y-129383878D01*
X79178614Y-129372964D01*
X79166357Y-129370134D01*
X79163889Y-129373156D01*
X78980166Y-129373156D01*
X78982752Y-129359885D01*
X78994061Y-129322941D01*
X78999077Y-129311719D01*
X79118251Y-129311719D01*
X79128559Y-129322028D01*
X79138868Y-129311719D01*
X79128559Y-129301411D01*
X79118251Y-129311719D01*
X78999077Y-129311719D01*
X79010402Y-129286384D01*
X79009938Y-129270486D01*
X79118251Y-129270486D01*
X79128559Y-129280794D01*
X79138868Y-129270486D01*
X79180101Y-129270486D01*
X79190410Y-129280794D01*
X79200718Y-129270486D01*
X79190410Y-129260177D01*
X79180101Y-129270486D01*
X79138868Y-129270486D01*
X79128559Y-129260177D01*
X79118251Y-129270486D01*
X79009938Y-129270486D01*
X79009410Y-129252387D01*
X78977330Y-129234475D01*
X78974810Y-129233840D01*
X78948629Y-129236228D01*
X78947221Y-129268150D01*
X78947545Y-129270314D01*
X78947505Y-129270486D01*
X78939183Y-129306610D01*
X78936232Y-129310812D01*
X78904137Y-129356516D01*
X78838903Y-129425112D01*
X78828606Y-129435240D01*
X78771738Y-129493576D01*
X78727011Y-129543305D01*
X78703352Y-129574585D01*
X78689204Y-129594758D01*
X78665016Y-129610664D01*
X78662992Y-129610884D01*
X78633946Y-129626595D01*
X78593469Y-129659521D01*
X78565310Y-129679771D01*
X78496100Y-129713716D01*
X78411095Y-129744549D01*
X78325778Y-129766950D01*
X78255633Y-129775599D01*
X78214327Y-129763980D01*
X78188699Y-129721809D01*
X78188554Y-129651236D01*
X78214366Y-129554796D01*
X78229362Y-129513226D01*
X78250174Y-129457053D01*
X78271515Y-129402341D01*
X78298562Y-129335943D01*
X78336493Y-129244714D01*
X78340034Y-129236484D01*
X78362003Y-129194719D01*
X78378269Y-129177710D01*
X78379455Y-129177481D01*
X78392654Y-129156148D01*
X78405325Y-129110705D01*
X78407567Y-129101337D01*
X78427609Y-129044922D01*
X78460715Y-128969625D01*
X78501003Y-128889073D01*
X78511590Y-128869128D01*
X78552479Y-128790582D01*
X78586777Y-128722490D01*
X78607957Y-128677750D01*
X78631504Y-128637986D01*
X78654446Y-128621054D01*
X78655175Y-128621024D01*
X78680430Y-128603787D01*
X78710035Y-128564357D01*
X78737865Y-128522791D01*
X78790163Y-128454052D01*
X78851790Y-128379387D01*
X78912082Y-128312110D01*
X78924950Y-128297286D01*
X78961526Y-128250007D01*
X79002607Y-128192416D01*
X79023386Y-128164318D01*
X79073495Y-128105683D01*
X79131217Y-128045802D01*
X79188013Y-127992877D01*
X79235345Y-127955109D01*
X79264676Y-127940697D01*
X79267100Y-127940076D01*
X79278535Y-127916240D01*
X79283186Y-127868538D01*
X79283242Y-127861966D01*
X79291238Y-127812026D01*
X79314111Y-127796378D01*
X79337521Y-127786757D01*
X79343122Y-127756419D01*
X79321682Y-127719420D01*
X79312262Y-127705045D01*
X79310389Y-127664635D01*
X79322074Y-127646536D01*
X79365945Y-127607830D01*
X79426470Y-127569456D01*
X79489095Y-127540077D01*
X79539270Y-127528359D01*
X79574383Y-127523581D01*
X79602955Y-127507406D01*
X79608736Y-127500924D01*
X79636440Y-127499144D01*
X79643711Y-127506153D01*
X79639680Y-127531024D01*
X79608675Y-127559642D01*
X79559548Y-127585320D01*
X79501148Y-127601373D01*
X79457282Y-127612414D01*
X79403954Y-127641369D01*
X79374277Y-127678166D01*
X79376691Y-127715091D01*
X79379029Y-127719961D01*
X79389071Y-127759452D01*
X79397227Y-127816644D01*
X79399258Y-127840601D01*
X79397422Y-127882039D01*
X79381506Y-127915860D01*
X79344982Y-127952539D01*
X79281319Y-128002547D01*
X79244880Y-128032052D01*
X79186143Y-128083954D01*
X79121749Y-128144200D01*
X79058978Y-128205626D01*
X79005112Y-128261070D01*
X78967431Y-128303367D01*
X78953217Y-128325354D01*
X78949528Y-128335065D01*
X78925394Y-128370208D01*
X78886212Y-128416982D01*
X78797539Y-128516226D01*
X78731099Y-128593138D01*
X78684601Y-128651204D01*
X78653827Y-128696050D01*
X78634560Y-128733300D01*
X78622582Y-128768578D01*
X78617649Y-128785419D01*
X78599619Y-128829970D01*
X78583821Y-128847839D01*
X78570478Y-128858110D01*
X78555368Y-128894227D01*
X78549871Y-128914960D01*
X78526285Y-128987096D01*
X78494089Y-129072707D01*
X78458628Y-129158622D01*
X78425248Y-129231672D01*
X78399298Y-129278686D01*
X78384287Y-129302548D01*
X78350103Y-129365375D01*
X78316587Y-129435421D01*
X78299735Y-129472955D01*
X78267058Y-129543437D01*
X78241025Y-129596872D01*
X78215438Y-129660379D01*
X78217610Y-129700529D01*
X78249824Y-129713749D01*
X78285677Y-129707842D01*
X78345812Y-129689027D01*
X78416667Y-129661582D01*
X78488307Y-129629933D01*
X78550794Y-129598503D01*
X78594192Y-129571719D01*
X78608563Y-129554004D01*
X78607971Y-129550263D01*
X78609507Y-129514551D01*
X78616528Y-129460096D01*
X78630616Y-129411900D01*
X78669653Y-129346228D01*
X78709089Y-129300194D01*
X78808998Y-129300194D01*
X78809167Y-129303021D01*
X78826178Y-129330213D01*
X78834422Y-129331602D01*
X78843359Y-129310812D01*
X78841560Y-129297479D01*
X78826178Y-129280794D01*
X78822830Y-129281166D01*
X78808998Y-129300194D01*
X78709089Y-129300194D01*
X78734540Y-129270486D01*
X78891465Y-129270486D01*
X78901774Y-129280794D01*
X78912082Y-129270486D01*
X78901774Y-129260177D01*
X78891465Y-129270486D01*
X78734540Y-129270486D01*
X78737604Y-129266909D01*
X78743914Y-129260293D01*
X78800199Y-129206493D01*
X78844391Y-129173389D01*
X78869314Y-129166453D01*
X78879107Y-129170947D01*
X78886822Y-129162710D01*
X78887096Y-129162004D01*
X78982430Y-129162004D01*
X78986047Y-129177036D01*
X78994933Y-129167401D01*
X79159485Y-129167401D01*
X79169793Y-129177710D01*
X79180101Y-129167401D01*
X79169793Y-129157093D01*
X79159485Y-129167401D01*
X78994933Y-129167401D01*
X79005706Y-129155721D01*
X79009834Y-129147409D01*
X79009469Y-129123907D01*
X79002614Y-129123442D01*
X78987435Y-129145895D01*
X78982430Y-129162004D01*
X78887096Y-129162004D01*
X78895273Y-129140933D01*
X78927639Y-129105551D01*
X79035783Y-129105551D01*
X79046092Y-129115859D01*
X79056400Y-129105551D01*
X79046092Y-129095242D01*
X79035783Y-129105551D01*
X78927639Y-129105551D01*
X78930318Y-129102622D01*
X78983941Y-129056828D01*
X79030615Y-129023083D01*
X79118251Y-129023083D01*
X79128559Y-129033391D01*
X79138868Y-129023083D01*
X79128559Y-129012775D01*
X79118251Y-129023083D01*
X79030615Y-129023083D01*
X79047359Y-129010977D01*
X79111788Y-128972497D01*
X79133124Y-128960818D01*
X79349441Y-128960818D01*
X79351909Y-128985285D01*
X79358110Y-128988511D01*
X79365653Y-128971541D01*
X79364166Y-128960626D01*
X79351909Y-128957796D01*
X79349441Y-128960818D01*
X79133124Y-128960818D01*
X79136412Y-128959018D01*
X79189765Y-128925294D01*
X79222267Y-128898259D01*
X79238485Y-128884120D01*
X79264905Y-128880209D01*
X79274074Y-128881605D01*
X79283186Y-128860061D01*
X79283722Y-128858148D01*
X79406887Y-128858148D01*
X79417196Y-128868456D01*
X79427504Y-128858148D01*
X79417196Y-128847839D01*
X79406887Y-128858148D01*
X79283722Y-128858148D01*
X79287578Y-128844386D01*
X79313262Y-128801411D01*
X79354273Y-128750606D01*
X79382693Y-128719276D01*
X79452688Y-128640018D01*
X79498303Y-128583955D01*
X79523080Y-128546514D01*
X79530563Y-128523124D01*
X79531688Y-128513719D01*
X79546685Y-128497352D01*
X79548762Y-128496890D01*
X79567673Y-128474968D01*
X79589737Y-128430348D01*
X79594178Y-128419844D01*
X79614031Y-128387450D01*
X79627423Y-128390681D01*
X79629279Y-128415349D01*
X79621627Y-128470128D01*
X79606066Y-128535635D01*
X79586503Y-128596065D01*
X79566848Y-128635613D01*
X79559708Y-128648618D01*
X79560260Y-128680875D01*
X79561313Y-128685038D01*
X79554450Y-128720302D01*
X79533430Y-128779322D01*
X79501753Y-128851867D01*
X79498795Y-128858148D01*
X79445387Y-128971541D01*
X79439817Y-128983367D01*
X79421277Y-129023083D01*
X79384090Y-129102744D01*
X79382804Y-129105551D01*
G37*
G36*
X81884861Y-128746657D02*
G01*
X81896509Y-128751752D01*
X81870605Y-128765372D01*
X81833114Y-128780839D01*
X81821292Y-128781335D01*
X81829371Y-128765372D01*
X81839785Y-128755660D01*
X81876976Y-128746204D01*
X81884861Y-128746657D01*
G37*
G36*
X82227296Y-127963734D02*
G01*
X82229542Y-127974766D01*
X82195321Y-127988336D01*
X82180523Y-127991814D01*
X82118199Y-127999457D01*
X82065140Y-127996683D01*
X82036769Y-127983919D01*
X82039970Y-127976442D01*
X82072159Y-127965457D01*
X82128341Y-127958148D01*
X82132467Y-127957874D01*
X82193350Y-127957387D01*
X82227296Y-127963734D01*
G37*
G36*
X82549636Y-128524013D02*
G01*
X82539355Y-128543253D01*
X82524018Y-128549440D01*
X82521810Y-128539503D01*
X82538095Y-128512471D01*
X82540810Y-128509808D01*
X82555913Y-128499926D01*
X82549636Y-128524013D01*
G37*
G36*
X82619298Y-130957021D02*
G01*
X82621124Y-130996135D01*
X82620920Y-131023422D01*
X82614140Y-131112154D01*
X82600796Y-131197149D01*
X82591003Y-131235994D01*
X82573640Y-131282932D01*
X82558345Y-131301249D01*
X82551872Y-131299884D01*
X82550480Y-131281412D01*
X82553454Y-131273930D01*
X82563791Y-131231727D01*
X82576992Y-131163698D01*
X82590933Y-131080397D01*
X82597416Y-131039376D01*
X82608422Y-130975912D01*
X82615390Y-130949371D01*
X82619298Y-130957021D01*
G37*
G36*
X83241627Y-130404414D02*
G01*
X83231319Y-130414723D01*
X83221011Y-130404414D01*
X83231319Y-130394106D01*
X83241627Y-130404414D01*
G37*
G36*
X80751594Y-132461288D02*
G01*
X80766915Y-132463030D01*
X80770506Y-132466226D01*
X80738530Y-132468464D01*
X80674825Y-132469343D01*
X80641874Y-132469192D01*
X80589738Y-132467713D01*
X80569833Y-132464989D01*
X80586659Y-132461425D01*
X80597011Y-132460474D01*
X80673728Y-132458076D01*
X80751594Y-132461288D01*
G37*
G36*
X78252342Y-131909447D02*
G01*
X78242033Y-131919755D01*
X78231725Y-131909447D01*
X78242033Y-131899138D01*
X78252342Y-131909447D01*
G37*
G36*
X83200394Y-130961070D02*
G01*
X83190085Y-130971378D01*
X83179777Y-130961070D01*
X83190085Y-130950762D01*
X83200394Y-130961070D01*
G37*
G36*
X82099212Y-124323093D02*
G01*
X82105125Y-124325244D01*
X82187189Y-124361765D01*
X82280939Y-124412503D01*
X82367231Y-124467167D01*
X82374244Y-124472063D01*
X82458458Y-124530794D01*
X82543801Y-124590211D01*
X82612812Y-124638158D01*
X82632536Y-124652304D01*
X82659119Y-124671369D01*
X82687834Y-124693538D01*
X82713372Y-124713254D01*
X82746822Y-124742826D01*
X82765320Y-124764055D01*
X82826917Y-124848160D01*
X82904006Y-124969590D01*
X82971446Y-125085258D01*
X82996266Y-125127828D01*
X83008162Y-125149431D01*
X83103379Y-125322352D01*
X83111368Y-125338026D01*
X83142573Y-125411099D01*
X83177194Y-125506648D01*
X83213099Y-125617001D01*
X83248158Y-125734483D01*
X83280238Y-125851421D01*
X83307208Y-125960140D01*
X83326936Y-126052967D01*
X83337289Y-126122229D01*
X83336138Y-126160251D01*
X83333194Y-126173295D01*
X83343193Y-126188262D01*
X83346580Y-126189541D01*
X83360299Y-126215892D01*
X83370765Y-126265575D01*
X83382525Y-126345310D01*
X83399433Y-126436365D01*
X83417808Y-126517735D01*
X83426734Y-126549057D01*
X83435277Y-126579035D01*
X83449464Y-126609877D01*
X83461138Y-126632588D01*
X83468413Y-126679269D01*
X83467720Y-126691759D01*
X83457930Y-126744014D01*
X83439984Y-126806643D01*
X83418272Y-126867015D01*
X83397182Y-126912501D01*
X83381106Y-126930469D01*
X83379208Y-126930002D01*
X83369898Y-126906902D01*
X83365902Y-126859082D01*
X83367037Y-126800546D01*
X83373125Y-126745301D01*
X83383983Y-126707350D01*
X83390897Y-126664547D01*
X83375262Y-126592863D01*
X83370128Y-126576768D01*
X83364155Y-126549057D01*
X83385946Y-126549057D01*
X83396254Y-126559365D01*
X83406562Y-126549057D01*
X83396254Y-126538749D01*
X83385946Y-126549057D01*
X83364155Y-126549057D01*
X83358170Y-126521288D01*
X83358813Y-126484756D01*
X83360565Y-126470823D01*
X83341763Y-126455965D01*
X83324779Y-126452376D01*
X83342686Y-126437353D01*
X83348091Y-126433477D01*
X83360243Y-126413071D01*
X83359712Y-126375178D01*
X83346854Y-126308813D01*
X83343448Y-126293623D01*
X83327608Y-126221955D01*
X83316704Y-126168819D01*
X83307120Y-126115666D01*
X83295241Y-126043943D01*
X83276430Y-125949496D01*
X83242482Y-125816176D01*
X83200867Y-125677608D01*
X83156252Y-125549124D01*
X83113300Y-125446054D01*
X83102957Y-125424305D01*
X83069498Y-125355010D01*
X83047911Y-125316164D01*
X83033243Y-125302407D01*
X83020541Y-125308384D01*
X83004854Y-125328735D01*
X82990979Y-125346683D01*
X82972944Y-125354184D01*
X82949844Y-125327771D01*
X82948051Y-125325400D01*
X82906280Y-125291081D01*
X82844364Y-125261843D01*
X82771987Y-125239521D01*
X82698836Y-125225951D01*
X82634594Y-125222967D01*
X82588947Y-125232405D01*
X82571579Y-125256100D01*
X82557509Y-125289029D01*
X82522049Y-125307391D01*
X82484752Y-125298117D01*
X82480296Y-125295069D01*
X82441061Y-125293561D01*
X82389964Y-125317576D01*
X82336729Y-125359664D01*
X82291076Y-125412374D01*
X82262731Y-125468256D01*
X82260351Y-125475581D01*
X82237079Y-125530233D01*
X82205282Y-125590372D01*
X82186365Y-125622531D01*
X82134117Y-125713361D01*
X82098527Y-125782631D01*
X82076112Y-125841046D01*
X82063391Y-125899311D01*
X82056883Y-125968129D01*
X82053104Y-126058206D01*
X82051812Y-126120825D01*
X82053011Y-126199560D01*
X82057419Y-126255660D01*
X82064556Y-126279858D01*
X82073372Y-126294266D01*
X82072433Y-126332600D01*
X82070533Y-126357497D01*
X82084258Y-126373813D01*
X82102428Y-126385066D01*
X82130926Y-126424515D01*
X82159442Y-126479870D01*
X82181387Y-126537949D01*
X82189731Y-126583212D01*
X82190166Y-126585572D01*
X82186328Y-126606225D01*
X82161735Y-126634630D01*
X82111698Y-126656236D01*
X82033102Y-126671563D01*
X81922832Y-126681133D01*
X81777773Y-126685465D01*
X81594808Y-126685080D01*
X81556403Y-126684532D01*
X81398238Y-126680375D01*
X81275687Y-126673104D01*
X81184159Y-126661987D01*
X81119065Y-126646293D01*
X81075813Y-126625290D01*
X81049814Y-126598247D01*
X81039106Y-126571220D01*
X81043074Y-126548625D01*
X81126251Y-126548625D01*
X81144411Y-126581143D01*
X81190248Y-126603112D01*
X81221923Y-126606974D01*
X81288676Y-126610928D01*
X81379893Y-126614106D01*
X81488277Y-126616474D01*
X81606529Y-126617997D01*
X81727351Y-126618641D01*
X81843445Y-126618372D01*
X81947512Y-126617155D01*
X82032254Y-126614955D01*
X82090373Y-126611739D01*
X82114571Y-126607471D01*
X82126475Y-126583212D01*
X82123514Y-126535349D01*
X82099021Y-126491782D01*
X82093937Y-126485905D01*
X82069169Y-126441269D01*
X82048025Y-126381899D01*
X82047002Y-126378179D01*
X82015038Y-126310361D01*
X81958774Y-126265888D01*
X81915257Y-126246685D01*
X81851699Y-126225110D01*
X81787603Y-126208087D01*
X81735990Y-126199000D01*
X81709881Y-126201231D01*
X81694496Y-126205659D01*
X81647664Y-126212324D01*
X81581911Y-126218557D01*
X81529701Y-126224400D01*
X81471707Y-126236056D01*
X81440583Y-126249241D01*
X81422028Y-126260939D01*
X81376830Y-126270730D01*
X81349049Y-126280009D01*
X81303720Y-126315634D01*
X81259418Y-126366037D01*
X81227009Y-126418345D01*
X81217356Y-126459685D01*
X81212902Y-126483506D01*
X81175815Y-126501100D01*
X81137488Y-126517723D01*
X81126251Y-126548625D01*
X81043074Y-126548625D01*
X81046355Y-126529945D01*
X81081233Y-126472599D01*
X81091948Y-126452894D01*
X81089451Y-126421348D01*
X81060839Y-126375628D01*
X81049685Y-126358786D01*
X81019618Y-126282609D01*
X81002261Y-126174343D01*
X80993458Y-126103360D01*
X80978003Y-126018504D01*
X80960935Y-125954314D01*
X80956517Y-125941171D01*
X80939449Y-125875701D01*
X80932536Y-125822907D01*
X80926333Y-125790818D01*
X80896206Y-125723577D01*
X80846203Y-125640679D01*
X80782069Y-125550067D01*
X80709554Y-125459682D01*
X80634404Y-125377467D01*
X80562367Y-125311365D01*
X80487450Y-125255878D01*
X80371091Y-125187766D01*
X80295967Y-125157417D01*
X82767439Y-125157417D01*
X82767675Y-125162083D01*
X82776531Y-125178034D01*
X82779838Y-125177086D01*
X82798364Y-125157417D01*
X82801586Y-125149431D01*
X82789273Y-125136801D01*
X82783288Y-125137593D01*
X82767439Y-125157417D01*
X80295967Y-125157417D01*
X80259574Y-125142715D01*
X80160256Y-125123453D01*
X80080490Y-125132708D01*
X80077536Y-125133764D01*
X80019023Y-125150609D01*
X79972388Y-125157757D01*
X79958271Y-125159808D01*
X79908333Y-125177986D01*
X79850150Y-125208776D01*
X79829606Y-125221086D01*
X79764474Y-125257031D01*
X79710986Y-125282613D01*
X79671942Y-125308352D01*
X79654290Y-125342462D01*
X79649778Y-125365230D01*
X79623364Y-125404820D01*
X79606922Y-125422616D01*
X79592439Y-125457414D01*
X79588227Y-125475728D01*
X79564187Y-125512594D01*
X79559302Y-125517639D01*
X79508700Y-125594702D01*
X79470497Y-125705957D01*
X79443686Y-125854262D01*
X79439223Y-125886445D01*
X79424780Y-125967604D01*
X79409028Y-126030830D01*
X79394661Y-126064573D01*
X79380827Y-126089255D01*
X79389588Y-126133071D01*
X79399706Y-126164800D01*
X79398590Y-126218515D01*
X79396633Y-126233995D01*
X79402202Y-126291093D01*
X79420365Y-126356186D01*
X79426299Y-126373601D01*
X79444807Y-126458203D01*
X79450338Y-126539981D01*
X79450058Y-126576879D01*
X79460212Y-126633154D01*
X79488552Y-126672032D01*
X79516112Y-126706348D01*
X79530588Y-126748113D01*
X79533774Y-126769018D01*
X79549816Y-126786151D01*
X79565040Y-126796544D01*
X79583016Y-126832539D01*
X79585988Y-126840738D01*
X79613825Y-126889307D01*
X79654857Y-126940778D01*
X79689692Y-126980608D01*
X79742959Y-127046361D01*
X79796056Y-127116021D01*
X79864179Y-127207289D01*
X79926490Y-127285976D01*
X79977582Y-127343124D01*
X80023647Y-127385589D01*
X80070880Y-127420228D01*
X80093262Y-127436036D01*
X80133254Y-127470964D01*
X80149095Y-127495728D01*
X80149160Y-127497100D01*
X80164456Y-127520725D01*
X80208725Y-127553851D01*
X80285047Y-127598478D01*
X80396498Y-127656608D01*
X80440263Y-127679941D01*
X80464736Y-127696827D01*
X80458537Y-127700267D01*
X80426008Y-127691085D01*
X80371493Y-127670106D01*
X80299333Y-127638155D01*
X80237252Y-127611985D01*
X80187698Y-127600951D01*
X80152681Y-127608907D01*
X80138274Y-127614898D01*
X80095407Y-127614495D01*
X80034183Y-127589435D01*
X80027811Y-127586203D01*
X79979447Y-127564550D01*
X79953338Y-127562844D01*
X79937562Y-127579911D01*
X79926343Y-127595087D01*
X79899228Y-127610826D01*
X79884373Y-127608047D01*
X79833116Y-127581956D01*
X79763647Y-127533131D01*
X79682207Y-127467394D01*
X79595036Y-127390566D01*
X79508373Y-127308471D01*
X79428459Y-127226931D01*
X79361533Y-127151768D01*
X79313836Y-127088804D01*
X79291606Y-127043862D01*
X79281936Y-127016743D01*
X79247901Y-126957661D01*
X79201385Y-126898326D01*
X79183906Y-126878095D01*
X79125416Y-126785646D01*
X79078943Y-126664133D01*
X79064620Y-126616219D01*
X79048531Y-126552668D01*
X79043985Y-126503787D01*
X79050287Y-126453824D01*
X79066743Y-126387023D01*
X79080751Y-126318988D01*
X79095316Y-126220769D01*
X79108232Y-126107475D01*
X79117781Y-125992401D01*
X79132453Y-125827429D01*
X79156334Y-125660339D01*
X79186781Y-125518562D01*
X79222381Y-125409974D01*
X79246451Y-125352069D01*
X79269990Y-125290459D01*
X79286665Y-125236563D01*
X79302373Y-125172897D01*
X79308990Y-125147378D01*
X79330337Y-125085258D01*
X82355101Y-125085258D01*
X82365410Y-125095567D01*
X82375718Y-125085258D01*
X82365410Y-125074950D01*
X82355101Y-125085258D01*
X79330337Y-125085258D01*
X79335001Y-125071687D01*
X79364157Y-125010603D01*
X79397453Y-124960625D01*
X79462350Y-124874212D01*
X79541597Y-124776782D01*
X79613818Y-124693538D01*
X82478803Y-124693538D01*
X82489111Y-124703846D01*
X82499420Y-124693538D01*
X82489111Y-124683229D01*
X82478803Y-124693538D01*
X79613818Y-124693538D01*
X79626597Y-124678808D01*
X79651329Y-124652304D01*
X82437569Y-124652304D01*
X82447877Y-124662612D01*
X82458186Y-124652304D01*
X82499420Y-124652304D01*
X82509728Y-124662612D01*
X82520036Y-124652304D01*
X82509728Y-124641995D01*
X82499420Y-124652304D01*
X82458186Y-124652304D01*
X82447877Y-124641995D01*
X82437569Y-124652304D01*
X79651329Y-124652304D01*
X79708756Y-124590763D01*
X79708774Y-124590744D01*
X79767033Y-124528745D01*
X79817874Y-124470350D01*
X79850291Y-124428197D01*
X79886610Y-124390041D01*
X79924680Y-124373976D01*
X79946522Y-124368418D01*
X79963543Y-124341834D01*
X79960408Y-124327147D01*
X79941939Y-124323044D01*
X79927235Y-124327885D01*
X79886689Y-124323485D01*
X79884407Y-124322520D01*
X79878319Y-124308943D01*
X79904122Y-124285864D01*
X79947411Y-124260583D01*
X80272796Y-124260583D01*
X80283105Y-124270891D01*
X80293413Y-124260583D01*
X80283105Y-124250275D01*
X80272796Y-124260583D01*
X79947411Y-124260583D01*
X79964989Y-124250317D01*
X79985852Y-124239966D01*
X80458348Y-124239966D01*
X80468657Y-124250275D01*
X80478965Y-124239966D01*
X80468657Y-124229658D01*
X80458348Y-124239966D01*
X79985852Y-124239966D01*
X80017930Y-124224051D01*
X80079197Y-124199173D01*
X80119909Y-124189242D01*
X80137582Y-124187013D01*
X80193033Y-124176175D01*
X80275618Y-124157906D01*
X80377542Y-124133951D01*
X80491013Y-124106057D01*
X80550858Y-124091191D01*
X80673522Y-124062445D01*
X80772078Y-124042979D01*
X80857480Y-124031127D01*
X80940684Y-124025220D01*
X81032645Y-124023590D01*
X81195016Y-124031088D01*
X81408191Y-124065480D01*
X81627036Y-124129710D01*
X81860296Y-124225918D01*
X81891891Y-124239966D01*
X81911687Y-124248768D01*
X81940317Y-124260583D01*
X82008344Y-124288656D01*
X82099212Y-124323093D01*
G37*
G36*
X80190329Y-128569512D02*
G01*
X80180020Y-128579820D01*
X80169712Y-128569512D01*
X80180020Y-128559203D01*
X80190329Y-128569512D01*
G37*
G36*
X83399690Y-131988478D02*
G01*
X83402916Y-131994679D01*
X83385946Y-132002223D01*
X83375031Y-132000735D01*
X83372201Y-131988478D01*
X83375223Y-131986011D01*
X83399690Y-131988478D01*
G37*
G36*
X83282861Y-132342401D02*
G01*
X83272553Y-132352710D01*
X83262244Y-132342401D01*
X83272553Y-132332093D01*
X83282861Y-132342401D01*
G37*
G36*
X78534106Y-132112179D02*
G01*
X78537331Y-132118380D01*
X78520361Y-132125924D01*
X78509447Y-132124436D01*
X78506617Y-132112179D01*
X78509638Y-132109712D01*
X78534106Y-132112179D01*
G37*
G36*
X82012666Y-126329621D02*
G01*
X82025231Y-126364722D01*
X82023106Y-126377820D01*
X82004614Y-126394430D01*
X81992409Y-126386137D01*
X81983998Y-126351980D01*
X81988387Y-126328584D01*
X82004614Y-126322271D01*
X82012666Y-126329621D01*
G37*
G36*
X83336931Y-126932326D02*
G01*
X83356722Y-126958361D01*
X83357555Y-127005645D01*
X83338354Y-127062017D01*
X83310985Y-127124363D01*
X83290549Y-127188180D01*
X83271671Y-127237138D01*
X83243449Y-127273462D01*
X83222840Y-127293539D01*
X83181317Y-127340997D01*
X83127015Y-127407098D01*
X83066384Y-127484167D01*
X83037894Y-127520599D01*
X82966522Y-127605192D01*
X82914111Y-127655329D01*
X82879618Y-127672059D01*
X82846521Y-127678387D01*
X82797151Y-127702947D01*
X82766989Y-127721735D01*
X82731360Y-127733872D01*
X82723736Y-127733504D01*
X82705995Y-127719790D01*
X82715015Y-127696776D01*
X82746822Y-127678651D01*
X82770783Y-127667040D01*
X82788056Y-127639347D01*
X82780262Y-127622710D01*
X82746822Y-127610826D01*
X82713628Y-127602820D01*
X82706691Y-127581414D01*
X82727526Y-127556502D01*
X82772593Y-127538081D01*
X82792527Y-127532849D01*
X82852532Y-127509755D01*
X82914684Y-127478529D01*
X82965323Y-127446500D01*
X82990789Y-127420998D01*
X82996052Y-127414411D01*
X83026868Y-127404658D01*
X83039635Y-127401891D01*
X83056075Y-127377326D01*
X83056089Y-127376669D01*
X83070776Y-127344001D01*
X83104819Y-127304202D01*
X83113120Y-127295339D01*
X83147923Y-127246298D01*
X83189477Y-127175286D01*
X83230510Y-127094440D01*
X83246307Y-127061609D01*
X83281453Y-126994457D01*
X83309934Y-126947892D01*
X83326731Y-126930469D01*
X83336931Y-126932326D01*
G37*
G36*
X82539026Y-131351073D02*
G01*
X82537568Y-131371984D01*
X82528197Y-131378132D01*
X82524112Y-131370838D01*
X82526570Y-131338617D01*
X82533991Y-131329074D01*
X82539026Y-131351073D01*
G37*
G36*
X82435916Y-128559227D02*
G01*
X82410815Y-128590745D01*
X82366185Y-128638988D01*
X82361053Y-128644286D01*
X82310993Y-128695105D01*
X82274067Y-128731093D01*
X82257946Y-128744755D01*
X82250010Y-128736398D01*
X82263629Y-128708408D01*
X82295935Y-128668151D01*
X82339855Y-128623386D01*
X82388317Y-128581871D01*
X82434246Y-128551366D01*
X82437085Y-128550104D01*
X82435916Y-128559227D01*
G37*
G36*
X82831933Y-125892413D02*
G01*
X82898807Y-125931417D01*
X82961308Y-125986069D01*
X83005749Y-126046293D01*
X83026708Y-126108304D01*
X83035459Y-126177066D01*
X83035458Y-126177540D01*
X83015619Y-126254086D01*
X82957825Y-126317971D01*
X82863974Y-126367091D01*
X82820671Y-126381347D01*
X82744374Y-126391296D01*
X82678405Y-126370841D01*
X82608103Y-126317117D01*
X82595402Y-126305243D01*
X82527194Y-126231245D01*
X82490043Y-126165664D01*
X82478803Y-126099851D01*
X82496779Y-126040685D01*
X82545692Y-125980966D01*
X82615587Y-125929219D01*
X82696497Y-125892785D01*
X82778461Y-125879008D01*
X82831933Y-125892413D01*
G37*
G36*
X80437731Y-131280632D02*
G01*
X80436243Y-131291546D01*
X80423987Y-131294376D01*
X80421519Y-131291354D01*
X80423987Y-131266887D01*
X80430188Y-131263662D01*
X80437731Y-131280632D01*
G37*
G36*
X79180101Y-132321784D02*
G01*
X79169793Y-132332093D01*
X79159485Y-132321784D01*
X79169793Y-132311476D01*
X79180101Y-132321784D01*
G37*
G36*
X79317547Y-132359582D02*
G01*
X79320773Y-132365783D01*
X79303803Y-132373326D01*
X79292888Y-132371839D01*
X79290058Y-132359582D01*
X79293080Y-132357114D01*
X79317547Y-132359582D01*
G37*
G36*
X81082009Y-132461861D02*
G01*
X81092453Y-132465075D01*
X81080212Y-132469187D01*
X81035621Y-132470796D01*
X81005366Y-132470194D01*
X80979463Y-132466959D01*
X80989233Y-132461861D01*
X81021932Y-132458450D01*
X81082009Y-132461861D01*
G37*
G36*
X78314192Y-131971297D02*
G01*
X78303884Y-131981606D01*
X78293575Y-131971297D01*
X78303884Y-131960989D01*
X78314192Y-131971297D01*
G37*
G36*
X80428391Y-128629180D02*
G01*
X80453623Y-128658422D01*
X80455388Y-128665242D01*
X80448590Y-128682071D01*
X80428114Y-128676159D01*
X80408998Y-128650256D01*
X80405443Y-128632215D01*
X80420966Y-128625774D01*
X80428391Y-128629180D01*
G37*
G36*
X78760891Y-130937017D02*
G01*
X78764117Y-130943218D01*
X78747147Y-130950762D01*
X78736232Y-130949274D01*
X78733402Y-130937017D01*
X78736424Y-130934550D01*
X78760891Y-130937017D01*
G37*
G36*
X82054521Y-131801371D02*
G01*
X82050874Y-131809751D01*
X82040963Y-131816002D01*
X82036628Y-131839048D01*
X82038035Y-131848696D01*
X82016140Y-131857904D01*
X82000596Y-131854022D01*
X81983998Y-131826979D01*
X81992514Y-131807973D01*
X82030386Y-131797681D01*
X82054521Y-131801371D01*
G37*
G36*
X79839842Y-130548732D02*
G01*
X79829533Y-130559041D01*
X79819225Y-130548732D01*
X79829533Y-130538424D01*
X79839842Y-130548732D01*
G37*
G36*
X79571822Y-132383635D02*
G01*
X79561514Y-132393943D01*
X79551205Y-132383635D01*
X79561514Y-132373326D01*
X79571822Y-132383635D01*
G37*
G36*
X85787645Y-127790366D02*
G01*
X85796284Y-127833852D01*
X85810212Y-127919156D01*
X85811384Y-127971308D01*
X85811447Y-127974116D01*
X85798208Y-128005323D01*
X85768719Y-128019370D01*
X85721200Y-128022848D01*
X85702067Y-128024832D01*
X85680790Y-128038242D01*
X85666466Y-128070730D01*
X85656382Y-128129676D01*
X85655906Y-128134839D01*
X85647827Y-128222460D01*
X85643713Y-128257181D01*
X85628023Y-128321624D01*
X85606803Y-128361746D01*
X85586770Y-128386499D01*
X85560510Y-128437129D01*
X85554059Y-128455380D01*
X85539363Y-128467886D01*
X85511148Y-128447316D01*
X85484762Y-128427529D01*
X85453689Y-128414885D01*
X85437959Y-128409975D01*
X85406400Y-128383960D01*
X85377372Y-128364127D01*
X85326562Y-128352811D01*
X85309645Y-128351811D01*
X85247687Y-128341647D01*
X85178575Y-128324110D01*
X85135858Y-128313148D01*
X85053839Y-128296077D01*
X84953810Y-128278078D01*
X84848705Y-128261603D01*
X84762424Y-128248796D01*
X84675903Y-128235133D01*
X84610697Y-128223917D01*
X84576571Y-128216755D01*
X84550860Y-128216433D01*
X84546364Y-128229159D01*
X84540491Y-128245780D01*
X84529037Y-128288049D01*
X84500030Y-128337061D01*
X84479527Y-128365601D01*
X84471675Y-128395752D01*
X84489066Y-128427463D01*
X84493743Y-128435502D01*
X84512918Y-128468465D01*
X84515887Y-128504225D01*
X84515889Y-128504247D01*
X84490879Y-128517969D01*
X84476025Y-128523879D01*
X84474615Y-128524440D01*
X84472937Y-128548895D01*
X84472321Y-128557882D01*
X84466586Y-128600385D01*
X84466550Y-128600437D01*
X84427986Y-128655812D01*
X84424866Y-128659149D01*
X84415527Y-128670299D01*
X84377610Y-128715571D01*
X84339014Y-128770526D01*
X84338890Y-128770732D01*
X84302747Y-128810698D01*
X84263854Y-128827223D01*
X84251738Y-128829192D01*
X84234931Y-128837531D01*
X84206512Y-128851632D01*
X84198334Y-128858148D01*
X84157036Y-128891053D01*
X84098238Y-128933861D01*
X84026884Y-128957483D01*
X83961476Y-128952917D01*
X83912829Y-128918927D01*
X83897883Y-128900826D01*
X83880278Y-128894520D01*
X83856433Y-128912362D01*
X83816568Y-128958359D01*
X83750288Y-129037952D01*
X83630443Y-129024394D01*
X83585014Y-129018279D01*
X83492088Y-129001606D01*
X83412193Y-128982614D01*
X83388062Y-128975983D01*
X83302187Y-128955366D01*
X83224050Y-128940181D01*
X83134314Y-128925968D01*
X83149358Y-128994466D01*
X83149646Y-128995767D01*
X83165054Y-129052750D01*
X83180992Y-129094565D01*
X83198657Y-129139689D01*
X83222120Y-129223582D01*
X83247295Y-129334877D01*
X83272404Y-129466346D01*
X83289032Y-129554482D01*
X83310616Y-129657998D01*
X83330700Y-129744674D01*
X83349174Y-129822714D01*
X83377861Y-129967924D01*
X83398454Y-130106561D01*
X83410414Y-130231979D01*
X83413198Y-130337535D01*
X83406267Y-130416584D01*
X83389081Y-130462482D01*
X83387022Y-130465109D01*
X83370683Y-130514145D01*
X83373408Y-130594511D01*
X83374578Y-130604978D01*
X83374805Y-130735267D01*
X83352777Y-130897592D01*
X83308789Y-131089696D01*
X83282351Y-131176592D01*
X83251534Y-131239719D01*
X83207890Y-131289735D01*
X83142056Y-131340733D01*
X83133663Y-131347907D01*
X83102185Y-131393591D01*
X83078521Y-131454126D01*
X83073969Y-131470895D01*
X83053784Y-131532018D01*
X83034904Y-131572007D01*
X83020853Y-131584744D01*
X83015157Y-131564114D01*
X83012169Y-131542912D01*
X82992360Y-131529555D01*
X82957114Y-131552775D01*
X82936372Y-131581168D01*
X82936763Y-131603366D01*
X82963299Y-131603046D01*
X82979139Y-131599897D01*
X82994225Y-131611796D01*
X82990610Y-131622826D01*
X82966931Y-131641427D01*
X82963299Y-131644280D01*
X82949004Y-131653039D01*
X82932374Y-131684867D01*
X82935604Y-131695352D01*
X82965299Y-131709496D01*
X83030304Y-131714242D01*
X83059155Y-131715526D01*
X83122529Y-131725633D01*
X83164412Y-131742357D01*
X83196831Y-131788580D01*
X83218708Y-131867738D01*
X83227767Y-131971205D01*
X83222685Y-132091061D01*
X83221364Y-132095514D01*
X83202895Y-132096545D01*
X83193793Y-132078152D01*
X83183319Y-132028503D01*
X83175764Y-131960694D01*
X83169700Y-131907663D01*
X83155255Y-131844195D01*
X83137182Y-131808264D01*
X83135534Y-131806861D01*
X83095359Y-131791355D01*
X83021798Y-131778529D01*
X82922066Y-131769676D01*
X82736514Y-131758862D01*
X82813844Y-131794622D01*
X82833175Y-131804173D01*
X82869918Y-131827657D01*
X82878589Y-131842967D01*
X82876603Y-131849866D01*
X82883768Y-131885925D01*
X82904343Y-131938664D01*
X82906615Y-131943558D01*
X82934894Y-131994115D01*
X82965202Y-132016810D01*
X83011160Y-132022308D01*
X83070784Y-132032486D01*
X83119976Y-132064477D01*
X83138543Y-132111618D01*
X83143621Y-132131978D01*
X83170342Y-132167883D01*
X83185745Y-132186532D01*
X83184098Y-132212317D01*
X83178320Y-132217165D01*
X83143538Y-132221279D01*
X83109352Y-132195318D01*
X83087083Y-132146915D01*
X83064653Y-132102315D01*
X83021747Y-132077814D01*
X82971947Y-132080062D01*
X82927423Y-132108136D01*
X82900344Y-132161111D01*
X82889909Y-132205980D01*
X82879757Y-132244471D01*
X82868090Y-132259030D01*
X82829151Y-132269332D01*
X82780831Y-132262952D01*
X82740542Y-132240400D01*
X82722790Y-132224648D01*
X82672638Y-132189907D01*
X82616627Y-132159251D01*
X82567830Y-132139395D01*
X82539323Y-132137054D01*
X82537587Y-132138415D01*
X82525136Y-132168834D01*
X82520036Y-132219917D01*
X82517534Y-132262308D01*
X82502630Y-132285776D01*
X82465850Y-132290859D01*
X82435332Y-132285855D01*
X82373559Y-132264185D01*
X82306069Y-132231190D01*
X82260876Y-132207425D01*
X82189824Y-132175776D01*
X82134354Y-132157587D01*
X82121427Y-132154512D01*
X82054621Y-132132809D01*
X81985877Y-132103863D01*
X81963469Y-132093349D01*
X81913697Y-132072401D01*
X81885393Y-132064073D01*
X81864823Y-132047443D01*
X81840758Y-132007377D01*
X81818295Y-131960166D01*
X81795865Y-131914601D01*
X81788411Y-131893335D01*
X81794962Y-131878521D01*
X81812407Y-131865793D01*
X81835113Y-131828767D01*
X81859375Y-131793940D01*
X81900273Y-131765527D01*
X81925610Y-131752383D01*
X81942764Y-131726344D01*
X81943304Y-131722903D01*
X81966586Y-131708436D01*
X82015566Y-131703703D01*
X82078259Y-131707432D01*
X82142680Y-131718352D01*
X82196842Y-131735191D01*
X82228761Y-131756679D01*
X82252862Y-131780641D01*
X82290611Y-131796369D01*
X82293512Y-131796408D01*
X82312707Y-131800373D01*
X82293942Y-131815807D01*
X82277234Y-131822985D01*
X82237246Y-131812967D01*
X82216447Y-131802297D01*
X82180551Y-131816095D01*
X82160378Y-131827806D01*
X82123855Y-131830556D01*
X82113505Y-131823389D01*
X82133470Y-131818298D01*
X82152449Y-131814589D01*
X82169549Y-131797723D01*
X82168147Y-131794537D01*
X82141864Y-131779949D01*
X82093600Y-131764035D01*
X82038199Y-131750558D01*
X81990505Y-131743282D01*
X81965361Y-131745968D01*
X81964465Y-131749958D01*
X81985149Y-131754820D01*
X81993033Y-131763788D01*
X81967623Y-131787156D01*
X81939303Y-131814463D01*
X81933327Y-131838698D01*
X81936104Y-131845477D01*
X81923364Y-131857904D01*
X81910156Y-131866922D01*
X81901530Y-131901874D01*
X81903964Y-131918234D01*
X81930248Y-131965868D01*
X81973335Y-132005977D01*
X82018077Y-132022839D01*
X82029391Y-132024639D01*
X82045848Y-132043456D01*
X82059075Y-132057117D01*
X82098212Y-132064073D01*
X82139021Y-132070753D01*
X82212722Y-132097458D01*
X82296911Y-132139267D01*
X82378901Y-132190467D01*
X82381752Y-132192466D01*
X82421572Y-132218341D01*
X82443565Y-132229008D01*
X82444383Y-132228883D01*
X82454709Y-132208083D01*
X82463744Y-132161803D01*
X82469879Y-132104645D01*
X82471505Y-132051212D01*
X82467015Y-132016110D01*
X82455941Y-131998395D01*
X82423838Y-131981606D01*
X82410839Y-131979309D01*
X82405308Y-131963149D01*
X82405376Y-131963039D01*
X82399750Y-131942198D01*
X82363720Y-131926167D01*
X82308058Y-131919755D01*
X82291634Y-131921352D01*
X82281276Y-131933217D01*
X82300834Y-131950771D01*
X82344793Y-131966930D01*
X82353382Y-131970308D01*
X82339618Y-131974549D01*
X82294429Y-131975704D01*
X82271640Y-131976080D01*
X82219065Y-131983691D01*
X82194781Y-131998687D01*
X82175166Y-132014237D01*
X82131752Y-132020448D01*
X82112942Y-132019375D01*
X82096327Y-132015381D01*
X82118007Y-132007841D01*
X82143115Y-131997644D01*
X82175728Y-131968999D01*
X82186188Y-131956278D01*
X82222116Y-131940372D01*
X82235392Y-131938215D01*
X82252017Y-131919755D01*
X82251991Y-131918606D01*
X82235570Y-131900231D01*
X82196956Y-131901541D01*
X82148108Y-131919925D01*
X82100984Y-131952767D01*
X82089486Y-131962889D01*
X82051407Y-131988483D01*
X82029036Y-131991178D01*
X82025681Y-131982960D01*
X82042709Y-131966085D01*
X82045774Y-131964783D01*
X82048075Y-131947589D01*
X82011783Y-131917501D01*
X82002641Y-131911235D01*
X81976788Y-131888090D01*
X81980316Y-131878657D01*
X82001120Y-131884011D01*
X82038485Y-131909447D01*
X82042272Y-131913125D01*
X82077812Y-131936933D01*
X82100270Y-131935293D01*
X82099832Y-131908376D01*
X82096127Y-131891792D01*
X82108838Y-131889534D01*
X82123765Y-131892960D01*
X82158194Y-131879390D01*
X82163490Y-131876000D01*
X82202707Y-131864317D01*
X82262149Y-131855673D01*
X82329617Y-131850694D01*
X82392911Y-131850007D01*
X82439834Y-131854235D01*
X82458186Y-131864006D01*
X82461938Y-131871798D01*
X82487528Y-131871673D01*
X82501987Y-131871795D01*
X82522422Y-131898322D01*
X82542704Y-131961214D01*
X82553514Y-131997989D01*
X82571183Y-132039799D01*
X82585095Y-132051782D01*
X82598893Y-132048813D01*
X82641549Y-132063496D01*
X82695472Y-132100827D01*
X82750690Y-132154613D01*
X82764268Y-132169595D01*
X82796564Y-132200400D01*
X82812541Y-132207960D01*
X82831204Y-132177737D01*
X82864340Y-132100756D01*
X82865518Y-132033582D01*
X82835772Y-131965418D01*
X82789246Y-131903084D01*
X82727153Y-131857096D01*
X82664355Y-131851783D01*
X82623006Y-131866724D01*
X82591700Y-131902636D01*
X82592617Y-131960989D01*
X82595419Y-131974803D01*
X82596152Y-131995883D01*
X82582657Y-131981606D01*
X82570686Y-131955011D01*
X82565832Y-131888808D01*
X82582283Y-131817326D01*
X82617279Y-131758360D01*
X82619767Y-131755640D01*
X82651341Y-131713686D01*
X82664355Y-131682134D01*
X82668136Y-131671903D01*
X82693070Y-131641427D01*
X82767439Y-131641427D01*
X82777748Y-131651736D01*
X82788056Y-131641427D01*
X82777748Y-131631119D01*
X82767439Y-131641427D01*
X82693070Y-131641427D01*
X82695752Y-131638149D01*
X82740805Y-131595275D01*
X82792120Y-131552830D01*
X82838523Y-131520362D01*
X82868839Y-131507417D01*
X82875267Y-131506487D01*
X82891140Y-131485584D01*
X82892759Y-131478127D01*
X82911757Y-131476492D01*
X82924438Y-131475291D01*
X82932374Y-131446783D01*
X82935381Y-131421673D01*
X82947837Y-131404164D01*
X82966129Y-131393208D01*
X83005587Y-131359996D01*
X83056075Y-131312325D01*
X83101828Y-131269308D01*
X83145003Y-131233444D01*
X83169468Y-131219070D01*
X83185526Y-131212552D01*
X83219881Y-131175444D01*
X83253883Y-131115096D01*
X83280662Y-131042423D01*
X83289414Y-130990402D01*
X83296634Y-130908257D01*
X83301532Y-130807433D01*
X83303363Y-130699229D01*
X83303365Y-130695216D01*
X83304239Y-130585049D01*
X83307205Y-130509105D01*
X83313070Y-130460601D01*
X83322641Y-130432754D01*
X83336724Y-130418783D01*
X83352344Y-130404326D01*
X83361596Y-130374729D01*
X83363769Y-130322053D01*
X83360009Y-130237361D01*
X83351769Y-130139972D01*
X83339253Y-130036197D01*
X83325342Y-129950843D01*
X83314890Y-129898350D01*
X83297153Y-129808727D01*
X83282555Y-129734365D01*
X83278657Y-129714661D01*
X83258202Y-129618006D01*
X83235084Y-129517166D01*
X83211543Y-129421047D01*
X83189817Y-129338554D01*
X83172146Y-129278592D01*
X83160769Y-129250065D01*
X83151618Y-129231731D01*
X83133064Y-129175117D01*
X83111185Y-129091459D01*
X83088273Y-128989004D01*
X83077582Y-128956185D01*
X83046299Y-128888356D01*
X83030009Y-128858148D01*
X83179777Y-128858148D01*
X83190085Y-128868456D01*
X83200394Y-128858148D01*
X83190085Y-128847839D01*
X83179777Y-128858148D01*
X83030009Y-128858148D01*
X83018891Y-128837531D01*
X83117926Y-128837531D01*
X83128235Y-128847839D01*
X83138543Y-128837531D01*
X83128235Y-128827223D01*
X83117926Y-128837531D01*
X83018891Y-128837531D01*
X83002355Y-128806866D01*
X82958849Y-128734032D01*
X83101714Y-128734032D01*
X83104182Y-128758500D01*
X83110383Y-128761725D01*
X83117926Y-128744755D01*
X83116464Y-128734032D01*
X83905773Y-128734032D01*
X83906854Y-128744755D01*
X83908240Y-128758500D01*
X83914441Y-128761725D01*
X83915063Y-128760325D01*
X84015178Y-128760325D01*
X84019691Y-128801451D01*
X84036167Y-128822025D01*
X84073500Y-128822569D01*
X84135664Y-128796170D01*
X84185746Y-128774425D01*
X84223286Y-128765372D01*
X84235308Y-128763576D01*
X84251855Y-128746144D01*
X84259769Y-128732339D01*
X84293088Y-128713830D01*
X84317140Y-128700442D01*
X84334322Y-128670299D01*
X84334283Y-128668515D01*
X84324865Y-128651965D01*
X84292776Y-128646936D01*
X84229169Y-128651879D01*
X84207711Y-128653953D01*
X84137151Y-128653707D01*
X84096062Y-128640703D01*
X84079013Y-128630497D01*
X84048966Y-128629335D01*
X84035449Y-128651979D01*
X84033419Y-128655379D01*
X84020811Y-128705418D01*
X84016775Y-128744755D01*
X84015178Y-128760325D01*
X83915063Y-128760325D01*
X83921985Y-128744755D01*
X83920497Y-128733841D01*
X83908240Y-128731010D01*
X83905773Y-128734032D01*
X83116464Y-128734032D01*
X83116438Y-128733841D01*
X83104182Y-128731010D01*
X83101714Y-128734032D01*
X82958849Y-128734032D01*
X82952503Y-128723408D01*
X82905028Y-128651979D01*
X82952991Y-128651979D01*
X82963299Y-128662288D01*
X82973608Y-128651979D01*
X83901368Y-128651979D01*
X83911676Y-128662288D01*
X83921985Y-128651979D01*
X83911676Y-128641671D01*
X83901368Y-128651979D01*
X82973608Y-128651979D01*
X82963299Y-128641671D01*
X82952991Y-128651979D01*
X82905028Y-128651979D01*
X82903500Y-128649680D01*
X82862098Y-128597378D01*
X82860936Y-128596129D01*
X82823033Y-128541255D01*
X82804833Y-128486117D01*
X82808053Y-128441769D01*
X82834411Y-128419267D01*
X82870132Y-128422302D01*
X82912627Y-128458540D01*
X82954137Y-128533432D01*
X82971682Y-128569474D01*
X82994464Y-128596194D01*
X83002697Y-128589714D01*
X83926389Y-128589714D01*
X83928857Y-128614181D01*
X83935058Y-128617407D01*
X83942601Y-128600437D01*
X83941114Y-128589522D01*
X83928857Y-128586692D01*
X83926389Y-128589714D01*
X83002697Y-128589714D01*
X83011929Y-128582448D01*
X83026553Y-128528050D01*
X83026591Y-128527863D01*
X84008857Y-128527863D01*
X84011324Y-128552331D01*
X84017526Y-128555556D01*
X84020487Y-128548895D01*
X84086920Y-128548895D01*
X84097228Y-128559203D01*
X84107536Y-128548895D01*
X84128153Y-128548895D01*
X84138462Y-128559203D01*
X84147554Y-128550111D01*
X84231238Y-128550111D01*
X84231438Y-128552994D01*
X84243373Y-128557534D01*
X84251476Y-128548895D01*
X84313705Y-128548895D01*
X84324014Y-128559203D01*
X84334322Y-128548895D01*
X84324014Y-128538586D01*
X84313705Y-128548895D01*
X84251476Y-128548895D01*
X84264132Y-128535401D01*
X84269148Y-128523879D01*
X84255040Y-128526309D01*
X84245882Y-128532673D01*
X84232259Y-128548895D01*
X84231238Y-128550111D01*
X84147554Y-128550111D01*
X84148770Y-128548895D01*
X84138462Y-128538586D01*
X84128153Y-128548895D01*
X84107536Y-128548895D01*
X84097228Y-128538586D01*
X84086920Y-128548895D01*
X84020487Y-128548895D01*
X84025069Y-128538586D01*
X84023581Y-128527672D01*
X84011324Y-128524842D01*
X84008857Y-128527863D01*
X83026591Y-128527863D01*
X83028175Y-128519969D01*
X83031044Y-128510426D01*
X84317352Y-128510426D01*
X84334322Y-128517969D01*
X84345237Y-128516481D01*
X84348067Y-128504225D01*
X84345045Y-128501757D01*
X84320578Y-128504225D01*
X84317352Y-128510426D01*
X83031044Y-128510426D01*
X83043101Y-128470324D01*
X83059639Y-128443608D01*
X83065086Y-128439160D01*
X83075289Y-128424779D01*
X83967623Y-128424779D01*
X83970091Y-128449246D01*
X83976292Y-128452472D01*
X83983835Y-128435502D01*
X83982347Y-128424587D01*
X83970091Y-128421757D01*
X83967623Y-128424779D01*
X83075289Y-128424779D01*
X83091976Y-128401260D01*
X83125146Y-128338643D01*
X83159615Y-128262811D01*
X83166342Y-128245868D01*
X84233836Y-128245868D01*
X84247055Y-128274014D01*
X84267722Y-128285637D01*
X84284651Y-128262817D01*
X84290312Y-128229159D01*
X84276184Y-128211229D01*
X84247388Y-128225553D01*
X84233836Y-128245868D01*
X83166342Y-128245868D01*
X83190403Y-128185262D01*
X83207041Y-128134305D01*
X83286100Y-128134305D01*
X83291022Y-128161899D01*
X83298060Y-128161579D01*
X83301850Y-128134839D01*
X83298549Y-128114574D01*
X83289394Y-128122383D01*
X83286100Y-128134305D01*
X83207041Y-128134305D01*
X83212529Y-128117498D01*
X83221011Y-128071019D01*
X83228385Y-128010718D01*
X83238896Y-127981930D01*
X84890978Y-127981930D01*
X84891533Y-127986822D01*
X84910378Y-128002547D01*
X84916162Y-128001761D01*
X84942520Y-127981930D01*
X84944460Y-127971308D01*
X84923120Y-127961313D01*
X84907759Y-127963837D01*
X84890978Y-127981930D01*
X83238896Y-127981930D01*
X83246441Y-127961266D01*
X83256758Y-127941656D01*
X83255947Y-127911472D01*
X83225825Y-127874497D01*
X83225284Y-127873956D01*
X83193819Y-127844331D01*
X83181742Y-127843352D01*
X83179777Y-127870141D01*
X83173899Y-127901981D01*
X83147768Y-127943621D01*
X83112165Y-127961313D01*
X83103121Y-127944433D01*
X83106783Y-127903264D01*
X83108932Y-127870571D01*
X83095562Y-127818200D01*
X83088211Y-127806687D01*
X83963218Y-127806687D01*
X83968642Y-127840593D01*
X83985052Y-127858229D01*
X83991717Y-127857153D01*
X83995479Y-127839773D01*
X83993943Y-127828901D01*
X84014879Y-127809494D01*
X84041378Y-127790366D01*
X84039534Y-127766426D01*
X84004452Y-127755145D01*
X83972882Y-127766269D01*
X83963218Y-127806687D01*
X83088211Y-127806687D01*
X83068053Y-127775113D01*
X83033964Y-127751661D01*
X83000855Y-127758197D01*
X82973711Y-127772453D01*
X82951735Y-127753819D01*
X82950219Y-127751407D01*
X82935019Y-127717713D01*
X82948628Y-127698814D01*
X82997176Y-127685488D01*
X83048150Y-127682474D01*
X83090826Y-127696469D01*
X83099725Y-127703129D01*
X83121530Y-127708635D01*
X83141181Y-127690069D01*
X83162529Y-127642071D01*
X83189425Y-127559284D01*
X83201701Y-127519171D01*
X83219211Y-127464993D01*
X84510022Y-127464993D01*
X84519423Y-127484224D01*
X84554247Y-127504511D01*
X84603908Y-127520698D01*
X84657821Y-127527628D01*
X84659853Y-127527659D01*
X84708270Y-127533524D01*
X84734531Y-127546031D01*
X84755235Y-127557308D01*
X84806185Y-127572801D01*
X84874912Y-127587959D01*
X84950843Y-127602633D01*
X85055996Y-127623791D01*
X85154566Y-127644375D01*
X85163158Y-127646185D01*
X85239599Y-127659712D01*
X85301298Y-127666359D01*
X85335591Y-127664704D01*
X85360987Y-127666978D01*
X85389720Y-127704009D01*
X85412088Y-127741023D01*
X85438605Y-127752964D01*
X85460333Y-127725424D01*
X85469541Y-127692821D01*
X85462082Y-127650672D01*
X85421597Y-127623793D01*
X85344346Y-127608410D01*
X85263312Y-127598712D01*
X85143114Y-127580941D01*
X85063990Y-127563677D01*
X85026019Y-127546936D01*
X85010718Y-127540001D01*
X84962033Y-127531627D01*
X84896513Y-127528359D01*
X84844460Y-127525106D01*
X84750822Y-127509934D01*
X84662497Y-127486554D01*
X84601733Y-127468589D01*
X84545985Y-127457531D01*
X84516044Y-127458567D01*
X84510022Y-127464993D01*
X83219211Y-127464993D01*
X83235756Y-127413800D01*
X83264784Y-127337462D01*
X83283891Y-127299476D01*
X83386992Y-127299476D01*
X83407588Y-127324864D01*
X83436707Y-127329945D01*
X83455920Y-127327562D01*
X83468413Y-127350910D01*
X83468463Y-127353213D01*
X83483300Y-127379770D01*
X83515526Y-127379351D01*
X83551962Y-127351813D01*
X83558964Y-127343612D01*
X83579118Y-127330319D01*
X83596279Y-127350981D01*
X83601853Y-127358505D01*
X83639948Y-127375715D01*
X83711221Y-127379097D01*
X83738184Y-127378790D01*
X83806097Y-127382642D01*
X83854980Y-127391626D01*
X83890962Y-127397159D01*
X83901368Y-127376830D01*
X83899459Y-127368924D01*
X83866724Y-127344624D01*
X83794262Y-127323254D01*
X83728935Y-127310172D01*
X83637104Y-127294168D01*
X83547884Y-127280825D01*
X83470750Y-127271406D01*
X83415175Y-127267175D01*
X83390633Y-127269397D01*
X83388589Y-127271746D01*
X83386992Y-127299476D01*
X83283891Y-127299476D01*
X83292761Y-127281841D01*
X83323665Y-127238622D01*
X83361471Y-127199488D01*
X83367873Y-127193541D01*
X83420642Y-127151654D01*
X83471250Y-127132658D01*
X83541037Y-127128065D01*
X83557579Y-127128352D01*
X83633130Y-127134708D01*
X83719220Y-127147519D01*
X83802945Y-127164290D01*
X83871399Y-127182525D01*
X83911676Y-127199730D01*
X83926054Y-127207494D01*
X83980150Y-127226220D01*
X84055764Y-127245824D01*
X84139757Y-127263412D01*
X84218990Y-127276088D01*
X84280322Y-127280956D01*
X84300417Y-127281407D01*
X84355375Y-127287505D01*
X84386895Y-127298456D01*
X84387896Y-127299201D01*
X84418344Y-127309876D01*
X84480171Y-127325183D01*
X84564935Y-127343188D01*
X84664192Y-127361960D01*
X84665624Y-127362215D01*
X84741925Y-127376830D01*
X84770587Y-127382320D01*
X84866506Y-127403101D01*
X84942829Y-127422122D01*
X84989005Y-127436948D01*
X85027822Y-127448541D01*
X85101590Y-127463172D01*
X85195492Y-127477272D01*
X85298258Y-127488947D01*
X85389280Y-127498415D01*
X85477934Y-127509358D01*
X85545366Y-127519577D01*
X85581644Y-127527715D01*
X85625141Y-127543062D01*
X85683887Y-127561885D01*
X85689649Y-127563664D01*
X85716243Y-127575017D01*
X85735426Y-127594461D01*
X85750953Y-127630105D01*
X85766582Y-127690058D01*
X85767165Y-127692821D01*
X85786068Y-127782426D01*
X85787645Y-127790366D01*
G37*
G36*
X82293251Y-132424869D02*
G01*
X82282942Y-132435177D01*
X82272634Y-132424869D01*
X82282942Y-132414560D01*
X82293251Y-132424869D01*
G37*
G36*
X82798742Y-128291272D02*
G01*
X82821756Y-128297937D01*
X82809690Y-128320883D01*
X82791922Y-128335019D01*
X82755742Y-128339340D01*
X82751254Y-128337424D01*
X82735621Y-128318279D01*
X82751585Y-128299594D01*
X82791797Y-128291184D01*
X82798742Y-128291272D01*
G37*
G36*
X80268449Y-125868744D02*
G01*
X80333551Y-125871364D01*
X80376905Y-125882554D01*
X80413876Y-125908534D01*
X80459828Y-125955523D01*
X80493262Y-125992768D01*
X80524637Y-126038815D01*
X80538010Y-126087254D01*
X80540816Y-126156538D01*
X80539078Y-126203940D01*
X80532124Y-126252079D01*
X80521671Y-126270729D01*
X80507770Y-126274684D01*
X80475283Y-126297836D01*
X80452830Y-126317187D01*
X80406806Y-126348751D01*
X80372068Y-126359883D01*
X80307144Y-126369321D01*
X80230265Y-126373187D01*
X80162899Y-126372196D01*
X80111299Y-126365265D01*
X80075554Y-126348257D01*
X80042056Y-126317117D01*
X80028773Y-126301743D01*
X79982858Y-126214139D01*
X79972268Y-126116792D01*
X79996683Y-126018780D01*
X80055780Y-125929183D01*
X80087030Y-125898780D01*
X80121964Y-125879090D01*
X80170065Y-125870553D01*
X80245337Y-125868700D01*
X80268449Y-125868744D01*
G37*
G36*
X79225253Y-131880847D02*
G01*
X79241952Y-131899138D01*
X79238463Y-131908623D01*
X79211027Y-131919755D01*
X79196800Y-131917429D01*
X79180101Y-131899138D01*
X79183590Y-131889654D01*
X79211027Y-131878521D01*
X79225253Y-131880847D01*
G37*
G36*
X81700515Y-132462757D02*
G01*
X81704013Y-132469916D01*
X81674744Y-132473156D01*
X81646383Y-132470282D01*
X81648973Y-132462757D01*
X81658305Y-132460034D01*
X81700515Y-132462757D01*
G37*
G36*
X78850231Y-132239317D02*
G01*
X78839923Y-132249625D01*
X78829614Y-132239317D01*
X78839923Y-132229008D01*
X78850231Y-132239317D01*
G37*
G36*
X78417277Y-132043456D02*
G01*
X78442706Y-132059274D01*
X78458511Y-132075832D01*
X78449153Y-132077345D01*
X78417277Y-132064073D01*
X78391847Y-132048255D01*
X78376043Y-132031697D01*
X78385400Y-132030185D01*
X78417277Y-132043456D01*
G37*
G36*
X83447796Y-131991914D02*
G01*
X83437488Y-132002223D01*
X83427179Y-131991914D01*
X83437488Y-131981606D01*
X83447796Y-131991914D01*
G37*
G36*
X80075205Y-128317018D02*
G01*
X80103857Y-128375311D01*
X80111915Y-128416883D01*
X80114056Y-128439188D01*
X80138025Y-128476104D01*
X80155428Y-128494183D01*
X80169712Y-128524381D01*
X80169595Y-128525875D01*
X80155957Y-128525669D01*
X80126544Y-128500027D01*
X80081064Y-128466752D01*
X80027512Y-128465962D01*
X80020019Y-128467465D01*
X79983469Y-128466886D01*
X79949437Y-128445451D01*
X79905678Y-128396143D01*
X79884129Y-128370959D01*
X79829714Y-128316847D01*
X79809253Y-128301078D01*
X79947331Y-128301078D01*
X79949798Y-128325545D01*
X79956000Y-128328771D01*
X79963543Y-128311801D01*
X79962055Y-128300886D01*
X79949798Y-128298056D01*
X79947331Y-128301078D01*
X79809253Y-128301078D01*
X79781384Y-128279600D01*
X79757266Y-128263914D01*
X79752850Y-128259844D01*
X79885480Y-128259844D01*
X79887948Y-128284311D01*
X79894149Y-128287537D01*
X79901692Y-128270567D01*
X79900204Y-128259652D01*
X79887948Y-128256822D01*
X79885480Y-128259844D01*
X79752850Y-128259844D01*
X79707952Y-128218459D01*
X79684947Y-128174548D01*
X79693558Y-128140584D01*
X79695825Y-128138512D01*
X79724005Y-128135489D01*
X79766361Y-128166240D01*
X79784965Y-128181173D01*
X79830279Y-128200358D01*
X79866356Y-128195600D01*
X79881075Y-128166833D01*
X79891574Y-128154040D01*
X79927463Y-128150724D01*
X79947309Y-128159595D01*
X79988769Y-128197382D01*
X80034122Y-128253782D01*
X80045027Y-128270567D01*
X80071816Y-128311801D01*
X80075205Y-128317018D01*
G37*
G36*
X81777829Y-132466102D02*
G01*
X81767520Y-132476411D01*
X81757212Y-132466102D01*
X81767520Y-132455794D01*
X81777829Y-132466102D01*
G37*
G36*
X82348229Y-127926952D02*
G01*
X82351455Y-127933153D01*
X82334485Y-127940697D01*
X82323570Y-127939209D01*
X82320740Y-127926952D01*
X82323762Y-127924485D01*
X82348229Y-127926952D01*
G37*
D11*
%TO.C,J4*%
X94055000Y-121145000D02*
X91395000Y-121145000D01*
X92725000Y-118545000D02*
X91395000Y-118545000D01*
X94055000Y-138985000D02*
X91395000Y-138985000D01*
X91395000Y-118545000D02*
X91395000Y-119875000D01*
X91395000Y-121145000D02*
X91395000Y-138985000D01*
X94055000Y-121145000D02*
X94055000Y-138985000D01*
%TO.C,J7*%
X99950000Y-139080000D02*
X99950000Y-133880000D01*
X148270000Y-136480000D02*
X148270000Y-133880000D01*
X148270000Y-133880000D02*
X99950000Y-133880000D01*
X150870000Y-139080000D02*
X99950000Y-139080000D01*
X150870000Y-136480000D02*
X148270000Y-136480000D01*
X150870000Y-135210000D02*
X150870000Y-133880000D01*
X150870000Y-133880000D02*
X149540000Y-133880000D01*
X150870000Y-139080000D02*
X150870000Y-136480000D01*
%TO.C,G\u002A\u002A\u002A*%
G36*
X129429218Y-42988612D02*
G01*
X129764178Y-43100880D01*
X130077759Y-43312199D01*
X130260129Y-43557420D01*
X130209808Y-43590974D01*
X129995602Y-43528002D01*
X129660136Y-43371858D01*
X129386826Y-43225647D01*
X129188004Y-43097150D01*
X129167160Y-43026552D01*
X129299942Y-42987892D01*
X129429218Y-42988612D01*
G37*
G36*
X126811894Y-42965256D02*
G01*
X127214905Y-42986276D01*
X127427768Y-43039827D01*
X127489952Y-43133780D01*
X127510282Y-43207467D01*
X127642735Y-43469840D01*
X127872666Y-43857194D01*
X128169783Y-44323658D01*
X128503796Y-44823358D01*
X128844415Y-45310423D01*
X129161348Y-45738980D01*
X129424305Y-46063158D01*
X129697777Y-46366360D01*
X130213076Y-46900494D01*
X130705388Y-47367245D01*
X131141133Y-47737135D01*
X131486731Y-47980686D01*
X131708604Y-48068421D01*
X131900510Y-48110264D01*
X131986603Y-48297958D01*
X131988757Y-48335159D01*
X132099910Y-48504345D01*
X132409631Y-48606855D01*
X132603494Y-48652433D01*
X132777661Y-48761189D01*
X132804607Y-48954591D01*
X132714633Y-49199746D01*
X132506466Y-49467014D01*
X132236376Y-49711062D01*
X132703499Y-50682325D01*
X132954841Y-51206344D01*
X133365070Y-52070529D01*
X133674329Y-52736590D01*
X133888253Y-53217007D01*
X134012476Y-53524261D01*
X134052632Y-53670831D01*
X134101067Y-53852481D01*
X134226438Y-54126224D01*
X134244881Y-54161226D01*
X134390514Y-54459363D01*
X134588026Y-54885742D01*
X134800188Y-55360287D01*
X134943162Y-55668362D01*
X135184906Y-56149987D01*
X135462584Y-56674084D01*
X135747292Y-57188669D01*
X136010120Y-57641757D01*
X136222162Y-57981363D01*
X136354512Y-58155502D01*
X136381894Y-58188296D01*
X136523172Y-58386277D01*
X136747388Y-58716025D01*
X137020441Y-59127751D01*
X137123741Y-59285196D01*
X137414234Y-59727758D01*
X137660737Y-60103043D01*
X137818601Y-60343062D01*
X137975093Y-60594970D01*
X138102574Y-60829186D01*
X138124388Y-60873522D01*
X138266079Y-61126772D01*
X138458960Y-61444449D01*
X138582485Y-61642907D01*
X138827496Y-62041158D01*
X139129310Y-62534982D01*
X139448683Y-63060310D01*
X139522419Y-63181023D01*
X139975352Y-63872159D01*
X140354423Y-64350451D01*
X140670769Y-64628319D01*
X140935528Y-64718181D01*
X140968443Y-64725648D01*
X141032910Y-64822419D01*
X141073772Y-65058399D01*
X141095218Y-65468122D01*
X141101435Y-66086122D01*
X141101435Y-67454063D01*
X140760322Y-67605054D01*
X140461508Y-67837568D01*
X140220100Y-68211994D01*
X140152798Y-68366763D01*
X139960771Y-68812057D01*
X139768207Y-69262416D01*
X139661754Y-69494526D01*
X139528863Y-69728009D01*
X139450492Y-69791958D01*
X139442834Y-69758439D01*
X139446392Y-69528746D01*
X139476041Y-69121598D01*
X139528215Y-68581106D01*
X139599344Y-67951384D01*
X139618065Y-67794653D01*
X139695026Y-67099792D01*
X139736590Y-66590708D01*
X139744036Y-66221630D01*
X139718643Y-65946787D01*
X139661690Y-65720406D01*
X139361403Y-64917186D01*
X138947118Y-63972450D01*
X138458390Y-62973660D01*
X137921448Y-61967904D01*
X137362524Y-61002270D01*
X136807847Y-60123845D01*
X136283647Y-59379719D01*
X135816155Y-58816979D01*
X135765308Y-58763553D01*
X135515954Y-58533187D01*
X135337198Y-58459568D01*
X135162376Y-58511551D01*
X135053729Y-58566024D01*
X134753916Y-58645284D01*
X134589117Y-58529987D01*
X134538756Y-58210191D01*
X134537705Y-58067575D01*
X134503246Y-57868549D01*
X134367233Y-57806950D01*
X134059568Y-57826674D01*
X133973636Y-57833710D01*
X133644107Y-57832325D01*
X133439570Y-57787568D01*
X133415557Y-57776464D01*
X133182062Y-57758937D01*
X132855361Y-57808033D01*
X132203754Y-57960425D01*
X131568413Y-58096517D01*
X131059181Y-58191694D01*
X130712437Y-58239216D01*
X130564563Y-58232346D01*
X130632570Y-58162383D01*
X130880591Y-58010329D01*
X131269556Y-57800326D01*
X131758909Y-57555364D01*
X132176456Y-57346003D01*
X132815567Y-56976595D01*
X133256676Y-56629406D01*
X133523913Y-56277333D01*
X133641410Y-55893271D01*
X133633299Y-55450119D01*
X133585230Y-55150399D01*
X133349813Y-54216293D01*
X132983631Y-53174859D01*
X132510908Y-52079287D01*
X131955866Y-50982767D01*
X131342730Y-49938491D01*
X130695721Y-48999647D01*
X130681433Y-48980736D01*
X130045214Y-48153513D01*
X129470300Y-47434683D01*
X128972387Y-46842335D01*
X128567170Y-46394560D01*
X128270345Y-46109450D01*
X128097608Y-46005095D01*
X127992214Y-45939940D01*
X127805866Y-45704497D01*
X127611483Y-45358837D01*
X127451263Y-45041244D01*
X127304065Y-44835784D01*
X127143476Y-44760721D01*
X126910405Y-44766096D01*
X126865007Y-44770345D01*
X126618676Y-44760462D01*
X126462425Y-44636850D01*
X126313824Y-44340737D01*
X126275350Y-44246567D01*
X126164622Y-43909039D01*
X126125639Y-43671024D01*
X126107401Y-43548213D01*
X125962650Y-43321933D01*
X125930652Y-43294617D01*
X125805287Y-43136555D01*
X125870278Y-43034770D01*
X126142602Y-42980282D01*
X126639235Y-42964115D01*
X126811894Y-42965256D01*
G37*
G36*
X122109681Y-66485308D02*
G01*
X122386805Y-66542113D01*
X122830816Y-66599714D01*
X123479426Y-66667285D01*
X123600552Y-66679579D01*
X124171439Y-66746167D01*
X124634788Y-66814243D01*
X124945714Y-66876471D01*
X125059330Y-66925515D01*
X124972723Y-66961312D01*
X124687651Y-66995499D01*
X124250888Y-67018714D01*
X123711274Y-67027272D01*
X123196964Y-67030804D01*
X122742763Y-67049068D01*
X122436008Y-67089928D01*
X122224044Y-67161109D01*
X122054215Y-67270335D01*
X121775248Y-67441541D01*
X121535145Y-67513397D01*
X121510360Y-67514901D01*
X121383525Y-67596944D01*
X121279748Y-67835273D01*
X121178820Y-68272966D01*
X121109299Y-68624012D01*
X121004716Y-69125337D01*
X120916793Y-69518660D01*
X120895240Y-69617114D01*
X120820716Y-70031625D01*
X120732301Y-70601175D01*
X120637324Y-71269306D01*
X120543112Y-71979562D01*
X120456995Y-72675483D01*
X120386299Y-73300612D01*
X120338355Y-73798490D01*
X120320489Y-74112660D01*
X120320514Y-74142989D01*
X120349366Y-74440678D01*
X120477458Y-74615374D01*
X120771590Y-74763449D01*
X120813852Y-74779884D01*
X121143162Y-74880434D01*
X121639374Y-75006821D01*
X122242748Y-75144528D01*
X122893541Y-75279040D01*
X123512247Y-75406404D01*
X124042048Y-75528320D01*
X124432524Y-75632043D01*
X124664045Y-75710836D01*
X124716985Y-75757966D01*
X124571717Y-75766697D01*
X124208613Y-75730294D01*
X123430722Y-75632119D01*
X122358772Y-75502652D01*
X121510595Y-75408511D01*
X120890305Y-75350108D01*
X120502018Y-75327859D01*
X120349849Y-75342176D01*
X120322639Y-75379268D01*
X120284045Y-75488434D01*
X120252069Y-75680323D01*
X120225043Y-75981655D01*
X120201301Y-76419148D01*
X120179174Y-77019522D01*
X120156996Y-77809496D01*
X120133100Y-78815789D01*
X120127179Y-79079328D01*
X120107307Y-79963572D01*
X120091126Y-80641577D01*
X120076729Y-81142591D01*
X120062212Y-81495861D01*
X120045669Y-81730632D01*
X120025196Y-81876153D01*
X119998887Y-81961671D01*
X119964837Y-82016432D01*
X119921140Y-82069683D01*
X119870851Y-82154859D01*
X119872686Y-82298363D01*
X119877528Y-82363913D01*
X119796687Y-82592472D01*
X119631096Y-82910417D01*
X119419197Y-83352515D01*
X119181207Y-84013389D01*
X118956569Y-84789443D01*
X118762581Y-85613875D01*
X118616539Y-86419884D01*
X118535742Y-87140670D01*
X118522492Y-87348636D01*
X118502846Y-87797672D01*
X118520830Y-88133716D01*
X118593083Y-88439915D01*
X118736246Y-88799417D01*
X118966960Y-89295370D01*
X119096660Y-89572755D01*
X119288160Y-89996471D01*
X119419890Y-90307019D01*
X119468900Y-90451538D01*
X119525624Y-90582130D01*
X119686319Y-90856106D01*
X119914530Y-91208508D01*
X120133543Y-91562764D01*
X120319890Y-92004071D01*
X120390185Y-92457895D01*
X120406014Y-92641906D01*
X120474418Y-93001379D01*
X120569250Y-93225142D01*
X120602343Y-93271153D01*
X120714238Y-93552830D01*
X120768431Y-93896071D01*
X120756495Y-94204203D01*
X120669999Y-94380553D01*
X120494179Y-94429368D01*
X120196349Y-94429240D01*
X120112862Y-94421762D01*
X119927152Y-94458276D01*
X119770441Y-94619813D01*
X119583943Y-94957037D01*
X119426911Y-95317265D01*
X119299143Y-95916061D01*
X119388905Y-96433374D01*
X119697362Y-96889068D01*
X119877491Y-97094949D01*
X119906376Y-97234971D01*
X119788028Y-97386066D01*
X119653641Y-97498382D01*
X119517941Y-97488898D01*
X119316503Y-97311928D01*
X119087985Y-97014040D01*
X118900873Y-96647365D01*
X118896982Y-96636686D01*
X118803919Y-96400053D01*
X118763024Y-96379041D01*
X118749708Y-96559330D01*
X118795023Y-96867264D01*
X118925104Y-97215781D01*
X118925977Y-97217460D01*
X119033900Y-97532694D01*
X119036647Y-97796362D01*
X119027316Y-97896947D01*
X119086216Y-98203381D01*
X119226734Y-98566446D01*
X119305740Y-98733160D01*
X119407264Y-98998473D01*
X119403031Y-99160803D01*
X119300828Y-99296916D01*
X119226627Y-99362010D01*
X119109812Y-99384736D01*
X118965202Y-99264728D01*
X118740342Y-98971533D01*
X118616449Y-98788922D01*
X118410629Y-98427341D01*
X118298707Y-98146606D01*
X118250290Y-97933161D01*
X118110283Y-97367827D01*
X118004183Y-97033737D01*
X117929885Y-96923923D01*
X117923644Y-96925596D01*
X117902984Y-97051818D01*
X117937282Y-97317272D01*
X117940537Y-97333574D01*
X117981108Y-97580083D01*
X117943360Y-97623696D01*
X117802676Y-97497344D01*
X117645912Y-97234099D01*
X117601743Y-96789636D01*
X117719857Y-96260795D01*
X117995062Y-95696191D01*
X118160155Y-95419818D01*
X118315239Y-95131117D01*
X118375120Y-94976747D01*
X118387001Y-94929514D01*
X118496022Y-94712784D01*
X118682028Y-94416434D01*
X118750191Y-94310811D01*
X118944311Y-93949463D01*
X119053962Y-93651468D01*
X119116099Y-93415737D01*
X119217348Y-93153074D01*
X119276706Y-92925291D01*
X119286590Y-92597252D01*
X119206506Y-92294048D01*
X119018605Y-91844644D01*
X118753057Y-91305157D01*
X118439968Y-90730799D01*
X118109440Y-90176783D01*
X117791576Y-89698324D01*
X117516480Y-89350633D01*
X117346578Y-89148490D01*
X117111939Y-88797686D01*
X116990990Y-88514520D01*
X116896485Y-88278633D01*
X116753711Y-88173684D01*
X116744912Y-88173390D01*
X116651478Y-88099817D01*
X116607345Y-87868052D01*
X116604120Y-87436752D01*
X116636835Y-87032256D01*
X116739483Y-86673449D01*
X116902533Y-86528388D01*
X117118169Y-86609653D01*
X117182942Y-86643878D01*
X117271432Y-86562274D01*
X117338699Y-86268491D01*
X117364985Y-86122855D01*
X117471966Y-85669635D01*
X117606210Y-85212474D01*
X117672499Y-85004296D01*
X117773390Y-84649449D01*
X117821723Y-84422522D01*
X117832588Y-84350355D01*
X117898324Y-84054684D01*
X117997827Y-83683679D01*
X118063883Y-83442753D01*
X118282255Y-82442120D01*
X118464878Y-81279552D01*
X118604480Y-80017402D01*
X118693791Y-78718026D01*
X118725537Y-77443776D01*
X118727159Y-77064416D01*
X118736793Y-76423389D01*
X118753612Y-75881409D01*
X118775914Y-75486479D01*
X118801998Y-75286599D01*
X118821470Y-75134425D01*
X118711121Y-75063655D01*
X118413692Y-75046666D01*
X118145521Y-75037563D01*
X117754319Y-74986044D01*
X117514649Y-74899879D01*
X117472176Y-74791446D01*
X117502143Y-74766066D01*
X117716774Y-74706548D01*
X118048082Y-74681871D01*
X118157797Y-74679344D01*
X118498118Y-74644803D01*
X118709960Y-74583161D01*
X118781372Y-74430996D01*
X118843411Y-74094814D01*
X118890030Y-73638771D01*
X118917879Y-73125457D01*
X118923607Y-72617462D01*
X118903864Y-72177378D01*
X118855301Y-71867794D01*
X118815797Y-71624693D01*
X118869728Y-71523923D01*
X118940246Y-71463964D01*
X118983147Y-71250478D01*
X119008883Y-71071268D01*
X119095001Y-70696724D01*
X119227317Y-70200060D01*
X119390913Y-69640191D01*
X119529281Y-69173802D01*
X119684944Y-68617190D01*
X119803756Y-68155578D01*
X119867448Y-67857324D01*
X119936589Y-67411300D01*
X119280392Y-67637065D01*
X119116218Y-67696848D01*
X118557140Y-67958463D01*
X118133093Y-68251349D01*
X117878211Y-68547736D01*
X117826623Y-68819856D01*
X117838173Y-69019133D01*
X117707367Y-69093301D01*
X117605726Y-69146850D01*
X117419338Y-69381011D01*
X117219856Y-69751904D01*
X117042592Y-70159275D01*
X116835661Y-70672386D01*
X116637422Y-71195850D01*
X116469298Y-71671083D01*
X116352713Y-72039499D01*
X116309091Y-72242512D01*
X116238365Y-72416983D01*
X116058286Y-72653167D01*
X116020909Y-72693817D01*
X115565632Y-73278544D01*
X115095422Y-74022831D01*
X114644932Y-74857880D01*
X114248812Y-75714895D01*
X113941714Y-76525078D01*
X113758289Y-77219632D01*
X113751119Y-77259754D01*
X113685920Y-77671861D01*
X113679801Y-77927308D01*
X113741486Y-78101592D01*
X113879699Y-78270208D01*
X114035643Y-78489660D01*
X114010491Y-78627009D01*
X113961136Y-78745178D01*
X114082890Y-79014795D01*
X114170240Y-79157639D01*
X114214376Y-79322722D01*
X114111922Y-79432540D01*
X114015351Y-79477781D01*
X113799326Y-79491355D01*
X113789745Y-79489795D01*
X113695991Y-79597248D01*
X113583810Y-79872442D01*
X113469111Y-80250809D01*
X113367801Y-80667784D01*
X113295788Y-81058799D01*
X113268981Y-81359288D01*
X113303286Y-81504683D01*
X113356161Y-81598236D01*
X113339958Y-81827667D01*
X113272698Y-81964276D01*
X113119160Y-82117900D01*
X112971622Y-82164158D01*
X112904359Y-82062932D01*
X112890958Y-81985806D01*
X112813211Y-82051446D01*
X112716096Y-82119564D01*
X112436848Y-82080703D01*
X112401056Y-82066866D01*
X112241635Y-81966584D01*
X112189833Y-81790636D01*
X112217039Y-81457965D01*
X112228620Y-81349424D01*
X112234183Y-80973096D01*
X112189173Y-80702753D01*
X112188177Y-80700255D01*
X112122329Y-80602369D01*
X112026812Y-80633298D01*
X111870307Y-80819860D01*
X111621496Y-81188878D01*
X111362934Y-81571377D01*
X111031476Y-82031977D01*
X110748328Y-82396166D01*
X110607911Y-82580733D01*
X110447130Y-82858474D01*
X110411651Y-83034205D01*
X110531357Y-83333945D01*
X110586721Y-83512197D01*
X110547353Y-83526951D01*
X110413405Y-83410949D01*
X110282235Y-83300020D01*
X110152551Y-83292869D01*
X109990764Y-83471714D01*
X109933184Y-83555070D01*
X109749875Y-83860102D01*
X109512715Y-84287027D01*
X109258365Y-84770813D01*
X109101693Y-85082252D01*
X108907090Y-85509519D01*
X108799362Y-85844086D01*
X108757126Y-86161620D01*
X108758997Y-86537786D01*
X108759989Y-86566576D01*
X108750812Y-86957652D01*
X108708073Y-87327959D01*
X108643707Y-87633318D01*
X108569648Y-87829553D01*
X108497829Y-87872487D01*
X108440186Y-87717942D01*
X108392420Y-87521204D01*
X108318272Y-87442054D01*
X108242039Y-87579968D01*
X108170490Y-87919981D01*
X108110392Y-88447129D01*
X108106012Y-88497269D01*
X108021135Y-89166869D01*
X107899852Y-89760003D01*
X107754672Y-90235117D01*
X107598107Y-90550657D01*
X107442665Y-90665071D01*
X107287192Y-90764085D01*
X107151809Y-91030693D01*
X107063624Y-91386489D01*
X107041780Y-91752801D01*
X107105423Y-92050957D01*
X107303759Y-92292411D01*
X107732738Y-92590199D01*
X108353950Y-92899156D01*
X109141973Y-93204879D01*
X109452099Y-93323098D01*
X109647152Y-93428573D01*
X109643073Y-93481537D01*
X109461955Y-93478219D01*
X109125894Y-93414848D01*
X108656986Y-93287652D01*
X108194287Y-93158351D01*
X107665666Y-93032205D01*
X107244999Y-92953944D01*
X106674008Y-92875681D01*
X106755768Y-93311501D01*
X106781144Y-93479922D01*
X106754841Y-93758952D01*
X106587295Y-93980448D01*
X106454922Y-94173685D01*
X106281955Y-94583169D01*
X106108485Y-95131731D01*
X105948492Y-95763150D01*
X105815955Y-96421206D01*
X105724855Y-97049677D01*
X105689171Y-97592344D01*
X105700415Y-98027217D01*
X105751777Y-98692673D01*
X105831487Y-99293780D01*
X105906744Y-99733024D01*
X106011166Y-100359329D01*
X106099263Y-100904935D01*
X106228681Y-101605400D01*
X106414344Y-102428943D01*
X106633666Y-103281161D01*
X106868315Y-104094934D01*
X107099959Y-104803144D01*
X107310264Y-105338670D01*
X107331831Y-105386446D01*
X107508254Y-105794851D01*
X107633047Y-106114582D01*
X107680383Y-106279961D01*
X107681842Y-106299575D01*
X107745990Y-106534923D01*
X107894894Y-106950731D01*
X108114415Y-107512407D01*
X108390413Y-108185360D01*
X108708751Y-108935000D01*
X109055289Y-109726735D01*
X109415889Y-110525973D01*
X109497603Y-110704807D01*
X109816149Y-111421589D01*
X110040936Y-111972692D01*
X110186481Y-112399603D01*
X110267301Y-112743809D01*
X110297910Y-113046798D01*
X110300283Y-113189133D01*
X110263737Y-113604241D01*
X110161784Y-113825034D01*
X110145399Y-113839707D01*
X110091481Y-113966848D01*
X110154327Y-114176660D01*
X110348807Y-114524783D01*
X110453904Y-114708153D01*
X110701635Y-115209231D01*
X110890484Y-115679032D01*
X110957998Y-115887889D01*
X111023094Y-116172566D01*
X111000409Y-116377010D01*
X110889878Y-116597990D01*
X110825668Y-116698497D01*
X110627062Y-116870029D01*
X110341396Y-116879087D01*
X110094711Y-116815081D01*
X109989474Y-116731076D01*
X109940468Y-116686041D01*
X109746412Y-116698279D01*
X109598509Y-116710384D01*
X109503349Y-116613133D01*
X109482667Y-116549520D01*
X109336789Y-116528340D01*
X109264872Y-116530436D01*
X109023832Y-116432001D01*
X108729134Y-116228667D01*
X108618827Y-116133119D01*
X108357831Y-115816064D01*
X108268589Y-115478951D01*
X108249139Y-115092823D01*
X108199573Y-115495176D01*
X108198253Y-115505638D01*
X108123990Y-115776620D01*
X108006343Y-115829465D01*
X107912271Y-115788013D01*
X107650000Y-115686382D01*
X107516510Y-115579907D01*
X107437321Y-115298482D01*
X107433572Y-115143866D01*
X107394608Y-115069509D01*
X107281662Y-115198476D01*
X107245155Y-115246377D01*
X107137892Y-115325451D01*
X107005952Y-115260182D01*
X106784906Y-115028527D01*
X106763592Y-115003977D01*
X106542532Y-114697625D01*
X106302662Y-114296815D01*
X106082824Y-113875432D01*
X105921858Y-113507360D01*
X105858604Y-113266483D01*
X105805618Y-113135117D01*
X105626369Y-112946489D01*
X105408196Y-112806356D01*
X105244089Y-112787237D01*
X105201442Y-112804003D01*
X105128230Y-112722966D01*
X105118507Y-112675869D01*
X105006699Y-112662201D01*
X104934016Y-112761312D01*
X104885168Y-113008433D01*
X104879625Y-113117589D01*
X104822207Y-113482065D01*
X104720022Y-113909466D01*
X104594914Y-114324236D01*
X104468724Y-114650820D01*
X104363296Y-114813660D01*
X104304781Y-114858417D01*
X104311016Y-114908665D01*
X104344202Y-114934412D01*
X104302368Y-115098164D01*
X104149379Y-115370005D01*
X103915580Y-115699583D01*
X103631313Y-116036548D01*
X103484841Y-116201168D01*
X103258492Y-116483958D01*
X103139337Y-116673890D01*
X103125136Y-116702499D01*
X102950115Y-116892964D01*
X102671306Y-117096936D01*
X102606546Y-117135406D01*
X102322643Y-117281370D01*
X102139171Y-117340694D01*
X102010812Y-117307782D01*
X101785961Y-117089545D01*
X101607952Y-116714691D01*
X101509006Y-116239524D01*
X101476223Y-115940204D01*
X101422123Y-115731115D01*
X101319789Y-115669234D01*
X101131752Y-115701079D01*
X100901051Y-115794813D01*
X100716688Y-115953217D01*
X100641469Y-116039951D01*
X100369651Y-116137925D01*
X100019192Y-116121103D01*
X99669968Y-116010035D01*
X99401858Y-115825272D01*
X99294737Y-115587367D01*
X99296827Y-115567662D01*
X99351881Y-115354681D01*
X99470457Y-114971097D01*
X99637458Y-114464323D01*
X99837789Y-113881771D01*
X100118284Y-113038055D01*
X100591015Y-111286091D01*
X100896023Y-109554831D01*
X101044540Y-107769784D01*
X101047797Y-105856459D01*
X101010416Y-104738401D01*
X100962645Y-103392349D01*
X100918493Y-102262621D01*
X100877005Y-101333739D01*
X100837221Y-100590226D01*
X100798183Y-100016605D01*
X100758935Y-99597398D01*
X100718517Y-99317127D01*
X100675972Y-99160314D01*
X100630343Y-99111483D01*
X100542261Y-99211728D01*
X100397723Y-99469504D01*
X100229287Y-99815263D01*
X100069132Y-100179449D01*
X99949441Y-100492507D01*
X99902392Y-100684882D01*
X99867996Y-100803176D01*
X99715971Y-101016702D01*
X99621152Y-101164995D01*
X99599900Y-101424781D01*
X99614657Y-101482319D01*
X99569160Y-101622252D01*
X99330580Y-101685420D01*
X99246225Y-101698637D01*
X99014798Y-101822197D01*
X98875678Y-102115649D01*
X98820192Y-102278465D01*
X98696747Y-102441417D01*
X98503134Y-102442314D01*
X98311344Y-102451940D01*
X98068164Y-102603333D01*
X97737980Y-102928678D01*
X97456822Y-103210368D01*
X96989347Y-103584030D01*
X96563659Y-103812718D01*
X96226077Y-103867665D01*
X96111318Y-103868674D01*
X96013397Y-103949896D01*
X95929988Y-104026541D01*
X95694395Y-104063875D01*
X95573359Y-104083432D01*
X95235692Y-104195526D01*
X94786781Y-104384880D01*
X94290411Y-104625957D01*
X93987629Y-104778496D01*
X93536004Y-104989405D01*
X93182171Y-105134226D01*
X92984050Y-105188038D01*
X92868715Y-105208606D01*
X92562396Y-105322435D01*
X92199782Y-105502643D01*
X91740363Y-105728925D01*
X91195157Y-105884103D01*
X90578148Y-105918413D01*
X90494173Y-105922115D01*
X90103610Y-106020511D01*
X89699462Y-106217465D01*
X89542293Y-106314422D01*
X89278064Y-106465383D01*
X89142637Y-106524880D01*
X89121992Y-106529671D01*
X88937383Y-106629024D01*
X88626887Y-106828645D01*
X88244118Y-107091126D01*
X87842688Y-107379057D01*
X87476209Y-107655026D01*
X87198293Y-107881624D01*
X86777034Y-108251495D01*
X86777034Y-107509719D01*
X86787939Y-107166111D01*
X86822418Y-106878454D01*
X86872280Y-106767942D01*
X86983727Y-106725011D01*
X87249481Y-106581844D01*
X87596735Y-106372966D01*
X87994648Y-106124664D01*
X88518785Y-105800017D01*
X89019636Y-105491866D01*
X89065425Y-105463664D01*
X89499805Y-105169493D01*
X89740040Y-104939426D01*
X89814320Y-104747041D01*
X89906868Y-104517830D01*
X90210287Y-104344642D01*
X90570556Y-104202316D01*
X90909091Y-104050564D01*
X91068382Y-103987780D01*
X91431210Y-103905947D01*
X91814349Y-103871229D01*
X92132769Y-103888897D01*
X92301444Y-103964225D01*
X92449668Y-104011803D01*
X92767041Y-103917979D01*
X92965229Y-103838894D01*
X93373843Y-103686716D01*
X93895370Y-103499518D01*
X94463908Y-103301252D01*
X94554066Y-103269956D01*
X95303751Y-102980906D01*
X95914210Y-102692575D01*
X96361285Y-102419474D01*
X96620821Y-102176111D01*
X96668659Y-101976996D01*
X96661661Y-101932983D01*
X96771778Y-101723551D01*
X97076305Y-101456909D01*
X97230720Y-101335068D01*
X97441928Y-101118404D01*
X97504014Y-100970414D01*
X97506252Y-100941258D01*
X97602699Y-100740883D01*
X97813792Y-100400095D01*
X98114451Y-99957897D01*
X98479597Y-99453290D01*
X98598167Y-99293234D01*
X98961202Y-98793893D01*
X99263746Y-98363997D01*
X99477049Y-98044986D01*
X99572357Y-97878299D01*
X99579936Y-97846673D01*
X99551021Y-97588735D01*
X99426304Y-97270643D01*
X99357778Y-97134171D01*
X99175419Y-96689231D01*
X99058870Y-96278600D01*
X99035190Y-95990832D01*
X99034840Y-95950650D01*
X98974694Y-95745430D01*
X98821905Y-95390243D01*
X98569235Y-94869965D01*
X98209449Y-94169472D01*
X97735313Y-93273638D01*
X97579750Y-92975513D01*
X97275048Y-92356841D01*
X96999858Y-91757403D01*
X96799199Y-91273397D01*
X96790926Y-91251423D01*
X96600053Y-90752904D01*
X96471028Y-90448335D01*
X96383832Y-90304267D01*
X96318447Y-90287251D01*
X96254856Y-90363839D01*
X96199694Y-90422555D01*
X96033730Y-90434576D01*
X96015453Y-90416614D01*
X95910917Y-90216302D01*
X95762651Y-89844113D01*
X95586667Y-89349593D01*
X95398977Y-88782285D01*
X95215593Y-88191735D01*
X95052526Y-87627487D01*
X94925787Y-87139086D01*
X94851389Y-86776076D01*
X94811083Y-86538452D01*
X94756209Y-86362053D01*
X94694380Y-86391009D01*
X94613775Y-86636645D01*
X94502574Y-87110287D01*
X94452010Y-87285767D01*
X94338799Y-87426923D01*
X94206225Y-87329585D01*
X94061107Y-86995527D01*
X93988957Y-86594936D01*
X93968834Y-85985040D01*
X94000271Y-85228747D01*
X94076765Y-84371344D01*
X94191811Y-83458116D01*
X94338904Y-82534350D01*
X94511539Y-81645334D01*
X94703212Y-80836354D01*
X94907418Y-80152697D01*
X95117652Y-79639649D01*
X95156854Y-79566983D01*
X95432619Y-79188584D01*
X95747477Y-78918721D01*
X96036313Y-78815789D01*
X96157920Y-78782534D01*
X96272131Y-78603110D01*
X96351414Y-77841834D01*
X96467353Y-77273206D01*
X96626951Y-76870142D01*
X96732907Y-76636347D01*
X96764613Y-76464943D01*
X96762413Y-76450047D01*
X96803634Y-76247168D01*
X96919592Y-75906018D01*
X97081870Y-75495365D01*
X97262052Y-75083980D01*
X97431722Y-74740634D01*
X97562461Y-74534097D01*
X97581910Y-74511683D01*
X97682943Y-74320422D01*
X97593302Y-74136842D01*
X97584728Y-74126384D01*
X97502339Y-73941328D01*
X97612153Y-73739586D01*
X97773284Y-73509834D01*
X97955513Y-73190822D01*
X98028352Y-73063081D01*
X98172845Y-72888076D01*
X98393312Y-72708036D01*
X98725829Y-72498531D01*
X99206470Y-72235130D01*
X99871309Y-71893403D01*
X100403145Y-71645707D01*
X101384243Y-71320301D01*
X102317398Y-71201044D01*
X103243048Y-71280587D01*
X103352150Y-71302476D01*
X103897312Y-71452664D01*
X104346441Y-71641795D01*
X104651297Y-71845762D01*
X104763636Y-72040456D01*
X104791617Y-72135212D01*
X104986827Y-72404802D01*
X105349470Y-72773722D01*
X105857333Y-73218057D01*
X105985455Y-73328718D01*
X106174639Y-73519481D01*
X106221926Y-73615207D01*
X106181779Y-73644967D01*
X105987428Y-73788390D01*
X105703226Y-73997765D01*
X105560910Y-74112356D01*
X105365802Y-74322873D01*
X105324198Y-74462790D01*
X105358823Y-74572104D01*
X105405303Y-74875826D01*
X105437428Y-75275204D01*
X105438920Y-75304759D01*
X105483313Y-76016158D01*
X105538876Y-76664387D01*
X105600512Y-77204516D01*
X105663125Y-77591616D01*
X105721619Y-77780757D01*
X105755008Y-77842074D01*
X105797640Y-78086603D01*
X105835883Y-78208066D01*
X106015228Y-78493254D01*
X106312476Y-78879308D01*
X106695930Y-79325772D01*
X107133895Y-79792191D01*
X107169939Y-79832943D01*
X107360738Y-80135406D01*
X107569784Y-80573871D01*
X107757919Y-81068267D01*
X107812295Y-81231076D01*
X107955453Y-81650405D01*
X108063020Y-81951919D01*
X108114999Y-82079019D01*
X108230559Y-82052704D01*
X108472142Y-81893814D01*
X108792241Y-81641464D01*
X109144331Y-81336051D01*
X109481884Y-81017974D01*
X109758373Y-80727634D01*
X109927272Y-80505428D01*
X110046590Y-80313455D01*
X110261929Y-79984999D01*
X110520477Y-79601490D01*
X110581542Y-79509508D01*
X110845980Y-79064794D01*
X111122437Y-78540883D01*
X111384112Y-77995661D01*
X111604205Y-77487014D01*
X111755915Y-77072829D01*
X111812440Y-76810994D01*
X111861841Y-76582868D01*
X111994680Y-76282387D01*
X112011741Y-76251252D01*
X112156532Y-75953953D01*
X112347806Y-75525779D01*
X112548920Y-75048325D01*
X112595929Y-74933234D01*
X112772072Y-74503653D01*
X112909570Y-74170848D01*
X112981939Y-73999000D01*
X112986648Y-73954873D01*
X112853478Y-73903548D01*
X112504301Y-73921871D01*
X112352837Y-73933932D01*
X112046817Y-73922418D01*
X111890699Y-73861319D01*
X111877608Y-73827034D01*
X111929272Y-73626112D01*
X112101654Y-73387279D01*
X112328430Y-73187522D01*
X112543275Y-73103827D01*
X112673417Y-73085700D01*
X112845455Y-72982296D01*
X112911995Y-72921583D01*
X113136115Y-72860765D01*
X113178475Y-72854932D01*
X113415143Y-72708799D01*
X113712942Y-72398884D01*
X114034067Y-71969050D01*
X114340714Y-71463158D01*
X114449467Y-71216074D01*
X114604918Y-70778344D01*
X114774383Y-70240247D01*
X114939009Y-69667744D01*
X115079941Y-69126793D01*
X115178326Y-68683353D01*
X115215311Y-68403386D01*
X115158211Y-68288412D01*
X114941866Y-68310255D01*
X114668421Y-68394306D01*
X114934000Y-68105765D01*
X114983356Y-68044514D01*
X115180730Y-67685291D01*
X115400976Y-67140723D01*
X115632699Y-66453686D01*
X115757039Y-66031734D01*
X118197475Y-66031734D01*
X118215661Y-66253012D01*
X118222676Y-66267798D01*
X118361496Y-66355924D01*
X118674951Y-66404639D01*
X119196442Y-66419617D01*
X120113290Y-66419617D01*
X120025351Y-64566268D01*
X120004342Y-64134751D01*
X119959548Y-63329426D01*
X119913359Y-62725805D01*
X119860111Y-62295348D01*
X119794139Y-62009514D01*
X119709778Y-61839764D01*
X119601363Y-61757557D01*
X119463228Y-61734353D01*
X119241839Y-61709652D01*
X119002024Y-61631035D01*
X118927128Y-61588554D01*
X118835560Y-61578335D01*
X118775863Y-61683703D01*
X118730741Y-61946873D01*
X118682903Y-62410064D01*
X118643662Y-62770974D01*
X118565326Y-63360103D01*
X118482868Y-63867464D01*
X118389952Y-64394366D01*
X118289706Y-65057002D01*
X118223852Y-65617927D01*
X118197475Y-66031734D01*
X115757039Y-66031734D01*
X115864502Y-65667057D01*
X116084989Y-64823711D01*
X116282763Y-63966524D01*
X116446428Y-63138371D01*
X116564588Y-62382127D01*
X116625846Y-61740670D01*
X116636646Y-61559336D01*
X116673669Y-61114504D01*
X116687933Y-60997369D01*
X119024071Y-60997369D01*
X119089962Y-61072248D01*
X119125609Y-61067711D01*
X119286603Y-60950717D01*
X119306072Y-60904065D01*
X119240182Y-60829186D01*
X119204535Y-60833724D01*
X119043541Y-60950717D01*
X119024071Y-60997369D01*
X116687933Y-60997369D01*
X116715814Y-60768421D01*
X116719133Y-60747712D01*
X116767051Y-60429403D01*
X116832800Y-59971253D01*
X116903181Y-59465088D01*
X116960584Y-59073100D01*
X117255955Y-57590853D01*
X117688888Y-56088842D01*
X117698293Y-56059945D01*
X117876681Y-55417657D01*
X118057651Y-54611320D01*
X118230259Y-53707398D01*
X118383559Y-52772354D01*
X118506609Y-51872653D01*
X118588465Y-51074758D01*
X118618182Y-50445133D01*
X118618182Y-49442395D01*
X117402156Y-49228794D01*
X116665735Y-49113837D01*
X115715460Y-49025844D01*
X114887178Y-49035954D01*
X114121531Y-49142610D01*
X114067930Y-49153496D01*
X113658986Y-49233982D01*
X113091455Y-49342959D01*
X112433097Y-49467503D01*
X111751675Y-49594687D01*
X111539278Y-49634228D01*
X110933231Y-49749239D01*
X110420185Y-49849752D01*
X110048852Y-49926099D01*
X109867943Y-49968610D01*
X109776112Y-49986577D01*
X109807177Y-49918675D01*
X109843899Y-49890972D01*
X110082256Y-49772013D01*
X110509990Y-49608512D01*
X111142387Y-49394926D01*
X111994737Y-49125714D01*
X112399032Y-49000824D01*
X113040654Y-48802646D01*
X113747095Y-48584468D01*
X114425359Y-48375011D01*
X114903906Y-48225064D01*
X115710986Y-47965497D01*
X116522811Y-47697884D01*
X117220574Y-47461071D01*
X117712302Y-47291449D01*
X118211735Y-47121163D01*
X118595474Y-46992532D01*
X118806627Y-46924792D01*
X118849712Y-46909617D01*
X119099310Y-46681829D01*
X119259838Y-46262800D01*
X119327103Y-45684646D01*
X119296912Y-44979483D01*
X119165072Y-44179426D01*
X119073245Y-43759945D01*
X119002431Y-43358594D01*
X119015437Y-43121405D01*
X119133799Y-43005308D01*
X119379051Y-42967235D01*
X119772727Y-42964115D01*
X120562680Y-42964115D01*
X120601578Y-43754067D01*
X120697636Y-42990587D01*
X122149297Y-42971807D01*
X122626069Y-42966281D01*
X123143152Y-42978714D01*
X123457806Y-43045523D01*
X123590555Y-43200159D01*
X123561922Y-43476070D01*
X123392430Y-43906706D01*
X123102603Y-44525516D01*
X122741074Y-45318240D01*
X122163370Y-46745221D01*
X121716690Y-48084148D01*
X121417273Y-49289120D01*
X121412935Y-49311118D01*
X121369606Y-49531569D01*
X121343489Y-49719506D01*
X121343325Y-49907356D01*
X121377859Y-50127544D01*
X121455833Y-50412498D01*
X121585991Y-50794643D01*
X121777077Y-51306408D01*
X122037833Y-51980217D01*
X122377003Y-52848498D01*
X122566964Y-53343304D01*
X122783912Y-53932787D01*
X122951358Y-54417026D01*
X123055573Y-54755932D01*
X123082826Y-54909416D01*
X123024508Y-54880432D01*
X122874431Y-54676643D01*
X122658456Y-54327264D01*
X122400972Y-53869493D01*
X122180340Y-53469044D01*
X121939925Y-53051557D01*
X121757045Y-52755552D01*
X121659619Y-52627790D01*
X121613122Y-52639433D01*
X121547518Y-52827426D01*
X121496965Y-53188583D01*
X121461578Y-53679489D01*
X121441468Y-54256727D01*
X121436749Y-54876882D01*
X121447535Y-55496538D01*
X121473937Y-56072278D01*
X121516069Y-56560688D01*
X121574045Y-56918351D01*
X121647976Y-57101851D01*
X121731729Y-57151159D01*
X121940354Y-57078265D01*
X121957739Y-57064897D01*
X122197298Y-56998309D01*
X122460518Y-57055971D01*
X122658611Y-57200878D01*
X122702790Y-57396027D01*
X122698493Y-57422289D01*
X122739427Y-57520564D01*
X122881356Y-57643596D01*
X123145142Y-57802101D01*
X123551648Y-58006790D01*
X124121735Y-58268379D01*
X124876265Y-58597579D01*
X125836101Y-59005104D01*
X126176288Y-59157018D01*
X126371020Y-59269055D01*
X126358905Y-59311770D01*
X126153474Y-59286993D01*
X125768255Y-59196555D01*
X125216779Y-59042287D01*
X124512576Y-58826020D01*
X124222214Y-58733974D01*
X123614916Y-58545770D01*
X123177371Y-58422449D01*
X122865482Y-58356130D01*
X122635153Y-58338931D01*
X122442288Y-58362972D01*
X122242790Y-58420372D01*
X122120335Y-58464530D01*
X121859760Y-58593302D01*
X121757454Y-58702392D01*
X121733331Y-58798207D01*
X121601408Y-59006220D01*
X121535601Y-59089113D01*
X121424554Y-59295838D01*
X121349064Y-59577238D01*
X121303144Y-59975340D01*
X121280806Y-60532172D01*
X121278477Y-60904065D01*
X121276061Y-61289762D01*
X121276350Y-61364388D01*
X121294174Y-62217901D01*
X121335771Y-63070178D01*
X121396808Y-63872854D01*
X121472953Y-64577566D01*
X121559872Y-65135952D01*
X121653233Y-65499647D01*
X121655437Y-65505429D01*
X121762770Y-65711189D01*
X121925154Y-65779525D01*
X122232879Y-65749328D01*
X122318161Y-65735697D01*
X122552068Y-65708462D01*
X122586482Y-65745998D01*
X122453566Y-65865192D01*
X122270978Y-65983848D01*
X122058590Y-66055024D01*
X121969769Y-66094124D01*
X121899522Y-66282918D01*
X121905261Y-66337391D01*
X121961389Y-66419617D01*
X121961736Y-66420126D01*
X122109681Y-66485308D01*
G37*
%TO.C,J5*%
X71189465Y-138985000D02*
X68529465Y-138985000D01*
X69859465Y-118545000D02*
X68529465Y-118545000D01*
X71189465Y-121145000D02*
X68529465Y-121145000D01*
X71189465Y-121145000D02*
X71189465Y-138985000D01*
X68529465Y-121145000D02*
X68529465Y-138985000D01*
X68529465Y-118545000D02*
X68529465Y-119875000D01*
%TD*%
%LPC*%
D12*
%TO.C,J1*%
X141500000Y-99500000D03*
D13*
X138960000Y-99500000D03*
%TD*%
D12*
%TO.C,J12*%
X128525000Y-121156142D03*
D13*
X125985000Y-121156142D03*
%TD*%
D14*
%TO.C,BT1*%
X79650000Y-61790000D03*
X134850000Y-45790000D03*
D15*
X71320000Y-45790000D03*
%TD*%
D16*
%TO.C,J8*%
X65700000Y-106021315D03*
D17*
X60060000Y-114186315D03*
X64450000Y-113826315D03*
X64450000Y-105566315D03*
X60060000Y-105206315D03*
D18*
X65050000Y-112496315D03*
X64350000Y-112096315D03*
X64350000Y-111296315D03*
X65050000Y-110896315D03*
X64350000Y-110496315D03*
X65050000Y-110096315D03*
X65050000Y-109296315D03*
X64350000Y-108896315D03*
X65050000Y-108496315D03*
X64350000Y-108096315D03*
X64350000Y-107296315D03*
X65050000Y-106896315D03*
%TD*%
D19*
%TO.C,J3*%
X59275636Y-95161938D03*
D20*
X61975636Y-101186938D03*
X61975636Y-96336938D03*
D19*
X59275636Y-102361938D03*
%TD*%
D14*
%TO.C,BT2*%
X134850000Y-68500000D03*
D15*
X71320000Y-68500000D03*
D14*
X79650000Y-84500000D03*
%TD*%
D12*
%TO.C,J15*%
X141025000Y-117106142D03*
D13*
X138485000Y-117106142D03*
%TD*%
D12*
%TO.C,J14*%
X141025000Y-113306142D03*
D13*
X138485000Y-113306142D03*
%TD*%
D12*
%TO.C,J16*%
X141012716Y-120906142D03*
D13*
X138472716Y-120906142D03*
%TD*%
D12*
%TO.C,J11*%
X128525000Y-117356142D03*
D13*
X125985000Y-117356142D03*
%TD*%
D12*
%TO.C,J13*%
X141025000Y-109506142D03*
D13*
X138485000Y-109506142D03*
%TD*%
D12*
%TO.C,J9*%
X128525000Y-109756142D03*
D13*
X125985000Y-109756142D03*
%TD*%
D12*
%TO.C,J10*%
X128525000Y-113556142D03*
D13*
X125985000Y-113556142D03*
%TD*%
D12*
%TO.C,J4*%
X92725000Y-119875000D03*
D13*
X92725000Y-122415000D03*
X92725000Y-124955000D03*
X92725000Y-127495000D03*
X92725000Y-130035000D03*
X92725000Y-132575000D03*
X92725000Y-135115000D03*
X92725000Y-137655000D03*
%TD*%
D12*
%TO.C,J7*%
X149540000Y-135210000D03*
D13*
X149540000Y-137750000D03*
X147000000Y-135210000D03*
X147000000Y-137750000D03*
X144460000Y-135210000D03*
X144460000Y-137750000D03*
X141920000Y-135210000D03*
X141920000Y-137750000D03*
X139380000Y-135210000D03*
X139380000Y-137750000D03*
X136840000Y-135210000D03*
X136840000Y-137750000D03*
X134300000Y-135210000D03*
X134300000Y-137750000D03*
X131760000Y-135210000D03*
X131760000Y-137750000D03*
X129220000Y-135210000D03*
X129220000Y-137750000D03*
X126680000Y-135210000D03*
X126680000Y-137750000D03*
X124140000Y-135210000D03*
X124140000Y-137750000D03*
X121600000Y-135210000D03*
X121600000Y-137750000D03*
X119060000Y-135210000D03*
X119060000Y-137750000D03*
X116520000Y-135210000D03*
X116520000Y-137750000D03*
X113980000Y-135210000D03*
X113980000Y-137750000D03*
X111440000Y-135210000D03*
X111440000Y-137750000D03*
X108900000Y-135210000D03*
X108900000Y-137750000D03*
X106360000Y-135210000D03*
X106360000Y-137750000D03*
X103820000Y-135210000D03*
X103820000Y-137750000D03*
X101280000Y-135210000D03*
X101280000Y-137750000D03*
%TD*%
D12*
%TO.C,J5*%
X69859465Y-119875000D03*
D13*
X69859465Y-122415000D03*
X69859465Y-124955000D03*
X69859465Y-127495000D03*
X69859465Y-130035000D03*
X69859465Y-132575000D03*
X69859465Y-135115000D03*
X69859465Y-137655000D03*
%TD*%
M02*
