%TF.GenerationSoftware,KiCad,Pcbnew,(6.0.8)*%
%TF.CreationDate,2023-04-19T22:42:55+02:00*%
%TF.ProjectId,Group22_Power,47726f75-7032-4325-9f50-6f7765722e6b,rev?*%
%TF.SameCoordinates,Original*%
%TF.FileFunction,Soldermask,Top*%
%TF.FilePolarity,Negative*%
%FSLAX46Y46*%
G04 Gerber Fmt 4.6, Leading zero omitted, Abs format (unit mm)*
G04 Created by KiCad (PCBNEW (6.0.8)) date 2023-04-19 22:42:55*
%MOMM*%
%LPD*%
G01*
G04 APERTURE LIST*
G04 Aperture macros list*
%AMRoundRect*
0 Rectangle with rounded corners*
0 $1 Rounding radius*
0 $2 $3 $4 $5 $6 $7 $8 $9 X,Y pos of 4 corners*
0 Add a 4 corners polygon primitive as box body*
4,1,4,$2,$3,$4,$5,$6,$7,$8,$9,$2,$3,0*
0 Add four circle primitives for the rounded corners*
1,1,$1+$1,$2,$3*
1,1,$1+$1,$4,$5*
1,1,$1+$1,$6,$7*
1,1,$1+$1,$8,$9*
0 Add four rect primitives between the rounded corners*
20,1,$1+$1,$2,$3,$4,$5,0*
20,1,$1+$1,$4,$5,$6,$7,0*
20,1,$1+$1,$6,$7,$8,$9,0*
20,1,$1+$1,$8,$9,$2,$3,0*%
%AMFreePoly0*
4,1,9,3.862500,-0.866500,0.737500,-0.866500,0.737500,-0.450000,-0.737500,-0.450000,-0.737500,0.450000,0.737500,0.450000,0.737500,0.866500,3.862500,0.866500,3.862500,-0.866500,3.862500,-0.866500,$1*%
%AMFreePoly1*
4,1,22,0.500000,-0.750000,0.000000,-0.750000,0.000000,-0.745033,-0.079941,-0.743568,-0.215256,-0.701293,-0.333266,-0.622738,-0.424486,-0.514219,-0.481581,-0.384460,-0.499164,-0.250000,-0.500000,-0.250000,-0.500000,0.250000,-0.499164,0.250000,-0.499963,0.256109,-0.478152,0.396186,-0.417904,0.524511,-0.324060,0.630769,-0.204165,0.706417,-0.067858,0.745374,0.000000,0.744959,0.000000,0.750000,
0.500000,0.750000,0.500000,-0.750000,0.500000,-0.750000,$1*%
%AMFreePoly2*
4,1,20,0.000000,0.744959,0.073905,0.744508,0.209726,0.703889,0.328688,0.626782,0.421226,0.519385,0.479903,0.390333,0.500000,0.250000,0.500000,-0.250000,0.499851,-0.262216,0.476331,-0.402017,0.414519,-0.529596,0.319384,-0.634700,0.198574,-0.708877,0.061801,-0.746166,0.000000,-0.745033,0.000000,-0.750000,-0.500000,-0.750000,-0.500000,0.750000,0.000000,0.750000,0.000000,0.744959,
0.000000,0.744959,$1*%
%AMFreePoly3*
4,1,6,0.500000,-0.850000,-0.500000,-0.850000,-0.500000,0.550000,-0.200000,0.850000,0.500000,0.850000,0.500000,-0.850000,0.500000,-0.850000,$1*%
G04 Aperture macros list end*
%ADD10R,1.700000X1.700000*%
%ADD11O,1.700000X1.700000*%
%ADD12RoundRect,0.135000X0.185000X-0.135000X0.185000X0.135000X-0.185000X0.135000X-0.185000X-0.135000X0*%
%ADD13RoundRect,0.250000X-0.450000X0.262500X-0.450000X-0.262500X0.450000X-0.262500X0.450000X0.262500X0*%
%ADD14C,2.000000*%
%ADD15RoundRect,0.250000X-0.262500X-0.450000X0.262500X-0.450000X0.262500X0.450000X-0.262500X0.450000X0*%
%ADD16R,1.300000X0.900000*%
%ADD17FreePoly0,180.000000*%
%ADD18RoundRect,0.140000X0.140000X0.170000X-0.140000X0.170000X-0.140000X-0.170000X0.140000X-0.170000X0*%
%ADD19RoundRect,0.218750X-0.218750X-0.256250X0.218750X-0.256250X0.218750X0.256250X-0.218750X0.256250X0*%
%ADD20RoundRect,0.250000X0.475000X-0.250000X0.475000X0.250000X-0.475000X0.250000X-0.475000X-0.250000X0*%
%ADD21RoundRect,0.150000X0.587500X0.150000X-0.587500X0.150000X-0.587500X-0.150000X0.587500X-0.150000X0*%
%ADD22C,3.450000*%
%ADD23C,2.390000*%
%ADD24R,7.340000X6.350000*%
%ADD25RoundRect,0.200000X-0.200000X-0.275000X0.200000X-0.275000X0.200000X0.275000X-0.200000X0.275000X0*%
%ADD26RoundRect,0.200000X-0.275000X0.200000X-0.275000X-0.200000X0.275000X-0.200000X0.275000X0.200000X0*%
%ADD27RoundRect,0.140000X-0.170000X0.140000X-0.170000X-0.140000X0.170000X-0.140000X0.170000X0.140000X0*%
%ADD28RoundRect,0.200000X0.200000X0.275000X-0.200000X0.275000X-0.200000X-0.275000X0.200000X-0.275000X0*%
%ADD29C,0.700000*%
%ADD30O,1.600000X1.000000*%
%ADD31R,1.100000X0.350000*%
%ADD32C,0.650000*%
%ADD33FreePoly1,0.000000*%
%ADD34FreePoly2,0.000000*%
%ADD35R,1.250000X0.400000*%
%ADD36R,1.350000X0.600000*%
%ADD37O,1.900000X1.070000*%
%ADD38C,1.300000*%
%ADD39RoundRect,0.225000X0.250000X-0.225000X0.250000X0.225000X-0.250000X0.225000X-0.250000X-0.225000X0*%
%ADD40RoundRect,0.135000X0.135000X0.185000X-0.135000X0.185000X-0.135000X-0.185000X0.135000X-0.185000X0*%
%ADD41RoundRect,0.225000X0.225000X0.250000X-0.225000X0.250000X-0.225000X-0.250000X0.225000X-0.250000X0*%
%ADD42RoundRect,0.150000X0.825000X0.150000X-0.825000X0.150000X-0.825000X-0.150000X0.825000X-0.150000X0*%
%ADD43R,2.300000X2.300000*%
%ADD44R,1.200000X0.900000*%
%ADD45RoundRect,0.225000X-0.225000X-0.250000X0.225000X-0.250000X0.225000X0.250000X-0.225000X0.250000X0*%
%ADD46RoundRect,0.062500X-0.350000X-0.062500X0.350000X-0.062500X0.350000X0.062500X-0.350000X0.062500X0*%
%ADD47R,1.200000X2.000000*%
%ADD48R,1.600000X3.500000*%
%ADD49RoundRect,0.243750X-0.243750X-0.456250X0.243750X-0.456250X0.243750X0.456250X-0.243750X0.456250X0*%
%ADD50R,0.550000X0.250000*%
%ADD51FreePoly3,180.000000*%
G04 APERTURE END LIST*
D10*
%TO.C,J1*%
X141500000Y-99500000D03*
D11*
X138960000Y-99500000D03*
%TD*%
D12*
%TO.C,R12*%
X91571574Y-97241058D03*
X91571574Y-96221058D03*
%TD*%
D13*
%TO.C,R10*%
X69000000Y-111743642D03*
X69000000Y-113568642D03*
%TD*%
D14*
%TO.C,TP3*%
X99000000Y-111656142D03*
%TD*%
D15*
%TO.C,R4*%
X64868257Y-97454584D03*
X66693257Y-97454584D03*
%TD*%
D14*
%TO.C,TP7*%
X103000000Y-111656142D03*
%TD*%
D16*
%TO.C,U2*%
X127900000Y-97906142D03*
D17*
X127812500Y-96406142D03*
D16*
X127900000Y-94906142D03*
%TD*%
D10*
%TO.C,J12*%
X128525000Y-121156142D03*
D11*
X125985000Y-121156142D03*
%TD*%
D18*
%TO.C,C9*%
X71780000Y-94166142D03*
X70820000Y-94166142D03*
%TD*%
D19*
%TO.C,D3*%
X79558813Y-106136880D03*
X81133813Y-106136880D03*
%TD*%
D20*
%TO.C,C1*%
X108448019Y-97130404D03*
X108448019Y-95230404D03*
%TD*%
D14*
%TO.C,TP2*%
X95000000Y-111656142D03*
%TD*%
%TO.C,TP5*%
X110750000Y-111632996D03*
%TD*%
D21*
%TO.C,Q1*%
X88640663Y-96247117D03*
X88640663Y-94347117D03*
X86765663Y-95297117D03*
%TD*%
D20*
%TO.C,C5*%
X117600926Y-101129746D03*
X117600926Y-99229746D03*
%TD*%
D22*
%TO.C,BT1*%
X79650000Y-61790000D03*
X134850000Y-45790000D03*
D23*
X71320000Y-45790000D03*
D24*
X67920000Y-53790000D03*
X146580000Y-53790000D03*
%TD*%
D25*
%TO.C,R7*%
X78925000Y-98318161D03*
X80575000Y-98318161D03*
%TD*%
D26*
%TO.C,R2*%
X115710100Y-99154559D03*
X115710100Y-100804559D03*
%TD*%
D27*
%TO.C,C8*%
X69750812Y-99564799D03*
X69750812Y-100524799D03*
%TD*%
D28*
%TO.C,R13*%
X109273725Y-102750000D03*
X107623725Y-102750000D03*
%TD*%
D29*
%TO.C,J8*%
X65700000Y-106021315D03*
D30*
X60060000Y-114186315D03*
X64450000Y-113826315D03*
X64450000Y-105566315D03*
X60060000Y-105206315D03*
D31*
X66250000Y-106946315D03*
X66250000Y-107446315D03*
X66250000Y-107946315D03*
X66250000Y-108446315D03*
X66250000Y-108946315D03*
X66250000Y-109446315D03*
X66250000Y-109946315D03*
X66250000Y-110446315D03*
X66250000Y-110946315D03*
X66250000Y-111446315D03*
X66250000Y-111946315D03*
X66250000Y-112446315D03*
D32*
X65050000Y-112496315D03*
X64350000Y-112096315D03*
X64350000Y-111296315D03*
X65050000Y-110896315D03*
X64350000Y-110496315D03*
X65050000Y-110096315D03*
X65050000Y-109296315D03*
X64350000Y-108896315D03*
X65050000Y-108496315D03*
X64350000Y-108096315D03*
X64350000Y-107296315D03*
X65050000Y-106896315D03*
%TD*%
D28*
%TO.C,R5*%
X77472500Y-111141142D03*
X75822500Y-111141142D03*
%TD*%
D14*
%TO.C,TP6*%
X114750000Y-111632996D03*
%TD*%
D33*
%TO.C,JP1*%
X90100000Y-101250000D03*
D34*
X91400000Y-101250000D03*
%TD*%
D35*
%TO.C,J3*%
X61950636Y-97461938D03*
X61950636Y-98111938D03*
X61950636Y-98761938D03*
X61950636Y-99411938D03*
X61950636Y-100061938D03*
D36*
X59300636Y-99561938D03*
D37*
X59275636Y-95161938D03*
D36*
X59300636Y-97961938D03*
D38*
X61975636Y-101186938D03*
X61975636Y-96336938D03*
D37*
X59275636Y-102361938D03*
%TD*%
D39*
%TO.C,C7*%
X129750000Y-94931142D03*
X129750000Y-93381142D03*
%TD*%
%TO.C,C2*%
X112905423Y-103050685D03*
X112905423Y-101500685D03*
%TD*%
D40*
%TO.C,R9*%
X142260000Y-94009432D03*
X141240000Y-94009432D03*
%TD*%
D22*
%TO.C,BT2*%
X134850000Y-68500000D03*
D23*
X71320000Y-68500000D03*
D22*
X79650000Y-84500000D03*
D24*
X67920000Y-76500000D03*
X146580000Y-76500000D03*
%TD*%
D10*
%TO.C,J15*%
X141025000Y-117106142D03*
D11*
X138485000Y-117106142D03*
%TD*%
D41*
%TO.C,C4*%
X112869018Y-96797165D03*
X111319018Y-96797165D03*
%TD*%
D42*
%TO.C,U4*%
X76725000Y-99561142D03*
X76725000Y-98291142D03*
X76725000Y-97021142D03*
X76725000Y-95751142D03*
X71775000Y-95751142D03*
X71775000Y-97021142D03*
X71775000Y-98291142D03*
X71775000Y-99561142D03*
D43*
X74250000Y-97656142D03*
%TD*%
D14*
%TO.C,TP1*%
X91000000Y-111656142D03*
%TD*%
D44*
%TO.C,D4*%
X93329492Y-94345300D03*
X93329492Y-97645300D03*
%TD*%
D45*
%TO.C,C6*%
X99686631Y-97230718D03*
X101236631Y-97230718D03*
%TD*%
D46*
%TO.C,U1*%
X110485519Y-98155075D03*
X110485519Y-98655075D03*
X110485519Y-99155075D03*
X110485519Y-99655075D03*
X110485519Y-100155075D03*
X112910519Y-100155075D03*
X112910519Y-99655075D03*
X112910519Y-99155075D03*
X112910519Y-98655075D03*
X112910519Y-98155075D03*
D47*
X111698019Y-99155075D03*
%TD*%
D25*
%TO.C,R3*%
X115696264Y-102880355D03*
X117346264Y-102880355D03*
%TD*%
D10*
%TO.C,J14*%
X141025000Y-113306142D03*
D11*
X138485000Y-113306142D03*
%TD*%
D10*
%TO.C,J16*%
X141012716Y-120906142D03*
D11*
X138472716Y-120906142D03*
%TD*%
D10*
%TO.C,J11*%
X128525000Y-117356142D03*
D11*
X125985000Y-117356142D03*
%TD*%
D28*
%TO.C,R6*%
X77921313Y-106121340D03*
X76271313Y-106121340D03*
%TD*%
D39*
%TO.C,C3*%
X108538762Y-101207441D03*
X108538762Y-99657441D03*
%TD*%
D48*
%TO.C,L1*%
X110749862Y-93210018D03*
X113949862Y-93210018D03*
%TD*%
D40*
%TO.C,R8*%
X142248711Y-95522068D03*
X141228711Y-95522068D03*
%TD*%
D33*
%TO.C,JP2*%
X96998905Y-94359409D03*
D34*
X98298905Y-94359409D03*
%TD*%
D10*
%TO.C,J13*%
X141025000Y-109506142D03*
D11*
X138485000Y-109506142D03*
%TD*%
D13*
%TO.C,R1*%
X111000000Y-101500000D03*
X111000000Y-103325000D03*
%TD*%
D10*
%TO.C,J9*%
X128525000Y-109756142D03*
D11*
X125985000Y-109756142D03*
%TD*%
D10*
%TO.C,J10*%
X128525000Y-113556142D03*
D11*
X125985000Y-113556142D03*
%TD*%
D14*
%TO.C,TP4*%
X106750000Y-111632996D03*
%TD*%
D49*
%TO.C,D2*%
X79250000Y-111156142D03*
X81125000Y-111156142D03*
%TD*%
D13*
%TO.C,R11*%
X69055645Y-107160579D03*
X69055645Y-108985579D03*
%TD*%
D50*
%TO.C,U5*%
X140175000Y-95500000D03*
X140175000Y-95000000D03*
X140175000Y-94500000D03*
X140175000Y-94000000D03*
X137825000Y-94000000D03*
X137825000Y-94500000D03*
X137825000Y-95000000D03*
X137825000Y-95500000D03*
D51*
X139000000Y-94750000D03*
%TD*%
D10*
%TO.C,J4*%
X92725000Y-119875000D03*
D11*
X92725000Y-122415000D03*
X92725000Y-124955000D03*
X92725000Y-127495000D03*
X92725000Y-130035000D03*
X92725000Y-132575000D03*
X92725000Y-135115000D03*
X92725000Y-137655000D03*
%TD*%
D10*
%TO.C,J7*%
X149540000Y-135210000D03*
D11*
X149540000Y-137750000D03*
X147000000Y-135210000D03*
X147000000Y-137750000D03*
X144460000Y-135210000D03*
X144460000Y-137750000D03*
X141920000Y-135210000D03*
X141920000Y-137750000D03*
X139380000Y-135210000D03*
X139380000Y-137750000D03*
X136840000Y-135210000D03*
X136840000Y-137750000D03*
X134300000Y-135210000D03*
X134300000Y-137750000D03*
X131760000Y-135210000D03*
X131760000Y-137750000D03*
X129220000Y-135210000D03*
X129220000Y-137750000D03*
X126680000Y-135210000D03*
X126680000Y-137750000D03*
X124140000Y-135210000D03*
X124140000Y-137750000D03*
X121600000Y-135210000D03*
X121600000Y-137750000D03*
X119060000Y-135210000D03*
X119060000Y-137750000D03*
X116520000Y-135210000D03*
X116520000Y-137750000D03*
X113980000Y-135210000D03*
X113980000Y-137750000D03*
X111440000Y-135210000D03*
X111440000Y-137750000D03*
X108900000Y-135210000D03*
X108900000Y-137750000D03*
X106360000Y-135210000D03*
X106360000Y-137750000D03*
X103820000Y-135210000D03*
X103820000Y-137750000D03*
X101280000Y-135210000D03*
X101280000Y-137750000D03*
%TD*%
D10*
%TO.C,J5*%
X69859465Y-119875000D03*
D11*
X69859465Y-122415000D03*
X69859465Y-124955000D03*
X69859465Y-127495000D03*
X69859465Y-130035000D03*
X69859465Y-132575000D03*
X69859465Y-135115000D03*
X69859465Y-137655000D03*
%TD*%
M02*
